<svg xmlns="http://www.w3.org/2000/svg" xmlns:xlink="http://www.w3.org/1999/xlink" display="block" class="plt-container" width="1000.0" height="400.0">
  <style type="text/css">
  .plt-container {
   font-family: Lucida Grande, sans-serif;
   user-select: none;
   -webkit-user-select: none;
   -moz-user-select: none;
   -ms-user-select: none;
}
text {
   text-rendering: optimizeLegibility;
}
#pZNTgD9 .plot-title {
fill: #474747;
font-weight: normal;
   font-style: normal;font-family: Lucida Grande, sans-serif;
font-size: 16.0px;

}
#pZNTgD9 .plot-subtitle {
fill: #474747;
font-weight: normal;
   font-style: normal;font-family: Lucida Grande, sans-serif;
font-size: 15.0px;

}
#pZNTgD9 .plot-caption {
fill: #474747;
font-weight: normal;
   font-style: normal;font-family: Lucida Grande, sans-serif;
font-size: 13.0px;

}
#pZNTgD9 .hyperlink-element {
fill: #118ed8;
font-weight: normal;
   font-style: normal;
}
#pZNTgD9 .legend-title {
fill: #474747;
font-weight: normal;
   font-style: normal;font-family: Lucida Grande, sans-serif;
font-size: 15.0px;

}
#pZNTgD9 .legend-item {
fill: #474747;
font-weight: normal;
   font-style: normal;font-family: Lucida Grande, sans-serif;
font-size: 13.0px;

}
#pZNTgD9 .axis-title-x {
fill: #474747;
font-weight: normal;
   font-style: normal;font-family: Lucida Grande, sans-serif;
font-size: 15.0px;

}
#pZNTgD9 .axis-text-x {
fill: #474747;
font-weight: normal;
   font-style: normal;font-family: Lucida Grande, sans-serif;
font-size: 13.0px;

}
#dh7SFtk .axis-tooltip-text-x {
fill: #ffffff;
font-weight: normal;
   font-style: normal;font-family: Lucida Grande, sans-serif;
font-size: 13.0px;

}
#pZNTgD9 .axis-title-y {
fill: #474747;
font-weight: normal;
   font-style: normal;font-family: Lucida Grande, sans-serif;
font-size: 15.0px;

}
#pZNTgD9 .axis-text-y {
fill: #474747;
font-weight: normal;
   font-style: normal;font-family: Lucida Grande, sans-serif;
font-size: 13.0px;

}
#dh7SFtk .axis-tooltip-text-y {
fill: #ffffff;
font-weight: normal;
   font-style: normal;font-family: Lucida Grande, sans-serif;
font-size: 13.0px;

}
#pZNTgD9 .facet-strip-text-x {
fill: #474747;
font-weight: normal;
   font-style: normal;font-family: Lucida Grande, sans-serif;
font-size: 13.0px;

}
#pZNTgD9 .facet-strip-text-y {
fill: #474747;
font-weight: normal;
   font-style: normal;font-family: Lucida Grande, sans-serif;
font-size: 13.0px;

}
#dh7SFtk .tooltip-text {
fill: #474747;
font-weight: normal;
   font-style: normal;font-family: Lucida Grande, sans-serif;
font-size: 13.0px;

}
#dh7SFtk .tooltip-title {
fill: #474747;
font-weight: bold;
   font-style: normal;font-family: Lucida Grande, sans-serif;
font-size: 13.0px;

}
#dh7SFtk .tooltip-label {
fill: #474747;
font-weight: bold;
   font-style: normal;font-family: Lucida Grande, sans-serif;
font-size: 13.0px;

}

  </style>
  <g id="pZNTgD9">
    <path fill-rule="evenodd" fill="rgb(255,255,255)" fill-opacity="1.0" d="M0.0 0.0 L0.0 400.0 L1000.0 400.0 L1000.0 0.0 Z">
    </path>
    <g transform="translate(29.5 6.5 ) ">
      <g>
        <g transform="translate(58.95712304215423 0.0 ) ">
          <g>
            <line x1="35.3203096800644" y1="0.0" x2="35.3203096800644" y2="341.0" stroke="rgb(233,233,233)" stroke-opacity="1.0" stroke-width="1.0" fill="none">
            </line>
            <line x1="106.3159070269275" y1="0.0" x2="106.3159070269275" y2="341.0" stroke="rgb(233,233,233)" stroke-opacity="1.0" stroke-width="1.0" fill="none">
            </line>
            <line x1="177.31150437379063" y1="0.0" x2="177.31150437379063" y2="341.0" stroke="rgb(233,233,233)" stroke-opacity="1.0" stroke-width="1.0" fill="none">
            </line>
            <line x1="248.3071017206537" y1="0.0" x2="248.3071017206537" y2="341.0" stroke="rgb(233,233,233)" stroke-opacity="1.0" stroke-width="1.0" fill="none">
            </line>
            <line x1="319.3026990675168" y1="0.0" x2="319.3026990675168" y2="341.0" stroke="rgb(233,233,233)" stroke-opacity="1.0" stroke-width="1.0" fill="none">
            </line>
            <line x1="390.2982964143799" y1="0.0" x2="390.2982964143799" y2="341.0" stroke="rgb(233,233,233)" stroke-opacity="1.0" stroke-width="1.0" fill="none">
            </line>
            <line x1="461.293893761243" y1="0.0" x2="461.293893761243" y2="341.0" stroke="rgb(233,233,233)" stroke-opacity="1.0" stroke-width="1.0" fill="none">
            </line>
            <line x1="532.2894911081062" y1="0.0" x2="532.2894911081062" y2="341.0" stroke="rgb(233,233,233)" stroke-opacity="1.0" stroke-width="1.0" fill="none">
            </line>
            <line x1="603.2850884549692" y1="0.0" x2="603.2850884549692" y2="341.0" stroke="rgb(233,233,233)" stroke-opacity="1.0" stroke-width="1.0" fill="none">
            </line>
            <line x1="674.2806858018323" y1="0.0" x2="674.2806858018323" y2="341.0" stroke="rgb(233,233,233)" stroke-opacity="1.0" stroke-width="1.0" fill="none">
            </line>
            <line x1="745.2762831486954" y1="0.0" x2="745.2762831486954" y2="341.0" stroke="rgb(233,233,233)" stroke-opacity="1.0" stroke-width="1.0" fill="none">
            </line>
          </g>
        </g>
        <g transform="translate(58.95712304215423 0.0 ) ">
          <g>
            <line x1="0.0" y1="325.5" x2="777.0468129614165" y2="325.5" stroke="rgb(233,233,233)" stroke-opacity="1.0" stroke-width="1.0" fill="none">
            </line>
            <line x1="0.0" y1="282.44896372428315" x2="777.0468129614165" y2="282.44896372428315" stroke="rgb(233,233,233)" stroke-opacity="1.0" stroke-width="1.0" fill="none">
            </line>
            <line x1="0.0" y1="239.39792744856626" x2="777.0468129614165" y2="239.39792744856626" stroke="rgb(233,233,233)" stroke-opacity="1.0" stroke-width="1.0" fill="none">
            </line>
            <line x1="0.0" y1="196.34689117284938" x2="777.0468129614165" y2="196.34689117284938" stroke="rgb(233,233,233)" stroke-opacity="1.0" stroke-width="1.0" fill="none">
            </line>
            <line x1="0.0" y1="153.29585489713253" x2="777.0468129614165" y2="153.29585489713253" stroke="rgb(233,233,233)" stroke-opacity="1.0" stroke-width="1.0" fill="none">
            </line>
            <line x1="0.0" y1="110.24481862141565" x2="777.0468129614165" y2="110.24481862141565" stroke="rgb(233,233,233)" stroke-opacity="1.0" stroke-width="1.0" fill="none">
            </line>
            <line x1="0.0" y1="67.19378234569876" x2="777.0468129614165" y2="67.19378234569876" stroke="rgb(233,233,233)" stroke-opacity="1.0" stroke-width="1.0" fill="none">
            </line>
            <line x1="0.0" y1="24.14274606998191" x2="777.0468129614165" y2="24.14274606998191" stroke="rgb(233,233,233)" stroke-opacity="1.0" stroke-width="1.0" fill="none">
            </line>
          </g>
        </g>
      </g>
      <g clip-path="url(#c5rS0Jg)" clip-bounds-jfx="[rect (58.95712304215423, 0.0), (777.0468129614165, 341.0)]">
        <g transform="translate(58.95712304215423 0.0 ) ">
          <g>
            <g>
              <g>
                <path d="M35.3203096800644 325.5 L35.3203096800644 325.5 L38.87008954740755 325.5 L42.41986941475071 325.5 L45.96964928209386 325.5 L49.519429149437016 325.5 L53.06920901678018 325.5 L56.618988884123326 325.5 L60.16876875146649 325.5 L63.718548618809635 325.5 L67.2683284861528 325.5 L70.81810835349594 325.5 L74.3678882208391 325.5 L77.91766808818227 325.5 L81.46744795552542 325.5 L85.01722782286856 325.5 L88.56700769021172 325.5 L92.11678755755489 325.5 L95.66656742489803 325.5 L99.21634729224118 325.5 L102.76612715958434 325.5 L106.3159070269275 325.5 L109.86568689427065 325.5 L113.41546676161381 325.5 L116.96524662895696 325.5 L120.51502649630012 325.5 L124.06480636364327 325.5 L127.61458623098643 325.5 L131.1643660983296 325.5 L134.71414596567274 325.5 L138.2639258330159 325.5 L141.81370570035904 325.5 L145.36348556770218 325.5 L148.91326543504536 325.5 L152.46304530238854 325.5 L156.01282516973168 325.5 L159.56260503707483 325.5 L163.11238490441798 325.5 L166.66216477176113 325.5 L170.21194463910427 325.5 L173.76172450644742 325.5 L177.31150437379063 325.5 L180.86128424113377 325.5 L184.41106410847692 325.5 L187.96084397582007 325.5 L191.51062384316322 325.5 L195.06040371050636 325.5 L198.6101835778495 325.5 L202.15996344519266 325.5 L205.70974331253586 325.5 L209.259523179879 325.5 L212.80930304722216 325.5 L216.3590829145653 325.5 L219.90886278190845 325.5 L223.4586426492516 325.5 L227.00842251659475 325.5 L230.55820238393795 325.5 L234.1079822512811 325.5 L237.65776211862425 325.5 L241.2075419859674 325.5 L244.75732185331054 325.5 L248.3071017206537 325.5 L251.85688158799684 325.5 L255.40666145534 325.5 L258.9564413226832 325.5 L262.50622119002634 325.5 L266.0560010573695 325.5 L269.60578092471263 325.5 L273.1555607920558 325.5 L276.7053406593989 325.5 L280.2551205267421 325.5 L283.8049003940853 325.5 L287.3546802614284 325.5 L290.9044601287716 325.5 L294.4542399961147 325.5 L298.00401986345787 325.5 L301.553799730801 325.5 L305.10357959814417 325.5 L308.6533594654873 325.5 L312.20313933283046 325.5 L315.7529192001736 325.5 L319.3026990675168 325.5 L322.85247893485996 325.5 L326.4022588022031 325.5 L329.95203866954625 325.5 L333.5018185368894 325.5 L337.05159840423255 325.5 L340.6013782715757 325.5 L344.1511581389189 325.5 L347.70093800626205 325.5 L351.2507178736052 325.5 L354.80049774094834 325.5 L358.3502776082915 325.5 L361.90005747563464 325.5 L365.4498373429778 325.5 L368.99961721032093 325.5 L372.54939707766414 325.5 L376.0991769450073 325.5 L379.64895681235043 325.5 L383.1987366796936 325.5 L386.74851654703673 325.5 L390.2982964143799 325.5 L393.848076281723 325.5 L397.39785614906623 325.5 L400.9476360164094 325.5 L404.4974158837525 325.5 L408.04719575109567 325.5 L411.5969756184388 325.5 L415.14675548578197 325.5 L418.6965353531251 325.5 L422.24631522046826 325.5 L425.79609508781147 325.5 L429.3458749551546 325.5 L432.89565482249776 325.5 L436.4454346898409 325.5 L439.99521455718406 325.5 L443.5449944245272 325.5 L447.09477429187035 325.5 L450.64455415921356 325.5 L454.1943340265567 325.5 L457.74411389389985 325.5 L461.293893761243 325.5 L464.84367362858615 325.5 L468.3934534959293 325.5 L471.94323336327244 325.5 L475.4930132306156 325.5 L479.0427930979588 325.5 L482.59257296530194 325.5 L486.1423528326451 325.5 L489.69213269998824 325.5 L493.2419125673314 325.5 L496.79169243467453 325.5 L500.3414723020177 325.5 L503.8912521693609 325.5 L507.44103203670403 325.5 L510.9908119040472 325.5 L514.5405917713904 325.5 L518.0903716387335 325.5 L521.6401515060767 325.5 L525.1899313734198 325.5 L528.739711240763 325.5 L532.2894911081062 325.5 L535.8392709754493 325.5 L539.3890508427925 325.5 L542.9388307101356 325.5 L546.4886105774788 325.5 L550.0383904448219 325.5 L553.5881703121651 325.5 L557.1379501795082 325.5 L560.6877300468514 325.5 L564.2375099141944 325.5 L567.7872897815377 325.5 L571.3370696488809 325.5 L574.886849516224 325.5 L578.4366293835672 325.5 L581.9864092509102 325.5 L585.5361891182534 325.5 L589.0859689855965 325.5 L592.6357488529397 325.5 L596.1855287202828 325.5 L599.735308587626 325.5 L603.2850884549692 325.5 L606.8348683223123 325.5 L610.3846481896555 325.5 L613.9344280569986 325.5 L617.4842079243418 325.5 L621.0339877916849 325.5 L624.5837676590281 325.5 L628.1335475263713 325.5 L631.6833273937144 325.5 L635.2331072610576 325.5 L638.7828871284007 325.5 L642.3326669957439 325.5 L645.882446863087 325.5 L649.4322267304302 325.5 L652.9820065977734 325.5 L656.5317864651165 325.5 L660.0815663324597 325.5 L663.6313461998028 325.5 L667.181126067146 325.5 L670.7309059344891 325.5 L674.2806858018323 325.5 L677.8304656691755 325.5 L681.3802455365186 325.5 L684.9300254038618 325.5 L688.4798052712049 325.5 L692.0295851385481 325.5 L695.5793650058912 325.5 L699.1291448732344 325.5 L702.6789247405775 325.5 L706.2287046079207 325.5 L709.7784844752639 325.5 L713.328264342607 325.5 L716.8780442099502 325.5 L720.4278240772933 325.5 L723.9776039446365 325.5 L727.5273838119796 325.5 L731.0771636793228 325.5 L734.626943546666 325.5 L738.1767234140091 325.5 L741.7265032813523 325.5 " fill="none" stroke-width="1.6500000000000001" stroke="rgb(228,26,28)" stroke-opacity="1.0">
                </path>
              </g>
              <g>
                <path d="M35.3203096800644 325.26090480616915 L35.3203096800644 325.26090480616915 L38.87008954740755 325.13894679153975 L42.41986941475071 324.65143341896464 L45.96964928209386 324.5750178608189 L49.519429149437016 324.47878600850146 L53.06920901678018 324.103521677088 L56.618988884123326 323.9815700512188 L60.16876875146649 323.644033502061 L63.718548618809635 323.2223941408194 L67.2683284861528 323.0014422573866 L70.81810835349594 322.6579215928645 L74.3678882208391 322.5772673681518 L77.91766808818227 322.3774670514068 L81.46744795552542 322.1890349602619 L85.01722782286856 322.09671413633123 L88.56700769021172 321.84576999344904 L92.11678755755489 321.7236146575392 L95.66656742489803 321.5604359012518 L99.21634729224118 321.41290936340863 L102.76612715958434 321.0867528260385 L106.3159070269275 320.7243299697516 L109.86568689427065 320.39992988387684 L113.41546676161381 320.28834885834306 L116.96524662895696 320.11563248164515 L120.51502649630012 320.02408900502587 L124.06480636364327 319.9048808354371 L127.61458623098643 319.81763857291054 L131.1643660983296 319.7426878412834 L134.71414596567274 319.54916043041834 L138.2639258330159 319.21711493780725 L141.81370570035904 319.08854481276586 L145.36348556770218 318.9588041993939 L148.91326543504536 318.77460447904963 L152.46304530238854 318.61067768536526 L156.01282516973168 318.55422946680636 L159.56260503707483 318.4678033868771 L163.11238490441798 318.3032675581748 L166.66216477176113 318.2334876515611 L170.21194463910427 318.1215264014654 L173.76172450644742 317.86311012148957 L177.31150437379063 317.77185078753143 L180.86128424113377 317.5042222797467 L184.41106410847692 317.44232020875734 L187.96084397582007 317.16996028125493 L191.51062384316322 316.70384284314144 L195.06040371050636 316.5922346816031 L198.6101835778495 316.4192634871243 L202.15996344519266 316.3098737154229 L205.70974331253586 315.794589502519 L209.259523179879 315.546944760094 L212.80930304722216 315.4547238471062 L216.3590829145653 315.3899838256108 L219.90886278190845 315.0299221672997 L223.4586426492516 314.61238616312835 L227.00842251659475 314.5748395798509 L230.55820238393795 314.3952682590481 L234.1079822512811 314.19099939501604 L237.65776211862425 314.0248148479371 L241.2075419859674 313.92977986290356 L244.75732185331054 313.8128713583458 L248.3071017206537 313.7260218698241 L251.85688158799684 313.6397677284284 L255.40666145534 313.5701992364151 L258.9564413226832 313.4810823702796 L262.50622119002634 313.09010857769056 L266.0560010573695 312.8802188428878 L269.60578092471263 312.45766241479345 L273.1555607920558 311.9372289460623 L276.7053406593989 311.8623387961365 L280.2551205267421 311.47247076322327 L283.8049003940853 311.0617267148683 L287.3546802614284 310.940653999701 L290.9044601287716 310.8080841916443 L294.4542399961147 310.5081409021044 L298.00401986345787 310.1715471956546 L301.553799730801 309.98082268714495 L305.10357959814417 309.6827642918596 L308.6533594654873 309.62653384400744 L312.20313933283046 309.557727414441 L315.7529192001736 309.5005483699234 L319.3026990675168 309.37838598029975 L322.85247893485996 309.3264872275552 L326.4022588022031 309.27305722225964 L329.95203866954625 308.8415368669012 L333.5018185368894 308.7859042671787 L337.05159840423255 308.556968182655 L340.6013782715757 308.394186009971 L344.1511581389189 308.25022558713914 L347.70093800626205 307.7594302791706 L351.2507178736052 307.2863903687966 L354.80049774094834 307.06071632691123 L358.3502776082915 306.7868812851269 L361.90005747563464 306.7076134142574 L365.4498373429778 306.6430579005039 L368.99961721032093 306.5510181622641 L372.54939707766414 306.277984076505 L376.0991769450073 305.9661100212112 L379.64895681235043 305.883352984794 L383.1987366796936 305.29256130711724 L386.74851654703673 305.2183390169562 L390.2982964143799 305.020570600994 L393.848076281723 304.87070440722914 L397.39785614906623 304.79779182786257 L400.9476360164094 304.1053932869021 L404.4974158837525 303.96557954177126 L408.04719575109567 303.8196750819829 L411.5969756184388 303.5794206428147 L415.14675548578197 303.4011149429454 L418.6965353531251 303.30462741638837 L422.24631522046826 302.98138791536076 L425.79609508781147 302.72494983604435 L429.3458749551546 302.5339305603927 L432.89565482249776 302.3602707575108 L436.4454346898409 302.2712809089924 L439.99521455718406 301.76400193161857 L443.5449944245272 301.6031010424037 L447.09477429187035 301.30755513697983 L450.64455415921356 301.21175894866946 L454.1943340265567 301.0938788057495 L457.74411389389985 300.9682417372518 L461.293893761243 300.44145782585525 L464.84367362858615 299.3330924661534 L468.3934534959293 299.0567516938657 L471.94323336327244 298.67840089633154 L475.4930132306156 298.40572072913 L479.0427930979588 298.2774023825424 L482.59257296530194 298.0179637509669 L486.1423528326451 297.88994275110923 L489.69213269998824 297.7737996393336 L493.2419125673314 297.5301602665447 L496.79169243467453 297.2755414386905 L500.3414723020177 296.76140097976787 L503.8912521693609 296.43137816706565 L507.44103203670403 296.1567256754048 L510.9908119040472 296.0084163983706 L514.5405917713904 295.8826599559154 L518.0903716387335 295.7273666420409 L521.6401515060767 295.58239812647946 L525.1899313734198 295.3495448260934 L528.739711240763 295.288739177124 L532.2894911081062 295.1399551308701 L535.8392709754493 294.6859661605285 L539.3890508427925 294.5890964447813 L542.9388307101356 294.4165154723246 L546.4886105774788 294.1667915924414 L550.0383904448219 294.08707555825566 L553.5881703121651 294.01914312451447 L557.1379501795082 293.8669652899944 L560.6877300468514 293.6521087113727 L564.2375099141944 293.5891267771683 L567.7872897815377 293.52510139637775 L571.3370696488809 293.4753228595875 L574.886849516224 293.41017261374583 L578.4366293835672 293.29319866433764 L581.9864092509102 293.1751850619681 L585.5361891182534 293.03863675414385 L589.0859689855965 292.8308327292349 L592.6357488529397 292.7110845071441 L596.1855287202828 292.4944090030469 L599.735308587626 292.37641767438214 L603.2850884549692 292.0724100300399 L606.8348683223123 291.7886901524646 L610.3846481896555 291.5872392355239 L613.9344280569986 291.4524995789791 L617.4842079243418 291.29014424423724 L621.0339877916849 291.23986570944743 L624.5837676590281 290.91073680132456 L628.1335475263713 290.7614012722025 L631.6833273937144 290.6322320608039 L635.2331072610576 290.19989917086076 L638.7828871284007 289.97903459486656 L642.3326669957439 289.8556915285044 L645.882446863087 289.7235283975037 L649.4322267304302 289.55818023374434 L652.9820065977734 289.3718304304001 L656.5317864651165 289.0691941327441 L660.0815663324597 288.9836075694021 L663.6313461998028 288.77544262527755 L667.181126067146 288.7049517510487 L670.7309059344891 288.4908462172624 L674.2806858018323 288.3532050765174 L677.8304656691755 288.1502155426381 L681.3802455365186 288.00534471091254 L684.9300254038618 287.7182128589397 L688.4798052712049 287.482279418876 L692.0295851385481 287.373978920911 L695.5793650058912 286.9972027282887 L699.1291448732344 286.91721329745326 L702.6789247405775 286.82036488050153 L706.2287046079207 286.22630686929574 L709.7784844752639 286.1599985181217 L713.328264342607 286.077692973223 L716.8780442099502 285.9000164586422 L720.4278240772933 285.4274971223294 L723.9776039446365 284.98316660146264 L727.5273838119796 284.84350644944584 L731.0771636793228 284.5420040824087 L734.626943546666 284.44495696165137 L738.1767234140091 284.222157686763 L741.7265032813523 283.9552065339635 " fill="none" stroke-width="1.6500000000000001" stroke="rgb(55,126,184)" stroke-opacity="1.0">
                </path>
              </g>
              <g>
                <path d="M35.3203096800644 325.06230321678225 L35.3203096800644 325.06230321678225 L38.87008954740755 324.7693548665979 L42.41986941475071 324.2518720104733 L45.96964928209386 322.49501367435386 L49.519429149437016 321.7652686280414 L53.06920901678018 319.9185079186884 L56.618988884123326 318.59338329436827 L60.16876875146649 316.8182045391797 L63.718548618809635 316.3454805108645 L67.2683284861528 313.604468880563 L70.81810835349594 312.9802973296107 L74.3678882208391 312.2410661382091 L77.91766808818227 311.33943074698334 L81.46744795552542 311.07024238069664 L85.01722782286856 310.600715660418 L88.56700769021172 310.29789453154723 L92.11678755755489 309.0659992072868 L95.66656742489803 306.479602159621 L99.21634729224118 306.1329370568104 L102.76612715958434 305.6428187859333 L106.3159070269275 305.11629311224044 L109.86568689427065 304.3614401843392 L113.41546676161381 304.2099636749286 L116.96524662895696 303.7729338149123 L120.51502649630012 303.28997232161026 L124.06480636364327 303.02940262793425 L127.61458623098643 302.7174075246943 L131.1643660983296 302.3187471293937 L134.71414596567274 302.01302850004896 L138.2639258330159 301.3949235929666 L141.81370570035904 301.1279001582415 L145.36348556770218 300.857105435028 L148.91326543504536 300.5630442682046 L152.46304530238854 300.12390563818803 L156.01282516973168 300.01789510324636 L159.56260503707483 299.36064571426505 L163.11238490441798 299.00081012597553 L166.66216477176113 298.55569463631497 L170.21194463910427 298.3555019766709 L173.76172450644742 298.0984086081036 L177.31150437379063 297.9073448024059 L180.86128424113377 297.7607206318492 L184.41106410847692 297.64939074568696 L187.96084397582007 297.37781510093487 L191.51062384316322 295.30411891599283 L195.06040371050636 295.1837238296965 L198.6101835778495 294.95692021506875 L202.15996344519266 294.4508369477408 L205.70974331253586 294.02464902102895 L209.259523179879 293.57993495574317 L212.80930304722216 293.2890806892853 L216.3590829145653 293.15013426204644 L219.90886278190845 292.7932549592944 L223.4586426492516 292.47690362762694 L227.00842251659475 292.3387135261854 L230.55820238393795 292.11809064467866 L234.1079822512811 291.8916733709021 L237.65776211862425 291.11905401633373 L241.2075419859674 290.85531665327517 L244.75732185331054 290.480653078649 L248.3071017206537 289.5043879631712 L251.85688158799684 289.19471227890335 L255.40666145534 289.08017335602125 L258.9564413226832 288.85729396114425 L262.50622119002634 288.5718586222366 L266.0560010573695 288.4279339916254 L269.60578092471263 288.2693176256371 L273.1555607920558 288.1047327884974 L276.7053406593989 287.95680414465176 L280.2551205267421 287.6400136430875 L283.8049003940853 286.9825727599393 L287.3546802614284 286.47275151108926 L290.9044601287716 286.23631239970246 L294.4542399961147 285.9792893939142 L298.00401986345787 285.54898346280834 L301.553799730801 284.8137750843563 L305.10357959814417 284.2033685344653 L308.6533594654873 283.96461658860903 L312.20313933283046 283.8429369688862 L315.7529192001736 283.6872895918568 L319.3026990675168 283.5492718458079 L322.85247893485996 283.40764047046275 L326.4022588022031 283.19529984163535 L329.95203866954625 282.8535799275493 L333.5018185368894 282.2157878484109 L337.05159840423255 282.0099274496896 L340.6013782715757 281.7253516271394 L344.1511581389189 281.22514267648194 L347.70093800626205 281.09504812596595 L351.2507178736052 280.59667845561034 L354.80049774094834 279.9278489867411 L358.3502776082915 279.2906044904038 L361.90005747563464 279.08854606327975 L365.4498373429778 278.6578397282941 L368.99961721032093 278.4512747029358 L372.54939707766414 278.33785259225186 L376.0991769450073 278.1297300146464 L379.64895681235043 277.88368887701864 L383.1987366796936 277.53695366603864 L386.74851654703673 277.3850504519037 L390.2982964143799 277.1849081506726 L393.848076281723 276.93106469431 L397.39785614906623 276.67943265913516 L400.9476360164094 276.4952991568784 L404.4974158837525 276.3479802542479 L408.04719575109567 276.0074394325802 L411.5969756184388 275.72039907847835 L415.14675548578197 275.4576988321109 L418.6965353531251 275.1647395948997 L422.24631522046826 274.7465232604186 L425.79609508781147 274.3028515183729 L429.3458749551546 273.8413727610536 L432.89565482249776 273.3592519068924 L436.4454346898409 273.0487154747496 L439.99521455718406 272.91208774211356 L443.5449944245272 272.7618815252402 L447.09477429187035 272.2981132699624 L450.64455415921356 271.7976473594727 L454.1943340265567 271.4790283066752 L457.74411389389985 271.10296209692103 L461.293893761243 270.8058180587602 L464.84367362858615 270.3769701939878 L468.3934534959293 270.1370198683524 L471.94323336327244 269.7673292652235 L475.4930132306156 269.45598291549817 L479.0427930979588 269.2446866648677 L482.59257296530194 268.8810070370281 L486.1423528326451 268.4819862048531 L489.69213269998824 268.1519301250308 L493.2419125673314 267.8959166563771 L496.79169243467453 267.33854769098673 L500.3414723020177 267.02173432935535 L503.8912521693609 266.48845898885816 L507.44103203670403 266.24919122153517 L510.9908119040472 265.91876482908776 L514.5405917713904 265.7238048299578 L518.0903716387335 265.5399765675815 L521.6401515060767 264.99526550042407 L525.1899313734198 264.6461099805513 L528.739711240763 264.2627083648065 L532.2894911081062 264.1250091330718 L535.8392709754493 263.87366287745675 L539.3890508427925 263.5981593007747 L542.9388307101356 263.4281994633684 L546.4886105774788 263.0690459042656 L550.0383904448219 262.7711131039779 L553.5881703121651 262.6239451871852 L557.1379501795082 262.14372838723966 L560.6877300468514 261.8035058055273 L564.2375099141944 261.667259059454 L567.7872897815377 261.1755707320836 L571.3370696488809 260.9068377474553 L574.886849516224 260.76452600372556 L578.4366293835672 260.23028383441056 L581.9864092509102 259.8908009388778 L585.5361891182534 259.5773873971302 L589.0859689855965 259.43381767999966 L592.6357488529397 259.1775483612378 L596.1855287202828 258.8128069859049 L599.735308587626 258.56806580476064 L603.2850884549692 258.2630130098114 L606.8348683223123 257.6238083536143 L610.3846481896555 257.42733282913576 L613.9344280569986 257.28744036367596 L617.4842079243418 256.94267933279116 L621.0339877916849 256.80120650188576 L624.5837676590281 256.1964844539349 L628.1335475263713 255.56670924933343 L631.6833273937144 255.41623340742393 L635.2331072610576 255.1939709759325 L638.7828871284007 254.96008772453905 L642.3326669957439 254.66801099789222 L645.882446863087 254.37758740243248 L649.4322267304302 254.12800708746238 L652.9820065977734 253.98929724131878 L656.5317864651165 253.52662653709956 L660.0815663324597 253.0205307300701 L663.6313461998028 252.35223204459373 L667.181126067146 252.20260024204953 L670.7309059344891 251.56783132599503 L674.2806858018323 251.15039604354007 L677.8304656691755 250.9115395776183 L681.3802455365186 250.68520627407838 L684.9300254038618 250.37716792112738 L688.4798052712049 250.14032560054892 L692.0295851385481 249.81542485110054 L695.5793650058912 249.4428241739228 L699.1291448732344 248.74793606655388 L702.6789247405775 248.3784391062647 L706.2287046079207 248.20598106403438 L709.7784844752639 248.07956766159418 L713.328264342607 247.90413945251925 L716.8780442099502 247.24045206014367 L720.4278240772933 246.88647879744735 L723.9776039446365 246.30419798326102 L727.5273838119796 245.27501374896798 L731.0771636793228 244.85907064269364 L734.626943546666 244.5405592585925 L738.1767234140091 244.26509127162927 L741.7265032813523 243.87240370965444 " fill="none" stroke-width="1.6500000000000001" stroke="rgb(77,175,74)" stroke-opacity="1.0">
                </path>
              </g>
              <g>
                <path d="M35.3203096800644 321.15180026793627 L35.3203096800644 321.15180026793627 L38.87008954740755 316.71478243828733 L42.41986941475071 310.8076081254096 L45.96964928209386 307.7063194223551 L49.519429149437016 304.1912406269881 L53.06920901678018 296.043204318997 L56.618988884123326 293.1348972003396 L60.16876875146649 290.4762272324283 L63.718548618809635 286.90455224257687 L67.2683284861528 277.6187516767381 L70.81810835349594 271.7884268112599 L74.3678882208391 268.32064141429464 L77.91766808818227 265.2451867003311 L81.46744795552542 260.76720101992146 L85.01722782286856 257.4270843069161 L88.56700769021172 253.4782792564397 L92.11678755755489 251.07593453275564 L95.66656742489803 242.93591882339283 L99.21634729224118 238.64276600860256 L102.76612715958434 233.59131097551403 L106.3159070269275 228.60684455980507 L109.86568689427065 225.83103626360824 L113.41546676161381 223.10150202397682 L116.96524662895696 220.62127519724476 L120.51502649630012 218.2303237403388 L124.06480636364327 214.65190856071774 L127.61458623098643 212.03997219343273 L131.1643660983296 210.15013990565254 L134.71414596567274 206.99176810775478 L138.2639258330159 204.36592174155425 L141.81370570035904 200.79992898715835 L145.36348556770218 197.60309006725413 L148.91326543504536 194.7102788661039 L152.46304530238854 190.65672247635956 L156.01282516973168 189.20806701514172 L159.56260503707483 187.05702943947884 L163.11238490441798 185.12208991742875 L166.66216477176113 182.89213571321642 L170.21194463910427 180.62171680062124 L173.76172450644742 179.06926054348116 L177.31150437379063 177.56184018470665 L180.86128424113377 176.115755472767 L184.41106410847692 175.09170922157017 L187.96084397582007 173.6299216917606 L191.51062384316322 161.45534751073384 L195.06040371050636 160.6284403631748 L198.6101835778495 158.54927472213745 L202.15996344519266 156.2325372519127 L205.70974331253586 155.51827855439717 L209.259523179879 154.19949689420588 L212.80930304722216 153.06497287581303 L216.3590829145653 151.6548145819026 L219.90886278190845 149.10129872039997 L223.4586426492516 147.3278600020238 L227.00842251659475 146.75207629659798 L230.55820238393795 145.10762683976859 L234.1079822512811 143.71961701372842 L237.65776211862425 141.84728332922714 L241.2075419859674 140.78763644088286 L244.75732185331054 138.8602010954042 L248.3071017206537 138.38215967395558 L251.85688158799684 137.59147507042923 L255.40666145534 137.00320425763582 L258.9564413226832 136.21495686005508 L262.50622119002634 134.9985844809646 L266.0560010573695 134.43753665877617 L269.60578092471263 133.55747836012665 L273.1555607920558 132.65589804807433 L276.7053406593989 132.19610633995592 L280.2551205267421 130.58354036978187 L283.8049003940853 128.26373399567174 L287.3546802614284 127.40409853296367 L290.9044601287716 126.37710888525052 L294.4542399961147 125.917476306173 L298.00401986345787 125.55772991036761 L301.553799730801 122.36855090922765 L305.10357959814417 120.81007306474791 L308.6533594654873 120.49524823838004 L312.20313933283046 120.18070625939995 L315.7529192001736 119.72047922864161 L319.3026990675168 119.40888804045917 L322.85247893485996 119.04688171046479 L326.4022588022031 118.73031190544907 L329.95203866954625 117.53010958138597 L333.5018185368894 117.25208094940012 L337.05159840423255 116.80065590065584 L340.6013782715757 115.63962496470569 L344.1511581389189 113.9855136534218 L347.70093800626205 113.6748093892912 L351.2507178736052 111.50746544824193 L354.80049774094834 107.1505734079276 L358.3502776082915 106.8658931418835 L361.90005747563464 106.57771986840626 L365.4498373429778 106.29429012944121 L368.99961721032093 105.77694872963431 L372.54939707766414 105.48002399766185 L376.0991769450073 105.00023754043451 L379.64895681235043 104.50603454506756 L383.1987366796936 103.42921565725854 L386.74851654703673 103.00630598607214 L390.2982964143799 102.48264401731092 L393.848076281723 101.81320654763405 L397.39785614906623 101.45663970239667 L400.9476360164094 101.05401639381216 L404.4974158837525 100.7718954294424 L408.04719575109567 100.35650738642411 L411.5969756184388 99.3534648323768 L415.14675548578197 99.08503744763331 L418.6965353531251 98.45088713616286 L422.24631522046826 97.15619635385542 L425.79609508781147 96.229384451372 L429.3458749551546 95.75471723036455 L432.89565482249776 94.47249674764205 L436.4454346898409 93.95721385105975 L439.99521455718406 93.50038448838438 L443.5449944245272 93.20844315110429 L447.09477429187035 92.33350928062293 L450.64455415921356 92.04159060799404 L454.1943340265567 91.26629957287884 L457.74411389389985 89.94759367842568 L461.293893761243 89.62022141635416 L464.84367362858615 89.32652813660829 L468.3934534959293 89.02181255464978 L471.94323336327244 88.40109264440531 L475.4930132306156 87.90921842651849 L479.0427930979588 87.32049121132809 L482.59257296530194 86.80282243373819 L486.1423528326451 86.38701482711258 L489.69213269998824 85.8923300741753 L493.2419125673314 85.36479735535366 L496.79169243467453 82.55222850126302 L500.3414723020177 81.7742615412858 L503.8912521693609 80.3428483823933 L507.44103203670403 79.70355995998688 L510.9908119040472 79.22548496675032 L514.5405917713904 78.71813041774456 L518.0903716387335 78.22960263127555 L521.6401515060767 76.35813023861391 L525.1899313734198 75.20667876010339 L528.739711240763 74.93775074401898 L532.2894911081062 74.61169026102604 L535.8392709754493 74.27596554278958 L539.3890508427925 73.93782779168035 L542.9388307101356 73.62743449206747 L546.4886105774788 73.24690647575088 L550.0383904448219 72.74997975866134 L553.5881703121651 72.44126760600568 L557.1379501795082 70.48304310862815 L560.6877300468514 68.88057821116718 L564.2375099141944 68.58809737735822 L567.7872897815377 68.28791490871055 L571.3370696488809 67.91781522864977 L574.886849516224 67.69692722153235 L578.4366293835672 65.80215960059951 L581.9864092509102 65.0968960617642 L585.5361891182534 64.024651175565 L589.0859689855965 63.7746139303087 L592.6357488529397 62.95500106297959 L596.1855287202828 62.159673290272565 L599.735308587626 61.8306948689015 L603.2850884549692 60.867106869960026 L606.8348683223123 60.008770469365686 L610.3846481896555 59.42841040143685 L613.9344280569986 59.10306789527061 L617.4842079243418 58.61977918604396 L621.0339877916849 58.35553844706823 L624.5837676590281 56.60979028386731 L628.1335475263713 53.99737759938421 L631.6833273937144 53.712751563498614 L635.2331072610576 53.05723250090108 L638.7828871284007 52.2616758063578 L642.3326669957439 51.304059058053554 L645.882446863087 50.03310018770571 L649.4322267304302 49.30895588553483 L652.9820065977734 48.875075105273595 L656.5317864651165 47.418023321287365 L660.0815663324597 46.86205125555182 L663.6313461998028 43.144323653855054 L667.181126067146 42.842437355500465 L670.7309059344891 40.012512240899525 L674.2806858018323 38.15204312392842 L677.8304656691755 37.42493558055952 L681.3802455365186 37.013775383116695 L684.9300254038618 35.71004884934513 L688.4798052712049 34.702915324267735 L692.0295851385481 33.86712030890067 L695.5793650058912 32.186114809029334 L699.1291448732344 31.74177393523331 L702.6789247405775 31.271578454625626 L706.2287046079207 30.69818994292092 L709.7784844752639 30.363329572654095 L713.328264342607 29.849688542599324 L716.8780442099502 26.175368510728276 L720.4278240772933 24.597999013511867 L723.9776039446365 23.984688155692083 L727.5273838119796 17.931931808266086 L731.0771636793228 17.169386750309002 L734.626943546666 16.434639916206606 L738.1767234140091 15.90885761247273 L741.7265032813523 15.5 " fill="none" stroke-width="1.6500000000000001" stroke="rgb(152,78,163)" stroke-opacity="1.0">
                </path>
              </g>
              <g>
                <path d="M35.3203096800644 325.1222213628295 L35.3203096800644 325.1222213628295 L38.87008954740755 324.7745698744132 L42.41986941475071 324.4212264267588 L45.96964928209386 324.2541656379995 L49.519429149437016 324.1239446962443 L53.06920901678018 323.7115631683988 L56.618988884123326 323.6133829581034 L60.16876875146649 323.3407083584413 L63.718548618809635 323.02121211081356 L67.2683284861528 322.6718693884541 L70.81810835349594 322.2913973419503 L74.3678882208391 322.14980461010083 L77.91766808818227 321.9767179570477 L81.46744795552542 321.66794248886043 L85.01722782286856 321.34707287026265 L88.56700769021172 321.0479447785424 L92.11678755755489 320.9281302245564 L95.66656742489803 320.75278398266886 L99.21634729224118 320.56013974973837 L102.76612715958434 320.3522278334513 L106.3159070269275 320.1608915456822 L109.86568689427065 319.9081632444627 L113.41546676161381 319.80331117122114 L116.96524662895696 319.56334312736317 L120.51502649630012 319.449775123131 L124.06480636364327 319.3532436477461 L127.61458623098643 319.17562173248865 L131.1643660983296 319.1110376963735 L134.71414596567274 318.72492930200224 L138.2639258330159 318.5003297321923 L141.81370570035904 318.3877753789377 L145.36348556770218 318.2410856467958 L148.91326543504536 318.0144057984641 L152.46304530238854 317.82720970649206 L156.01282516973168 317.7670055143189 L159.56260503707483 317.6480417487831 L163.11238490441798 317.316089763453 L166.66216477176113 317.02020082349776 L170.21194463910427 316.8837453175401 L173.76172450644742 316.7746312815168 L177.31150437379063 316.6900685139623 L180.86128424113377 316.2662938312914 L184.41106410847692 316.17084082299533 L187.96084397582007 315.98438755150136 L191.51062384316322 315.54963081283023 L195.06040371050636 315.4245553624638 L198.6101835778495 315.24815879982367 L202.15996344519266 315.03047575759246 L205.70974331253586 314.7044479401921 L209.259523179879 314.2121631801486 L212.80930304722216 314.06125393591844 L216.3590829145653 313.9258860600504 L219.90886278190845 313.50173351470477 L223.4586426492516 313.3361008316764 L227.00842251659475 313.27129966804165 L230.55820238393795 313.1199102147362 L234.1079822512811 312.95941758582387 L237.65776211862425 312.74648114199516 L241.2075419859674 312.60883582000946 L244.75732185331054 312.47970803041926 L248.3071017206537 312.21876605574744 L251.85688158799684 312.1249113707482 L255.40666145534 311.87150231306845 L258.9564413226832 311.7232077068159 L262.50622119002634 311.5536023712393 L266.0560010573695 311.3403128938624 L269.60578092471263 311.1633551713886 L273.1555607920558 310.75322612130867 L276.7053406593989 310.6637949914949 L280.2551205267421 310.2766183121024 L283.8049003940853 309.9389008427781 L287.3546802614284 309.80394067415017 L290.9044601287716 309.67096688004915 L294.4542399961147 309.5011442328066 L298.00401986345787 309.2678185733404 L301.553799730801 309.0963225539606 L305.10357959814417 308.87125296357704 L308.6533594654873 308.75504809877424 L312.20313933283046 308.6863214542422 L315.7529192001736 308.3891791285926 L319.3026990675168 308.22021543327907 L322.85247893485996 308.13295367709094 L326.4022588022031 307.93226627773646 L329.95203866954625 307.5590339147179 L333.5018185368894 307.37097924673645 L337.05159840423255 307.25143296713395 L340.6013782715757 307.08750153187634 L344.1511581389189 306.901723023446 L347.70093800626205 306.84346665714 L351.2507178736052 306.4365113282695 L354.80049774094834 306.14517174739063 L358.3502776082915 305.9908868338571 L361.90005747563464 305.9007607811314 L365.4498373429778 305.70190437832724 L368.99961721032093 305.52512475609865 L372.54939707766414 305.38578804471666 L376.0991769450073 305.1850486710867 L379.64895681235043 305.0531047983839 L383.1987366796936 304.7317803662936 L386.74851654703673 304.6593867828842 L390.2982964143799 304.45269946932774 L393.848076281723 304.23432660415267 L397.39785614906623 304.1384882284166 L400.9476360164094 303.76639814457917 L404.4974158837525 303.63562036771003 L408.04719575109567 303.4857173676055 L411.5969756184388 303.1965092258573 L415.14675548578197 302.99021574316856 L418.6965353531251 302.80258721778733 L422.24631522046826 302.4012392750511 L425.79609508781147 302.1357027464345 L429.3458749551546 301.96943609836046 L432.89565482249776 301.6907391142788 L436.4454346898409 301.55647524055775 L439.99521455718406 301.4707028084425 L443.5449944245272 301.2419755342845 L447.09477429187035 300.92571444079744 L450.64455415921356 300.8060869351876 L454.1943340265567 300.62249914348985 L457.74411389389985 300.4314678265488 L461.293893761243 300.06160051964565 L464.84367362858615 299.60026845322807 L468.3934534959293 299.4261093055551 L471.94323336327244 299.1318449581575 L475.4930132306156 299.0174902325814 L479.0427930979588 298.7493019414013 L482.59257296530194 298.5318541376088 L486.1423528326451 298.42663252267556 L489.69213269998824 298.20388040612255 L493.2419125673314 298.08894186040476 L496.79169243467453 297.7266413731904 L500.3414723020177 297.3146492455191 L503.8912521693609 296.8970776378538 L507.44103203670403 296.4097077745015 L510.9908119040472 296.25641750910734 L514.5405917713904 296.09133392543754 L518.0903716387335 295.6803327480355 L521.6401515060767 295.45793237557814 L525.1899313734198 295.2624406522479 L528.739711240763 295.1687045817572 L532.2894911081062 294.8172750211429 L535.8392709754493 294.52672089177094 L539.3890508427925 294.2057413282403 L542.9388307101356 294.0499179483414 L546.4886105774788 293.90940018103726 L550.0383904448219 293.73634516772046 L553.5881703121651 293.6524876362244 L557.1379501795082 293.4130357596629 L560.6877300468514 293.1136606615847 L564.2375099141944 293.0103283699089 L567.7872897815377 292.94375397831124 L571.3370696488809 292.8601293946925 L574.886849516224 292.758275634137 L578.4366293835672 292.56551501747924 L581.9864092509102 292.21491331534315 L585.5361891182534 292.0823561670511 L589.0859689855965 291.7863636102639 L592.6357488529397 291.4264130566184 L596.1855287202828 291.2924077922832 L599.735308587626 291.15691176125745 L603.2850884549692 290.84589933677006 L606.8348683223123 290.55831987599953 L610.3846481896555 290.39774327130306 L613.9344280569986 290.3304979803877 L617.4842079243418 290.2095616232258 L621.0339877916849 290.1182464034233 L624.5837676590281 289.48702203800264 L628.1335475263713 289.134815382024 L631.6833273937144 289.0525335100752 L635.2331072610576 288.68704830097647 L638.7828871284007 288.47381926976277 L642.3326669957439 288.38001640118017 L645.882446863087 288.2301017334787 L649.4322267304302 287.9795269150771 L652.9820065977734 287.7818758995721 L656.5317864651165 287.52717273119805 L660.0815663324597 287.39712420576745 L663.6313461998028 287.05138210471586 L667.181126067146 286.8924346671493 L670.7309059344891 286.6613721779638 L674.2806858018323 286.46387128267526 L677.8304656691755 286.32433388933526 L681.3802455365186 286.2018647088419 L684.9300254038618 285.93571634311496 L688.4798052712049 285.8141028943201 L692.0295851385481 285.64752692244974 L695.5793650058912 285.3835148489074 L699.1291448732344 285.2682713593124 L702.6789247405775 285.14694944615746 L706.2287046079207 284.814958263696 L709.7784844752639 284.70525791327634 L713.328264342607 284.57357006556776 L716.8780442099502 284.2919181174453 L720.4278240772933 283.8098704619583 L723.9776039446365 283.4433571503946 L727.5273838119796 283.17566207547907 L731.0771636793228 283.0709208740481 L734.626943546666 282.89224908135077 L738.1767234140091 282.65373229576767 L741.7265032813523 282.4644952442423 " fill="none" stroke-width="1.6500000000000001" stroke="rgb(255,127,0)" stroke-opacity="1.0">
                </path>
              </g>
            </g>
          </g>
        </g>
        <defs>
          <clipPath id="c5rS0Jg">
            <rect x="58.95712304215423" y="0.0" width="777.0468129614165" height="341.0">
            </rect>
          </clipPath>
        </defs>
      </g>
      <g>
        <g transform="translate(58.95712304215423 341.0 ) ">
          <g transform="translate(35.3203096800644 0.0 ) ">
            <line stroke-width="1.0" stroke="rgb(71,71,71)" stroke-opacity="1.0" x2="0.0" y2="4.0">
            </line>
            <g transform="translate(0.0 7.0 ) ">
              <text class="axis-text-x" text-anchor="middle" dy="0.7em" y="0.0">
                <tspan>0</tspan>
              </text>
            </g>
          </g>
          <g transform="translate(106.3159070269275 0.0 ) ">
            <line stroke-width="1.0" stroke="rgb(71,71,71)" stroke-opacity="1.0" x2="0.0" y2="4.0">
            </line>
            <g transform="translate(0.0 7.0 ) ">
              <text class="axis-text-x" text-anchor="middle" dy="0.7em" y="0.0">
                <tspan>20</tspan>
              </text>
            </g>
          </g>
          <g transform="translate(177.31150437379063 0.0 ) ">
            <line stroke-width="1.0" stroke="rgb(71,71,71)" stroke-opacity="1.0" x2="0.0" y2="4.0">
            </line>
            <g transform="translate(0.0 7.0 ) ">
              <text class="axis-text-x" text-anchor="middle" dy="0.7em" y="0.0">
                <tspan>40</tspan>
              </text>
            </g>
          </g>
          <g transform="translate(248.3071017206537 0.0 ) ">
            <line stroke-width="1.0" stroke="rgb(71,71,71)" stroke-opacity="1.0" x2="0.0" y2="4.0">
            </line>
            <g transform="translate(0.0 7.0 ) ">
              <text class="axis-text-x" text-anchor="middle" dy="0.7em" y="0.0">
                <tspan>60</tspan>
              </text>
            </g>
          </g>
          <g transform="translate(319.3026990675168 0.0 ) ">
            <line stroke-width="1.0" stroke="rgb(71,71,71)" stroke-opacity="1.0" x2="0.0" y2="4.0">
            </line>
            <g transform="translate(0.0 7.0 ) ">
              <text class="axis-text-x" text-anchor="middle" dy="0.7em" y="0.0">
                <tspan>80</tspan>
              </text>
            </g>
          </g>
          <g transform="translate(390.2982964143799 0.0 ) ">
            <line stroke-width="1.0" stroke="rgb(71,71,71)" stroke-opacity="1.0" x2="0.0" y2="4.0">
            </line>
            <g transform="translate(0.0 7.0 ) ">
              <text class="axis-text-x" text-anchor="middle" dy="0.7em" y="0.0">
                <tspan>100</tspan>
              </text>
            </g>
          </g>
          <g transform="translate(461.293893761243 0.0 ) ">
            <line stroke-width="1.0" stroke="rgb(71,71,71)" stroke-opacity="1.0" x2="0.0" y2="4.0">
            </line>
            <g transform="translate(0.0 7.0 ) ">
              <text class="axis-text-x" text-anchor="middle" dy="0.7em" y="0.0">
                <tspan>120</tspan>
              </text>
            </g>
          </g>
          <g transform="translate(532.2894911081062 0.0 ) ">
            <line stroke-width="1.0" stroke="rgb(71,71,71)" stroke-opacity="1.0" x2="0.0" y2="4.0">
            </line>
            <g transform="translate(0.0 7.0 ) ">
              <text class="axis-text-x" text-anchor="middle" dy="0.7em" y="0.0">
                <tspan>140</tspan>
              </text>
            </g>
          </g>
          <g transform="translate(603.2850884549692 0.0 ) ">
            <line stroke-width="1.0" stroke="rgb(71,71,71)" stroke-opacity="1.0" x2="0.0" y2="4.0">
            </line>
            <g transform="translate(0.0 7.0 ) ">
              <text class="axis-text-x" text-anchor="middle" dy="0.7em" y="0.0">
                <tspan>160</tspan>
              </text>
            </g>
          </g>
          <g transform="translate(674.2806858018323 0.0 ) ">
            <line stroke-width="1.0" stroke="rgb(71,71,71)" stroke-opacity="1.0" x2="0.0" y2="4.0">
            </line>
            <g transform="translate(0.0 7.0 ) ">
              <text class="axis-text-x" text-anchor="middle" dy="0.7em" y="0.0">
                <tspan>180</tspan>
              </text>
            </g>
          </g>
          <g transform="translate(745.2762831486954 0.0 ) ">
            <line stroke-width="1.0" stroke="rgb(71,71,71)" stroke-opacity="1.0" x2="0.0" y2="4.0">
            </line>
            <g transform="translate(0.0 7.0 ) ">
              <text class="axis-text-x" text-anchor="middle" dy="0.7em" y="0.0">
                <tspan>200</tspan>
              </text>
            </g>
          </g>
          <line x1="0.0" y1="0.0" x2="777.0468129614165" y2="0.0" stroke-width="1.0" stroke="rgb(71,71,71)" stroke-opacity="1.0">
          </line>
        </g>
        <g transform="translate(58.95712304215423 0.0 ) ">
          <g transform="translate(0.0 325.5 ) ">
            <g transform="translate(-3.0 0.0 ) ">
              <text class="axis-text-y" text-anchor="end" dy="0.35em" y="0.0">
                <tspan>0</tspan>
              </text>
            </g>
          </g>
          <g transform="translate(0.0 282.44896372428315 ) ">
            <g transform="translate(-3.0 0.0 ) ">
              <text class="axis-text-y" text-anchor="end" dy="0.35em" y="0.0">
                <tspan>100,000</tspan>
              </text>
            </g>
          </g>
          <g transform="translate(0.0 239.39792744856626 ) ">
            <g transform="translate(-3.0 0.0 ) ">
              <text class="axis-text-y" text-anchor="end" dy="0.35em" y="0.0">
                <tspan>200,000</tspan>
              </text>
            </g>
          </g>
          <g transform="translate(0.0 196.34689117284938 ) ">
            <g transform="translate(-3.0 0.0 ) ">
              <text class="axis-text-y" text-anchor="end" dy="0.35em" y="0.0">
                <tspan>300,000</tspan>
              </text>
            </g>
          </g>
          <g transform="translate(0.0 153.29585489713253 ) ">
            <g transform="translate(-3.0 0.0 ) ">
              <text class="axis-text-y" text-anchor="end" dy="0.35em" y="0.0">
                <tspan>400,000</tspan>
              </text>
            </g>
          </g>
          <g transform="translate(0.0 110.24481862141565 ) ">
            <g transform="translate(-3.0 0.0 ) ">
              <text class="axis-text-y" text-anchor="end" dy="0.35em" y="0.0">
                <tspan>500,000</tspan>
              </text>
            </g>
          </g>
          <g transform="translate(0.0 67.19378234569876 ) ">
            <g transform="translate(-3.0 0.0 ) ">
              <text class="axis-text-y" text-anchor="end" dy="0.35em" y="0.0">
                <tspan>600,000</tspan>
              </text>
            </g>
          </g>
          <g transform="translate(0.0 24.14274606998191 ) ">
            <g transform="translate(-3.0 0.0 ) ">
              <text class="axis-text-y" text-anchor="end" dy="0.35em" y="0.0">
                <tspan>700,000</tspan>
              </text>
            </g>
          </g>
        </g>
      </g>
    </g>
    <g transform="translate(16.0 177.0 ) rotate(-90.0 ) ">
      <text class="axis-title-y" y="0.0" text-anchor="middle">
        <tspan>Meta Regret</tspan>
      </text>
    </g>
    <g transform="translate(476.9805295228625 393.0 ) ">
      <text class="axis-title-x" y="0.0" text-anchor="middle">
        <tspan>N</tspan>
      </text>
    </g>
    <g transform="translate(877.0039360035707 103.25 ) ">
      <rect x="0.0" y="0.0" height="147.5" width="122.99606399642931" stroke="rgb(71,71,71)" stroke-opacity="1.0" stroke-width="0.0" fill="rgb(255,255,255)" fill-opacity="1.0">
      </rect>
      <g transform="translate(5.0 5.0 ) ">
        <g transform="translate(0.0 12.0 ) ">
          <text class="legend-title" y="0.0">
            <tspan>agent</tspan>
          </text>
        </g>
        <g transform="translate(0.0 22.5 ) ">
          <g transform="">
            <g>
              <g transform="translate(1.0 1.0 ) ">
                <g>
                  <line x1="0.0" y1="10.5" x2="21.0" y2="10.5" stroke="rgb(228,26,28)" stroke-opacity="1.0" fill="rgb(255,255,255)" fill-opacity="1.0" stroke-width="1.6500000000000001">
                  </line>
                </g>
              </g>
            </g>
            <g transform="translate(26.9903027277341 16.05 ) ">
              <text class="legend-item" y="0.0">
                <tspan>Clairvoyant</tspan>
              </text>
            </g>
          </g>
          <g transform="translate(0.0 23.0 ) ">
            <g>
              <g transform="translate(1.0 1.0 ) ">
                <g>
                  <line x1="0.0" y1="10.5" x2="21.0" y2="10.5" stroke="rgb(55,126,184)" stroke-opacity="1.0" fill="rgb(255,255,255)" fill-opacity="1.0" stroke-width="1.6500000000000001">
                  </line>
                </g>
              </g>
            </g>
            <g transform="translate(26.9903027277341 16.05 ) ">
              <text class="legend-item" y="0.0">
                <tspan>Greedy</tspan>
              </text>
            </g>
          </g>
          <g transform="translate(0.0 46.0 ) ">
            <g>
              <g transform="translate(1.0 1.0 ) ">
                <g>
                  <line x1="0.0" y1="10.5" x2="21.0" y2="10.5" stroke="rgb(77,175,74)" stroke-opacity="1.0" fill="rgb(255,255,255)" fill-opacity="1.0" stroke-width="1.6500000000000001">
                  </line>
                </g>
              </g>
            </g>
            <g transform="translate(26.9903027277341 16.05 ) ">
              <text class="legend-item" y="0.0">
                <tspan>MTS</tspan>
              </text>
            </g>
          </g>
          <g transform="translate(0.0 69.0 ) ">
            <g>
              <g transform="translate(1.0 1.0 ) ">
                <g>
                  <line x1="0.0" y1="10.5" x2="21.0" y2="10.5" stroke="rgb(152,78,163)" stroke-opacity="1.0" fill="rgb(255,255,255)" fill-opacity="1.0" stroke-width="1.6500000000000001">
                  </line>
                </g>
              </g>
            </g>
            <g transform="translate(26.9903027277341 16.05 ) ">
              <text class="legend-item" y="0.0">
                <tspan>RL2PPO</tspan>
              </text>
            </g>
          </g>
          <g transform="translate(0.0 92.0 ) ">
            <g>
              <g transform="translate(1.0 1.0 ) ">
                <g>
                  <line x1="0.0" y1="10.5" x2="21.0" y2="10.5" stroke="rgb(255,127,0)" stroke-opacity="1.0" fill="rgb(255,255,255)" fill-opacity="1.0" stroke-width="1.6500000000000001">
                  </line>
                </g>
              </g>
            </g>
            <g transform="translate(26.9903027277341 16.05 ) ">
              <text class="legend-item" y="0.0">
                <tspan>TS</tspan>
              </text>
            </g>
          </g>
        </g>
      </g>
    </g>
    <path fill="rgb(0,0,0)" fill-opacity="0.0" stroke="rgb(71,71,71)" stroke-opacity="1.0" stroke-width="0.0" d="M0.0 0.0 L0.0 400.0 L1000.0 400.0 L1000.0 0.0 Z" pointer-events="none">
    </path>
  </g>
  <g id="dh7SFtk">
  </g>
</svg>