<svg xmlns="http://www.w3.org/2000/svg" xmlns:xlink="http://www.w3.org/1999/xlink" display="block" class="plt-container" width="1000.0" height="400.0">
  <style type="text/css">
  .plt-container {
   font-family: Lucida Grande, sans-serif;
   user-select: none;
   -webkit-user-select: none;
   -moz-user-select: none;
   -ms-user-select: none;
}
text {
   text-rendering: optimizeLegibility;
}
#p8kPmvI .plot-title {
fill: #474747;
font-weight: normal;
   font-style: normal;font-family: Lucida Grande, sans-serif;
font-size: 16.0px;

}
#p8kPmvI .plot-subtitle {
fill: #474747;
font-weight: normal;
   font-style: normal;font-family: Lucida Grande, sans-serif;
font-size: 15.0px;

}
#p8kPmvI .plot-caption {
fill: #474747;
font-weight: normal;
   font-style: normal;font-family: Lucida Grande, sans-serif;
font-size: 13.0px;

}
#p8kPmvI .hyperlink-element {
fill: #118ed8;
font-weight: normal;
   font-style: normal;
}
#p8kPmvI .legend-title {
fill: #474747;
font-weight: normal;
   font-style: normal;font-family: Lucida Grande, sans-serif;
font-size: 15.0px;

}
#p8kPmvI .legend-item {
fill: #474747;
font-weight: normal;
   font-style: normal;font-family: Lucida Grande, sans-serif;
font-size: 13.0px;

}
#p8kPmvI .axis-title-x {
fill: #474747;
font-weight: normal;
   font-style: normal;font-family: Lucida Grande, sans-serif;
font-size: 15.0px;

}
#p8kPmvI .axis-text-x {
fill: #474747;
font-weight: normal;
   font-style: normal;font-family: Lucida Grande, sans-serif;
font-size: 13.0px;

}
#d8FS1t8 .axis-tooltip-text-x {
fill: #ffffff;
font-weight: normal;
   font-style: normal;font-family: Lucida Grande, sans-serif;
font-size: 13.0px;

}
#p8kPmvI .axis-title-y {
fill: #474747;
font-weight: normal;
   font-style: normal;font-family: Lucida Grande, sans-serif;
font-size: 15.0px;

}
#p8kPmvI .axis-text-y {
fill: #474747;
font-weight: normal;
   font-style: normal;font-family: Lucida Grande, sans-serif;
font-size: 13.0px;

}
#d8FS1t8 .axis-tooltip-text-y {
fill: #ffffff;
font-weight: normal;
   font-style: normal;font-family: Lucida Grande, sans-serif;
font-size: 13.0px;

}
#p8kPmvI .facet-strip-text-x {
fill: #474747;
font-weight: normal;
   font-style: normal;font-family: Lucida Grande, sans-serif;
font-size: 13.0px;

}
#p8kPmvI .facet-strip-text-y {
fill: #474747;
font-weight: normal;
   font-style: normal;font-family: Lucida Grande, sans-serif;
font-size: 13.0px;

}
#d8FS1t8 .tooltip-text {
fill: #474747;
font-weight: normal;
   font-style: normal;font-family: Lucida Grande, sans-serif;
font-size: 13.0px;

}
#d8FS1t8 .tooltip-title {
fill: #474747;
font-weight: bold;
   font-style: normal;font-family: Lucida Grande, sans-serif;
font-size: 13.0px;

}
#d8FS1t8 .tooltip-label {
fill: #474747;
font-weight: bold;
   font-style: normal;font-family: Lucida Grande, sans-serif;
font-size: 13.0px;

}

  </style>
  <g id="p8kPmvI">
    <path fill-rule="evenodd" fill="rgb(255,255,255)" fill-opacity="1.0" d="M0.0 0.0 L0.0 400.0 L1000.0 400.0 L1000.0 0.0 Z">
    </path>
    <g transform="translate(29.5 6.5 ) ">
      <g>
        <g transform="translate(58.95712304215423 0.0 ) ">
          <g>
            <line x1="35.3203096800644" y1="0.0" x2="35.3203096800644" y2="341.0" stroke="rgb(233,233,233)" stroke-opacity="1.0" stroke-width="1.0" fill="none">
            </line>
            <line x1="106.3159070269275" y1="0.0" x2="106.3159070269275" y2="341.0" stroke="rgb(233,233,233)" stroke-opacity="1.0" stroke-width="1.0" fill="none">
            </line>
            <line x1="177.31150437379063" y1="0.0" x2="177.31150437379063" y2="341.0" stroke="rgb(233,233,233)" stroke-opacity="1.0" stroke-width="1.0" fill="none">
            </line>
            <line x1="248.3071017206537" y1="0.0" x2="248.3071017206537" y2="341.0" stroke="rgb(233,233,233)" stroke-opacity="1.0" stroke-width="1.0" fill="none">
            </line>
            <line x1="319.3026990675168" y1="0.0" x2="319.3026990675168" y2="341.0" stroke="rgb(233,233,233)" stroke-opacity="1.0" stroke-width="1.0" fill="none">
            </line>
            <line x1="390.2982964143799" y1="0.0" x2="390.2982964143799" y2="341.0" stroke="rgb(233,233,233)" stroke-opacity="1.0" stroke-width="1.0" fill="none">
            </line>
            <line x1="461.293893761243" y1="0.0" x2="461.293893761243" y2="341.0" stroke="rgb(233,233,233)" stroke-opacity="1.0" stroke-width="1.0" fill="none">
            </line>
            <line x1="532.2894911081062" y1="0.0" x2="532.2894911081062" y2="341.0" stroke="rgb(233,233,233)" stroke-opacity="1.0" stroke-width="1.0" fill="none">
            </line>
            <line x1="603.2850884549692" y1="0.0" x2="603.2850884549692" y2="341.0" stroke="rgb(233,233,233)" stroke-opacity="1.0" stroke-width="1.0" fill="none">
            </line>
            <line x1="674.2806858018323" y1="0.0" x2="674.2806858018323" y2="341.0" stroke="rgb(233,233,233)" stroke-opacity="1.0" stroke-width="1.0" fill="none">
            </line>
            <line x1="745.2762831486954" y1="0.0" x2="745.2762831486954" y2="341.0" stroke="rgb(233,233,233)" stroke-opacity="1.0" stroke-width="1.0" fill="none">
            </line>
          </g>
        </g>
        <g transform="translate(58.95712304215423 0.0 ) ">
          <g>
            <line x1="0.0" y1="325.5" x2="777.0468129614165" y2="325.5" stroke="rgb(233,233,233)" stroke-opacity="1.0" stroke-width="1.0" fill="none">
            </line>
            <line x1="0.0" y1="283.8549552767931" x2="777.0468129614165" y2="283.8549552767931" stroke="rgb(233,233,233)" stroke-opacity="1.0" stroke-width="1.0" fill="none">
            </line>
            <line x1="0.0" y1="242.2099105535861" x2="777.0468129614165" y2="242.2099105535861" stroke="rgb(233,233,233)" stroke-opacity="1.0" stroke-width="1.0" fill="none">
            </line>
            <line x1="0.0" y1="200.56486583037918" x2="777.0468129614165" y2="200.56486583037918" stroke="rgb(233,233,233)" stroke-opacity="1.0" stroke-width="1.0" fill="none">
            </line>
            <line x1="0.0" y1="158.91982110717223" x2="777.0468129614165" y2="158.91982110717223" stroke="rgb(233,233,233)" stroke-opacity="1.0" stroke-width="1.0" fill="none">
            </line>
            <line x1="0.0" y1="117.2747763839653" x2="777.0468129614165" y2="117.2747763839653" stroke="rgb(233,233,233)" stroke-opacity="1.0" stroke-width="1.0" fill="none">
            </line>
            <line x1="0.0" y1="75.62973166075835" x2="777.0468129614165" y2="75.62973166075835" stroke="rgb(233,233,233)" stroke-opacity="1.0" stroke-width="1.0" fill="none">
            </line>
            <line x1="0.0" y1="33.98468693755143" x2="777.0468129614165" y2="33.98468693755143" stroke="rgb(233,233,233)" stroke-opacity="1.0" stroke-width="1.0" fill="none">
            </line>
          </g>
        </g>
      </g>
      <g clip-path="url(#ctSjjpG)" clip-bounds-jfx="[rect (58.95712304215423, 0.0), (777.0468129614165, 341.0)]">
        <g transform="translate(58.95712304215423 0.0 ) ">
          <g>
            <g>
              <g>
                <path d="M35.3203096800644 325.5 L35.3203096800644 325.5 L38.87008954740755 325.5 L42.41986941475071 325.5 L45.96964928209386 325.5 L49.519429149437016 325.5 L53.06920901678018 325.5 L56.618988884123326 325.5 L60.16876875146649 325.5 L63.718548618809635 325.5 L67.2683284861528 325.5 L70.81810835349594 325.5 L74.3678882208391 325.5 L77.91766808818227 325.5 L81.46744795552542 325.5 L85.01722782286856 325.5 L88.56700769021172 325.5 L92.11678755755489 325.5 L95.66656742489803 325.5 L99.21634729224118 325.5 L102.76612715958434 325.5 L106.3159070269275 325.5 L109.86568689427065 325.5 L113.41546676161381 325.5 L116.96524662895696 325.5 L120.51502649630012 325.5 L124.06480636364327 325.5 L127.61458623098643 325.5 L131.1643660983296 325.5 L134.71414596567274 325.5 L138.2639258330159 325.5 L141.81370570035904 325.5 L145.36348556770218 325.5 L148.91326543504536 325.5 L152.46304530238854 325.5 L156.01282516973168 325.5 L159.56260503707483 325.5 L163.11238490441798 325.5 L166.66216477176113 325.5 L170.21194463910427 325.5 L173.76172450644742 325.5 L177.31150437379063 325.5 L180.86128424113377 325.5 L184.41106410847692 325.5 L187.96084397582007 325.5 L191.51062384316322 325.5 L195.06040371050636 325.5 L198.6101835778495 325.5 L202.15996344519266 325.5 L205.70974331253586 325.5 L209.259523179879 325.5 L212.80930304722216 325.5 L216.3590829145653 325.5 L219.90886278190845 325.5 L223.4586426492516 325.5 L227.00842251659475 325.5 L230.55820238393795 325.5 L234.1079822512811 325.5 L237.65776211862425 325.5 L241.2075419859674 325.5 L244.75732185331054 325.5 L248.3071017206537 325.5 L251.85688158799684 325.5 L255.40666145534 325.5 L258.9564413226832 325.5 L262.50622119002634 325.5 L266.0560010573695 325.5 L269.60578092471263 325.5 L273.1555607920558 325.5 L276.7053406593989 325.5 L280.2551205267421 325.5 L283.8049003940853 325.5 L287.3546802614284 325.5 L290.9044601287716 325.5 L294.4542399961147 325.5 L298.00401986345787 325.5 L301.553799730801 325.5 L305.10357959814417 325.5 L308.6533594654873 325.5 L312.20313933283046 325.5 L315.7529192001736 325.5 L319.3026990675168 325.5 L322.85247893485996 325.5 L326.4022588022031 325.5 L329.95203866954625 325.5 L333.5018185368894 325.5 L337.05159840423255 325.5 L340.6013782715757 325.5 L344.1511581389189 325.5 L347.70093800626205 325.5 L351.2507178736052 325.5 L354.80049774094834 325.5 L358.3502776082915 325.5 L361.90005747563464 325.5 L365.4498373429778 325.5 L368.99961721032093 325.5 L372.54939707766414 325.5 L376.0991769450073 325.5 L379.64895681235043 325.5 L383.1987366796936 325.5 L386.74851654703673 325.5 L390.2982964143799 325.5 L393.848076281723 325.5 L397.39785614906623 325.5 L400.9476360164094 325.5 L404.4974158837525 325.5 L408.04719575109567 325.5 L411.5969756184388 325.5 L415.14675548578197 325.5 L418.6965353531251 325.5 L422.24631522046826 325.5 L425.79609508781147 325.5 L429.3458749551546 325.5 L432.89565482249776 325.5 L436.4454346898409 325.5 L439.99521455718406 325.5 L443.5449944245272 325.5 L447.09477429187035 325.5 L450.64455415921356 325.5 L454.1943340265567 325.5 L457.74411389389985 325.5 L461.293893761243 325.5 L464.84367362858615 325.5 L468.3934534959293 325.5 L471.94323336327244 325.5 L475.4930132306156 325.5 L479.0427930979588 325.5 L482.59257296530194 325.5 L486.1423528326451 325.5 L489.69213269998824 325.5 L493.2419125673314 325.5 L496.79169243467453 325.5 L500.3414723020177 325.5 L503.8912521693609 325.5 L507.44103203670403 325.5 L510.9908119040472 325.5 L514.5405917713904 325.5 L518.0903716387335 325.5 L521.6401515060767 325.5 L525.1899313734198 325.5 L528.739711240763 325.5 L532.2894911081062 325.5 L535.8392709754493 325.5 L539.3890508427925 325.5 L542.9388307101356 325.5 L546.4886105774788 325.5 L550.0383904448219 325.5 L553.5881703121651 325.5 L557.1379501795082 325.5 L560.6877300468514 325.5 L564.2375099141944 325.5 L567.7872897815377 325.5 L571.3370696488809 325.5 L574.886849516224 325.5 L578.4366293835672 325.5 L581.9864092509102 325.5 L585.5361891182534 325.5 L589.0859689855965 325.5 L592.6357488529397 325.5 L596.1855287202828 325.5 L599.735308587626 325.5 L603.2850884549692 325.5 L606.8348683223123 325.5 L610.3846481896555 325.5 L613.9344280569986 325.5 L617.4842079243418 325.5 L621.0339877916849 325.5 L624.5837676590281 325.5 L628.1335475263713 325.5 L631.6833273937144 325.5 L635.2331072610576 325.5 L638.7828871284007 325.5 L642.3326669957439 325.5 L645.882446863087 325.5 L649.4322267304302 325.5 L652.9820065977734 325.5 L656.5317864651165 325.5 L660.0815663324597 325.5 L663.6313461998028 325.5 L667.181126067146 325.5 L670.7309059344891 325.5 L674.2806858018323 325.5 L677.8304656691755 325.5 L681.3802455365186 325.5 L684.9300254038618 325.5 L688.4798052712049 325.5 L692.0295851385481 325.5 L695.5793650058912 325.5 L699.1291448732344 325.5 L702.6789247405775 325.5 L706.2287046079207 325.5 L709.7784844752639 325.5 L713.328264342607 325.5 L716.8780442099502 325.5 L720.4278240772933 325.5 L723.9776039446365 325.5 L727.5273838119796 325.5 L731.0771636793228 325.5 L734.626943546666 325.5 L738.1767234140091 325.5 L741.7265032813523 325.5 " fill="none" stroke-width="1.6500000000000001" stroke="rgb(216,30,91)" stroke-opacity="1.0">
                </path>
              </g>
              <g>
                <path d="M35.3203096800644 321.6258684253211 L35.3203096800644 321.6258684253211 L38.87008954740755 320.49084228091095 L42.41986941475071 319.01007277808355 L45.96964928209386 317.49422880877006 L49.519429149437016 316.56522074791485 L53.06920901678018 315.89400711665576 L56.618988884123326 314.9754047184605 L60.16876875146649 314.18045790583665 L63.718548618809635 313.5483153949934 L67.2683284861528 312.98759127146394 L70.81810835349594 312.14748013731025 L74.3678882208391 311.79391223137156 L77.91766808818227 311.2536014834357 L81.46744795552542 310.85530092647645 L85.01722782286856 309.9561608006531 L88.56700769021172 309.21818417341865 L92.11678755755489 307.5919337914812 L95.66656742489803 307.3515302124353 L99.21634729224118 306.36296753569917 L102.76612715958434 305.82571891239934 L106.3159070269275 304.32642771089667 L109.86568689427065 303.9722783896363 L113.41546676161381 303.27524459154546 L116.96524662895696 302.4942378798099 L120.51502649630012 302.18124771913364 L124.06480636364327 300.84726097034087 L127.61458623098643 300.4353961348284 L131.1643660983296 299.7661362060985 L134.71414596567274 299.0994860102598 L138.2639258330159 298.45098650208956 L141.81370570035904 297.9927989878826 L145.36348556770218 297.3984343507862 L148.91326543504536 296.54691598338763 L152.46304530238854 296.15106761263496 L156.01282516973168 295.7474134233045 L159.56260503707483 295.5189870179681 L163.11238490441798 292.67730472183456 L166.66216477176113 292.3148845469392 L170.21194463910427 291.97677833715807 L173.76172450644742 290.8052624085952 L177.31150437379063 287.69804444222325 L180.86128424113377 287.31319495311703 L184.41106410847692 286.4604944301795 L187.96084397582007 286.13847066627085 L191.51062384316322 285.79473271657304 L195.06040371050636 285.4285841617043 L198.6101835778495 283.856737963437 L202.15996344519266 280.7925818701801 L205.70974331253586 280.39523337189775 L209.259523179879 279.6156060204725 L212.80930304722216 279.39728791852235 L216.3590829145653 278.86787082234804 L219.90886278190845 278.27349042787375 L223.4586426492516 277.92098118315363 L227.00842251659475 273.4791250050081 L230.55820238393795 270.6494617619137 L234.1079822512811 270.3973887060969 L237.65776211862425 270.19113399413413 L241.2075419859674 270.0281251326457 L244.75732185331054 269.51489409502767 L248.3071017206537 269.1678291454967 L251.85688158799684 268.5573643239719 L255.40666145534 267.86057820079924 L258.9564413226832 267.3522122983917 L262.50622119002634 265.2426006268404 L266.0560010573695 264.75685103609095 L269.60578092471263 263.9139084711557 L273.1555607920558 263.00131149131164 L276.7053406593989 262.60027984594643 L280.2551205267421 255.05017233192356 L283.8049003940853 247.78662337745234 L287.3546802614284 239.23375133246788 L290.9044601287716 236.82189020640203 L294.4542399961147 236.49645485750506 L298.00401986345787 235.92798110357515 L301.553799730801 234.57404767379086 L305.10357959814417 234.22614487650486 L308.6533594654873 233.87752352823577 L312.20313933283046 233.41432168448517 L315.7529192001736 232.9003157402151 L319.3026990675168 232.3142975072273 L322.85247893485996 232.007850531736 L326.4022588022031 231.56406216374006 L329.95203866954625 230.76158554981714 L333.5018185368894 228.3053654318881 L337.05159840423255 223.1938010789803 L340.6013782715757 215.21661501853734 L344.1511581389189 210.64113401007006 L347.70093800626205 210.501400840504 L351.2507178736052 210.08272501554262 L354.80049774094834 209.9573621708777 L358.3502776082915 209.69014934956454 L361.90005747563464 204.2188216946544 L365.4498373429778 202.82920469593358 L368.99961721032093 200.45247636159283 L372.54939707766414 200.05410995985483 L376.0991769450073 195.36221763659432 L379.64895681235043 194.81827198218204 L383.1987366796936 194.44765678440965 L386.74851654703673 193.90289821605742 L390.2982964143799 192.26773005869305 L393.848076281723 187.78276196683544 L397.39785614906623 186.20299085645004 L400.9476360164094 185.70420041682675 L404.4974158837525 184.9650695157723 L408.04719575109567 183.65067924687665 L411.5969756184388 183.21381148541101 L415.14675548578197 178.9320883405027 L418.6965353531251 178.5352982166849 L422.24631522046826 175.9434004880881 L425.79609508781147 175.07417611966733 L429.3458749551546 174.82564932317686 L432.89565482249776 173.65446632049017 L436.4454346898409 172.69267290682583 L439.99521455718406 171.56626318909085 L443.5449944245272 171.24348539289838 L447.09477429187035 170.81652979882634 L450.64455415921356 168.79050593328074 L454.1943340265567 168.02126925271693 L457.74411389389985 167.5534414799583 L461.293893761243 167.16295912005256 L464.84367362858615 166.38996211318192 L468.3934534959293 160.77048684590739 L471.94323336327244 159.7918630470178 L475.4930132306156 158.7609373901801 L479.0427930979588 158.4014421740421 L482.59257296530194 158.02722159768922 L486.1423528326451 156.89809380671784 L489.69213269998824 155.99671805869642 L493.2419125673314 154.86519342427005 L496.79169243467453 147.9132018969368 L500.3414723020177 147.32509317371813 L503.8912521693609 145.41026384787708 L507.44103203670403 144.4457918610856 L510.9908119040472 143.9291723218906 L514.5405917713904 143.15731090325687 L518.0903716387335 140.80674012850514 L521.6401515060767 140.4832032132963 L525.1899313734198 140.16197914765976 L528.739711240763 139.6302575573629 L532.2894911081062 139.37506584153292 L535.8392709754493 138.92218412918183 L539.3890508427925 137.669993236716 L542.9388307101356 134.21815689571034 L546.4886105774788 123.74144092714604 L550.0383904448219 121.29614743492382 L553.5881703121651 120.89196992550785 L557.1379501795082 119.7199082410371 L560.6877300468514 119.14034630090671 L564.2375099141944 115.99877870865328 L567.7872897815377 115.39763887424272 L571.3370696488809 114.7668926274905 L574.886849516224 114.40983351201433 L578.4366293835672 113.17800266994968 L581.9864092509102 111.89557010574532 L585.5361891182534 107.91731242961444 L589.0859689855965 107.24019734676838 L592.6357488529397 104.71600687349948 L596.1855287202828 104.00904072918397 L599.735308587626 103.17688295165962 L603.2850884549692 103.01000427978204 L606.8348683223123 101.729060709836 L610.3846481896555 101.33600287344439 L613.9344280569986 100.58325458666312 L617.4842079243418 100.15489242048741 L621.0339877916849 99.90119913072877 L624.5837676590281 99.60540244986598 L628.1335475263713 99.30240182498014 L631.6833273937144 98.31614124765437 L635.2331072610576 97.69519538783308 L638.7828871284007 97.3814333595785 L642.3326669957439 96.95675358814518 L645.882446863087 96.4546354131736 L649.4322267304302 95.69547967355757 L652.9820065977734 94.93344323153883 L656.5317864651165 94.50099598814793 L660.0815663324597 94.06049497596501 L663.6313461998028 93.67720034804444 L667.181126067146 92.89695376983016 L670.7309059344891 89.98869409475441 L674.2806858018323 89.568134769327 L677.8304656691755 88.41532791470681 L681.3802455365186 88.12335732939877 L684.9300254038618 87.79925105661417 L688.4798052712049 87.56761461017572 L692.0295851385481 86.97552057837572 L695.5793650058912 85.76743341767349 L699.1291448732344 83.98521549573974 L702.6789247405775 82.75443293475098 L706.2287046079207 82.19583301780318 L709.7784844752639 81.84403013146604 L713.328264342607 81.1581468435788 L716.8780442099502 80.86696063683294 L720.4278240772933 78.18692917680633 L723.9776039446365 77.05086327113187 L727.5273838119796 76.21915024326933 L731.0771636793228 76.01011275512315 L734.626943546666 75.20670929366463 L738.1767234140091 73.10141763813095 L741.7265032813523 72.23368629100935 " fill="none" stroke-width="1.6500000000000001" stroke="rgb(25,130,196)" stroke-opacity="1.0">
                </path>
              </g>
              <g>
                <path d="M35.3203096800644 324.24325347289926 L35.3203096800644 324.24325347289926 L38.87008954740755 323.50033328352623 L42.41986941475071 321.97927811874166 L45.96964928209386 320.9603160941894 L49.519429149437016 320.03253412679123 L53.06920901678018 318.46561035404795 L56.618988884123326 316.12406390367465 L60.16876875146649 314.9716672448356 L63.718548618809635 313.8391240487683 L67.2683284861528 311.7612224717382 L70.81810835349594 310.76382190633865 L74.3678882208391 309.4289466539343 L77.91766808818227 308.20500568028683 L81.46744795552542 307.08107655686865 L85.01722782286856 305.5409815146979 L88.56700769021172 303.17952937521653 L92.11678755755489 302.2768288040477 L95.66656742489803 301.26589707894766 L99.21634729224118 299.37958889839604 L102.76612715958434 298.52461145766534 L106.3159070269275 296.992255130355 L109.86568689427065 295.68077463556256 L113.41546676161381 293.59174198325144 L116.96524662895696 291.0905356974559 L120.51502649630012 290.2518363034301 L124.06480636364327 288.84640090717005 L127.61458623098643 287.4462142109168 L131.1643660983296 286.425938973243 L134.71414596567274 284.83277903960555 L138.2639258330159 282.3728788493059 L141.81370570035904 280.7713418484717 L145.36348556770218 279.23628497718386 L148.91326543504536 277.7143674679087 L152.46304530238854 276.1035851278358 L156.01282516973168 274.6860245603586 L159.56260503707483 273.33648974097616 L163.11238490441798 270.6622895112342 L166.66216477176113 268.7151669097134 L170.21194463910427 267.6147511488515 L173.76172450644742 264.87911679924565 L177.31150437379063 263.42339134528396 L180.86128424113377 261.3505546417626 L184.41106410847692 259.78498295536974 L187.96084397582007 258.776771487566 L191.51062384316322 256.89720878541937 L195.06040371050636 254.61897045507382 L198.6101835778495 253.0339281539658 L202.15996344519266 252.12415439061334 L205.70974331253586 249.5307467537226 L209.259523179879 247.60426744565677 L212.80930304722216 246.47781424208293 L216.3590829145653 245.31627379048547 L219.90886278190845 243.90647404328482 L223.4586426492516 243.0169904080961 L227.00842251659475 240.8096343108241 L230.55820238393795 239.00203147198042 L234.1079822512811 238.194410989387 L237.65776211862425 237.48580950480493 L241.2075419859674 236.4281482572643 L244.75732185331054 235.03542039971535 L248.3071017206537 233.8964880405702 L251.85688158799684 232.64044301776158 L255.40666145534 231.2427512285456 L258.9564413226832 230.05624890722908 L262.50622119002634 227.44576899931957 L266.0560010573695 226.48751134607022 L269.60578092471263 225.67129887127862 L273.1555607920558 224.62952377095314 L276.7053406593989 222.99052613199513 L280.2551205267421 218.75253417765694 L283.8049003940853 216.1677570520668 L287.3546802614284 215.05078900409177 L290.9044601287716 213.28205655040307 L294.4542399961147 212.37489752070198 L298.00401986345787 211.30390350979184 L301.553799730801 208.29048336303347 L305.10357959814417 206.6913195734896 L308.6533594654873 204.83007575085415 L312.20313933283046 202.81782874412443 L315.7529192001736 200.9196314660901 L319.3026990675168 198.77859043385112 L322.85247893485996 197.00878948430687 L326.4022588022031 195.98185505400008 L329.95203866954625 193.72838015758052 L333.5018185368894 192.66226395995162 L337.05159840423255 190.5719114873591 L340.6013782715757 189.30374473162365 L344.1511581389189 188.14702318384477 L347.70093800626205 186.58193289904025 L351.2507178736052 185.41137017900064 L354.80049774094834 184.3872178235191 L358.3502776082915 183.03941850442897 L361.90005747563464 179.9932883286897 L365.4498373429778 178.43924793913834 L368.99961721032093 175.08053716167726 L372.54939707766414 172.8623966717269 L376.0991769450073 170.49306613756085 L379.64895681235043 169.44385444972258 L383.1987366796936 168.2049397737675 L386.74851654703673 167.09949552487345 L390.2982964143799 164.76120998721407 L393.848076281723 162.56532253917504 L397.39785614906623 161.7544060905639 L400.9476360164094 159.70596982029852 L404.4974158837525 158.35196725360348 L408.04719575109567 157.30414373849686 L411.5969756184388 154.8598152207708 L415.14675548578197 151.74089652537603 L418.6965353531251 150.41609168632033 L422.24631522046826 148.1362168553312 L425.79609508781147 146.58902691027996 L429.3458749551546 145.64033293531295 L432.89565482249776 143.89754536651932 L436.4454346898409 142.10989823469768 L439.99521455718406 140.95959757260928 L443.5449944245272 139.64613094257297 L447.09477429187035 138.25709815897977 L450.64455415921356 136.3889895647835 L454.1943340265567 134.1663485993285 L457.74411389389985 132.95125640471824 L461.293893761243 131.98536433455297 L464.84367362858615 130.58989111288736 L468.3934534959293 130.04727180496235 L471.94323336327244 128.77411912121985 L475.4930132306156 126.84748011977672 L479.0427930979588 124.73083283535618 L482.59257296530194 123.64884765855768 L486.1423528326451 121.20403069035984 L489.69213269998824 120.052724579679 L493.2419125673314 118.67087033524984 L496.79169243467453 116.32491966030406 L500.3414723020177 114.94717628324744 L503.8912521693609 113.63143333921224 L507.44103203670403 112.22328948931477 L510.9908119040472 110.74568661401347 L514.5405917713904 108.80269306522078 L518.0903716387335 107.43371721209488 L521.6401515060767 104.79387854202568 L525.1899313734198 103.36121627324798 L528.739711240763 101.89493780276447 L532.2894911081062 100.45502278378382 L535.8392709754493 98.7668238325412 L539.3890508427925 97.42561538298722 L542.9388307101356 94.96359710939777 L546.4886105774788 94.11919409921856 L550.0383904448219 91.4574817959282 L553.5881703121651 89.31470715775367 L557.1379501795082 87.16086956243092 L560.6877300468514 86.13123483074955 L564.2375099141944 84.25339049584883 L567.7872897815377 82.83601929382624 L571.3370696488809 81.81906247377822 L574.886849516224 80.51862121458271 L578.4366293835672 78.6930149239665 L581.9864092509102 77.18037640999549 L585.5361891182534 76.20418667296423 L589.0859689855965 75.13751717016459 L592.6357488529397 73.01740209046471 L596.1855287202828 71.34790986880509 L599.735308587626 70.40880740976317 L603.2850884549692 69.597606396462 L606.8348683223123 67.87444224868568 L610.3846481896555 66.77872094906229 L613.9344280569986 65.62674886764734 L617.4842079243418 63.86855890078681 L621.0339877916849 62.599227239627965 L624.5837676590281 61.583943281350514 L628.1335475263713 60.75659227832779 L631.6833273937144 59.545170330777296 L635.2331072610576 58.138211285858006 L638.7828871284007 57.13032484074364 L642.3326669957439 55.773648907450365 L645.882446863087 54.25104866928899 L649.4322267304302 52.8299151769919 L652.9820065977734 51.242212928601646 L656.5317864651165 49.82754097969138 L660.0815663324597 47.515332811840665 L663.6313461998028 45.41372661462236 L667.181126067146 44.34023043505755 L670.7309059344891 41.945220394477474 L674.2806858018323 40.72267649791843 L677.8304656691755 39.63320247464105 L681.3802455365186 38.213168903823544 L684.9300254038618 37.013846860218734 L688.4798052712049 35.51155325031408 L692.0295851385481 34.21834183564448 L695.5793650058912 32.70561895585945 L699.1291448732344 30.48382630794157 L702.6789247405775 29.301299794590875 L706.2287046079207 28.289070947803282 L709.7784844752639 26.59934634238823 L713.328264342607 25.32154479745958 L716.8780442099502 24.63263128434062 L720.4278240772933 23.4043600192054 L723.9776039446365 22.297576739383942 L727.5273838119796 20.607547723811763 L731.0771636793228 19.18454751133595 L734.626943546666 17.609485426378058 L738.1767234140091 16.68165999032078 L741.7265032813523 15.500000000000057 " fill="none" stroke-width="1.6500000000000001" stroke="rgb(182,109,13)" stroke-opacity="1.0">
                </path>
              </g>
              <g>
                <path d="M35.3203096800644 324.37950623172225 L35.3203096800644 324.37950623172225 L38.87008954740755 323.34839215178795 L42.41986941475071 321.50545625446284 L45.96964928209386 320.70726883074406 L49.519429149437016 319.92753147307343 L53.06920901678018 318.6730936843643 L56.618988884123326 316.82615525144985 L60.16876875146649 316.0887962255692 L63.718548618809635 314.869816400033 L67.2683284861528 313.3407133433745 L70.81810835349594 312.6695406001579 L74.3678882208391 311.3725601801491 L77.91766808818227 310.1426163877421 L81.46744795552542 309.3902910659934 L85.01722782286856 307.65491502309976 L88.56700769021172 306.42864550309014 L92.11678755755489 305.32116813094035 L95.66656742489803 304.6888947902541 L99.21634729224118 302.7116261758596 L102.76612715958434 301.53638421289867 L106.3159070269275 300.31121608736953 L109.86568689427065 299.32346466404675 L113.41546676161381 298.5288374551557 L116.96524662895696 297.75959866692114 L120.51502649630012 295.79438946205994 L124.06480636364327 294.0816155319552 L127.61458623098643 292.83288307032194 L131.1643660983296 291.98077753503543 L134.71414596567274 290.07462631533843 L138.2639258330159 288.120684368082 L141.81370570035904 286.57014415769174 L145.36348556770218 285.1280638748774 L148.91326543504536 284.0417291706397 L152.46304530238854 282.81612164421006 L156.01282516973168 281.7341697089297 L159.56260503707483 280.27236114714333 L163.11238490441798 278.1946475897159 L166.66216477176113 276.9470813226617 L170.21194463910427 274.8862608351639 L173.76172450644742 273.4997052493939 L177.31150437379063 272.01166526749006 L180.86128424113377 271.2001480941997 L184.41106410847692 269.70947192740067 L187.96084397582007 267.58826310735435 L191.51062384316322 266.3751037123716 L195.06040371050636 264.8528644687791 L198.6101835778495 263.95996026658696 L202.15996344519266 262.59107957691185 L205.70974331253586 261.0519396254401 L209.259523179879 260.02200654403515 L212.80930304722216 258.32559823468205 L216.3590829145653 257.62403065328135 L219.90886278190845 256.64985687576933 L223.4586426492516 255.23765565646536 L227.00842251659475 253.93338790824677 L230.55820238393795 252.5360558265336 L234.1079822512811 251.8885361458447 L237.65776211862425 251.0116782974797 L241.2075419859674 249.50508688790742 L244.75732185331054 247.2687973777592 L248.3071017206537 246.26419119729442 L251.85688158799684 244.68341081007077 L255.40666145534 242.94912196837612 L258.9564413226832 242.03321622691112 L262.50622119002634 240.52730796582728 L266.0560010573695 239.56795225505437 L269.60578092471263 238.49814742361315 L273.1555607920558 237.14116354254082 L276.7053406593989 235.99712060787778 L280.2551205267421 233.8390375761229 L283.8049003940853 232.9321264971653 L287.3546802614284 231.71117767395788 L290.9044601287716 230.12946172040176 L294.4542399961147 229.23909612959835 L298.00401986345787 227.81836358364893 L301.553799730801 226.41261123033286 L305.10357959814417 225.15634157143558 L308.6533594654873 224.16106029366506 L312.20313933283046 223.29296856442284 L315.7529192001736 222.6815921170134 L319.3026990675168 221.76972381846338 L322.85247893485996 220.2229426825367 L326.4022588022031 218.93368351680056 L329.95203866954625 217.50804320200032 L333.5018185368894 216.54325894774647 L337.05159840423255 214.58503659740148 L340.6013782715757 213.68178555991506 L344.1511581389189 212.12496823591738 L347.70093800626205 209.91344848088937 L351.2507178736052 208.8461661735294 L354.80049774094834 208.2414176534249 L358.3502776082915 207.3482629058538 L361.90005747563464 204.88060270784004 L365.4498373429778 203.7452048171138 L368.99961721032093 201.3265157581252 L372.54939707766414 199.61569248937724 L376.0991769450073 198.26026712749893 L379.64895681235043 195.88323798625186 L383.1987366796936 194.4842382711657 L386.74851654703673 193.2318008231517 L390.2982964143799 192.0144350570373 L393.848076281723 190.57643536133727 L397.39785614906623 188.8456378194084 L400.9476360164094 187.7371357639251 L404.4974158837525 186.77664515690535 L408.04719575109567 185.45915775491775 L411.5969756184388 182.7874123631417 L415.14675548578197 181.0561043194081 L418.6965353531251 179.11996165066188 L422.24631522046826 178.14264418107223 L425.79609508781147 176.04746143729224 L429.3458749551546 175.31416959261182 L432.89565482249776 173.366028397645 L436.4454346898409 172.17552343363704 L439.99521455718406 170.36372188579344 L443.5449944245272 169.56070938610318 L447.09477429187035 167.39224209703266 L450.64455415921356 165.66057557357877 L454.1943340265567 164.07086198217212 L457.74411389389985 163.01331124051464 L461.293893761243 161.98392122834758 L464.84367362858615 160.56214512690477 L468.3934534959293 159.51891004047138 L471.94323336327244 158.70773421310443 L475.4930132306156 157.35595500553225 L479.0427930979588 155.76582494900003 L482.59257296530194 154.28048775350064 L486.1423528326451 152.88415130174138 L489.69213269998824 150.84712219503575 L493.2419125673314 149.89747526579438 L496.79169243467453 148.44407197112525 L500.3414723020177 147.47303941946598 L503.8912521693609 146.51767340429635 L507.44103203670403 144.0169152056892 L510.9908119040472 143.165329336307 L514.5405917713904 142.24709858446414 L518.0903716387335 140.955281623462 L521.6401515060767 140.16634806860878 L525.1899313734198 139.35920603708487 L528.739711240763 138.03629264861664 L532.2894911081062 136.83402343348192 L535.8392709754493 134.1206306947066 L539.3890508427925 132.79277863248458 L542.9388307101356 131.33344549379407 L546.4886105774788 130.47835384725758 L550.0383904448219 129.2520322779055 L553.5881703121651 126.59130054068024 L557.1379501795082 125.26958818808339 L560.6877300468514 124.62171928015294 L564.2375099141944 123.2379398854302 L567.7872897815377 122.37635433403523 L571.3370696488809 121.37150445885112 L574.886849516224 119.87146924438889 L578.4366293835672 118.20352876721901 L581.9864092509102 117.06019452103067 L585.5361891182534 116.18389282346953 L589.0859689855965 115.2063596150978 L592.6357488529397 113.61412830203318 L596.1855287202828 111.61241284573188 L599.735308587626 110.66903390701319 L603.2850884549692 110.01176630194584 L606.8348683223123 108.85597757147426 L610.3846481896555 108.04315803187447 L613.9344280569986 107.03577463062021 L617.4842079243418 105.92121487634662 L621.0339877916849 103.7654684802225 L624.5837676590281 102.82309086878081 L628.1335475263713 102.0370598787139 L631.6833273937144 100.65817372310565 L635.2331072610576 99.31708505166165 L638.7828871284007 97.6902616021512 L642.3326669957439 96.79854752708033 L645.882446863087 95.7393049017808 L649.4322267304302 94.20009953943432 L652.9820065977734 92.7585379210401 L656.5317864651165 91.13641612346382 L660.0815663324597 89.81279351375827 L663.6313461998028 87.77072450401445 L667.181126067146 86.11590647483041 L670.7309059344891 84.57404299798253 L674.2806858018323 83.74859558405805 L677.8304656691755 82.30434516806537 L681.3802455365186 81.11054009569344 L684.9300254038618 79.49921125256563 L688.4798052712049 77.99208233307323 L692.0295851385481 76.48115188771888 L695.5793650058912 75.45554163903049 L699.1291448732344 74.43996966201846 L702.6789247405775 73.44521824596916 L706.2287046079207 71.90485914823287 L709.7784844752639 70.88320659299953 L713.328264342607 69.01158254872763 L716.8780442099502 68.26253570721616 L720.4278240772933 67.12729612724047 L723.9776039446365 66.29570566017765 L727.5273838119796 64.66284546174484 L731.0771636793228 63.734798456084945 L734.626943546666 61.86660625530652 L738.1767234140091 61.01317029212788 L741.7265032813523 59.267168866309305 " fill="none" stroke-width="1.6500000000000001" stroke="rgb(58,51,53)" stroke-opacity="1.0">
                </path>
              </g>
            </g>
          </g>
        </g>
        <defs>
          <clipPath id="ctSjjpG">
            <rect x="58.95712304215423" y="0.0" width="777.0468129614165" height="341.0">
            </rect>
          </clipPath>
        </defs>
      </g>
      <g>
        <g transform="translate(58.95712304215423 341.0 ) ">
          <g transform="translate(35.3203096800644 0.0 ) ">
            <line stroke-width="1.0" stroke="rgb(71,71,71)" stroke-opacity="1.0" x2="0.0" y2="4.0">
            </line>
            <g transform="translate(0.0 7.0 ) ">
              <text class="axis-text-x" text-anchor="middle" dy="0.7em" y="0.0">
                <tspan>0</tspan>
              </text>
            </g>
          </g>
          <g transform="translate(106.3159070269275 0.0 ) ">
            <line stroke-width="1.0" stroke="rgb(71,71,71)" stroke-opacity="1.0" x2="0.0" y2="4.0">
            </line>
            <g transform="translate(0.0 7.0 ) ">
              <text class="axis-text-x" text-anchor="middle" dy="0.7em" y="0.0">
                <tspan>20</tspan>
              </text>
            </g>
          </g>
          <g transform="translate(177.31150437379063 0.0 ) ">
            <line stroke-width="1.0" stroke="rgb(71,71,71)" stroke-opacity="1.0" x2="0.0" y2="4.0">
            </line>
            <g transform="translate(0.0 7.0 ) ">
              <text class="axis-text-x" text-anchor="middle" dy="0.7em" y="0.0">
                <tspan>40</tspan>
              </text>
            </g>
          </g>
          <g transform="translate(248.3071017206537 0.0 ) ">
            <line stroke-width="1.0" stroke="rgb(71,71,71)" stroke-opacity="1.0" x2="0.0" y2="4.0">
            </line>
            <g transform="translate(0.0 7.0 ) ">
              <text class="axis-text-x" text-anchor="middle" dy="0.7em" y="0.0">
                <tspan>60</tspan>
              </text>
            </g>
          </g>
          <g transform="translate(319.3026990675168 0.0 ) ">
            <line stroke-width="1.0" stroke="rgb(71,71,71)" stroke-opacity="1.0" x2="0.0" y2="4.0">
            </line>
            <g transform="translate(0.0 7.0 ) ">
              <text class="axis-text-x" text-anchor="middle" dy="0.7em" y="0.0">
                <tspan>80</tspan>
              </text>
            </g>
          </g>
          <g transform="translate(390.2982964143799 0.0 ) ">
            <line stroke-width="1.0" stroke="rgb(71,71,71)" stroke-opacity="1.0" x2="0.0" y2="4.0">
            </line>
            <g transform="translate(0.0 7.0 ) ">
              <text class="axis-text-x" text-anchor="middle" dy="0.7em" y="0.0">
                <tspan>100</tspan>
              </text>
            </g>
          </g>
          <g transform="translate(461.293893761243 0.0 ) ">
            <line stroke-width="1.0" stroke="rgb(71,71,71)" stroke-opacity="1.0" x2="0.0" y2="4.0">
            </line>
            <g transform="translate(0.0 7.0 ) ">
              <text class="axis-text-x" text-anchor="middle" dy="0.7em" y="0.0">
                <tspan>120</tspan>
              </text>
            </g>
          </g>
          <g transform="translate(532.2894911081062 0.0 ) ">
            <line stroke-width="1.0" stroke="rgb(71,71,71)" stroke-opacity="1.0" x2="0.0" y2="4.0">
            </line>
            <g transform="translate(0.0 7.0 ) ">
              <text class="axis-text-x" text-anchor="middle" dy="0.7em" y="0.0">
                <tspan>140</tspan>
              </text>
            </g>
          </g>
          <g transform="translate(603.2850884549692 0.0 ) ">
            <line stroke-width="1.0" stroke="rgb(71,71,71)" stroke-opacity="1.0" x2="0.0" y2="4.0">
            </line>
            <g transform="translate(0.0 7.0 ) ">
              <text class="axis-text-x" text-anchor="middle" dy="0.7em" y="0.0">
                <tspan>160</tspan>
              </text>
            </g>
          </g>
          <g transform="translate(674.2806858018323 0.0 ) ">
            <line stroke-width="1.0" stroke="rgb(71,71,71)" stroke-opacity="1.0" x2="0.0" y2="4.0">
            </line>
            <g transform="translate(0.0 7.0 ) ">
              <text class="axis-text-x" text-anchor="middle" dy="0.7em" y="0.0">
                <tspan>180</tspan>
              </text>
            </g>
          </g>
          <g transform="translate(745.2762831486954 0.0 ) ">
            <line stroke-width="1.0" stroke="rgb(71,71,71)" stroke-opacity="1.0" x2="0.0" y2="4.0">
            </line>
            <g transform="translate(0.0 7.0 ) ">
              <text class="axis-text-x" text-anchor="middle" dy="0.7em" y="0.0">
                <tspan>200</tspan>
              </text>
            </g>
          </g>
          <line x1="0.0" y1="0.0" x2="777.0468129614165" y2="0.0" stroke-width="1.0" stroke="rgb(71,71,71)" stroke-opacity="1.0">
          </line>
        </g>
        <g transform="translate(58.95712304215423 0.0 ) ">
          <g transform="translate(0.0 325.5 ) ">
            <g transform="translate(-3.0 0.0 ) ">
              <text class="axis-text-y" text-anchor="end" dy="0.35em" y="0.0">
                <tspan>0</tspan>
              </text>
            </g>
          </g>
          <g transform="translate(0.0 283.8549552767931 ) ">
            <g transform="translate(-3.0 0.0 ) ">
              <text class="axis-text-y" text-anchor="end" dy="0.35em" y="0.0">
                <tspan>20,000</tspan>
              </text>
            </g>
          </g>
          <g transform="translate(0.0 242.2099105535861 ) ">
            <g transform="translate(-3.0 0.0 ) ">
              <text class="axis-text-y" text-anchor="end" dy="0.35em" y="0.0">
                <tspan>40,000</tspan>
              </text>
            </g>
          </g>
          <g transform="translate(0.0 200.56486583037918 ) ">
            <g transform="translate(-3.0 0.0 ) ">
              <text class="axis-text-y" text-anchor="end" dy="0.35em" y="0.0">
                <tspan>60,000</tspan>
              </text>
            </g>
          </g>
          <g transform="translate(0.0 158.91982110717223 ) ">
            <g transform="translate(-3.0 0.0 ) ">
              <text class="axis-text-y" text-anchor="end" dy="0.35em" y="0.0">
                <tspan>80,000</tspan>
              </text>
            </g>
          </g>
          <g transform="translate(0.0 117.2747763839653 ) ">
            <g transform="translate(-3.0 0.0 ) ">
              <text class="axis-text-y" text-anchor="end" dy="0.35em" y="0.0">
                <tspan>100,000</tspan>
              </text>
            </g>
          </g>
          <g transform="translate(0.0 75.62973166075835 ) ">
            <g transform="translate(-3.0 0.0 ) ">
              <text class="axis-text-y" text-anchor="end" dy="0.35em" y="0.0">
                <tspan>120,000</tspan>
              </text>
            </g>
          </g>
          <g transform="translate(0.0 33.98468693755143 ) ">
            <g transform="translate(-3.0 0.0 ) ">
              <text class="axis-text-y" text-anchor="end" dy="0.35em" y="0.0">
                <tspan>140,000</tspan>
              </text>
            </g>
          </g>
        </g>
      </g>
    </g>
    <g transform="translate(16.0 177.0 ) rotate(-90.0 ) ">
      <text class="axis-title-y" y="0.0" text-anchor="middle">
        <tspan>Meta Regret</tspan>
      </text>
    </g>
    <g transform="translate(476.9805295228625 393.0 ) ">
      <text class="axis-title-x" y="0.0" text-anchor="middle">
        <tspan>N</tspan>
      </text>
    </g>
    <g transform="translate(877.0039360035707 114.75 ) ">
      <rect x="0.0" y="0.0" height="124.5" width="122.99606399642931" stroke="rgb(71,71,71)" stroke-opacity="1.0" stroke-width="0.0" fill="rgb(255,255,255)" fill-opacity="1.0">
      </rect>
      <g transform="translate(5.0 5.0 ) ">
        <g transform="translate(0.0 12.0 ) ">
          <text class="legend-title" y="0.0">
            <tspan>agent</tspan>
          </text>
        </g>
        <g transform="translate(0.0 22.5 ) ">
          <g transform="">
            <g>
              <g transform="translate(1.0 1.0 ) ">
                <g>
                  <line x1="0.0" y1="10.5" x2="21.0" y2="10.5" stroke="rgb(182,109,13)" stroke-opacity="1.0" fill="rgb(255,255,255)" fill-opacity="1.0" stroke-width="1.6500000000000001">
                  </line>
                </g>
              </g>
            </g>
            <g transform="translate(26.9903027277341 16.05 ) ">
              <text class="legend-item" y="0.0">
                <tspan>ILQX</tspan>
              </text>
            </g>
          </g>
          <g transform="translate(0.0 23.0 ) ">
            <g>
              <g transform="translate(1.0 1.0 ) ">
                <g>
                  <line x1="0.0" y1="10.5" x2="21.0" y2="10.5" stroke="rgb(25,130,196)" stroke-opacity="1.0" fill="rgb(255,255,255)" fill-opacity="1.0" stroke-width="1.6500000000000001">
                  </line>
                </g>
              </g>
            </g>
            <g transform="translate(26.9903027277341 16.05 ) ">
              <text class="legend-item" y="0.0">
                <tspan>SAC</tspan>
              </text>
            </g>
          </g>
          <g transform="translate(0.0 46.0 ) ">
            <g>
              <g transform="translate(1.0 1.0 ) ">
                <g>
                  <line x1="0.0" y1="10.5" x2="21.0" y2="10.5" stroke="rgb(58,51,53)" stroke-opacity="1.0" fill="rgb(255,255,255)" fill-opacity="1.0" stroke-width="1.6500000000000001">
                  </line>
                </g>
              </g>
            </g>
            <g transform="translate(26.9903027277341 16.05 ) ">
              <text class="legend-item" y="0.0">
                <tspan>TS</tspan>
              </text>
            </g>
          </g>
          <g transform="translate(0.0 69.0 ) ">
            <g>
              <g transform="translate(1.0 1.0 ) ">
                <g>
                  <line x1="0.0" y1="10.5" x2="21.0" y2="10.5" stroke="rgb(216,30,91)" stroke-opacity="1.0" fill="rgb(255,255,255)" fill-opacity="1.0" stroke-width="1.6500000000000001">
                  </line>
                </g>
              </g>
            </g>
            <g transform="translate(26.9903027277341 16.05 ) ">
              <text class="legend-item" y="0.0">
                <tspan>Clairvoyant</tspan>
              </text>
            </g>
          </g>
        </g>
      </g>
    </g>
    <path fill="rgb(0,0,0)" fill-opacity="0.0" stroke="rgb(71,71,71)" stroke-opacity="1.0" stroke-width="0.0" d="M0.0 0.0 L0.0 400.0 L1000.0 400.0 L1000.0 0.0 Z" pointer-events="none">
    </path>
  </g>
  <g id="d8FS1t8">
  </g>
</svg>