<svg xmlns="http://www.w3.org/2000/svg" xmlns:xlink="http://www.w3.org/1999/xlink" display="block" class="plt-container" width="1000.0" height="400.0">
  <style type="text/css">
  .plt-container {
   font-family: Lucida Grande, sans-serif;
   user-select: none;
   -webkit-user-select: none;
   -moz-user-select: none;
   -ms-user-select: none;
}
text {
   text-rendering: optimizeLegibility;
}
#pcVofGG .plot-title {
fill: #474747;
font-weight: normal;
   font-style: normal;font-family: Lucida Grande, sans-serif;
font-size: 16.0px;

}
#pcVofGG .plot-subtitle {
fill: #474747;
font-weight: normal;
   font-style: normal;font-family: Lucida Grande, sans-serif;
font-size: 15.0px;

}
#pcVofGG .plot-caption {
fill: #474747;
font-weight: normal;
   font-style: normal;font-family: Lucida Grande, sans-serif;
font-size: 13.0px;

}
#pcVofGG .hyperlink-element {
fill: #118ed8;
font-weight: normal;
   font-style: normal;
}
#pcVofGG .legend-title {
fill: #474747;
font-weight: normal;
   font-style: normal;font-family: Lucida Grande, sans-serif;
font-size: 15.0px;

}
#pcVofGG .legend-item {
fill: #474747;
font-weight: normal;
   font-style: normal;font-family: Lucida Grande, sans-serif;
font-size: 13.0px;

}
#pcVofGG .axis-title-x {
fill: #474747;
font-weight: normal;
   font-style: normal;font-family: Lucida Grande, sans-serif;
font-size: 15.0px;

}
#pcVofGG .axis-text-x {
fill: #474747;
font-weight: normal;
   font-style: normal;font-family: Lucida Grande, sans-serif;
font-size: 13.0px;

}
#dlRLLpx .axis-tooltip-text-x {
fill: #ffffff;
font-weight: normal;
   font-style: normal;font-family: Lucida Grande, sans-serif;
font-size: 13.0px;

}
#pcVofGG .axis-title-y {
fill: #474747;
font-weight: normal;
   font-style: normal;font-family: Lucida Grande, sans-serif;
font-size: 15.0px;

}
#pcVofGG .axis-text-y {
fill: #474747;
font-weight: normal;
   font-style: normal;font-family: Lucida Grande, sans-serif;
font-size: 13.0px;

}
#dlRLLpx .axis-tooltip-text-y {
fill: #ffffff;
font-weight: normal;
   font-style: normal;font-family: Lucida Grande, sans-serif;
font-size: 13.0px;

}
#pcVofGG .facet-strip-text-x {
fill: #474747;
font-weight: normal;
   font-style: normal;font-family: Lucida Grande, sans-serif;
font-size: 13.0px;

}
#pcVofGG .facet-strip-text-y {
fill: #474747;
font-weight: normal;
   font-style: normal;font-family: Lucida Grande, sans-serif;
font-size: 13.0px;

}
#dlRLLpx .tooltip-text {
fill: #474747;
font-weight: normal;
   font-style: normal;font-family: Lucida Grande, sans-serif;
font-size: 13.0px;

}
#dlRLLpx .tooltip-title {
fill: #474747;
font-weight: bold;
   font-style: normal;font-family: Lucida Grande, sans-serif;
font-size: 13.0px;

}
#dlRLLpx .tooltip-label {
fill: #474747;
font-weight: bold;
   font-style: normal;font-family: Lucida Grande, sans-serif;
font-size: 13.0px;

}

  </style>
  <g id="pcVofGG">
    <path fill-rule="evenodd" fill="rgb(255,255,255)" fill-opacity="1.0" d="M0.0 0.0 L0.0 400.0 L1000.0 400.0 L1000.0 0.0 Z">
    </path>
    <g transform="translate(29.5 6.5 ) ">
      <g>
        <g transform="translate(58.95712304215423 0.0 ) ">
          <g>
            <line x1="35.32030968006439" y1="0.0" x2="35.32030968006439" y2="341.0" stroke="rgb(233,233,233)" stroke-opacity="1.0" stroke-width="1.0" fill="none">
            </line>
            <line x1="123.842389078722" y1="0.0" x2="123.842389078722" y2="341.0" stroke="rgb(233,233,233)" stroke-opacity="1.0" stroke-width="1.0" fill="none">
            </line>
            <line x1="212.3644684773796" y1="0.0" x2="212.3644684773796" y2="341.0" stroke="rgb(233,233,233)" stroke-opacity="1.0" stroke-width="1.0" fill="none">
            </line>
            <line x1="300.88654787603724" y1="0.0" x2="300.88654787603724" y2="341.0" stroke="rgb(233,233,233)" stroke-opacity="1.0" stroke-width="1.0" fill="none">
            </line>
            <line x1="389.4086272746948" y1="0.0" x2="389.4086272746948" y2="341.0" stroke="rgb(233,233,233)" stroke-opacity="1.0" stroke-width="1.0" fill="none">
            </line>
            <line x1="477.93070667335246" y1="0.0" x2="477.93070667335246" y2="341.0" stroke="rgb(233,233,233)" stroke-opacity="1.0" stroke-width="1.0" fill="none">
            </line>
            <line x1="566.4527860720101" y1="0.0" x2="566.4527860720101" y2="341.0" stroke="rgb(233,233,233)" stroke-opacity="1.0" stroke-width="1.0" fill="none">
            </line>
            <line x1="654.9748654706677" y1="0.0" x2="654.9748654706677" y2="341.0" stroke="rgb(233,233,233)" stroke-opacity="1.0" stroke-width="1.0" fill="none">
            </line>
            <line x1="743.4969448693253" y1="0.0" x2="743.4969448693253" y2="341.0" stroke="rgb(233,233,233)" stroke-opacity="1.0" stroke-width="1.0" fill="none">
            </line>
          </g>
        </g>
        <g transform="translate(58.95712304215423 0.0 ) ">
          <g>
            <line x1="0.0" y1="325.5" x2="777.0468129614165" y2="325.5" stroke="rgb(233,233,233)" stroke-opacity="1.0" stroke-width="1.0" fill="none">
            </line>
            <line x1="0.0" y1="274.1547202838643" x2="777.0468129614165" y2="274.1547202838643" stroke="rgb(233,233,233)" stroke-opacity="1.0" stroke-width="1.0" fill="none">
            </line>
            <line x1="0.0" y1="222.80944056772864" x2="777.0468129614165" y2="222.80944056772864" stroke="rgb(233,233,233)" stroke-opacity="1.0" stroke-width="1.0" fill="none">
            </line>
            <line x1="0.0" y1="171.46416085159294" x2="777.0468129614165" y2="171.46416085159294" stroke="rgb(233,233,233)" stroke-opacity="1.0" stroke-width="1.0" fill="none">
            </line>
            <line x1="0.0" y1="120.11888113545726" x2="777.0468129614165" y2="120.11888113545726" stroke="rgb(233,233,233)" stroke-opacity="1.0" stroke-width="1.0" fill="none">
            </line>
            <line x1="0.0" y1="68.77360141932155" x2="777.0468129614165" y2="68.77360141932155" stroke="rgb(233,233,233)" stroke-opacity="1.0" stroke-width="1.0" fill="none">
            </line>
            <line x1="0.0" y1="17.428321703185873" x2="777.0468129614165" y2="17.428321703185873" stroke="rgb(233,233,233)" stroke-opacity="1.0" stroke-width="1.0" fill="none">
            </line>
          </g>
        </g>
      </g>
      <g clip-path="url(#ctsqcgG)" clip-bounds-jfx="[rect (58.95712304215423, 0.0), (777.0468129614165, 341.0)]">
        <g transform="translate(58.95712304215423 0.0 ) ">
          <g>
            <g>
              <g>
                <path d="M35.32030968006439 325.5 L35.32030968006439 325.5 L37.09075126803754 325.5 L38.861192856010696 325.5 L40.63163444398385 325.5 L42.402076031957 325.5 L44.172517619930154 325.5 L45.9429592079033 325.5 L47.71340079587645 325.5 L49.483842383849606 325.5 L51.25428397182276 325.5 L53.02472555979591 325.5 L54.795167147769064 325.5 L56.56560873574222 325.5 L58.33605032371537 325.5 L60.10649191168852 325.5 L61.876933499661675 325.5 L63.64737508763483 325.5 L65.41781667560798 325.5 L67.18825826358113 325.5 L68.95869985155429 325.5 L70.72914143952744 325.5 L72.49958302750059 325.5 L74.27002461547374 325.5 L76.0404662034469 325.5 L77.81090779142005 325.5 L79.5813493793932 325.5 L81.35179096736636 325.5 L83.12223255533951 325.5 L84.89267414331266 325.5 L86.66311573128581 325.5 L88.43355731925897 325.5 L90.20399890723212 325.5 L91.97444049520527 325.5 L93.74488208317842 325.5 L95.51532367115158 325.5 L97.28576525912473 325.5 L99.05620684709788 325.5 L100.82664843507104 325.5 L102.59709002304419 325.5 L104.36753161101734 325.5 L106.1379731989905 325.5 L107.90841478696365 325.5 L109.6788563749368 325.5 L111.44929796290995 325.5 L113.2197395508831 325.5 L114.99018113885626 325.5 L116.76062272682941 325.5 L118.53106431480256 325.5 L120.30150590277569 325.5 L122.07194749074884 325.5 L123.842389078722 325.5 L125.61283066669515 325.5 L127.3832722546683 325.5 L129.15371384264145 325.5 L130.9241554306146 325.5 L132.69459701858776 325.5 L134.4650386065609 325.5 L136.23548019453406 325.5 L138.00592178250722 325.5 L139.77636337048037 325.5 L141.54680495845352 325.5 L143.31724654642667 325.5 L145.08768813439983 325.5 L146.85812972237298 325.5 L148.62857131034613 325.5 L150.39901289831928 325.5 L152.16945448629244 325.5 L153.9398960742656 325.5 L155.71033766223874 325.5 L157.4807792502119 325.5 L159.25122083818505 325.5 L161.0216624261582 325.5 L162.79210401413135 325.5 L164.5625456021045 325.5 L166.33298719007766 325.5 L168.1034287780508 325.5 L169.87387036602397 325.5 L171.64431195399712 325.5 L173.41475354197027 325.5 L175.18519512994342 325.5 L176.95563671791658 325.5 L178.72607830588973 325.5 L180.49651989386288 325.5 L182.26696148183603 325.5 L184.0374030698092 325.5 L185.80784465778234 325.5 L187.5782862457555 325.5 L189.34872783372865 325.5 L191.1191694217018 325.5 L192.88961100967495 325.5 L194.6600525976481 325.5 L196.43049418562126 325.5 L198.2009357735944 325.5 L199.97137736156756 325.5 L201.74181894954071 325.5 L203.51226053751387 325.5 L205.282702125487 325.5 L207.05314371346014 325.5 L208.8235853014333 325.5 L210.59402688940645 325.5 L212.3644684773796 325.5 L214.13491006535276 325.5 L215.9053516533259 325.5 L217.67579324129906 325.5 L219.4462348292722 325.5 L221.21667641724537 325.5 L222.98711800521852 325.5 L224.75755959319167 325.5 L226.52800118116483 325.5 L228.29844276913798 325.5 L230.06888435711113 325.5 L231.83932594508428 325.5 L233.60976753305744 325.5 L235.3802091210306 325.5 L237.15065070900374 325.5 L238.9210922969769 325.5 L240.69153388495005 325.5 L242.4619754729232 325.5 L244.23241706089635 325.5 L246.0028586488695 325.5 L247.77330023684266 325.5 L249.5437418248158 325.5 L251.31418341278896 325.5 L253.08462500076212 325.5 L254.85506658873527 325.5 L256.6255081767084 325.5 L258.3959497646816 325.5 L260.1663913526547 325.5 L261.9368329406279 325.5 L263.70727452860103 325.5 L265.4777161165742 325.5 L267.24815770454734 325.5 L269.0185992925205 325.5 L270.78904088049364 325.5 L272.5594824684668 325.5 L274.32992405643995 325.5 L276.1003656444131 325.5 L277.87080723238626 325.5 L279.6412488203594 325.5 L281.41169040833256 325.5 L283.1821319963057 325.5 L284.95257358427887 325.5 L286.723015172252 325.5 L288.4934567602252 325.5 L290.2638983481983 325.5 L292.0343399361715 325.5 L293.80478152414463 325.5 L295.5752231121178 325.5 L297.34566470009094 325.5 L299.1161062880641 325.5 L300.88654787603724 325.5 L302.6569894640104 325.5 L304.42743105198355 325.5 L306.1978726399567 325.5 L307.96831422792985 325.5 L309.738755815903 325.5 L311.50919740387616 325.5 L313.2796389918493 325.5 L315.05008057982246 325.5 L316.8205221677956 325.5 L318.59096375576877 325.5 L320.3614053437419 325.5 L322.1318469317151 325.5 L323.9022885196882 325.5 L325.6727301076614 325.5 L327.44317169563453 325.5 L329.2136132836077 325.5 L330.98405487158084 325.5 L332.754496459554 325.5 L334.52493804752714 325.5 L336.2953796355003 325.5 L338.06582122347345 325.5 L339.8362628114466 325.5 L341.60670439941975 325.5 L343.3771459873929 325.5 L345.14758757536606 325.5 L346.9180291633392 325.5 L348.68847075131237 325.5 L350.4589123392855 325.5 L352.22935392725867 325.5 L353.9997955152318 325.5 L355.770237103205 325.5 L357.54067869117813 325.5 L359.3111202791513 325.5 L361.08156186712444 325.5 L362.8520034550976 325.5 L364.62244504307074 325.5 L366.3928866310439 325.5 L368.16332821901705 325.5 L369.9337698069902 325.5 L371.70421139496335 325.5 L373.4746529829365 325.5 L375.2450945709096 325.5 L377.01553615888275 325.5 L378.7859777468559 325.5 L380.55641933482906 325.5 L382.3268609228022 325.5 L384.09730251077536 325.5 L385.8677440987485 325.5 L387.63818568672167 325.5 L389.4086272746948 325.5 L391.179068862668 325.5 L392.9495104506411 325.5 L394.7199520386143 325.5 L396.49039362658743 325.5 L398.2608352145606 325.5 L400.03127680253374 325.5 L401.8017183905069 325.5 L403.57215997848004 325.5 L405.3426015664532 325.5 L407.11304315442635 325.5 L408.8834847423995 325.5 L410.65392633037266 325.5 L412.4243679183458 325.5 L414.19480950631896 325.5 L415.9652510942921 325.5 L417.73569268226527 325.5 L419.5061342702384 325.5 L421.2765758582116 325.5 L423.0470174461847 325.5 L424.8174590341579 325.5 L426.58790062213103 325.5 L428.3583422101042 325.5 L430.12878379807734 325.5 L431.8992253860505 325.5 L433.66966697402364 325.5 L435.4401085619968 325.5 L437.21055014996995 325.5 L438.9809917379431 325.5 L440.75143332591625 325.5 L442.5218749138894 325.5 L444.29231650186256 325.5 L446.0627580898357 325.5 L447.83319967780886 325.5 L449.603641265782 325.5 L451.37408285375517 325.5 L453.1445244417283 325.5 L454.9149660297015 325.5 L456.6854076176746 325.5 L458.4558492056478 325.5 L460.22629079362093 325.5 L461.9967323815941 325.5 L463.76717396956724 325.5 L465.5376155575404 325.5 L467.30805714551354 325.5 L469.0784987334867 325.5 L470.84894032145985 325.5 L472.619381909433 325.5 L474.38982349740616 325.5 L476.1602650853793 325.5 L477.93070667335246 325.5 L479.7011482613256 325.5 L481.47158984929877 325.5 L483.2420314372719 325.5 L485.0124730252451 325.5 L486.7829146132182 325.5 L488.5533562011914 325.5 L490.32379778916453 325.5 L492.0942393771377 325.5 L493.86468096511084 325.5 L495.635122553084 325.5 L497.40556414105714 325.5 L499.1760057290303 325.5 L500.94644731700345 325.5 L502.7168889049766 325.5 L504.48733049294975 325.5 L506.2577720809229 325.5 L508.02821366889606 325.5 L509.7986552568692 325.5 L511.56909684484236 325.5 L513.3395384328155 325.5 L515.1099800207887 325.5 L516.8804216087618 325.5 L518.650863196735 325.5 L520.4213047847081 325.5 L522.1917463726813 325.5 L523.9621879606544 325.5 L525.7326295486276 325.5 L527.5030711366007 325.5 L529.273512724574 325.5 L531.043954312547 325.5 L532.8143959005203 325.5 L534.5848374884933 325.5 L536.3552790764666 325.5 L538.1257206644397 325.5 L539.8961622524129 325.5 L541.666603840386 325.5 L543.4370454283592 325.5 L545.2074870163323 325.5 L546.9779286043055 325.5 L548.7483701922786 325.5 L550.5188117802517 325.5 L552.2892533682249 325.5 L554.059694956198 325.5 L555.8301365441712 325.5 L557.6005781321443 325.5 L559.3710197201175 325.5 L561.1414613080906 325.5 L562.9119028960638 325.5 L564.6823444840369 325.5 L566.4527860720101 325.5 L568.2232276599832 325.5 L569.9936692479564 325.5 L571.7641108359295 325.5 L573.5345524239027 325.5 L575.3049940118758 325.5 L577.075435599849 325.5 L578.8458771878221 325.5 L580.6163187757953 325.5 L582.3867603637684 325.5 L584.1572019517416 325.5 L585.9276435397147 325.5 L587.6980851276879 325.5 L589.468526715661 325.5 L591.2389683036342 325.5 L593.0094098916073 325.5 L594.7798514795805 325.5 L596.5502930675536 325.5 L598.3207346555268 325.5 L600.0911762435 325.5 L601.8616178314732 325.5 L603.6320594194463 325.5 L605.4025010074195 325.5 L607.1729425953926 325.5 L608.9433841833658 325.5 L610.7138257713389 325.5 L612.4842673593121 325.5 L614.2547089472852 325.5 L616.0251505352584 325.5 L617.7955921232315 325.5 L619.5660337112047 325.5 L621.3364752991778 325.5 L623.106916887151 325.5 L624.8773584751241 325.5 L626.6478000630973 325.5 L628.4182416510704 325.5 L630.1886832390436 325.5 L631.9591248270167 325.5 L633.7295664149899 325.5 L635.500008002963 325.5 L637.2704495909362 325.5 L639.0408911789093 325.5 L640.8113327668825 325.5 L642.5817743548556 325.5 L644.3522159428288 325.5 L646.1226575308019 325.5 L647.8930991187751 325.5 L649.6635407067482 325.5 L651.4339822947214 325.5 L653.2044238826945 325.5 L654.9748654706677 325.5 L656.7453070586408 325.5 L658.515748646614 325.5 L660.2861902345871 325.5 L662.0566318225603 325.5 L663.8270734105334 325.5 L665.5975149985067 325.5 L667.3679565864797 325.5 L669.138398174453 325.5 L670.908839762426 325.5 L672.6792813503993 325.5 L674.4497229383724 325.5 L676.2201645263456 325.5 L677.9906061143187 325.5 L679.7610477022919 325.5 L681.531489290265 325.5 L683.3019308782382 325.5 L685.0723724662113 325.5 L686.8428140541845 325.5 L688.6132556421576 325.5 L690.3836972301308 325.5 L692.1541388181039 325.5 L693.9245804060771 325.5 L695.6950219940502 325.5 L697.4654635820234 325.5 L699.2359051699965 325.5 L701.0063467579697 325.5 L702.7767883459428 325.5 L704.547229933916 325.5 L706.3176715218891 325.5 L708.0881131098623 325.5 L709.8585546978354 325.5 L711.6289962858086 325.5 L713.3994378737817 325.5 L715.1698794617548 325.5 L716.940321049728 325.5 L718.7107626377011 325.5 L720.4812042256743 325.5 L722.2516458136474 325.5 L724.0220874016206 325.5 L725.7925289895937 325.5 L727.562970577567 325.5 L729.33341216554 325.5 L731.1038537535132 325.5 L732.8742953414863 325.5 L734.6447369294596 325.5 L736.4151785174327 325.5 L738.1856201054059 325.5 L739.956061693379 325.5 L741.7265032813522 325.5 " fill="none" stroke-width="1.6500000000000001" stroke="rgb(228,26,28)" stroke-opacity="1.0">
                </path>
              </g>
              <g>
                <path d="M35.32030968006439 325.35742027755845 L35.32030968006439 325.35742027755845 L37.09075126803754 325.28469301108026 L38.861192856010696 324.9939739872696 L40.63163444398385 324.94840507015306 L42.402076031957 324.8910190952465 L44.172517619930154 324.6672375822939 L45.9429592079033 324.5945141256274 L47.71340079587645 324.39323083455946 L49.483842383849606 324.14179448348494 L51.25428397182276 324.01003416782135 L53.02472555979591 323.8051823670982 L54.795167147769064 323.75708580443194 L56.56560873574222 323.63793881009553 L58.33605032371537 323.52557103379655 L60.10649191168852 323.47051732384654 L61.876933499661675 323.3208717133798 L63.64737508763483 323.2480267782319 L65.41781667560798 323.1507183321396 L67.18825826358113 323.0627437790696 L68.95869985155429 322.86824673450064 L70.72914143952744 322.6521229830026 L72.49958302750059 322.458673363782 L74.27002461547374 322.3921342109222 L76.0404662034469 322.2891381922397 L77.81090779142005 322.2345480380899 L79.5813493793932 322.1634605876881 L81.35179096736636 322.1114353780764 L83.12223255533951 322.06673998148153 L84.89267414331266 321.95133371135177 L86.66311573128581 321.75332490399796 L88.43355731925897 321.6766546353532 L90.20399890723212 321.5992863689837 L91.97444049520527 321.4894424838779 L93.74488208317842 321.3916879603771 L95.51532367115158 321.3580261740171 L97.28576525912473 321.30648767886544 L99.05620684709788 321.20836996929467 L100.82664843507104 321.16675809262927 L102.59709002304419 321.09999220032046 L104.36753161101734 320.9458907276685 L106.1379731989905 320.8914700164134 L107.90841478696365 320.7318750126577 L109.6788563749368 320.6949609285274 L111.44929796290995 320.53254443555943 L113.2197395508831 320.2545844569978 L114.99018113885626 320.1880291221147 L116.76062272682941 320.08488114785376 L118.53106431480256 320.0196487061755 L120.30150590277569 319.7123690872203 L122.07194749074884 319.564691009408 L123.842389078722 319.5096968793863 L125.61283066669515 319.47109043921586 L127.3832722546683 319.2563747417511 L129.15371384264145 319.0073853470658 L130.9241554306146 318.9849951796326 L132.69459701858776 318.87791134968063 L134.4650386065609 318.7560996249424 L136.23548019453406 318.6569987345524 L138.00592178250722 318.6003264879413 L139.77636337048037 318.5306103976099 L141.54680495845352 318.47881941106095 L143.31724654642667 318.42738344807657 L145.08768813439983 318.3858976443554 L146.85812972237298 318.33275455170315 L148.62857131034613 318.0996050101498 L150.39901289831928 317.9744413895348 L152.16945448629244 317.72245816365603 L153.9398960742656 317.41210788713187 L155.71033766223874 317.3674486172447 L157.4807792502119 317.1349584737542 L159.25122083818505 316.89001932850977 L161.0216624261582 316.8178199929764 L162.79210401413135 316.73876459192877 L164.5625456021045 316.5598993028127 L166.33298719007766 316.359178257474 L168.1034287780508 316.2454434431082 L169.87387036602397 316.067702173657 L171.64431195399712 316.03417025058036 L173.41475354197027 315.99313888783064 L175.18519512994342 315.95904128776533 L176.95563671791658 315.88619214627374 L178.72607830588973 315.85524334448974 L180.49651989386288 315.8233814103243 L182.26696148183603 315.56605272249453 L184.0374030698092 315.53287731440685 L185.80784465778234 315.39635577725153 L187.5782862457555 315.2992838260012 L189.34872783372865 315.2134358555712 L191.1191694217018 314.9207597140538 L192.88961100967495 314.6386716551335 L194.6600525976481 314.50409537303113 L196.43049418562126 314.34079922463593 L198.2009357735944 314.2935293868528 L199.97137736156756 314.25503297425007 L201.74181894954071 314.20014688423055 L203.51226053751387 314.0373283702283 L205.282702125487 313.8513484033036 L207.05314371346014 313.8019978701816 L208.8235853014333 313.4496908577556 L210.59402688940645 313.4054298529208 L212.3644684773796 313.28749454270474 L214.13491006535276 313.1981247817823 L215.9053516533259 313.15464479725387 L217.67579324129906 312.7417465277096 L219.4462348292722 312.65837134707607 L221.21667641724537 312.57136408839256 L222.98711800521852 312.4280930727644 L224.75755959319167 312.32176397099624 L226.52800118116483 312.26422552977897 L228.29844276913798 312.07146800253525 L230.06888435711113 311.91854619099 L231.83932594508428 311.804635598029 L233.60976753305744 311.7010769856728 L235.3802091210306 311.64800963748155 L237.15065070900374 311.34550378349275 L238.9210922969769 311.2495536986864 L240.69153388495005 311.0733107032128 L242.4619754729232 311.0161845279794 L244.23241706089635 310.94588902019603 L246.0028586488695 310.87096782220885 L247.77330023684266 310.5568305839391 L249.5437418248158 309.8958786726181 L251.31418341278896 309.7310882810557 L253.08462500076212 309.5054662146576 L254.85506658873527 309.3428587530353 L256.6255081767084 309.2663386275259 L258.3959497646816 309.1116274955789 L260.1663913526547 309.03528468695134 L261.9368329406279 308.9660250235715 L263.70727452860103 308.8207354692668 L265.4777161165742 308.66889853259653 L267.24815770454734 308.362300968862 L269.0185992925205 308.1654983469416 L270.78904088049364 308.00171472836917 L272.5594824684668 307.9132734041575 L274.32992405643995 307.8382810198556 L276.1003656444131 307.7456749024573 L277.87080723238626 307.6592257757294 L279.6412488203594 307.5203682838379 L281.41169040833256 307.4841080294429 L283.1821319963057 307.3953835859326 L284.95257358427887 307.1246561808948 L286.723015172252 307.06688982866103 L288.4934567602252 306.9639745556381 L290.2638983481983 306.81505662504196 L292.0343399361715 306.76751953386815 L293.80478152414463 306.7270093613615 L295.5752231121178 306.6362610988808 L297.34566470009094 306.5081355985151 L299.1161062880641 306.4705775591675 L300.88654787603724 306.43239728094414 L302.6569894640104 306.4027128282984 L304.42743105198355 306.3638617588968 L306.1978726399567 306.2941066418144 L307.96831422792985 306.22373154810975 L309.738755815903 306.1423036468729 L311.50919740387616 306.0183837983848 L313.2796389918493 305.9469742982814 L315.05008057982246 305.81776411743635 L316.8205221677956 305.747402306218 L318.59096375576877 305.56611331894925 L320.3614053437419 305.3969225428918 L322.1318469317151 305.2767912455503 L323.9022885196882 305.19644189797776 L325.6727301076614 305.0996244831502 L327.44317169563453 305.06964186651857 L329.2136132836077 304.87337230703565 L330.98405487158084 304.7843189975494 L332.754496459554 304.70729147552305 L334.52493804752714 304.44947824865375 L336.2953796355003 304.3177699970663 L338.06582122347345 304.244216782193 L339.8362628114466 304.1654038950196 L341.60670439941975 304.06680176539373 L343.3771459873929 303.95567572052363 L345.14758757536606 303.7752045089146 L346.9180291633392 303.72416664298976 L348.68847075131237 303.6000315674167 L350.4589123392855 303.5579957191791 L352.22935392725867 303.4303180896486 L353.9997955152318 303.3482384989653 L355.770237103205 303.2271896776346 L357.54067869117813 303.1407988027435 L359.3111202791513 302.9695733627734 L361.08156186712444 302.82887909008645 L362.8520034550976 302.76429621540495 L364.62244504307074 302.539613133717 L366.3928866310439 302.4919130078214 L368.16332821901705 302.43415935670595 L369.9337698069902 302.0799045304385 L371.70421139496335 302.04036284766994 L373.4746529829365 301.9912815526467 L375.2450945709096 301.8853276531666 L377.01553615888275 301.60355002836235 L378.7859777468559 301.3385822499539 L380.55641933482906 301.25529866155694 L382.3268609228022 301.07550364719935 L384.09730251077536 301.01763150297245 L385.8677440987485 300.8847695317016 L387.63818568672167 300.72557845528644 L389.4086272746948 300.50860494369925 L391.179068862668 300.2967584956507 L392.9495104506411 300.1417350740827 L394.7199520386143 299.94354434933115 L396.49039362658743 299.669865202601 L398.2608352145606 299.5108988058929 L400.03127680253374 299.26012187678674 L401.8017183905069 299.2145330272275 L403.57215997848004 299.045648825461 L405.3426015664532 298.8923998898341 L407.11304315442635 298.67757277117175 L408.8834847423995 298.590130701677 L410.65392633037266 298.54429882526136 L412.4243679183458 298.45026271357114 L414.19480950631896 298.35397912179445 L415.9652510942921 298.27440375422054 L417.73569268226527 298.23168438167374 L419.5061342702384 298.0527483120828 L421.2765758582116 298.0196706975267 L423.0470174461847 297.93509924250463 L424.8174590341579 297.8110883050746 L426.58790062213103 297.5547208904713 L428.3583422101042 297.4503108292668 L430.12878379807734 297.36553608046796 L431.8992253860505 297.28097815331967 L433.66966697402364 297.12153065663676 L435.4401085619968 296.919531602272 L437.21055014996995 296.6653282721544 L438.9809917379431 296.5699253215397 L440.75143332591625 296.46556121616163 L442.5218749138894 296.382492516089 L444.29231650186256 296.16808105824214 L446.0627580898357 295.9355710406938 L447.83319967780886 295.6613855683821 L449.603641265782 295.47537519184147 L451.37408285375517 295.331220025317 L453.1445244417283 295.18109546017206 L454.9149660297015 295.03303572935687 L456.6854076176746 294.9511638473941 L458.4558492056478 294.8350771721165 L460.22629079362093 294.7595108387144 L461.9967323815941 294.7032568268312 L463.76717396956724 294.37021937105794 L465.5376155575404 294.3168819286176 L467.30805714551354 294.24199364851705 L469.0784987334867 294.139800277211 L470.84894032145985 293.9830988633166 L472.619381909433 293.90259544765956 L474.38982349740616 293.77197592250656 L476.1602650853793 293.6611463574165 L477.93070667335246 293.2999606890189 L479.7011482613256 293.25516768551336 L481.47158984929877 293.20873596319655 L483.2420314372719 293.11185530794455 L485.0124730252451 293.0394760369454 L486.7829146132182 292.69118675357555 L488.5533562011914 292.51747168555084 L490.32379778916453 292.4476707628529 L492.0942393771377 292.37232839032043 L493.86468096511084 292.2839336030524 L495.635122553084 292.2393178259233 L497.40556414105714 292.20738755013195 L499.1760057290303 292.0953344142023 L500.94644731700345 291.9223921784986 L502.7168889049766 291.88197435148084 L504.48733049294975 291.8313910556034 L506.2577720809229 291.706596164841 L508.02821366889606 291.5062177566127 L509.7986552568692 291.4342473852097 L511.56909684484236 291.37436962268225 L513.3395384328155 291.33305662396424 L515.1099800207887 291.05176337570407 L516.8804216087618 290.8702332204956 L518.650863196735 290.70319083287063 L520.4213047847081 290.64170671145627 L522.1917463726813 290.53241702840194 L523.9621879606544 290.43841958494903 L525.7326295486276 290.40756795158524 L527.5030711366007 290.38390009389354 L529.273512724574 290.3016349606329 L531.043954312547 290.1567249935797 L532.8143959005203 290.0644366604681 L534.5848374884933 289.88230170387556 L536.3552790764666 289.8194278548054 L538.1257206644397 289.68858831233064 L539.8961622524129 289.6228888784526 L541.666603840386 289.5942029473073 L543.4370454283592 289.48054882991744 L545.2074870163323 289.44681943873815 L546.9779286043055 289.39726371264925 L548.7483701922786 288.9982454511867 L550.5188117802517 288.8062292713905 L552.2892533682249 288.60785520333405 L554.059694956198 288.5376042161505 L555.8301365441712 288.45302532568905 L557.6005781321443 288.2875751987449 L559.3710197201175 288.2515854105986 L561.1414613080906 288.05671772938723 L562.9119028960638 287.95994220538364 L564.6823444840369 287.8250109859283 L566.4527860720101 287.5364571425307 L568.2232276599832 287.2090053625827 L569.9936692479564 287.1596272833227 L571.7641108359295 287.0404339644686 L573.5345524239027 286.85412746962055 L575.3049940118758 286.7624062256717 L577.075435599849 286.6650846045136 L578.8458771878221 286.58553471113237 L580.6163187757953 286.45167547725356 L582.3867603637684 286.3684480402746 L584.1572019517416 286.2605718109888 L585.9276435397147 286.08376590953435 L587.6980851276879 285.97929299605585 L589.468526715661 285.8730080673103 L591.2389683036342 285.8137487746667 L593.0094098916073 285.7453763086474 L594.7798514795805 285.51238694804897 L596.5502930675536 285.42192783341477 L598.3207346555268 285.2620719062558 L600.0911762435 285.15533116054485 L601.8616178314732 284.9186015833759 L603.6320594194463 284.787736229682 L605.4025010074195 284.6337892320446 L607.1729425953926 284.4617578607061 L608.9433841833658 284.33638753983155 L610.7138257713389 284.18280861800395 L612.4842673593121 284.0391504891967 L614.2547089472852 283.9051213603903 L616.0251505352584 283.6155810780055 L617.7955921232315 283.55767169534795 L619.5660337112047 283.4073233571416 L621.3364752991778 283.3071817280123 L623.106916887151 283.00737352902894 L624.8773584751241 282.95588491982465 L626.6478000630973 282.7669052364685 L628.4182416510704 282.7310890159142 L630.1886832390436 282.6591482662291 L631.9591248270167 282.44614261028966 L633.7295664149899 282.3812680414345 L635.500008002963 282.2550018910818 L637.2704495909362 282.17755722807715 L639.0408911789093 282.1123369351098 L640.8113327668825 281.872304250358 L642.5817743548556 281.5609357308771 L644.3522159428288 281.53133242216984 L646.1226575308019 281.4000632919212 L647.8930991187751 281.2639314895522 L649.6635407067482 281.22909085726104 L651.4339822947214 281.0694462413058 L653.2044238826945 280.9285262801262 L654.9748654706677 280.71470748941664 L656.7453070586408 280.6536851618326 L658.515748646614 280.43201476392665 L660.2861902345871 280.21257193505176 L662.0566318225603 280.0252711824821 L663.8270734105334 279.73110062422575 L665.5975149985067 279.48434685073113 L667.3679565864797 279.4083341643767 L669.138398174453 279.3449344584518 L670.908839762426 279.1963871559221 L672.6792813503993 279.08028232532115 L674.4497229383724 278.999628514627 L676.2201645263456 278.92687660233736 L677.9906061143187 278.8723935970631 L679.7610477022919 278.6564550743699 L681.531489290265 278.5224131974982 L683.3019308782382 278.43954364887134 L685.0723724662113 278.3885932939206 L686.8428140541845 278.2436830681708 L688.6132556421576 278.1513252443604 L690.3836972301308 278.02666328835505 L692.1541388181039 277.7919227643601 L693.9245804060771 277.6865194773881 L695.6950219940502 277.5362617433674 L697.4654635820234 277.46692348147855 L699.2359051699965 277.2642971870356 L701.0063467579697 277.18714244000614 L702.7767883459428 276.96321242421004 L704.547229933916 276.8569760601206 L706.3176715218891 276.44090710314237 L708.0881131098623 276.3711780797703 L709.8585546978354 276.2988590747483 L711.6289962858086 276.18025990559556 L713.3994378737817 276.097058144286 L715.1698794617548 276.04537216143257 L716.940321049728 275.98646902376584 L718.7107626377011 275.76039211240914 L720.4812042256743 275.7295614173735 L722.2516458136474 275.6839276873471 L724.0220874016206 275.60927415463794 L725.7925289895937 275.4611789444764 L727.562970577567 275.403963549511 L729.33341216554 275.24944188359854 L731.1038537535132 275.0553865812438 L732.8742953414863 275.01590291920803 L734.6447369294596 274.88466007624703 L736.4151785174327 274.7864867772346 L738.1856201054059 274.74532003626376 L739.956061693379 274.5892842940997 L741.7265032813522 274.5105376745187 " fill="none" stroke-width="1.6500000000000001" stroke="rgb(55,126,184)" stroke-opacity="1.0">
                </path>
              </g>
              <g>
                <path d="M35.32030968006439 325.2389881207361 L35.32030968006439 325.2389881207361 L37.09075126803754 325.0642941263074 L38.861192856010696 324.7557033896541 L40.63163444398385 323.7080354297941 L42.402076031957 323.2728663053576 L44.172517619930154 322.17158683111666 L45.9429592079033 321.38137479000915 L47.71340079587645 320.32278180809396 L49.483842383849606 320.04088211923477 L51.25428397182276 318.4063336735055 L53.02472555979591 318.034121229312 L54.795167147769064 317.593295228582 L56.56560873574222 317.0556226732925 L58.33605032371537 316.8950974785585 L60.10649191168852 316.61510444154413 L61.876933499661675 316.43452300947075 L63.64737508763483 315.69990643020816 L65.41781667560798 314.1575593538348 L67.18825826358113 313.9508324291026 L68.95869985155429 313.65856002535594 L70.72914143952744 313.3445767820683 L72.49958302750059 312.894435065625 L74.27002461547374 312.80410502459756 L76.0404662034469 312.5434908518849 L77.81090779142005 312.255486251869 L79.5813493793932 312.1001006332551 L81.35179096736636 311.9140484817654 L83.12223255533951 311.67631518566816 L84.89267414331266 311.4940058861009 L86.66311573128581 311.1254111658159 L88.43355731925897 310.9661769854942 L90.20399890723212 310.8046938713596 L91.97444049520527 310.6293362705866 L93.74488208317842 310.36746457430553 L95.51532367115158 310.3042472740926 L97.28576525912473 309.912309510918 L99.05620684709788 309.6977286258701 L100.82664843507104 309.4322927467401 L102.59709002304419 309.3129117864223 L104.36753161101734 309.1595992060037 L106.1379731989905 309.04566205842434 L107.90841478696365 308.958225614361 L109.6788563749368 308.8918362235325 L111.44929796290995 308.72988742217746 L113.2197395508831 307.4932794346226 L114.99018113885626 307.4214841897562 L116.76062272682941 307.2862343091365 L118.53106431480256 306.984441493347 L120.30150590277569 306.73029269459903 L122.07194749074884 306.4650961970099 L123.842389078722 306.29165096827876 L125.61283066669515 306.20879299563387 L127.3832722546683 305.99597503339777 L129.15371384264145 305.807325130652 L130.9241554306146 305.72491817804024 L132.69459701858776 305.5933540562129 L134.4650386065609 305.45833456237114 L136.23548019453406 304.99759818635977 L138.00592178250722 304.8403235903302 L139.77636337048037 304.61690032688745 L141.54680495845352 304.0347238014458 L143.31724654642667 303.85005478990115 L145.08768813439983 303.78175175305785 L146.85812972237298 303.64884200380544 L148.62857131034613 303.47862824607824 L150.39901289831928 303.392801619636 L152.16945448629244 303.29821386538237 L153.9398960742656 303.2000669305925 L155.71033766223874 303.1118525895063 L157.4807792502119 302.9229407964189 L159.25122083818505 302.5308888394593 L161.0216624261582 302.226866951812 L162.79210401413135 302.0858711319641 L164.5625456021045 301.9326005110067 L166.33298719007766 301.6759960212257 L168.1034287780508 301.2375689459806 L169.87387036602397 300.87356498979256 L171.64431195399712 300.7311899565384 L173.41475354197027 300.65862870539445 L175.18519512994342 300.5658114493884 L176.95563671791658 300.48350727752955 L178.72607830588973 300.39904818882025 L180.49651989386288 300.27242302569505 L182.26696148183603 300.0686450671234 L184.0374030698092 299.6883102884857 L185.80784465778234 299.5655494832971 L187.5782862457555 299.39584828126664 L189.34872783372865 299.09755849883805 L191.1191694217018 299.01997916900484 L192.88961100967495 298.72278620525634 L194.6600525976481 298.323942888901 L196.43049418562126 297.94393465051087 L198.2009357735944 297.8234410764045 L199.97137736156756 297.56659781363476 L201.74181894954071 297.44341681819174 L203.51226053751387 297.37577977036597 L205.282702125487 297.25166995923433 L207.05314371346014 297.1049481596444 L208.8235853014333 296.8981794272824 L210.59402688940645 296.80759492927416 L212.3644684773796 296.6882439992068 L214.13491006535276 296.5368694400954 L215.9053516533259 296.3868136185718 L217.67579324129906 296.2770092213218 L219.4462348292722 296.18915848743245 L221.21667641724537 295.9860836574643 L222.98711800521852 295.8149127804523 L224.75755959319167 295.65825664859 L226.52800118116483 295.48355616189673 L228.29844276913798 295.23416106559444 L230.06888435711113 294.96958613699593 L231.83932594508428 294.6943923446112 L233.60976753305744 294.40688904323474 L235.3802091210306 294.2217067416021 L237.15065070900374 294.1402314769389 L238.9210922969769 294.0506589499145 L240.69153388495005 293.77409986039345 L242.4619754729232 293.47565684501615 L244.23241706089635 293.2856546313179 L246.0028586488695 293.0613949339676 L247.77330023684266 292.8841989234275 L249.5437418248158 292.6284639228646 L251.31418341278896 292.4853742593682 L253.08462500076212 292.26491652979684 L254.85506658873527 292.07925124972246 L256.6255081767084 291.95324888102095 L258.3959497646816 291.73637567849346 L260.1663913526547 291.498427442946 L261.9368329406279 291.30160498283203 L263.70727452860103 291.1489363795151 L265.4777161165742 290.8165603450594 L267.24815770454734 290.62763491981997 L269.0185992925205 290.3096266453131 L270.78904088049364 290.1669440120593 L272.5594824684668 289.9699007232851 L274.32992405643995 289.853640157283 L276.1003656444131 289.74401778384004 L277.87080723238626 289.4191900383643 L279.6412488203594 289.2109780023347 L281.41169040833256 288.9823439797068 L283.1821319963057 288.9002297476029 L284.95257358427887 288.7503443451064 L286.723015172252 288.5860531986989 L288.4934567602252 288.48470098807786 L290.2638983481983 288.2705268177388 L292.0343399361715 288.0928604443975 L293.80478152414463 288.0050997479468 L295.5752231121178 287.7187318919017 L297.34566470009094 287.51584683807994 L299.1161062880641 287.4345987672699 L300.88654787603724 287.1413900911732 L302.6569894640104 286.98113645434637 L304.42743105198355 286.89627164131497 L306.1978726399567 286.5776868174334 L307.96831422792985 286.3752428609356 L309.738755815903 286.1883448515034 L311.50919740387616 286.102729870744 L313.2796389918493 285.9499086962405 L315.05008057982246 285.73240234145067 L316.8205221677956 285.58645574537536 L318.59096375576877 285.4045435030713 L320.3614053437419 285.02336636185106 L322.1318469317151 284.9062020420758 L323.9022885196882 284.82277991812026 L325.6727301076614 284.61718844928043 L327.44317169563453 284.5328239054336 L329.2136132836077 284.1722097903203 L330.98405487158084 283.7966557173422 L332.754496459554 283.7069224047236 L334.52493804752714 283.5743805694676 L336.2953796355003 283.4349088865236 L338.06582122347345 283.2607346676708 L339.8362628114466 283.08754626112994 L341.60670439941975 282.9387139426497 L343.3771459873929 282.85599705049395 L345.14758757536606 282.58009246398814 L346.9180291633392 282.27829217039397 L348.68847075131237 281.8797653762891 L350.4589123392855 281.79053538996703 L352.22935392725867 281.4120034152523 L353.9997955152318 281.1630740839841 L355.770237103205 281.02063672224193 L357.54067869117813 280.8856673024014 L359.3111202791513 280.7019746812265 L361.08156186712444 280.56073841549716 L362.8520034550976 280.36699023538864 L364.62244504307074 280.14479714031904 L366.3928866310439 279.73041426674814 L368.16332821901705 279.5100720122806 L369.9337698069902 279.40723004628353 L371.70421139496335 279.3318458967988 L373.4746529829365 279.2272327301451 L375.2450945709096 278.83145579010403 L377.01553615888275 278.6203707877736 L378.7859777468559 278.2731390616165 L380.55641933482906 277.6594052591271 L382.3268609228022 277.41136575781434 L384.09730251077536 277.22142775022826 L385.8677440987485 277.05715782705056 L387.63818568672167 276.8229863127865 L389.4086272746948 276.0657470969814 L391.179068862668 275.76938329526627 L392.9495104506411 275.4747632030882 L394.7199520386143 275.36517173343066 L396.49039362658743 274.99874726267456 L398.2608352145606 274.92127065715715 L400.03127680253374 274.69882326123775 L401.8017183905069 274.6211353370114 L403.57215997848004 274.4763780816151 L405.3426015664532 274.25467769104057 L407.11304315442635 274.1462844739686 L408.8834847423995 273.77346321117295 L410.65392633037266 273.6969721849273 L412.4243679183458 273.3185717978458 L414.19480950631896 273.07913437059204 L415.9652510942921 272.8626970024955 L417.73569268226527 272.7824635206061 L419.5061342702384 272.537414465629 L421.2765758582116 272.16220664125336 L423.0470174461847 271.92704671803057 L424.8174590341579 271.51533108426594 L426.58790062213103 271.45568983769107 L428.3583422101042 271.2911292470527 L430.12878379807734 271.19434326796693 L431.8992253860505 271.11011540054545 L433.66966697402364 270.8376316430727 L435.4401085619968 270.45764089343743 L437.21055014996995 270.3674151902614 L438.9809917379431 270.2895502392656 L440.75143332591625 269.9244350512577 L442.5218749138894 269.5668827639086 L444.29231650186256 269.4828553618179 L446.0627580898357 269.3702823548773 L447.83319967780886 269.1808704933657 L449.603641265782 268.95445102939016 L451.37408285375517 268.81144267436025 L453.1445244417283 268.70962489166925 L454.9149660297015 268.60422549888364 L456.6854076176746 268.44639338159163 L458.4558492056478 268.3582757427621 L460.22629079362093 268.21247374948194 L461.9967323815941 268.0426628781137 L463.76717396956724 267.95890419085276 L465.5376155575404 267.7609568629049 L467.30805714551354 267.60746793266617 L469.0784987334867 267.50018807214843 L470.84894032145985 267.30064040894956 L472.619381909433 267.09410327914793 L474.38982349740616 266.99117513107626 L476.1602650853793 266.50840656505375 L477.93070667335246 266.38222856248154 L479.7011482613256 266.29528848666496 L481.47158984929877 266.2189809335703 L483.2420314372719 266.1280925412528 L485.0124730252451 266.0018198141749 L486.7829146132182 265.90720071116175 L488.5533562011914 265.6829302758295 L490.32379778916453 265.6088896403821 L492.0942393771377 265.53503475085193 L493.86468096511084 265.472533316591 L495.635122553084 265.34828633606367 L497.40556414105714 265.2788387767612 L499.1760057290303 265.15730978272717 L500.94644731700345 265.0468194770807 L502.7168889049766 264.9613238632984 L504.48733049294975 264.8953719524388 L506.2577720809229 264.7380571271099 L508.02821366889606 264.4941170817655 L509.7986552568692 264.3741314210261 L511.56909684484236 264.2476098863234 L513.3395384328155 263.9231012770609 L515.1099800207887 263.8161090617416 L516.8804216087618 263.7511277103794 L518.650863196735 263.6721146962144 L520.4213047847081 263.58519604552407 L522.1917463726813 263.4655815679321 L523.9621879606544 263.24093083003953 L525.7326295486276 263.1608893110247 L527.5030711366007 263.0830851807249 L529.273512724574 262.788558384022 L531.043954312547 262.57708967987026 L532.8143959005203 262.41775425753525 L534.5848374884933 262.20729052075694 L536.3552790764666 262.0610961019993 L538.1257206644397 261.8725656014955 L539.8961622524129 261.62401944509304 L541.666603840386 261.54392349323007 L543.4370454283592 261.4271783917749 L545.2074870163323 261.3155696089792 L546.9779286043055 261.2222550420665 L548.7483701922786 260.28064747372474 L550.5188117802517 260.17236587227086 L552.2892533682249 260.0499279863031 L554.059694956198 259.94386725244794 L555.8301365441712 259.8019408396246 L557.6005781321443 259.6028474604415 L559.3710197201175 259.5380889963664 L561.1414613080906 259.38123833577237 L562.9119028960638 259.2241688194819 L564.6823444840369 259.1585287682762 L566.4527860720101 259.01212873085603 L568.2232276599832 258.8666213420434 L569.9936692479564 258.79474715313074 L571.7641108359295 258.66233143683473 L573.5345524239027 258.3110933032825 L575.3049940118758 258.0427271031726 L577.075435599849 257.8801522788186 L578.8458771878221 257.7509174984104 L580.6163187757953 257.62786156289036 L582.3867603637684 257.38828109805024 L584.1572019517416 257.29172525748777 L585.9276435397147 257.04411860693006 L587.6980851276879 256.93859913481447 L589.468526715661 256.6388409921248 L591.2389683036342 256.5347703354109 L593.0094098916073 256.4335721310473 L594.7798514795805 256.31662015231785 L596.5502930675536 256.18509610271667 L598.3207346555268 256.0650641042149 L600.0911762435 255.9451583331537 L601.8616178314732 255.81899405946797 L603.6320594194463 255.60522538232067 L605.4025010074195 255.5381564938986 L607.1729425953926 255.39362816435684 L608.9433841833658 255.3282453690926 L610.7138257713389 254.89675055195806 L612.4842673593121 254.76565857957485 L614.2547089472852 254.67368823898218 L616.0251505352584 254.59642048159213 L617.7955921232315 254.53122309261772 L619.5660337112047 254.20568529347838 L621.3364752991778 253.97290476939543 L623.106916887151 253.66118294589427 L624.8773584751241 253.57231017862972 L626.6478000630973 253.40152030812797 L628.4182416510704 253.30050875171972 L630.1886832390436 253.24001967663816 L631.9591248270167 253.00759423600618 L633.7295664149899 252.934892267524 L635.500008002963 252.21347546370598 L637.2704495909362 252.13109287243245 L639.0408911789093 252.04340268041653 L640.8113327668825 251.93066391811473 L642.5817743548556 251.2150087903695 L644.3522159428288 251.14871414200564 L646.1226575308019 251.05532934927987 L647.8930991187751 250.98732945859717 L649.6635407067482 250.8874327279274 L651.4339822947214 250.28127735607535 L653.2044238826945 249.91482014149068 L654.9748654706677 249.76145639100207 L656.7453070586408 249.6473514938911 L658.515748646614 249.4948458655332 L660.2861902345871 249.24920552640657 L662.0566318225603 248.99792938769934 L663.8270734105334 248.81194830945526 L665.5975149985067 248.4500821920917 L667.3679565864797 248.28280027174003 L669.138398174453 248.11778230321238 L670.908839762426 247.81359344172415 L672.6792813503993 247.7352789647559 L674.4497229383724 247.51439391269497 L676.2201645263456 247.3073496115552 L677.9906061143187 247.22856398285373 L679.7610477022919 247.06929502512554 L681.531489290265 246.92012325009634 L683.3019308782382 246.679501287608 L685.0723724662113 246.47692493097094 L686.8428140541845 246.19998535272862 L688.6132556421576 245.8979745750001 L690.3836972301308 245.83429929031112 L692.1541388181039 245.7178016914549 L693.9245804060771 245.41723117407656 L695.6950219940502 245.19879538316096 L697.4654635820234 245.02764005387724 L699.2359051699965 244.920761240498 L701.0063467579697 244.8158054589035 L702.7767883459428 244.58546455383163 L704.547229933916 243.9756589467699 L706.3176715218891 243.77301737614678 L708.0881131098623 243.68626816368916 L709.8585546978354 243.57005834069884 L711.6289962858086 243.38771970748695 L713.3994378737817 243.22403779160237 L715.1698794617548 243.0651529427476 L716.940321049728 242.88049845341803 L718.7107626377011 242.81010909316808 L720.4812042256743 242.74219026559868 L722.2516458136474 242.66184314205597 L724.0220874016206 242.36412289042164 L725.7925289895937 242.25775141164024 L727.562970577567 242.15564385381 L729.33341216554 241.95921364526166 L731.1038537535132 241.81063380085988 L732.8742953414863 241.6285504131381 L734.6447369294596 241.4825920822724 L736.4151785174327 241.26546170910976 L738.1856201054059 241.1582815881335 L739.956061693379 241.05580325948927 L741.7265032813522 240.82249506611572 " fill="none" stroke-width="1.6500000000000001" stroke="rgb(77,175,74)" stroke-opacity="1.0">
                </path>
              </g>
              <g>
                <path d="M35.32030968006439 322.9070364987896 L35.32030968006439 322.9070364987896 L37.09075126803754 320.26110806968336 L38.861192856010696 316.7384806991808 L40.63163444398385 314.88908809781566 L42.402076031957 312.79293990272356 L44.172517619930154 307.9340184973054 L45.9429592079033 306.19970667317716 L47.71340079587645 304.61426106042785 L49.483842383849606 302.4843628364391 L51.25428397182276 296.9469580642551 L53.02472555979591 293.470158352203 L54.795167147769064 291.4022126462927 L56.56560873574222 289.5682256368808 L58.33605032371537 286.8978668346797 L60.10649191168852 284.90605384073166 L61.876933499661675 282.55126151282246 L63.64737508763483 281.11867042462933 L65.41781667560798 276.2645319456594 L67.18825826358113 273.70439459231244 L68.95869985155429 270.69205860594604 L70.72914143952744 267.71966996573786 L72.49958302750059 266.0643712117914 L74.27002461547374 264.436667082545 L76.0404662034469 262.9576325319893 L77.81090779142005 261.53183559464844 L79.5813493793932 259.39791799088397 L81.35179096736636 257.8403410429088 L83.12223255533951 256.7133766789012 L84.89267414331266 254.8299436951744 L86.66311573128581 253.2640717925715 L88.43355731925897 251.13756205808403 L90.20399890723212 249.23118996173457 L91.97444049520527 247.50611882363503 L93.74488208317842 245.08886009211932 L95.51532367115158 244.2249828628679 L97.28576525912473 242.9422538561259 L99.05620684709788 241.78839067897508 L100.82664843507104 240.4586012909083 L102.59709002304419 239.10468156882067 L104.36753161101734 238.17890477381604 L106.1379731989905 237.27998425218934 L107.90841478696365 236.41764003877432 L109.6788563749368 235.80697017158207 L111.44929796290995 234.93526189117108 L113.2197395508831 227.67519371596833 L114.99018113885626 227.18208388094865 L116.76062272682941 225.9422142906845 L118.53106431480256 224.56067340656136 L120.30150590277569 224.13473926204108 L122.07194749074884 223.34830972300085 L123.842389078722 222.6717586093879 L125.61283066669515 221.83083840968413 L127.3832722546683 220.30809938281436 L129.15371384264145 219.25054403767382 L130.9241554306146 218.90718673470735 L132.69459701858776 217.92655160203367 L134.4650386065609 217.09883920609565 L136.23548019453406 215.98230979043922 L138.00592178250722 215.35041018256544 L139.77636337048037 214.20102197371307 L141.54680495845352 213.91595136190503 L143.31724654642667 213.44444212952214 L145.08768813439983 213.0936383853536 L146.85812972237298 212.62358253286382 L148.62857131034613 211.89822275704574 L150.39901289831928 211.56365290860003 L152.16945448629244 211.0388474286428 L153.9398960742656 210.50120771873645 L155.71033766223874 210.227019965005 L157.4807792502119 209.2653979233306 L159.25122083818505 207.882026958656 L161.0216624261582 207.36940023575931 L162.79210401413135 206.75697513186986 L164.5625456021045 206.4828822716163 L166.33298719007766 206.26835457475437 L168.1034287780508 204.36655032050086 L169.87387036602397 203.43718267016456 L171.64431195399712 203.24944306887 L173.41475354197027 203.06187213805933 L175.18519512994342 202.78742478822232 L176.95563671791658 202.6016135035433 L178.72607830588973 202.38573813931822 L180.49651989386288 202.19695795428254 L182.26696148183603 201.4812408731616 L184.0374030698092 201.3154439596218 L185.80784465778234 201.046245498867 L187.5782862457555 200.35388750562777 L189.34872783372865 199.36749071583205 L191.1191694217018 199.18220833088998 L192.88961100967495 197.8897553434457 L194.6600525976481 195.2916083549477 L196.43049418562126 195.1218448700912 L198.2009357735944 194.94999839886293 L199.97137736156756 194.7809806412667 L201.74181894954071 194.47247425930993 L203.51226053751387 194.29540902770756 L205.282702125487 194.00929779808953 L207.05314371346014 193.7145895491271 L208.8235853014333 193.07244975667152 L210.59402688940645 192.82025588121337 L212.3644684773796 192.50798035211173 L214.13491006535276 192.10877446641732 L215.9053516533259 191.89614283208263 L217.67579324129906 191.65604633048963 L219.4462348292722 191.48780903491584 L221.21667641724537 191.24010053467305 L222.98711800521852 190.6419558097132 L224.75755959319167 190.48188441137503 L226.52800118116483 190.1037213293531 L228.29844276913798 189.33165791213668 L230.06888435711113 188.77897183888533 L231.83932594508428 188.495913365233 L233.60976753305744 187.73128636622764 L235.3802091210306 187.42400753223495 L237.15065070900374 187.15158631502095 L238.9210922969769 186.9774928329576 L240.69153388495005 186.4557432050825 L242.4619754729232 186.2816632386387 L244.23241706089635 185.81933365841144 L246.0028586488695 185.03294930078096 L247.77330023684266 184.83772728266604 L249.5437418248158 184.66258906412557 L251.31418341278896 184.48087791216486 L253.08462500076212 184.110723786109 L254.85506658873527 183.8174042578541 L256.6255081767084 183.46632834708092 L258.3959497646816 183.15762673981374 L260.1663913526547 182.90966804105494 L261.9368329406279 182.61467250542833 L263.70727452860103 182.30008873055888 L265.4777161165742 180.62286853997742 L267.24815770454734 180.15894322452021 L269.0185992925205 179.30534810358063 L270.78904088049364 178.92412101002677 L272.5594824684668 178.6390303783424 L274.32992405643995 178.33647945869535 L276.1003656444131 178.0451555090846 L277.87080723238626 176.92913970789888 L279.6412488203594 176.24249423594043 L281.41169040833256 176.08212429593567 L283.1821319963057 175.88768453150783 L284.95257358427887 175.6874816902211 L286.723015172252 175.4858398841784 L288.4934567602252 175.30074293681844 L290.2638983481983 175.0738225287652 L292.0343399361715 174.7774900418539 L293.80478152414463 174.59339561346013 L295.5752231121178 173.4256468986452 L297.34566470009094 172.4700484332741 L299.1161062880641 172.29563323305277 L300.88654787603724 172.11662531417383 L302.6569894640104 171.89592363960938 L304.42743105198355 171.76420141533177 L306.1978726399567 170.63429396234037 L307.96831422792985 170.21372390401268 L309.738755815903 169.57431172757285 L311.50919740387616 169.42520692769165 L313.2796389918493 168.93644689341002 L315.05008057982246 168.46216879828916 L316.8205221677956 168.2659889786248 L318.59096375576877 167.6913722026208 L320.3614053437419 167.179520149899 L322.1318469317151 166.83343382304452 L323.9022885196882 166.6394222099945 L325.6727301076614 166.35122248118927 L327.44317169563453 166.19364770681895 L329.2136132836077 165.15260508034865 L330.98405487158084 163.59474408996846 L332.754496459554 163.42501294420177 L334.52493804752714 163.0341070271784 L336.2953796355003 162.55969241901707 L338.06582122347345 161.98863648104106 L339.8362628114466 161.23072512337038 L341.60670439941975 160.79889589269072 L343.3771459873929 160.54015961183453 L345.14758757536606 159.67127540042395 L346.9180291633392 159.339732379639 L348.68847075131237 157.12273854939767 L350.4589123392855 156.94271458514032 L352.22935392725867 155.2551443295218 L353.9997955152318 154.14569011566363 L355.770237103205 153.71209381430066 L357.54067869117813 153.4669065067218 L359.3111202791513 152.68945479660346 L361.08156186712444 152.08887050142627 L362.8520034550976 151.59046056101818 L364.62244504307074 150.58802595012423 L366.3928866310439 150.32305199794976 L368.16332821901705 150.0426601588492 L369.9337698069902 149.70073118261104 L371.70421139496335 149.50104377825815 L373.4746529829365 149.19474403911897 L375.2450945709096 147.0036354605151 L377.01553615888275 146.06300214414637 L378.7859777468559 145.6972662609725 L380.55641933482906 142.08782390374517 L382.3268609228022 141.6330951366348 L384.09730251077536 141.1949432942968 L385.8677440987485 140.88140334508262 L387.63818568672167 140.63758913882245 L389.4086272746948 135.99947350612655 L391.179068862668 134.83518513011091 L392.9495104506411 133.9625773175 L394.7199520386143 133.65443992308568 L396.49039362658743 132.93577592025645 L398.2608352145606 132.7494620006437 L400.03127680253374 131.94071215804914 L401.8017183905069 131.77964091121748 L403.57215997848004 131.197597517938 L405.3426015664532 130.35997711173576 L407.11304315442635 130.10834547596627 L408.8834847423995 129.3588144707263 L410.65392633037266 129.16541475023618 L412.4243679183458 127.46324097079528 L414.19480950631896 126.72231737568987 L415.9652510942921 126.32249092704387 L417.73569268226527 126.0794007976713 L419.5061342702384 125.21183266012696 L421.2765758582116 125.03943810301078 L423.0470174461847 123.91484217942477 L424.8174590341579 122.82456538909307 L426.58790062213103 122.66546120297855 L428.3583422101042 122.47727226874574 L430.12878379807734 122.31297341185274 L431.8992253860505 122.12343977843457 L433.66966697402364 121.2160770135878 L435.4401085619968 119.96825462343983 L437.21055014996995 119.81046479336345 L438.9809917379431 119.61881889192514 L440.75143332591625 118.14082950668174 L442.5218749138894 116.67005403575413 L444.29231650186256 116.4796561280813 L446.0627580898357 116.27526275069471 L447.83319967780886 115.79550392832087 L449.603641265782 115.2428263884947 L451.37408285375517 114.85949840697774 L453.1445244417283 114.63488424196575 L454.9149660297015 114.37795577472659 L456.6854076176746 114.12960787034214 L458.4558492056478 113.97155559790198 L460.22629079362093 113.52139837348011 L461.9967323815941 113.08866057661868 L463.76717396956724 112.90081601015049 L465.5376155575404 112.50219211903718 L467.30805714551354 112.15949893342966 L469.0784987334867 111.86809160166794 L470.84894032145985 111.25419186972775 L472.619381909433 110.60856246125144 L474.38982349740616 110.32604086647771 L476.1602650853793 108.571803951254 L477.93070667335246 108.26393610021162 L479.7011482613256 108.02831775957324 L481.47158984929877 107.87241139279107 L483.2420314372719 107.68519119119821 L485.0124730252451 107.4524810901161 L486.7829146132182 107.22151023313407 L488.5533562011914 106.81642073127722 L490.32379778916453 106.67475379115479 L492.0942393771377 106.50474907104194 L493.86468096511084 106.34593707440825 L495.635122553084 106.10586725003435 L497.40556414105714 105.90184744248145 L499.1760057290303 105.58859788612841 L500.94644731700345 105.3105663802317 L502.7168889049766 105.12842865926225 L504.48733049294975 104.96895998296637 L506.2577720809229 104.5617226415246 L508.02821366889606 103.94297427778497 L509.7986552568692 103.56193319032741 L511.56909684484236 103.27370156486904 L513.3395384328155 102.96220603030073 L515.1099800207887 102.52722034157486 L516.8804216087618 102.34776341476538 L518.650863196735 102.15334613379937 L520.4213047847081 101.8414362152422 L522.1917463726813 101.49378101533182 L523.9621879606544 101.21330744840836 L525.7326295486276 101.01383842340857 L527.5030711366007 100.8190160360752 L529.273512724574 99.99523437094359 L531.043954312547 99.60017110555327 L532.8143959005203 99.03635737975205 L534.5848374884933 98.20763351455824 L536.3552790764666 97.8640530859075 L538.1257206644397 97.417102706814 L539.8961622524129 96.30518773552981 L541.666603840386 96.09739389471977 L543.4370454283592 95.67190711210307 L545.2074870163323 95.22701856220561 L546.9779286043055 94.90662058993664 L548.7483701922786 89.19259406731541 L550.5188117802517 88.78498247500065 L552.2892533682249 88.27484393375875 L554.059694956198 87.75388783838764 L555.8301365441712 87.3600278492028 L557.6005781321443 86.40714849929856 L559.3710197201175 86.22091356719736 L561.1414613080906 85.47209464711176 L562.9119028960638 84.75150670459416 L564.6823444840369 84.49950477788852 L566.4527860720101 84.02256296908155 L568.2232276599832 83.61359644531021 L569.9936692479564 83.37682666834044 L571.7641108359295 82.96298773247747 L573.5345524239027 81.5592950464966 L575.3049940118758 80.75796367857274 L577.075435599849 80.51077494651668 L578.8458771878221 80.25708789844907 L580.6163187757953 79.62183548467186 L582.3867603637684 78.55261084575838 L584.1572019517416 78.19177059858231 L585.9276435397147 76.98523705987384 L587.6980851276879 76.49303308280699 L589.468526715661 75.15745140211078 L591.2389683036342 74.84218772285732 L593.0094098916073 74.33562015249794 L594.7798514795805 74.09318362558287 L596.5502930675536 73.72745097111604 L598.3207346555268 73.18677027986939 L600.0911762435 72.71408944327871 L601.8616178314732 72.24520496919234 L603.6320594194463 72.00693309786709 L605.4025010074195 71.79723943547111 L607.1729425953926 71.42756459094105 L608.9433841833658 71.24516678348326 L610.7138257713389 68.84349437897771 L612.4842673593121 68.37235731979467 L614.2547089472852 68.03502145562413 L616.0251505352584 67.80063862218145 L617.7955921232315 67.62259796571658 L619.5660337112047 67.10531469304794 L621.3364752991778 66.00565844899404 L623.106916887151 64.62977720650895 L624.8773584751241 64.37124487378259 L626.6478000630973 63.50167663946303 L628.4182416510704 63.32007469287919 L630.1886832390436 63.127892670919266 L631.9591248270167 62.47526338440514 L633.7295664149899 62.10895876406312 L635.500008002963 58.5921042841091 L637.2704495909362 58.33523029497786 L639.0408911789093 57.981688895825926 L640.8113327668825 57.58344663344906 L642.5817743548556 52.81501434674129 L644.3522159428288 52.64215155542354 L646.1226575308019 52.30740465433536 L647.8930991187751 52.034969745140415 L649.6635407067482 51.74969618029786 L651.4339822947214 48.4101431527975 L653.2044238826945 47.01304466833989 L654.9748654706677 46.355461571935905 L656.7453070586408 45.81309377937487 L658.515748646614 45.27009100060286 L660.2861902345871 44.28185924783003 L662.0566318225603 43.617931879888715 L663.8270734105334 43.1201457956405 L665.5975149985067 42.80390186275184 L667.3679565864797 42.02817831610952 L669.138398174453 41.761616521452936 L670.908839762426 40.39552426056832 L672.6792813503993 40.0620707395089 L674.4497229383724 39.28211781169597 L676.2201645263456 38.75175405861347 L677.9906061143187 38.52018908561479 L679.7610477022919 37.720236051936354 L681.531489290265 37.28257766627638 L683.3019308782382 36.498876582960975 L685.0723724662113 35.91640281880922 L686.8428140541845 35.13089779709361 L688.6132556421576 34.22560147138802 L690.3836972301308 34.04997660073644 L692.1541388181039 33.85416130950824 L693.9245804060771 33.41321569734532 L695.6950219940502 32.48174084939035 L697.4654635820234 31.6843744829697 L699.2359051699965 31.461392884370866 L701.0063467579697 31.121886774759446 L702.7767883459428 30.355140366624028 L704.547229933916 26.35032192994953 L706.3176715218891 25.964917006517567 L708.0881131098623 25.64293111009181 L709.8585546978354 25.373824159444553 L711.6289962858086 24.618646452725443 L713.3994378737817 24.13341689715901 L715.1698794617548 23.784936490173664 L716.940321049728 23.26630205531626 L718.7107626377011 23.03878153659099 L720.4812042256743 22.837789385059637 L722.2516458136474 22.671759520624164 L724.0220874016206 21.104887296951006 L725.7925289895937 20.855696948370962 L727.562970577567 20.55700193957034 L729.33341216554 19.839066606920028 L731.1038537535132 19.53178903594676 L732.8742953414863 19.055765346105147 L734.6447369294596 18.464350477928974 L736.4151785174327 17.42324900380561 L738.1856201054059 16.996465075974584 L739.956061693379 16.68746432662539 L741.7265032813522 15.500000000000057 " fill="none" stroke-width="1.6500000000000001" stroke="rgb(152,78,163)" stroke-opacity="1.0">
                </path>
              </g>
              <g>
                <path d="M35.32030968006439 325.27471913019616 L35.32030968006439 325.27471913019616 L37.09075126803754 325.0674039937829 L38.861192856010696 324.8566945692816 L40.63163444398385 324.75707114937705 L42.402076031957 324.679416448611 L44.172517619930154 324.4335008246364 L45.9429592079033 324.37495298472004 L47.71340079587645 324.21234884319057 L49.483842383849606 324.0218235315855 L51.25428397182276 323.8134998610301 L53.02472555979591 323.5866128294753 L54.795167147769064 323.5021767850556 L56.56560873574222 323.3989599593417 L58.33605032371537 323.2148277739744 L60.10649191168852 323.02348347956763 L61.876933499661675 322.84510431765887 L63.64737508763483 322.77365526183274 L65.41781667560798 322.6690909747012 L67.18825826358113 322.55421137038496 L68.95869985155429 322.4302271829927 L70.72914143952744 322.3161275460823 L72.49958302750059 322.16541798783624 L74.27002461547374 322.1028915135032 L76.0404662034469 321.95979128409283 L77.81090779142005 321.89206723551524 L79.5813493793932 321.8345025862777 L81.35179096736636 321.7285812460317 L83.12223255533951 321.69006782467875 L84.89267414331266 321.45981966778453 L86.66311573128581 321.32588412599927 L88.43355731925897 321.25876454827164 L90.20399890723212 321.17128900784473 L91.97444049520527 321.0361129328246 L93.74488208317842 320.92448222035443 L95.51532367115158 320.8885806329058 L97.28576525912473 320.81763892806043 L99.05620684709788 320.61968588193696 L100.82664843507104 320.4432383245586 L102.59709002304419 320.3618657638921 L104.36753161101734 320.29679775176936 L106.1379731989905 320.24637040635247 L107.90841478696365 319.9936606982865 L109.6788563749368 319.93673917171367 L111.44929796290995 319.82555142564485 L113.2197395508831 319.56629278419683 L114.99018113885626 319.49170649615075 L116.76062272682941 319.38651587086923 L118.53106431480256 319.25670486444835 L120.30150590277569 319.06228457950505 L122.07194749074884 318.76872023249905 L123.842389078722 318.6787284689196 L125.61283066669515 318.5980044950934 L127.3832722546683 318.3450694560434 L129.15371384264145 318.2462976589401 L130.9241554306146 318.20765475785583 L132.69459701858776 318.1173766310268 L134.4650386065609 318.0216700042326 L136.23548019453406 317.89468953853464 L138.00592178250722 317.81260745445064 L139.77636337048037 317.73560463350606 L141.54680495845352 317.5799970124328 L143.31724654642667 317.5240286145632 L145.08768813439983 317.3729131005737 L146.85812972237298 317.2844805249945 L148.62857131034613 317.18333971457645 L150.39901289831928 317.0561487242564 L152.16945448629244 316.95062346233055 L153.9398960742656 316.7060510592274 L155.71033766223874 316.6527205616035 L157.4807792502119 316.42183535392047 L159.25122083818505 316.2204441746649 L161.0216624261582 316.139963329043 L162.79210401413135 316.0606670188531 L164.5625456021045 315.95939661889156 L166.33298719007766 315.82025744494086 L168.1034287780508 315.7179891623743 L169.87387036602397 315.5837733330522 L171.64431195399712 315.5144768444676 L173.41475354197027 315.47349305995596 L175.18519512994342 315.29629807063833 L176.95563671791658 315.19553988978777 L178.72607830588973 315.1435030555138 L180.49651989386288 315.0238270668876 L182.26696148183603 314.8012572783746 L184.0374030698092 314.6891145709657 L185.80784465778234 314.61782549529863 L187.5782862457555 314.52006820388686 L189.34872783372865 314.40928283951706 L191.1191694217018 314.3745427997644 L192.88961100967495 314.131862982965 L194.6600525976481 313.9581283465116 L196.43049418562126 313.8661235688493 L198.2009357735944 313.81237866759676 L199.97137736156756 313.69379455779824 L201.74181894954071 313.5883755024553 L203.51226053751387 313.50528479152774 L205.282702125487 313.38557780906325 L207.05314371346014 313.3068956722691 L208.8235853014333 313.1152801587696 L210.59402688940645 313.072109667286 L212.3644684773796 312.948855747678 L214.13491006535276 312.8186333788944 L215.9053516533259 312.7614820460183 L217.67579324129906 312.5395934332579 L219.4462348292722 312.4616066748092 L221.21667641724537 312.372214965149 L222.98711800521852 312.1997513705547 L224.75755959319167 312.0767323042489 L226.52800118116483 311.9648437186092 L228.29844276913798 311.7255077563886 L230.06888435711113 311.5671602633184 L231.83932594508428 311.4680104136126 L233.60976753305744 311.3018149414285 L235.3802091210306 311.22174931759747 L237.15065070900374 311.1706006124805 L238.9210922969769 311.0342035952852 L240.69153388495005 310.8456075043058 L242.4619754729232 310.77426999110463 L244.23241706089635 310.6647910176275 L246.0028586488695 310.55087324408004 L247.77330023684266 310.33031014068376 L249.5437418248158 310.05520382453693 L251.31418341278896 309.95134743772286 L253.08462500076212 309.7758686742054 L254.85506658873527 309.70767547980745 L256.6255081767084 309.54774666021945 L258.3959497646816 309.41807593362086 L260.1663913526547 309.35532909035874 L261.9368329406279 309.22249524103484 L263.70727452860103 309.15395389696295 L265.4777161165742 308.93790311785773 L267.24815770454734 308.69221970502826 L269.0185992925205 308.4432090788986 L270.78904088049364 308.1525756339941 L272.5594824684668 308.06116399521244 L274.32992405643995 307.962719642726 L276.1003656444131 307.71762716362497 L277.87080723238626 307.5850030699834 L279.6412488203594 307.46842542069874 L281.41169040833256 307.41252775626145 L283.1821319963057 307.2029596407032 L284.95257358427887 307.0296933928279 L286.723015172252 306.83828353492 L288.4934567602252 306.7453613230598 L290.2638983481983 306.66156631263186 L292.0343399361715 306.5583683546533 L293.80478152414463 306.50836156290734 L295.5752231121178 306.36556913972544 L297.34566470009094 306.18704268042694 L299.1161062880641 306.12542249797855 L300.88654787603724 306.08572216722905 L302.6569894640104 306.0358542893741 L304.42743105198355 305.9751157999175 L306.1978726399567 305.86016679245154 L307.96831422792985 305.65109235403565 L309.738755815903 305.57204450239 L311.50919740387616 305.3955351551492 L313.2796389918493 305.18088571276945 L315.05008057982246 305.10097430556596 L316.8205221677956 305.0201739089287 L318.59096375576877 304.8347077586109 L320.3614053437419 304.6632153959264 L322.1318469317151 304.5674586918229 L323.9022885196882 304.5273582834433 L325.6727301076614 304.45524026232806 L327.44317169563453 304.4007862246474 L329.2136132836077 304.02436797307973 L330.98405487158084 303.814336451965 L332.754496459554 303.7652692738404 L334.52493804752714 303.5473193483949 L336.2953796355003 303.420164403957 L338.06582122347345 303.3642269057897 L339.8362628114466 303.2748282383873 L341.60670439941975 303.1254028673201 L343.3771459873929 303.0075375665607 L345.14758757536606 302.8556503350781 L346.9180291633392 302.7780984514005 L348.68847075131237 302.5719219406373 L350.4589123392855 302.477136758351 L352.22935392725867 302.3393471815432 L353.9997955152318 302.22157140202614 L355.770237103205 302.1383610183548 L357.54067869117813 302.06532892815414 L359.3111202791513 301.9066165780411 L361.08156186712444 301.83409478663026 L362.8520034550976 301.7347604777545 L364.62244504307074 301.57732206352387 L366.3928866310439 301.50859887216063 L368.16332821901705 301.43625093230224 L369.9337698069902 301.2382745117394 L371.70421139496335 301.172856862543 L373.4746529829365 301.09432740122514 L375.2450945709096 300.92636979427783 L377.01553615888275 300.638910143493 L378.7859777468559 300.4203471293369 L380.55641933482906 300.26071242958034 L382.3268609228022 300.1982520714738 L384.09730251077536 300.0917046574385 L385.8677440987485 299.9494698573942 L387.63818568672167 299.83662205878375 L389.4086272746948 299.6173727043713 L391.179068862668 299.34882023322757 L392.9495104506411 299.185141693638 L394.7199520386143 298.9875373769527 L396.49039362658743 298.6788624859284 L398.2608352145606 298.62896676636893 L400.03127680253374 298.4190804723083 L401.8017183905069 298.3414697442531 L403.57215997848004 298.2274379439741 L405.3426015664532 298.0697532638146 L407.11304315442635 297.8489905370357 L408.8834847423995 297.7584462539816 L410.65392633037266 297.6472699066511 L412.4243679183458 297.5244406638533 L414.19480950631896 297.37614735158616 L415.9652510942921 297.25008582966404 L417.73569268226527 297.18827900139377 L419.5061342702384 297.01831611385825 L421.2765758582116 296.8364715320493 L423.0470174461847 296.70277926388025 L424.8174590341579 296.50393532821107 L426.58790062213103 296.3087280570843 L428.3583422101042 296.1729664341258 L430.12878379807734 295.9432343340546 L431.8992253860505 295.74932295448184 L433.66966697402364 295.5176759523977 L435.4401085619968 295.2374508775725 L437.21055014996995 295.1330161280062 L438.9809917379431 294.98127512227813 L440.75143332591625 294.8069960247251 L442.5218749138894 294.67991070364496 L444.29231650186256 294.52532594616326 L446.0627580898357 294.34198417789736 L447.83319967780886 294.06661917531864 L449.603641265782 293.7662352879078 L451.37408285375517 293.65847328754734 L453.1445244417283 293.4991065739507 L454.9149660297015 293.3278105282409 L456.6854076176746 293.2504227251016 L458.4558492056478 293.11229258547553 L460.22629079362093 293.038260480698 L461.9967323815941 292.90698656271707 L463.76717396956724 292.69731736501507 L465.5376155575404 292.62112389999027 L467.30805714551354 292.4564609088553 L469.0784987334867 292.201209455276 L470.84894032145985 292.07148178145576 L472.619381909433 291.91649374546336 L474.38982349740616 291.7903554739986 L476.1602650853793 291.6396782886766 L477.93070667335246 291.4044853776132 L479.7011482613256 291.2867834213072 L481.47158984929877 291.15570000202206 L483.2420314372719 291.04262033274415 L485.0124730252451 291.00715864034265 L486.7829146132182 290.83806330387443 L488.5533562011914 290.6531757790378 L490.32379778916453 290.5485897900496 L492.0942393771377 290.4221810059863 L493.86468096511084 290.3678486435519 L495.635122553084 290.30250877245953 L497.40556414105714 290.2341115706357 L499.1760057290303 290.12201507892763 L500.94644731700345 289.8085861550541 L502.7168889049766 289.68658782929106 L504.48733049294975 289.60018084282916 L506.2577720809229 289.4327778357518 L508.02821366889606 289.2540158610014 L509.7986552568692 289.1986705054562 L511.56909684484236 289.0260862108397 L513.3395384328155 288.96521031283487 L515.1099800207887 288.70384552459166 L516.8804216087618 288.64396519455 L518.650863196735 288.4882277957184 L520.4213047847081 288.3740008583784 L522.1917463726813 288.2904768132473 L523.9621879606544 288.1521352212809 L525.7326295486276 288.03474618403374 L527.5030711366007 287.95056547539014 L529.273512724574 287.85125010281683 L531.043954312547 287.65013499102145 L532.8143959005203 287.49209095946304 L534.5848374884933 287.3786257586588 L536.3552790764666 287.16947771055624 L538.1257206644397 287.03191221727434 L539.8961622524129 286.92341720700847 L541.666603840386 286.8631513300532 L543.4370454283592 286.745470049159 L545.2074870163323 286.68350146054075 L546.9779286043055 286.61224784855415 L548.7483701922786 286.15809397324045 L550.5188117802517 286.03956885154525 L552.2892533682249 285.8985514440158 L554.059694956198 285.7683350882249 L555.8301365441712 285.5547137347521 L557.6005781321443 285.35014886336944 L559.3710197201175 285.3080843680085 L561.1414613080906 285.1305627695286 L562.9119028960638 284.99868542163495 L564.6823444840369 284.791422730306 L566.4527860720101 284.69813049076924 L568.2232276599832 284.47819232298565 L569.9936692479564 284.29869558809855 L571.7641108359295 284.15557050084544 L573.5345524239027 283.914826215352 L575.3049940118758 283.8070996957505 L577.075435599849 283.73462050853414 L578.8458771878221 283.58845957289185 L580.6163187757953 283.47007850020185 L582.3867603637684 283.3592512522474 L584.1572019517416 283.20591077075045 L585.9276435397147 283.01227532762 L587.6980851276879 282.9423931353972 L589.468526715661 282.728334195392 L591.2389683036342 282.65336462536766 L593.0094098916073 282.53125988770705 L594.7798514795805 282.23490201024515 L596.5502930675536 282.1617966344462 L598.3207346555268 282.0551334067471 L600.0911762435 281.9673652042855 L601.8616178314732 281.8004975167311 L603.6320594194463 281.6657438025803 L605.4025010074195 281.6187629028007 L607.1729425953926 281.48765581181675 L608.9433841833658 281.4340513302327 L610.7138257713389 281.27295031957107 L612.4842673593121 281.17505605107436 L614.2547089472852 281.0839032200898 L616.0251505352584 280.9687782836144 L617.7955921232315 280.90164476796406 L619.5660337112047 280.7608885743268 L621.3364752991778 280.6201185645396 L623.106916887151 280.35672246801835 L624.8773584751241 280.295623194304 L626.6478000630973 280.12259929288626 L628.4182416510704 280.0609824605834 L630.1886832390436 279.98922111961286 L631.9591248270167 279.8912380712097 L633.7295664149899 279.84588828716824 L635.500008002963 279.6462863417154 L637.2704495909362 279.5816601585093 L639.0408911789093 279.4883044708332 L640.8113327668825 279.30410684961214 L642.5817743548556 279.01883247728983 L644.3522159428288 278.96027509104937 L646.1226575308019 278.7636464942236 L647.8930991187751 278.64373366707144 L649.6635407067482 278.52735973500955 L651.4339822947214 278.36091155226876 L653.2044238826945 278.2180707285052 L654.9748654706677 278.05882572367904 L656.7453070586408 277.98052648590647 L658.515748646614 277.87901222043615 L660.2861902345871 277.6568969002421 L662.0566318225603 277.4693459044836 L663.8270734105334 277.22602952029956 L665.5975149985067 276.8207354722503 L667.3679565864797 276.7382155192183 L669.138398174453 276.61861260508584 L670.908839762426 276.4367967852802 L672.6792813503993 276.2955185113509 L674.4497229383724 276.1045428777415 L676.2201645263456 276.0097741872239 L677.9906061143187 275.96336657485546 L679.7610477022919 275.8575590063359 L681.531489290265 275.65793725077435 L683.3019308782382 275.52444898244966 L685.0723724662113 275.4528161397035 L686.8428140541845 275.32430177881827 L688.6132556421576 275.1587820504576 L690.3836972301308 275.11689820547207 L692.1541388181039 274.9089553944506 L693.9245804060771 274.7457472426931 L695.6950219940502 274.58034402381884 L697.4654635820234 274.4589690761834 L699.2359051699965 274.3611033366573 L701.0063467579697 274.2599708324598 L702.7767883459428 274.07353652708395 L704.547229933916 273.9008743333241 L706.3176715218891 273.7101095780616 L708.0881131098623 273.65624644465174 L709.8585546978354 273.50849996326673 L711.6289962858086 273.39704705664326 L713.3994378737817 273.29492574819824 L715.1698794617548 273.18872657858896 L716.940321049728 273.10418717459294 L718.7107626377011 272.8875207407964 L720.4812042256743 272.8417335251632 L722.2516458136474 272.77251386057964 L724.0220874016206 272.60087485147665 L725.7925289895937 272.46361592697525 L727.562970577567 272.30397216424217 L729.33341216554 272.1917441769342 L731.1038537535132 271.98751571156254 L732.8742953414863 271.8739801678911 L734.6447369294596 271.75737748959216 L736.4151785174327 271.6227327224459 L738.1856201054059 271.5625858398512 L739.956061693379 271.3964584046612 L741.7265032813522 271.28850328511294 " fill="none" stroke-width="1.6500000000000001" stroke="rgb(255,127,0)" stroke-opacity="1.0">
                </path>
              </g>
            </g>
          </g>
        </g>
        <defs>
          <clipPath id="ctsqcgG">
            <rect x="58.95712304215423" y="0.0" width="777.0468129614165" height="341.0">
            </rect>
          </clipPath>
        </defs>
      </g>
      <g>
        <g transform="translate(58.95712304215423 341.0 ) ">
          <g transform="translate(35.32030968006439 0.0 ) ">
            <line stroke-width="1.0" stroke="rgb(71,71,71)" stroke-opacity="1.0" x2="0.0" y2="4.0">
            </line>
            <g transform="translate(0.0 7.0 ) ">
              <text class="axis-text-x" text-anchor="middle" dy="0.7em" y="0.0">
                <tspan>0</tspan>
              </text>
            </g>
          </g>
          <g transform="translate(123.842389078722 0.0 ) ">
            <line stroke-width="1.0" stroke="rgb(71,71,71)" stroke-opacity="1.0" x2="0.0" y2="4.0">
            </line>
            <g transform="translate(0.0 7.0 ) ">
              <text class="axis-text-x" text-anchor="middle" dy="0.7em" y="0.0">
                <tspan>50</tspan>
              </text>
            </g>
          </g>
          <g transform="translate(212.3644684773796 0.0 ) ">
            <line stroke-width="1.0" stroke="rgb(71,71,71)" stroke-opacity="1.0" x2="0.0" y2="4.0">
            </line>
            <g transform="translate(0.0 7.0 ) ">
              <text class="axis-text-x" text-anchor="middle" dy="0.7em" y="0.0">
                <tspan>100</tspan>
              </text>
            </g>
          </g>
          <g transform="translate(300.88654787603724 0.0 ) ">
            <line stroke-width="1.0" stroke="rgb(71,71,71)" stroke-opacity="1.0" x2="0.0" y2="4.0">
            </line>
            <g transform="translate(0.0 7.0 ) ">
              <text class="axis-text-x" text-anchor="middle" dy="0.7em" y="0.0">
                <tspan>150</tspan>
              </text>
            </g>
          </g>
          <g transform="translate(389.4086272746948 0.0 ) ">
            <line stroke-width="1.0" stroke="rgb(71,71,71)" stroke-opacity="1.0" x2="0.0" y2="4.0">
            </line>
            <g transform="translate(0.0 7.0 ) ">
              <text class="axis-text-x" text-anchor="middle" dy="0.7em" y="0.0">
                <tspan>200</tspan>
              </text>
            </g>
          </g>
          <g transform="translate(477.93070667335246 0.0 ) ">
            <line stroke-width="1.0" stroke="rgb(71,71,71)" stroke-opacity="1.0" x2="0.0" y2="4.0">
            </line>
            <g transform="translate(0.0 7.0 ) ">
              <text class="axis-text-x" text-anchor="middle" dy="0.7em" y="0.0">
                <tspan>250</tspan>
              </text>
            </g>
          </g>
          <g transform="translate(566.4527860720101 0.0 ) ">
            <line stroke-width="1.0" stroke="rgb(71,71,71)" stroke-opacity="1.0" x2="0.0" y2="4.0">
            </line>
            <g transform="translate(0.0 7.0 ) ">
              <text class="axis-text-x" text-anchor="middle" dy="0.7em" y="0.0">
                <tspan>300</tspan>
              </text>
            </g>
          </g>
          <g transform="translate(654.9748654706677 0.0 ) ">
            <line stroke-width="1.0" stroke="rgb(71,71,71)" stroke-opacity="1.0" x2="0.0" y2="4.0">
            </line>
            <g transform="translate(0.0 7.0 ) ">
              <text class="axis-text-x" text-anchor="middle" dy="0.7em" y="0.0">
                <tspan>350</tspan>
              </text>
            </g>
          </g>
          <g transform="translate(743.4969448693253 0.0 ) ">
            <line stroke-width="1.0" stroke="rgb(71,71,71)" stroke-opacity="1.0" x2="0.0" y2="4.0">
            </line>
            <g transform="translate(0.0 7.0 ) ">
              <text class="axis-text-x" text-anchor="middle" dy="0.7em" y="0.0">
                <tspan>400</tspan>
              </text>
            </g>
          </g>
          <line x1="0.0" y1="0.0" x2="777.0468129614165" y2="0.0" stroke-width="1.0" stroke="rgb(71,71,71)" stroke-opacity="1.0">
          </line>
        </g>
        <g transform="translate(58.95712304215423 0.0 ) ">
          <g transform="translate(0.0 325.5 ) ">
            <g transform="translate(-3.0 0.0 ) ">
              <text class="axis-text-y" text-anchor="end" dy="0.35em" y="0.0">
                <tspan>0</tspan>
              </text>
            </g>
          </g>
          <g transform="translate(0.0 274.1547202838643 ) ">
            <g transform="translate(-3.0 0.0 ) ">
              <text class="axis-text-y" text-anchor="end" dy="0.35em" y="0.0">
                <tspan>200,000</tspan>
              </text>
            </g>
          </g>
          <g transform="translate(0.0 222.80944056772864 ) ">
            <g transform="translate(-3.0 0.0 ) ">
              <text class="axis-text-y" text-anchor="end" dy="0.35em" y="0.0">
                <tspan>400,000</tspan>
              </text>
            </g>
          </g>
          <g transform="translate(0.0 171.46416085159294 ) ">
            <g transform="translate(-3.0 0.0 ) ">
              <text class="axis-text-y" text-anchor="end" dy="0.35em" y="0.0">
                <tspan>600,000</tspan>
              </text>
            </g>
          </g>
          <g transform="translate(0.0 120.11888113545726 ) ">
            <g transform="translate(-3.0 0.0 ) ">
              <text class="axis-text-y" text-anchor="end" dy="0.35em" y="0.0">
                <tspan>800,000</tspan>
              </text>
            </g>
          </g>
          <g transform="translate(0.0 68.77360141932155 ) ">
            <g transform="translate(-3.0 0.0 ) ">
              <text class="axis-text-y" text-anchor="end" dy="0.35em" y="0.0">
                <tspan>1e+6</tspan>
              </text>
            </g>
          </g>
          <g transform="translate(0.0 17.428321703185873 ) ">
            <g transform="translate(-3.0 0.0 ) ">
              <text class="axis-text-y" text-anchor="end" dy="0.35em" y="0.0">
                <tspan>1.2e+6</tspan>
              </text>
            </g>
          </g>
        </g>
      </g>
    </g>
    <g transform="translate(16.0 177.0 ) rotate(-90.0 ) ">
      <text class="axis-title-y" y="0.0" text-anchor="middle">
        <tspan>Meta Regret</tspan>
      </text>
    </g>
    <g transform="translate(476.9805295228625 393.0 ) ">
      <text class="axis-title-x" y="0.0" text-anchor="middle">
        <tspan>N</tspan>
      </text>
    </g>
    <g transform="translate(877.0039360035707 103.25 ) ">
      <rect x="0.0" y="0.0" height="147.5" width="122.99606399642931" stroke="rgb(71,71,71)" stroke-opacity="1.0" stroke-width="0.0" fill="rgb(255,255,255)" fill-opacity="1.0">
      </rect>
      <g transform="translate(5.0 5.0 ) ">
        <g transform="translate(0.0 12.0 ) ">
          <text class="legend-title" y="0.0">
            <tspan>agent</tspan>
          </text>
        </g>
        <g transform="translate(0.0 22.5 ) ">
          <g transform="">
            <g>
              <g transform="translate(1.0 1.0 ) ">
                <g>
                  <line x1="0.0" y1="10.5" x2="21.0" y2="10.5" stroke="rgb(228,26,28)" stroke-opacity="1.0" fill="rgb(255,255,255)" fill-opacity="1.0" stroke-width="1.6500000000000001">
                  </line>
                </g>
              </g>
            </g>
            <g transform="translate(26.9903027277341 16.05 ) ">
              <text class="legend-item" y="0.0">
                <tspan>Clairvoyant</tspan>
              </text>
            </g>
          </g>
          <g transform="translate(0.0 23.0 ) ">
            <g>
              <g transform="translate(1.0 1.0 ) ">
                <g>
                  <line x1="0.0" y1="10.5" x2="21.0" y2="10.5" stroke="rgb(55,126,184)" stroke-opacity="1.0" fill="rgb(255,255,255)" fill-opacity="1.0" stroke-width="1.6500000000000001">
                  </line>
                </g>
              </g>
            </g>
            <g transform="translate(26.9903027277341 16.05 ) ">
              <text class="legend-item" y="0.0">
                <tspan>Greedy</tspan>
              </text>
            </g>
          </g>
          <g transform="translate(0.0 46.0 ) ">
            <g>
              <g transform="translate(1.0 1.0 ) ">
                <g>
                  <line x1="0.0" y1="10.5" x2="21.0" y2="10.5" stroke="rgb(77,175,74)" stroke-opacity="1.0" fill="rgb(255,255,255)" fill-opacity="1.0" stroke-width="1.6500000000000001">
                  </line>
                </g>
              </g>
            </g>
            <g transform="translate(26.9903027277341 16.05 ) ">
              <text class="legend-item" y="0.0">
                <tspan>MTS</tspan>
              </text>
            </g>
          </g>
          <g transform="translate(0.0 69.0 ) ">
            <g>
              <g transform="translate(1.0 1.0 ) ">
                <g>
                  <line x1="0.0" y1="10.5" x2="21.0" y2="10.5" stroke="rgb(152,78,163)" stroke-opacity="1.0" fill="rgb(255,255,255)" fill-opacity="1.0" stroke-width="1.6500000000000001">
                  </line>
                </g>
              </g>
            </g>
            <g transform="translate(26.9903027277341 16.05 ) ">
              <text class="legend-item" y="0.0">
                <tspan>RL2PPO</tspan>
              </text>
            </g>
          </g>
          <g transform="translate(0.0 92.0 ) ">
            <g>
              <g transform="translate(1.0 1.0 ) ">
                <g>
                  <line x1="0.0" y1="10.5" x2="21.0" y2="10.5" stroke="rgb(255,127,0)" stroke-opacity="1.0" fill="rgb(255,255,255)" fill-opacity="1.0" stroke-width="1.6500000000000001">
                  </line>
                </g>
              </g>
            </g>
            <g transform="translate(26.9903027277341 16.05 ) ">
              <text class="legend-item" y="0.0">
                <tspan>TS</tspan>
              </text>
            </g>
          </g>
        </g>
      </g>
    </g>
    <path fill="rgb(0,0,0)" fill-opacity="0.0" stroke="rgb(71,71,71)" stroke-opacity="1.0" stroke-width="0.0" d="M0.0 0.0 L0.0 400.0 L1000.0 400.0 L1000.0 0.0 Z" pointer-events="none">
    </path>
  </g>
  <g id="dlRLLpx">
  </g>
</svg>