<svg xmlns="http://www.w3.org/2000/svg" xmlns:xlink="http://www.w3.org/1999/xlink" display="block" class="plt-container" width="1000.0" height="400.0">
  <style type="text/css">
  .plt-container {
   font-family: Lucida Grande, sans-serif;
   user-select: none;
   -webkit-user-select: none;
   -moz-user-select: none;
   -ms-user-select: none;
}
text {
   text-rendering: optimizeLegibility;
}
#pywKzaw .plot-title {
fill: #474747;
font-weight: normal;
   font-style: normal;font-family: Lucida Grande, sans-serif;
font-size: 16.0px;

}
#pywKzaw .plot-subtitle {
fill: #474747;
font-weight: normal;
   font-style: normal;font-family: Lucida Grande, sans-serif;
font-size: 15.0px;

}
#pywKzaw .plot-caption {
fill: #474747;
font-weight: normal;
   font-style: normal;font-family: Lucida Grande, sans-serif;
font-size: 13.0px;

}
#pywKzaw .hyperlink-element {
fill: #118ed8;
font-weight: normal;
   font-style: normal;
}
#pywKzaw .legend-title {
fill: #474747;
font-weight: normal;
   font-style: normal;font-family: Lucida Grande, sans-serif;
font-size: 15.0px;

}
#pywKzaw .legend-item {
fill: #474747;
font-weight: normal;
   font-style: normal;font-family: Lucida Grande, sans-serif;
font-size: 13.0px;

}
#pywKzaw .axis-title-x {
fill: #474747;
font-weight: normal;
   font-style: normal;font-family: Lucida Grande, sans-serif;
font-size: 15.0px;

}
#pywKzaw .axis-text-x {
fill: #474747;
font-weight: normal;
   font-style: normal;font-family: Lucida Grande, sans-serif;
font-size: 13.0px;

}
#dmjozOE .axis-tooltip-text-x {
fill: #ffffff;
font-weight: normal;
   font-style: normal;font-family: Lucida Grande, sans-serif;
font-size: 13.0px;

}
#pywKzaw .axis-title-y {
fill: #474747;
font-weight: normal;
   font-style: normal;font-family: Lucida Grande, sans-serif;
font-size: 15.0px;

}
#pywKzaw .axis-text-y {
fill: #474747;
font-weight: normal;
   font-style: normal;font-family: Lucida Grande, sans-serif;
font-size: 13.0px;

}
#dmjozOE .axis-tooltip-text-y {
fill: #ffffff;
font-weight: normal;
   font-style: normal;font-family: Lucida Grande, sans-serif;
font-size: 13.0px;

}
#pywKzaw .facet-strip-text-x {
fill: #474747;
font-weight: normal;
   font-style: normal;font-family: Lucida Grande, sans-serif;
font-size: 13.0px;

}
#pywKzaw .facet-strip-text-y {
fill: #474747;
font-weight: normal;
   font-style: normal;font-family: Lucida Grande, sans-serif;
font-size: 13.0px;

}
#dmjozOE .tooltip-text {
fill: #474747;
font-weight: normal;
   font-style: normal;font-family: Lucida Grande, sans-serif;
font-size: 13.0px;

}
#dmjozOE .tooltip-title {
fill: #474747;
font-weight: bold;
   font-style: normal;font-family: Lucida Grande, sans-serif;
font-size: 13.0px;

}
#dmjozOE .tooltip-label {
fill: #474747;
font-weight: bold;
   font-style: normal;font-family: Lucida Grande, sans-serif;
font-size: 13.0px;

}

  </style>
  <g id="pywKzaw">
    <path fill-rule="evenodd" fill="rgb(255,255,255)" fill-opacity="1.0" d="M0.0 0.0 L0.0 400.0 L1000.0 400.0 L1000.0 0.0 Z">
    </path>
    <g transform="translate(29.5 6.5 ) ">
      <g>
        <g transform="translate(58.95712304215423 0.0 ) ">
          <g>
            <line x1="35.3203096800644" y1="0.0" x2="35.3203096800644" y2="341.0" stroke="rgb(233,233,233)" stroke-opacity="1.0" stroke-width="1.0" fill="none">
            </line>
            <line x1="106.3159070269275" y1="0.0" x2="106.3159070269275" y2="341.0" stroke="rgb(233,233,233)" stroke-opacity="1.0" stroke-width="1.0" fill="none">
            </line>
            <line x1="177.31150437379063" y1="0.0" x2="177.31150437379063" y2="341.0" stroke="rgb(233,233,233)" stroke-opacity="1.0" stroke-width="1.0" fill="none">
            </line>
            <line x1="248.3071017206537" y1="0.0" x2="248.3071017206537" y2="341.0" stroke="rgb(233,233,233)" stroke-opacity="1.0" stroke-width="1.0" fill="none">
            </line>
            <line x1="319.3026990675168" y1="0.0" x2="319.3026990675168" y2="341.0" stroke="rgb(233,233,233)" stroke-opacity="1.0" stroke-width="1.0" fill="none">
            </line>
            <line x1="390.2982964143799" y1="0.0" x2="390.2982964143799" y2="341.0" stroke="rgb(233,233,233)" stroke-opacity="1.0" stroke-width="1.0" fill="none">
            </line>
            <line x1="461.293893761243" y1="0.0" x2="461.293893761243" y2="341.0" stroke="rgb(233,233,233)" stroke-opacity="1.0" stroke-width="1.0" fill="none">
            </line>
            <line x1="532.2894911081062" y1="0.0" x2="532.2894911081062" y2="341.0" stroke="rgb(233,233,233)" stroke-opacity="1.0" stroke-width="1.0" fill="none">
            </line>
            <line x1="603.2850884549692" y1="0.0" x2="603.2850884549692" y2="341.0" stroke="rgb(233,233,233)" stroke-opacity="1.0" stroke-width="1.0" fill="none">
            </line>
            <line x1="674.2806858018323" y1="0.0" x2="674.2806858018323" y2="341.0" stroke="rgb(233,233,233)" stroke-opacity="1.0" stroke-width="1.0" fill="none">
            </line>
            <line x1="745.2762831486954" y1="0.0" x2="745.2762831486954" y2="341.0" stroke="rgb(233,233,233)" stroke-opacity="1.0" stroke-width="1.0" fill="none">
            </line>
          </g>
        </g>
        <g transform="translate(58.95712304215423 0.0 ) ">
          <g>
            <line x1="0.0" y1="325.5" x2="777.0468129614165" y2="325.5" stroke="rgb(233,233,233)" stroke-opacity="1.0" stroke-width="1.0" fill="none">
            </line>
            <line x1="0.0" y1="264.4808850541629" x2="777.0468129614165" y2="264.4808850541629" stroke="rgb(233,233,233)" stroke-opacity="1.0" stroke-width="1.0" fill="none">
            </line>
            <line x1="0.0" y1="203.46177010832588" x2="777.0468129614165" y2="203.46177010832588" stroke="rgb(233,233,233)" stroke-opacity="1.0" stroke-width="1.0" fill="none">
            </line>
            <line x1="0.0" y1="142.44265516248882" x2="777.0468129614165" y2="142.44265516248882" stroke="rgb(233,233,233)" stroke-opacity="1.0" stroke-width="1.0" fill="none">
            </line>
            <line x1="0.0" y1="81.42354021665173" x2="777.0468129614165" y2="81.42354021665173" stroke="rgb(233,233,233)" stroke-opacity="1.0" stroke-width="1.0" fill="none">
            </line>
            <line x1="0.0" y1="20.40442527081467" x2="777.0468129614165" y2="20.40442527081467" stroke="rgb(233,233,233)" stroke-opacity="1.0" stroke-width="1.0" fill="none">
            </line>
          </g>
        </g>
      </g>
      <g clip-path="url(#c5mrlf8)" clip-bounds-jfx="[rect (58.95712304215423, 0.0), (777.0468129614165, 341.0)]">
        <g transform="translate(58.95712304215423 0.0 ) ">
          <g>
            <g>
              <g>
                <path d="M35.3203096800644 325.5 L35.3203096800644 325.5 L38.87008954740755 325.5 L42.41986941475071 325.5 L45.96964928209386 325.5 L49.519429149437016 325.5 L53.06920901678018 325.5 L56.618988884123326 325.5 L60.16876875146649 325.5 L63.718548618809635 325.5 L67.2683284861528 325.5 L70.81810835349594 325.5 L74.3678882208391 325.5 L77.91766808818227 325.5 L81.46744795552542 325.5 L85.01722782286856 325.5 L88.56700769021172 325.5 L92.11678755755489 325.5 L95.66656742489803 325.5 L99.21634729224118 325.5 L102.76612715958434 325.5 L106.3159070269275 325.5 L109.86568689427065 325.5 L113.41546676161381 325.5 L116.96524662895696 325.5 L120.51502649630012 325.5 L124.06480636364327 325.5 L127.61458623098643 325.5 L131.1643660983296 325.5 L134.71414596567274 325.5 L138.2639258330159 325.5 L141.81370570035904 325.5 L145.36348556770218 325.5 L148.91326543504536 325.5 L152.46304530238854 325.5 L156.01282516973168 325.5 L159.56260503707483 325.5 L163.11238490441798 325.5 L166.66216477176113 325.5 L170.21194463910427 325.5 L173.76172450644742 325.5 L177.31150437379063 325.5 L180.86128424113377 325.5 L184.41106410847692 325.5 L187.96084397582007 325.5 L191.51062384316322 325.5 L195.06040371050636 325.5 L198.6101835778495 325.5 L202.15996344519266 325.5 L205.70974331253586 325.5 L209.259523179879 325.5 L212.80930304722216 325.5 L216.3590829145653 325.5 L219.90886278190845 325.5 L223.4586426492516 325.5 L227.00842251659475 325.5 L230.55820238393795 325.5 L234.1079822512811 325.5 L237.65776211862425 325.5 L241.2075419859674 325.5 L244.75732185331054 325.5 L248.3071017206537 325.5 L251.85688158799684 325.5 L255.40666145534 325.5 L258.9564413226832 325.5 L262.50622119002634 325.5 L266.0560010573695 325.5 L269.60578092471263 325.5 L273.1555607920558 325.5 L276.7053406593989 325.5 L280.2551205267421 325.5 L283.8049003940853 325.5 L287.3546802614284 325.5 L290.9044601287716 325.5 L294.4542399961147 325.5 L298.00401986345787 325.5 L301.553799730801 325.5 L305.10357959814417 325.5 L308.6533594654873 325.5 L312.20313933283046 325.5 L315.7529192001736 325.5 L319.3026990675168 325.5 L322.85247893485996 325.5 L326.4022588022031 325.5 L329.95203866954625 325.5 L333.5018185368894 325.5 L337.05159840423255 325.5 L340.6013782715757 325.5 L344.1511581389189 325.5 L347.70093800626205 325.5 L351.2507178736052 325.5 L354.80049774094834 325.5 L358.3502776082915 325.5 L361.90005747563464 325.5 L365.4498373429778 325.5 L368.99961721032093 325.5 L372.54939707766414 325.5 L376.0991769450073 325.5 L379.64895681235043 325.5 L383.1987366796936 325.5 L386.74851654703673 325.5 L390.2982964143799 325.5 L393.848076281723 325.5 L397.39785614906623 325.5 L400.9476360164094 325.5 L404.4974158837525 325.5 L408.04719575109567 325.5 L411.5969756184388 325.5 L415.14675548578197 325.5 L418.6965353531251 325.5 L422.24631522046826 325.5 L425.79609508781147 325.5 L429.3458749551546 325.5 L432.89565482249776 325.5 L436.4454346898409 325.5 L439.99521455718406 325.5 L443.5449944245272 325.5 L447.09477429187035 325.5 L450.64455415921356 325.5 L454.1943340265567 325.5 L457.74411389389985 325.5 L461.293893761243 325.5 L464.84367362858615 325.5 L468.3934534959293 325.5 L471.94323336327244 325.5 L475.4930132306156 325.5 L479.0427930979588 325.5 L482.59257296530194 325.5 L486.1423528326451 325.5 L489.69213269998824 325.5 L493.2419125673314 325.5 L496.79169243467453 325.5 L500.3414723020177 325.5 L503.8912521693609 325.5 L507.44103203670403 325.5 L510.9908119040472 325.5 L514.5405917713904 325.5 L518.0903716387335 325.5 L521.6401515060767 325.5 L525.1899313734198 325.5 L528.739711240763 325.5 L532.2894911081062 325.5 L535.8392709754493 325.5 L539.3890508427925 325.5 L542.9388307101356 325.5 L546.4886105774788 325.5 L550.0383904448219 325.5 L553.5881703121651 325.5 L557.1379501795082 325.5 L560.6877300468514 325.5 L564.2375099141944 325.5 L567.7872897815377 325.5 L571.3370696488809 325.5 L574.886849516224 325.5 L578.4366293835672 325.5 L581.9864092509102 325.5 L585.5361891182534 325.5 L589.0859689855965 325.5 L592.6357488529397 325.5 L596.1855287202828 325.5 L599.735308587626 325.5 L603.2850884549692 325.5 L606.8348683223123 325.5 L610.3846481896555 325.5 L613.9344280569986 325.5 L617.4842079243418 325.5 L621.0339877916849 325.5 L624.5837676590281 325.5 L628.1335475263713 325.5 L631.6833273937144 325.5 L635.2331072610576 325.5 L638.7828871284007 325.5 L642.3326669957439 325.5 L645.882446863087 325.5 L649.4322267304302 325.5 L652.9820065977734 325.5 L656.5317864651165 325.5 L660.0815663324597 325.5 L663.6313461998028 325.5 L667.181126067146 325.5 L670.7309059344891 325.5 L674.2806858018323 325.5 L677.8304656691755 325.5 L681.3802455365186 325.5 L684.9300254038618 325.5 L688.4798052712049 325.5 L692.0295851385481 325.5 L695.5793650058912 325.5 L699.1291448732344 325.5 L702.6789247405775 325.5 L706.2287046079207 325.5 L709.7784844752639 325.5 L713.328264342607 325.5 L716.8780442099502 325.5 L720.4278240772933 325.5 L723.9776039446365 325.5 L727.5273838119796 325.5 L731.0771636793228 325.5 L734.626943546666 325.5 L738.1767234140091 325.5 L741.7265032813523 325.5 " fill="none" stroke-width="1.6500000000000001" stroke="rgb(228,26,28)" stroke-opacity="1.0">
                </path>
              </g>
              <g>
                <path d="M35.3203096800644 325.1290937373836 L35.3203096800644 325.1290937373836 L38.87008954740755 325.0163591703285 L42.41986941475071 324.9507688842606 L45.96964928209386 324.79785248633283 L49.519429149437016 324.55127125643895 L53.06920901678018 324.35148119407444 L56.618988884123326 324.2881798185159 L60.16876875146649 324.19917441086733 L63.718548618809635 324.0920867406458 L67.2683284861528 324.0485299619832 L70.81810835349594 323.9102900921116 L74.3678882208391 323.8699128313251 L77.91766808818227 323.4771060495827 L81.46744795552542 323.31735121732936 L85.01722782286856 323.2137384386042 L88.56700769021172 323.12124829746017 L92.11678755755489 323.08612103418676 L95.66656742489803 323.05356178793744 L99.21634729224118 323.00681526533793 L102.76612715958434 322.95507468870017 L106.3159070269275 322.906131582598 L109.86568689427065 322.8740734705073 L113.41546676161381 322.5262058111905 L116.96524662895696 322.4740455735615 L120.51502649630012 322.42317553481917 L124.06480636364327 322.38784132953657 L127.61458623098643 322.35492901390404 L131.1643660983296 321.92323528942154 L134.71414596567274 321.88122573737905 L138.2639258330159 321.8237017307894 L141.81370570035904 321.7948505484193 L145.36348556770218 321.7181014032928 L148.91326543504536 321.6736255225025 L152.46304530238854 321.63351651352644 L156.01282516973168 321.586069242854 L159.56260503707483 321.5381741014809 L163.11238490441798 321.4532611409417 L166.66216477176113 321.41866478477357 L170.21194463910427 321.37575940130944 L173.76172450644742 321.34777004557793 L177.31150437379063 321.08607310865943 L180.86128424113377 321.02449856533235 L184.41106410847692 320.9892389148614 L187.96084397582007 320.9480223514853 L191.51062384316322 320.8842333182632 L195.06040371050636 320.80011509621363 L198.6101835778495 320.70817030365697 L202.15996344519266 320.6836435018269 L205.70974331253586 320.6159458075955 L209.259523179879 320.4992947665059 L212.80930304722216 320.43198958497106 L216.3590829145653 320.3977096632442 L219.90886278190845 320.1005276248546 L223.4586426492516 320.07138333409847 L227.00842251659475 319.7033078604104 L230.55820238393795 319.59736958106737 L234.1079822512811 319.40398572296493 L237.65776211862425 319.3066535008187 L241.2075419859674 319.2338573450419 L244.75732185331054 319.1787542967731 L248.3071017206537 319.1156434931544 L251.85688158799684 318.96113927752094 L255.40666145534 318.86162744922206 L258.9564413226832 318.72790235606595 L262.50622119002634 318.461764187063 L266.0560010573695 318.16947122163594 L269.60578092471263 318.10946286668536 L273.1555607920558 318.06686035103957 L276.7053406593989 318.0256501253656 L280.2551205267421 317.9967586793456 L283.8049003940853 317.8009254861715 L287.3546802614284 317.72833085562314 L290.9044601287716 317.68110272016764 L294.4542399961147 317.5242774739242 L298.00401986345787 317.4806222813803 L301.553799730801 317.43893318069235 L305.10357959814417 317.3538101257981 L308.6533594654873 317.1146321780325 L312.20313933283046 317.05477476016506 L315.7529192001736 317.00571243813476 L319.3026990675168 316.9482752028409 L322.85247893485996 316.8720634613023 L326.4022588022031 316.84214359196903 L329.95203866954625 316.76767986082615 L333.5018185368894 316.7173718652933 L337.05159840423255 316.35440790489343 L340.6013782715757 316.3103732764284 L344.1511581389189 316.2721673609762 L347.70093800626205 316.1986307907543 L351.2507178736052 316.1288151105466 L354.80049774094834 316.0538084221152 L358.3502776082915 316.0078711486385 L361.90005747563464 315.95378903729954 L365.4498373429778 315.8975722286209 L368.99961721032093 315.8628453868793 L372.54939707766414 315.84094263459593 L376.0991769450073 315.2514320966257 L379.64895681235043 315.18391700291977 L383.1987366796936 315.1250833086608 L386.74851654703673 314.66698662374233 L390.2982964143799 314.58678482258864 L393.848076281723 314.50751510949306 L397.39785614906623 314.4455705770109 L400.9476360164094 314.3967780399068 L404.4974158837525 314.00883804413473 L408.04719575109567 313.9588570447857 L411.5969756184388 313.9311821807549 L415.14675548578197 313.8263266444649 L418.6965353531251 313.757817634219 L422.24631522046826 313.65975024108036 L425.79609508781147 313.59428012116854 L429.3458749551546 313.47467129154916 L432.89565482249776 313.1728875361188 L436.4454346898409 312.6862620637944 L439.99521455718406 312.6211283078797 L443.5449944245272 312.5309442024877 L447.09477429187035 312.4934471227438 L450.64455415921356 312.42484079172533 L454.1943340265567 312.162257949721 L457.74411389389985 311.65068018208535 L461.293893761243 311.62700300043434 L464.84367362858615 311.57861289383976 L468.3934534959293 311.2389409293325 L471.94323336327244 311.20854506463905 L475.4930132306156 310.96061289165 L479.0427930979588 310.8997014175489 L482.59257296530194 310.7808332120975 L486.1423528326451 310.500885555089 L489.69213269998824 309.7509052818625 L493.2419125673314 309.64730833092443 L496.79169243467453 309.5872663581773 L500.3414723020177 309.5497082721164 L503.8912521693609 308.77852464422074 L507.44103203670403 308.7357285366851 L510.9908119040472 308.4050312197421 L514.5405917713904 308.3730351892352 L518.0903716387335 308.31136805530184 L521.6401515060767 308.27431926809464 L525.1899313734198 308.14540349116083 L528.739711240763 308.11610023526134 L532.2894911081062 308.0746082922984 L535.8392709754493 308.0272267283545 L539.3890508427925 307.9545338877332 L542.9388307101356 307.8672678392212 L546.4886105774788 307.82683033504185 L550.0383904448219 307.77704704567395 L553.5881703121651 307.4136812149111 L557.1379501795082 307.04538547529285 L560.6877300468514 306.99454904616414 L564.2375099141944 306.92898967123205 L567.7872897815377 306.8745141515541 L571.3370696488809 306.8166155082689 L574.886849516224 306.78042109234485 L578.4366293835672 306.7040913985917 L581.9864092509102 306.67055969848747 L585.5361891182534 306.61928086203 L589.0859689855965 306.5801727375441 L592.6357488529397 306.5256720394559 L596.1855287202828 306.37650196329685 L599.735308587626 306.2928557928721 L603.2850884549692 306.2398939570697 L606.8348683223123 306.16944549892276 L610.3846481896555 305.4931364248662 L613.9344280569986 305.3634121001019 L617.4842079243418 304.7079152450867 L621.0339877916849 304.64532655562306 L624.5837676590281 304.3970275806796 L628.1335475263713 304.1024934199453 L631.6833273937144 304.06989994854075 L635.2331072610576 304.03008754244235 L638.7828871284007 303.60658248626095 L642.3326669957439 303.5814094311693 L645.882446863087 303.25812188468467 L649.4322267304302 303.055298891592 L652.9820065977734 303.0255126775449 L656.5317864651165 302.9667644774566 L660.0815663324597 302.907271983176 L663.6313461998028 302.6389493689774 L667.181126067146 302.5957053635596 L670.7309059344891 302.54245731771584 L674.2806858018323 302.3182986520694 L677.8304656691755 302.2765794772789 L681.3802455365186 302.24760872149443 L684.9300254038618 302.1964921829974 L688.4798052712049 302.13399143477477 L692.0295851385481 302.1085944959345 L695.5793650058912 301.74871690053584 L699.1291448732344 301.7172276299408 L702.6789247405775 301.6189573244882 L706.2287046079207 301.5151290067911 L709.7784844752639 301.4705890733512 L713.328264342607 301.41215573645763 L716.8780442099502 301.23840375467745 L720.4278240772933 301.1567983484163 L723.9776039446365 301.11525644267317 L727.5273838119796 300.8567971548864 L731.0771636793228 300.8106336280845 L734.626943546666 300.5797701095634 L738.1767234140091 300.32641580888173 L741.7265032813523 300.28015862654627 " fill="none" stroke-width="1.6500000000000001" stroke="rgb(55,126,184)" stroke-opacity="1.0">
                </path>
              </g>
              <g>
                <path d="M35.3203096800644 324.9530513535297 L35.3203096800644 324.9530513535297 L38.87008954740755 323.357483686361 L42.41986941475071 321.0749726977193 L45.96964928209386 319.4520754842564 L49.519429149437016 318.8857056803277 L53.06920901678018 318.3606641362014 L56.618988884123326 318.0150906384668 L60.16876875146649 317.82312690455615 L63.718548618809635 317.21155565709887 L67.2683284861528 316.62487205274283 L70.81810835349594 316.4024175414908 L74.3678882208391 316.23288109807555 L77.91766808818227 316.0556271161092 L81.46744795552542 315.5291942481979 L85.01722782286856 315.36837731830025 L88.56700769021172 314.76203387280924 L92.11678755755489 314.47955172912714 L95.66656742489803 314.09977061063074 L99.21634729224118 313.445763579828 L102.76612715958434 313.1258758623936 L106.3159070269275 312.57889325405256 L109.86568689427065 312.4241920517046 L113.41546676161381 312.0223700200808 L116.96524662895696 311.71422118558195 L120.51502649630012 311.26744590034593 L124.06480636364327 311.1103839719214 L127.61458623098643 310.85950509136643 L131.1643660983296 310.04218989881025 L134.71414596567274 309.64289755582206 L138.2639258330159 309.4231316245244 L141.81370570035904 308.729433181075 L145.36348556770218 307.81058912810937 L148.91326543504536 307.61329660602155 L152.46304530238854 307.30736336429106 L156.01282516973168 307.0739356687935 L159.56260503707483 306.8123321590328 L163.11238490441798 306.5266122826252 L166.66216477176113 306.30401561412395 L170.21194463910427 306.04705808816954 L173.76172450644742 305.9001263150343 L177.31150437379063 305.47595999030517 L180.86128424113377 305.2911451817355 L184.41106410847692 305.09550387419654 L187.96084397582007 304.8979070403923 L191.51062384316322 304.69946228288075 L195.06040371050636 304.20185827071197 L198.6101835778495 303.66896538775603 L202.15996344519266 303.50794566640457 L205.70974331253586 303.0137975574227 L209.259523179879 302.7347004389719 L212.80930304722216 302.5307802238077 L216.3590829145653 302.36035519511574 L219.90886278190845 301.7767506602529 L223.4586426492516 301.6215804369113 L227.00842251659475 301.4691445380076 L230.55820238393795 301.32647080050543 L234.1079822512811 301.1820603237079 L237.65776211862425 300.93846294077053 L241.2075419859674 300.6697768170059 L244.75732185331054 300.4658543724704 L248.3071017206537 300.2073956875116 L251.85688158799684 300.031869135723 L255.40666145534 299.415263811229 L258.9564413226832 298.9554405750798 L262.50622119002634 298.80532978132067 L266.0560010573695 298.62405280163614 L269.60578092471263 298.40499190253934 L273.1555607920558 298.19161608385 L276.7053406593989 297.82831314221437 L280.2551205267421 297.6678076590233 L283.8049003940853 297.26990639961093 L287.3546802614284 297.0616503108383 L290.9044601287716 296.88974627427024 L294.4542399961147 295.9986149117813 L298.00401986345787 295.7855924517076 L301.553799730801 295.5347639060111 L305.10357959814417 295.27116599550584 L308.6533594654873 294.6106546983627 L312.20313933283046 294.3333940767801 L315.7529192001736 294.13620295339115 L319.3026990675168 293.9600151209127 L322.85247893485996 293.50218199169194 L326.4022588022031 293.3077665561814 L329.95203866954625 292.6590985259235 L333.5018185368894 292.46920143502416 L337.05159840423255 291.73615189687393 L340.6013782715757 291.60143040161887 L344.1511581389189 291.34345579360553 L347.70093800626205 290.9998035684495 L351.2507178736052 290.71181748863313 L354.80049774094834 290.3496263705678 L358.3502776082915 290.06969534922837 L361.90005747563464 289.8431433651057 L365.4498373429778 289.3787478948268 L368.99961721032093 289.2416883478587 L372.54939707766414 289.1134057536036 L376.0991769450073 288.96119484589815 L379.64895681235043 288.7674831130187 L383.1987366796936 288.5378894523889 L386.74851654703673 288.3833387238226 L390.2982964143799 287.40609523122635 L393.848076281723 287.1038761120194 L397.39785614906623 286.8736047897744 L400.9476360164094 286.4848906323326 L404.4974158837525 286.3122381567674 L408.04719575109567 286.0345888857325 L411.5969756184388 285.9024512322279 L415.14675548578197 285.7414849177134 L418.6965353531251 285.45778194399355 L422.24631522046826 284.6402741736701 L425.79609508781147 284.3909188746665 L429.3458749551546 284.2560690638326 L432.89565482249776 283.1205584033462 L436.4454346898409 282.60932251709494 L439.99521455718406 282.3998342067446 L443.5449944245272 281.85061601480976 L447.09477429187035 281.69913585601114 L450.64455415921356 281.462485727801 L454.1943340265567 280.1062347648375 L457.74411389389985 279.8909065725673 L461.293893761243 279.7705586351451 L464.84367362858615 279.55391619087885 L468.3934534959293 279.26985151496524 L471.94323336327244 279.12809003848105 L475.4930132306156 278.72241860494626 L479.0427930979588 278.5042175580491 L482.59257296530194 277.8915410574722 L486.1423528326451 277.5293818960456 L489.69213269998824 277.3659062324215 L493.2419125673314 277.0860280892113 L496.79169243467453 276.7618490780572 L500.3414723020177 276.58822932577596 L503.8912521693609 276.4253363797697 L507.44103203670403 276.2502744437895 L510.9908119040472 276.049363111247 L514.5405917713904 275.90766597364257 L518.0903716387335 275.73904514275085 L521.6401515060767 275.5955213680428 L525.1899313734198 275.2576872153372 L528.739711240763 275.1204446883338 L532.2894911081062 274.9770166357163 L535.8392709754493 274.68543268590787 L539.3890508427925 274.4176353995021 L542.9388307101356 274.27798223207003 L546.4886105774788 273.88734717978264 L550.0383904448219 273.63541506230564 L553.5881703121651 273.4996337458811 L557.1379501795082 273.3575437334996 L560.6877300468514 272.9813060475118 L564.2375099141944 272.7976260357916 L567.7872897815377 272.4850382780925 L571.3370696488809 272.1688280549419 L574.886849516224 271.9615456013127 L578.4366293835672 271.73758544776797 L581.9864092509102 271.49927971922483 L585.5361891182534 271.33123588735424 L589.0859689855965 271.1761064417059 L592.6357488529397 271.0005572756801 L596.1855287202828 270.670927086869 L599.735308587626 270.04286415648164 L603.2850884549692 269.9019138930991 L606.8348683223123 269.67885883384787 L610.3846481896555 269.4543610747792 L613.9344280569986 269.2030294388154 L617.4842079243418 269.06539116554086 L621.0339877916849 268.89111592825054 L624.5837676590281 268.74916530395564 L628.1335475263713 268.59750288470747 L631.6833273937144 268.4399113529523 L635.2331072610576 268.26808941678644 L638.7828871284007 268.1107444973234 L642.3326669957439 267.94378904301936 L645.882446863087 267.57529044713925 L649.4322267304302 267.22188945757875 L652.9820065977734 267.0923495263165 L656.5317864651165 266.95103658567723 L660.0815663324597 266.6499809513991 L663.6313461998028 266.41239798326046 L667.181126067146 266.20809990026 L670.7309059344891 266.0419494159419 L674.2806858018323 265.87212582205615 L677.8304656691755 265.6666703643231 L681.3802455365186 265.50993274414617 L684.9300254038618 265.3413601017322 L688.4798052712049 264.9812341357428 L692.0295851385481 264.8598081053228 L695.5793650058912 264.70145941258255 L699.1291448732344 264.5608963818301 L702.6789247405775 264.2106341167107 L706.2287046079207 263.6444162432508 L709.7784844752639 263.4371072732476 L713.328264342607 262.8915247821016 L716.8780442099502 262.71837182453163 L720.4278240772933 262.2056706760669 L723.9776039446365 262.0200009485445 L727.5273838119796 261.8866022437009 L731.0771636793228 261.6791140632169 L734.626943546666 261.4354454638664 L738.1767234140091 261.3031470388549 L741.7265032813523 261.1654367404616 " fill="none" stroke-width="1.6500000000000001" stroke="rgb(77,175,74)" stroke-opacity="1.0">
                </path>
              </g>
              <g>
                <path d="M35.3203096800644 321.8681599883414 L35.3203096800644 321.8681599883414 L38.87008954740755 314.1310861001313 L42.41986941475071 309.75918752753415 L45.96964928209386 305.62056053552374 L49.519429149437016 300.2134898068788 L53.06920901678018 294.2632651553404 L56.618988884123326 290.13611604483657 L60.16876875146649 286.67766628932486 L63.718548618809635 282.3234766067745 L67.2683284861528 279.05002188767924 L70.81810835349594 275.81758107953635 L74.3678882208391 273.2103106459738 L77.91766808818227 270.9274793170079 L81.46744795552542 265.99786622250576 L85.01722782286856 263.70452456497014 L88.56700769021172 260.2442349256191 L92.11678755755489 257.75718238778694 L95.66656742489803 255.8539469081018 L99.21634729224118 252.09594214254344 L102.76612715958434 249.43557727545777 L106.3159070269275 247.34948314542214 L109.86568689427065 245.5925231397053 L113.41546676161381 242.62933131822928 L116.96524662895696 240.21795136171954 L120.51502649630012 237.07203047926328 L124.06480636364327 235.93517454978414 L127.61458623098643 233.6218059314623 L131.1643660983296 227.84456458773622 L134.71414596567274 225.30505276836524 L138.2639258330159 223.4929239504021 L141.81370570035904 222.26889199700997 L145.36348556770218 216.98240231145797 L148.91326543504536 215.594545079569 L152.46304530238854 213.92144291758066 L156.01282516973168 212.18807071652745 L159.56260503707483 210.96537204503022 L163.11238490441798 208.54637936924584 L166.66216477176113 207.08500313291836 L170.21194463910427 205.18141351202303 L173.76172450644742 204.37020829511985 L177.31150437379063 201.62104114722572 L180.86128424113377 200.1516700273549 L184.41106410847692 199.03488139041605 L187.96084397582007 197.68605785656294 L191.51062384316322 196.67879703346287 L195.06040371050636 193.73923983232712 L198.6101835778495 190.79264281037894 L202.15996344519266 190.00236402640405 L205.70974331253586 187.22980826533805 L209.259523179879 186.3374845664794 L212.80930304722216 185.1329547045997 L216.3590829145653 184.1673435002199 L219.90886278190845 181.39968250854818 L223.4586426492516 180.5544953888816 L227.00842251659475 179.79715790479193 L230.55820238393795 179.06244685906864 L234.1079822512811 178.3662655319701 L237.65776211862425 176.80878570536143 L241.2075419859674 175.48348769104396 L244.75732185331054 174.51705918032394 L248.3071017206537 173.18895026219138 L251.85688158799684 172.3119771786232 L255.40666145534 168.99563113436702 L258.9564413226832 167.54225549970027 L262.50622119002634 166.9042353044304 L266.0560010573695 166.13334534216773 L269.60578092471263 164.99182510193856 L273.1555607920558 164.01309146910145 L276.7053406593989 163.36916732192506 L280.2551205267421 162.83526539384405 L283.8049003940853 160.9422527838214 L287.3546802614284 160.04020840530958 L290.9044601287716 159.46429002323617 L294.4542399961147 154.70098659040244 L298.00401986345787 153.83334203000445 L301.553799730801 152.48909249867063 L305.10357959814417 151.2478998748607 L308.6533594654873 148.08570351670807 L312.20313933283046 146.66859821021245 L315.7529192001736 145.74578676086153 L319.3026990675168 144.97613794177883 L322.85247893485996 142.87233483076156 L326.4022588022031 142.16815149827968 L329.95203866954625 138.66462274458618 L333.5018185368894 137.80064899893165 L337.05159840423255 133.98578544501106 L340.6013782715757 133.5297153476269 L344.1511581389189 132.67028387686776 L347.70093800626205 131.08524496313953 L351.2507178736052 129.66186199227266 L354.80049774094834 127.87518162243381 L358.3502776082915 126.98233677879085 L361.90005747563464 126.20687771764366 L365.4498373429778 123.95177449856419 L368.99961721032093 123.56581269865853 L372.54939707766414 123.08408495797093 L376.0991769450073 122.36838833605935 L379.64895681235043 121.68783342873579 L383.1987366796936 120.94365760512221 L386.74851654703673 120.36424401988131 L390.2982964143799 116.14059758699975 L393.848076281723 114.84023125680568 L397.39785614906623 114.10072771306335 L400.9476360164094 112.56438675753691 L404.4974158837525 112.02674535778107 L408.04719575109567 110.89742434679326 L411.5969756184388 110.3255824707395 L415.14675548578197 109.7959125507702 L418.6965353531251 108.51326005816887 L422.24631522046826 104.29265297886835 L425.79609508781147 103.34691759898058 L429.3458749551546 102.90412713824063 L432.89565482249776 97.6962645717879 L436.4454346898409 95.51856984537585 L439.99521455718406 94.72108903710111 L443.5449944245272 92.51815576212715 L447.09477429187035 91.90133045032351 L450.64455415921356 91.16150219066327 L454.1943340265567 84.19258260279216 L457.74411389389985 83.53633899154471 L461.293893761243 83.1366967782219 L464.84367362858615 82.32265044721618 L468.3934534959293 81.02754429810417 L471.94323336327244 80.41136707578903 L475.4930132306156 78.97307352988031 L479.0427930979588 78.41774659037429 L482.59257296530194 75.87441427368611 L486.1423528326451 74.5455108894513 L489.69213269998824 74.06439119804983 L493.2419125673314 72.97490382982113 L496.79169243467453 71.97101320481335 L500.3414723020177 71.55335167201076 L503.8912521693609 70.97710772902678 L507.44103203670403 70.2962270374338 L510.9908119040472 69.59189479982419 L514.5405917713904 69.16923524823045 L518.0903716387335 68.63216341103526 L521.6401515060767 68.23927103089397 L525.1899313734198 67.19692782215907 L528.739711240763 66.82547123653143 L532.2894911081062 66.37580136426914 L535.8392709754493 65.36109515976409 L539.3890508427925 64.33235894887048 L542.9388307101356 63.875674154462104 L546.4886105774788 62.43321322130561 L550.0383904448219 61.65625791408621 L553.5881703121651 61.10036352886249 L557.1379501795082 60.70617889612794 L560.6877300468514 59.19638693843808 L564.2375099141944 58.65656022026678 L567.7872897815377 57.29954880133306 L571.3370696488809 55.93054372734281 L574.886849516224 55.47181504286067 L578.4366293835672 54.76078135112971 L581.9864092509102 54.12757017000848 L585.5361891182534 53.45687542076581 L589.0859689855965 52.92049982689451 L592.6357488529397 52.39342753160679 L596.1855287202828 51.17735212402829 L599.735308587626 48.16646791173298 L603.2850884549692 47.71262262433817 L606.8348683223123 46.89344622772762 L610.3846481896555 46.08375123076246 L613.9344280569986 44.88878892087166 L617.4842079243418 44.462312305628984 L621.0339877916849 44.004984847313835 L624.5837676590281 43.599001313615645 L628.1335475263713 43.072374752907876 L631.6833273937144 42.63062918920872 L635.2331072610576 41.96766409032506 L638.7828871284007 41.39244685070406 L642.3326669957439 40.943264897765744 L645.882446863087 39.53667042447694 L649.4322267304302 38.062595901810425 L652.9820065977734 37.57976747505916 L656.5317864651165 37.153148476766034 L660.0815663324597 35.80788314904896 L663.6313461998028 34.75594946454123 L667.181126067146 33.93124676735516 L670.7309059344891 33.44069776559752 L674.2806858018323 32.8836876678925 L677.8304656691755 32.0880096214633 L681.3802455365186 31.672741769452443 L684.9300254038618 31.02758306450255 L688.4798052712049 29.556279117790723 L692.0295851385481 29.131593850048944 L695.5793650058912 28.69568595985089 L699.1291448732344 28.223757900569865 L702.6789247405775 26.84158877487556 L706.2287046079207 24.637367385685252 L709.7784844752639 23.887996148250693 L713.328264342607 21.97370099691608 L716.8780442099502 21.3397845764689 L720.4278240772933 19.384171464672875 L723.9776039446365 18.576873589166098 L727.5273838119796 18.015047769423802 L731.0771636793228 17.113981674192246 L734.626943546666 16.49266668210373 L738.1767234140091 16.052705493316523 L741.7265032813523 15.499999999999943 " fill="none" stroke-width="1.6500000000000001" stroke="rgb(152,78,163)" stroke-opacity="1.0">
                </path>
              </g>
              <g>
                <path d="M35.3203096800644 325.23311707182836 L35.3203096800644 325.23311707182836 L38.87008954740755 324.8467364078917 L42.41986941475071 324.73584802246353 L45.96964928209386 324.53647355529375 L49.519429149437016 324.3028614071905 L53.06920901678018 324.1644590616654 L56.618988884123326 324.06763996608237 L60.16876875146649 324.0140098848967 L63.718548618809635 323.8108685448168 L67.2683284861528 323.73549737930284 L70.81810835349594 323.63449415284117 L74.3678882208391 323.56324678184325 L77.91766808818227 323.34445392119846 L81.46744795552542 323.16264327675896 L85.01722782286856 323.0857898665337 L88.56700769021172 322.9229995069851 L92.11678755755489 322.77605733812806 L95.66656742489803 322.709418530241 L99.21634729224118 322.6017739097369 L102.76612715958434 322.525400852601 L106.3159070269275 322.4353175522094 L109.86568689427065 322.27076932543423 L113.41546676161381 322.18556584801723 L116.96524662895696 322.0981487513372 L120.51502649630012 321.9924002076661 L124.06480636364327 321.9499824990715 L127.61458623098643 321.8844645970794 L131.1643660983296 321.4570882602858 L134.71414596567274 321.3756990518946 L138.2639258330159 321.27360382426735 L141.81370570035904 321.213232117467 L145.36348556770218 321.04106402165263 L148.91326543504536 320.9522434914629 L152.46304530238854 320.86816230546555 L156.01282516973168 320.7747246399144 L159.56260503707483 320.7302614622825 L163.11238490441798 320.45079523276934 L166.66216477176113 320.3743149042955 L170.21194463910427 320.2825572099489 L173.76172450644742 320.20938257768 L177.31150437379063 319.9263437366136 L180.86128424113377 319.83415236365516 L184.41106410847692 319.7651138962273 L187.96084397582007 319.587594600438 L191.51062384316322 319.48083444819986 L195.06040371050636 319.3496276511669 L198.6101835778495 319.2211699683039 L202.15996344519266 319.1625139283053 L205.70974331253586 319.0462837062927 L209.259523179879 318.8925970394272 L212.80930304722216 318.5369784323888 L216.3590829145653 318.1968341388402 L219.90886278190845 317.8493645475952 L223.4586426492516 317.80855163941004 L227.00842251659475 317.7549164102744 L230.55820238393795 317.6730178180453 L234.1079822512811 317.6170620242427 L237.65776211862425 317.5059681826696 L241.2075419859674 317.44546699762765 L244.75732185331054 317.3202549521605 L248.3071017206537 317.21879388378187 L251.85688158799684 317.0522788614165 L255.40666145534 316.8679152942994 L258.9564413226832 316.7801181256007 L262.50622119002634 316.6909274543377 L266.0560010573695 316.53974115451194 L269.60578092471263 316.43661048865533 L273.1555607920558 316.4125897586827 L276.7053406593989 316.3641216995396 L280.2551205267421 316.3143068725697 L283.8049003940853 316.1589101478874 L287.3546802614284 316.07266581815685 L290.9044601287716 315.8645620767502 L294.4542399961147 315.69033760176194 L298.00401986345787 315.5905926500864 L301.553799730801 315.5395294063539 L305.10357959814417 315.41499266378213 L308.6533594654873 315.2275116509879 L312.20313933283046 315.15430499176097 L315.7529192001736 315.064954476247 L319.3026990675168 314.96085801746483 L322.85247893485996 314.83056451963677 L326.4022588022031 314.761666971873 L329.95203866954625 314.63406883246455 L333.5018185368894 314.56414754429244 L337.05159840423255 314.26149333970255 L340.6013782715757 314.2161055001435 L344.1511581389189 314.12228955603143 L347.70093800626205 313.9611614353317 L351.2507178736052 313.66551861753 L354.80049774094834 313.55457666750846 L358.3502776082915 313.4898834198241 L361.90005747563464 313.37930866020895 L365.4498373429778 313.30132296273314 L368.99961721032093 313.23883585873614 L372.54939707766414 313.20619163418826 L376.0991769450073 312.9686320473333 L379.64895681235043 312.8494604400248 L383.1987366796936 312.67781309964556 L386.74851654703673 312.35315560062855 L390.2982964143799 312.2165583293563 L393.848076281723 312.08379930968107 L397.39785614906623 312.0021197786816 L400.9476360164094 311.89822814456255 L404.4974158837525 311.5964642807975 L408.04719575109567 311.52675260012273 L411.5969756184388 311.47107601710246 L415.14675548578197 311.3654135510156 L418.6965353531251 311.0480084845466 L422.24631522046826 310.8180688280988 L425.79609508781147 310.73259957371255 L429.3458749551546 310.54798965886016 L432.89565482249776 310.30045139603703 L436.4454346898409 310.0229040386793 L439.99521455718406 309.9104064205124 L443.5449944245272 309.7257295578902 L447.09477429187035 309.6822175586944 L450.64455415921356 309.41094031033106 L454.1943340265567 309.05207075714924 L457.74411389389985 308.62758810108215 L461.293893761243 308.56476646958555 L464.84367362858615 308.4963612205164 L468.3934534959293 308.2723999413864 L471.94323336327244 308.19444467864224 L475.4930132306156 308.0647317575782 L479.0427930979588 307.9980298989888 L482.59257296530194 307.8078152027181 L486.1423528326451 307.54024591396814 L489.69213269998824 306.90147456602654 L493.2419125673314 306.67320769229434 L496.79169243467453 306.57325190540354 L500.3414723020177 306.49954603892724 L503.8912521693609 306.29187771263025 L507.44103203670403 306.0986117031095 L510.9908119040472 305.7194324773648 L514.5405917713904 305.6690636385356 L518.0903716387335 305.10064905595 L521.6401515060767 305.0439293448998 L525.1899313734198 304.92929103971767 L528.739711240763 304.87374209402185 L532.2894911081062 304.8079906242715 L535.8392709754493 304.693143191921 L539.3890508427925 304.58243079894146 L542.9388307101356 304.35216623175165 L546.4886105774788 304.2663444251817 L550.0383904448219 304.1846663293112 L553.5881703121651 304.1303710142894 L557.1379501795082 303.1181473296968 L560.6877300468514 303.03478394038973 L564.2375099141944 302.9426380408604 L567.7872897815377 302.8344084787832 L571.3370696488809 302.6948279348316 L574.886849516224 302.49044389974887 L578.4366293835672 302.4002569917365 L581.9864092509102 302.3151806467491 L585.5361891182534 302.2207652185038 L589.0859689855965 302.1861354360525 L592.6357488529397 302.1027668091849 L596.1855287202828 301.9330630116878 L599.735308587626 301.81279931185605 L603.2850884549692 301.7292982930431 L606.8348683223123 301.65300152381474 L610.3846481896555 301.3435959272824 L613.9344280569986 301.26917548536375 L617.4842079243418 301.2039614495357 L621.0339877916849 301.0149387001616 L624.5837676590281 300.9332683457324 L628.1335475263713 300.7320626243326 L631.6833273937144 300.6865459296419 L635.2331072610576 300.61602535945644 L638.7828871284007 300.57296483702794 L642.3326669957439 300.5374256395619 L645.882446863087 300.170881653793 L649.4322267304302 300.0319460749127 L652.9820065977734 299.96782884342167 L656.5317864651165 299.8449712112084 L660.0815663324597 299.7382589394951 L663.6313461998028 299.51803099005997 L667.181126067146 299.4510804393409 L670.7309059344891 299.3548194231419 L674.2806858018323 299.25700742754555 L677.8304656691755 299.1438839137789 L681.3802455365186 299.06649994715343 L684.9300254038618 298.98300122973643 L688.4798052712049 298.90365158002606 L692.0295851385481 298.85932860470035 L695.5793650058912 298.6252241547026 L699.1291448732344 298.39690341812025 L702.6789247405775 298.26892172108666 L706.2287046079207 298.06185594606876 L709.7784844752639 297.9448933973748 L713.328264342607 297.84147949097485 L716.8780442099502 297.77545084151643 L720.4278240772933 297.6469777764167 L723.9776039446365 297.55650087542995 L727.5273838119796 297.33984561100124 L731.0771636793228 297.27297183479686 L734.626943546666 297.1496421072082 L738.1767234140091 297.05316415415916 L741.7265032813523 296.9638478903055 " fill="none" stroke-width="1.6500000000000001" stroke="rgb(255,127,0)" stroke-opacity="1.0">
                </path>
              </g>
            </g>
          </g>
        </g>
        <defs>
          <clipPath id="c5mrlf8">
            <rect x="58.95712304215423" y="0.0" width="777.0468129614165" height="341.0">
            </rect>
          </clipPath>
        </defs>
      </g>
      <g>
        <g transform="translate(58.95712304215423 341.0 ) ">
          <g transform="translate(35.3203096800644 0.0 ) ">
            <line stroke-width="1.0" stroke="rgb(71,71,71)" stroke-opacity="1.0" x2="0.0" y2="4.0">
            </line>
            <g transform="translate(0.0 7.0 ) ">
              <text class="axis-text-x" text-anchor="middle" dy="0.7em" y="0.0">
                <tspan>0</tspan>
              </text>
            </g>
          </g>
          <g transform="translate(106.3159070269275 0.0 ) ">
            <line stroke-width="1.0" stroke="rgb(71,71,71)" stroke-opacity="1.0" x2="0.0" y2="4.0">
            </line>
            <g transform="translate(0.0 7.0 ) ">
              <text class="axis-text-x" text-anchor="middle" dy="0.7em" y="0.0">
                <tspan>20</tspan>
              </text>
            </g>
          </g>
          <g transform="translate(177.31150437379063 0.0 ) ">
            <line stroke-width="1.0" stroke="rgb(71,71,71)" stroke-opacity="1.0" x2="0.0" y2="4.0">
            </line>
            <g transform="translate(0.0 7.0 ) ">
              <text class="axis-text-x" text-anchor="middle" dy="0.7em" y="0.0">
                <tspan>40</tspan>
              </text>
            </g>
          </g>
          <g transform="translate(248.3071017206537 0.0 ) ">
            <line stroke-width="1.0" stroke="rgb(71,71,71)" stroke-opacity="1.0" x2="0.0" y2="4.0">
            </line>
            <g transform="translate(0.0 7.0 ) ">
              <text class="axis-text-x" text-anchor="middle" dy="0.7em" y="0.0">
                <tspan>60</tspan>
              </text>
            </g>
          </g>
          <g transform="translate(319.3026990675168 0.0 ) ">
            <line stroke-width="1.0" stroke="rgb(71,71,71)" stroke-opacity="1.0" x2="0.0" y2="4.0">
            </line>
            <g transform="translate(0.0 7.0 ) ">
              <text class="axis-text-x" text-anchor="middle" dy="0.7em" y="0.0">
                <tspan>80</tspan>
              </text>
            </g>
          </g>
          <g transform="translate(390.2982964143799 0.0 ) ">
            <line stroke-width="1.0" stroke="rgb(71,71,71)" stroke-opacity="1.0" x2="0.0" y2="4.0">
            </line>
            <g transform="translate(0.0 7.0 ) ">
              <text class="axis-text-x" text-anchor="middle" dy="0.7em" y="0.0">
                <tspan>100</tspan>
              </text>
            </g>
          </g>
          <g transform="translate(461.293893761243 0.0 ) ">
            <line stroke-width="1.0" stroke="rgb(71,71,71)" stroke-opacity="1.0" x2="0.0" y2="4.0">
            </line>
            <g transform="translate(0.0 7.0 ) ">
              <text class="axis-text-x" text-anchor="middle" dy="0.7em" y="0.0">
                <tspan>120</tspan>
              </text>
            </g>
          </g>
          <g transform="translate(532.2894911081062 0.0 ) ">
            <line stroke-width="1.0" stroke="rgb(71,71,71)" stroke-opacity="1.0" x2="0.0" y2="4.0">
            </line>
            <g transform="translate(0.0 7.0 ) ">
              <text class="axis-text-x" text-anchor="middle" dy="0.7em" y="0.0">
                <tspan>140</tspan>
              </text>
            </g>
          </g>
          <g transform="translate(603.2850884549692 0.0 ) ">
            <line stroke-width="1.0" stroke="rgb(71,71,71)" stroke-opacity="1.0" x2="0.0" y2="4.0">
            </line>
            <g transform="translate(0.0 7.0 ) ">
              <text class="axis-text-x" text-anchor="middle" dy="0.7em" y="0.0">
                <tspan>160</tspan>
              </text>
            </g>
          </g>
          <g transform="translate(674.2806858018323 0.0 ) ">
            <line stroke-width="1.0" stroke="rgb(71,71,71)" stroke-opacity="1.0" x2="0.0" y2="4.0">
            </line>
            <g transform="translate(0.0 7.0 ) ">
              <text class="axis-text-x" text-anchor="middle" dy="0.7em" y="0.0">
                <tspan>180</tspan>
              </text>
            </g>
          </g>
          <g transform="translate(745.2762831486954 0.0 ) ">
            <line stroke-width="1.0" stroke="rgb(71,71,71)" stroke-opacity="1.0" x2="0.0" y2="4.0">
            </line>
            <g transform="translate(0.0 7.0 ) ">
              <text class="axis-text-x" text-anchor="middle" dy="0.7em" y="0.0">
                <tspan>200</tspan>
              </text>
            </g>
          </g>
          <line x1="0.0" y1="0.0" x2="777.0468129614165" y2="0.0" stroke-width="1.0" stroke="rgb(71,71,71)" stroke-opacity="1.0">
          </line>
        </g>
        <g transform="translate(58.95712304215423 0.0 ) ">
          <g transform="translate(0.0 325.5 ) ">
            <g transform="translate(-3.0 0.0 ) ">
              <text class="axis-text-y" text-anchor="end" dy="0.35em" y="0.0">
                <tspan>0</tspan>
              </text>
            </g>
          </g>
          <g transform="translate(0.0 264.4808850541629 ) ">
            <g transform="translate(-3.0 0.0 ) ">
              <text class="axis-text-y" text-anchor="end" dy="0.35em" y="0.0">
                <tspan>100,000</tspan>
              </text>
            </g>
          </g>
          <g transform="translate(0.0 203.46177010832588 ) ">
            <g transform="translate(-3.0 0.0 ) ">
              <text class="axis-text-y" text-anchor="end" dy="0.35em" y="0.0">
                <tspan>200,000</tspan>
              </text>
            </g>
          </g>
          <g transform="translate(0.0 142.44265516248882 ) ">
            <g transform="translate(-3.0 0.0 ) ">
              <text class="axis-text-y" text-anchor="end" dy="0.35em" y="0.0">
                <tspan>300,000</tspan>
              </text>
            </g>
          </g>
          <g transform="translate(0.0 81.42354021665173 ) ">
            <g transform="translate(-3.0 0.0 ) ">
              <text class="axis-text-y" text-anchor="end" dy="0.35em" y="0.0">
                <tspan>400,000</tspan>
              </text>
            </g>
          </g>
          <g transform="translate(0.0 20.40442527081467 ) ">
            <g transform="translate(-3.0 0.0 ) ">
              <text class="axis-text-y" text-anchor="end" dy="0.35em" y="0.0">
                <tspan>500,000</tspan>
              </text>
            </g>
          </g>
        </g>
      </g>
    </g>
    <g transform="translate(16.0 177.0 ) rotate(-90.0 ) ">
      <text class="axis-title-y" y="0.0" text-anchor="middle">
        <tspan>Meta Regret</tspan>
      </text>
    </g>
    <g transform="translate(476.9805295228625 393.0 ) ">
      <text class="axis-title-x" y="0.0" text-anchor="middle">
        <tspan>N</tspan>
      </text>
    </g>
    <g transform="translate(877.0039360035707 103.25 ) ">
      <rect x="0.0" y="0.0" height="147.5" width="122.99606399642931" stroke="rgb(71,71,71)" stroke-opacity="1.0" stroke-width="0.0" fill="rgb(255,255,255)" fill-opacity="1.0">
      </rect>
      <g transform="translate(5.0 5.0 ) ">
        <g transform="translate(0.0 12.0 ) ">
          <text class="legend-title" y="0.0">
            <tspan>agent</tspan>
          </text>
        </g>
        <g transform="translate(0.0 22.5 ) ">
          <g transform="">
            <g>
              <g transform="translate(1.0 1.0 ) ">
                <g>
                  <line x1="0.0" y1="10.5" x2="21.0" y2="10.5" stroke="rgb(228,26,28)" stroke-opacity="1.0" fill="rgb(255,255,255)" fill-opacity="1.0" stroke-width="1.6500000000000001">
                  </line>
                </g>
              </g>
            </g>
            <g transform="translate(26.9903027277341 16.05 ) ">
              <text class="legend-item" y="0.0">
                <tspan>Clairvoyant</tspan>
              </text>
            </g>
          </g>
          <g transform="translate(0.0 23.0 ) ">
            <g>
              <g transform="translate(1.0 1.0 ) ">
                <g>
                  <line x1="0.0" y1="10.5" x2="21.0" y2="10.5" stroke="rgb(55,126,184)" stroke-opacity="1.0" fill="rgb(255,255,255)" fill-opacity="1.0" stroke-width="1.6500000000000001">
                  </line>
                </g>
              </g>
            </g>
            <g transform="translate(26.9903027277341 16.05 ) ">
              <text class="legend-item" y="0.0">
                <tspan>Greedy</tspan>
              </text>
            </g>
          </g>
          <g transform="translate(0.0 46.0 ) ">
            <g>
              <g transform="translate(1.0 1.0 ) ">
                <g>
                  <line x1="0.0" y1="10.5" x2="21.0" y2="10.5" stroke="rgb(77,175,74)" stroke-opacity="1.0" fill="rgb(255,255,255)" fill-opacity="1.0" stroke-width="1.6500000000000001">
                  </line>
                </g>
              </g>
            </g>
            <g transform="translate(26.9903027277341 16.05 ) ">
              <text class="legend-item" y="0.0">
                <tspan>MTS</tspan>
              </text>
            </g>
          </g>
          <g transform="translate(0.0 69.0 ) ">
            <g>
              <g transform="translate(1.0 1.0 ) ">
                <g>
                  <line x1="0.0" y1="10.5" x2="21.0" y2="10.5" stroke="rgb(152,78,163)" stroke-opacity="1.0" fill="rgb(255,255,255)" fill-opacity="1.0" stroke-width="1.6500000000000001">
                  </line>
                </g>
              </g>
            </g>
            <g transform="translate(26.9903027277341 16.05 ) ">
              <text class="legend-item" y="0.0">
                <tspan>RL2PPO</tspan>
              </text>
            </g>
          </g>
          <g transform="translate(0.0 92.0 ) ">
            <g>
              <g transform="translate(1.0 1.0 ) ">
                <g>
                  <line x1="0.0" y1="10.5" x2="21.0" y2="10.5" stroke="rgb(255,127,0)" stroke-opacity="1.0" fill="rgb(255,255,255)" fill-opacity="1.0" stroke-width="1.6500000000000001">
                  </line>
                </g>
              </g>
            </g>
            <g transform="translate(26.9903027277341 16.05 ) ">
              <text class="legend-item" y="0.0">
                <tspan>TS</tspan>
              </text>
            </g>
          </g>
        </g>
      </g>
    </g>
    <path fill="rgb(0,0,0)" fill-opacity="0.0" stroke="rgb(71,71,71)" stroke-opacity="1.0" stroke-width="0.0" d="M0.0 0.0 L0.0 400.0 L1000.0 400.0 L1000.0 0.0 Z" pointer-events="none">
    </path>
  </g>
  <g id="dmjozOE">
  </g>
</svg>