<svg xmlns="http://www.w3.org/2000/svg" xmlns:xlink="http://www.w3.org/1999/xlink" display="block" class="plt-container" width="1000.0" height="400.0">
  <style type="text/css">
  .plt-container {
   font-family: Lucida Grande, sans-serif;
   user-select: none;
   -webkit-user-select: none;
   -moz-user-select: none;
   -ms-user-select: none;
}
text {
   text-rendering: optimizeLegibility;
}
#pJq4lw2 .plot-title {
fill: #474747;
font-weight: normal;
   font-style: normal;font-family: Lucida Grande, sans-serif;
font-size: 16.0px;

}
#pJq4lw2 .plot-subtitle {
fill: #474747;
font-weight: normal;
   font-style: normal;font-family: Lucida Grande, sans-serif;
font-size: 15.0px;

}
#pJq4lw2 .plot-caption {
fill: #474747;
font-weight: normal;
   font-style: normal;font-family: Lucida Grande, sans-serif;
font-size: 13.0px;

}
#pJq4lw2 .hyperlink-element {
fill: #118ed8;
font-weight: normal;
   font-style: normal;
}
#pJq4lw2 .legend-title {
fill: #474747;
font-weight: normal;
   font-style: normal;font-family: Lucida Grande, sans-serif;
font-size: 15.0px;

}
#pJq4lw2 .legend-item {
fill: #474747;
font-weight: normal;
   font-style: normal;font-family: Lucida Grande, sans-serif;
font-size: 13.0px;

}
#pJq4lw2 .axis-title-x {
fill: #474747;
font-weight: normal;
   font-style: normal;font-family: Lucida Grande, sans-serif;
font-size: 15.0px;

}
#pJq4lw2 .axis-text-x {
fill: #474747;
font-weight: normal;
   font-style: normal;font-family: Lucida Grande, sans-serif;
font-size: 13.0px;

}
#dq3H5L3 .axis-tooltip-text-x {
fill: #ffffff;
font-weight: normal;
   font-style: normal;font-family: Lucida Grande, sans-serif;
font-size: 13.0px;

}
#pJq4lw2 .axis-title-y {
fill: #474747;
font-weight: normal;
   font-style: normal;font-family: Lucida Grande, sans-serif;
font-size: 15.0px;

}
#pJq4lw2 .axis-text-y {
fill: #474747;
font-weight: normal;
   font-style: normal;font-family: Lucida Grande, sans-serif;
font-size: 13.0px;

}
#dq3H5L3 .axis-tooltip-text-y {
fill: #ffffff;
font-weight: normal;
   font-style: normal;font-family: Lucida Grande, sans-serif;
font-size: 13.0px;

}
#pJq4lw2 .facet-strip-text-x {
fill: #474747;
font-weight: normal;
   font-style: normal;font-family: Lucida Grande, sans-serif;
font-size: 13.0px;

}
#pJq4lw2 .facet-strip-text-y {
fill: #474747;
font-weight: normal;
   font-style: normal;font-family: Lucida Grande, sans-serif;
font-size: 13.0px;

}
#dq3H5L3 .tooltip-text {
fill: #474747;
font-weight: normal;
   font-style: normal;font-family: Lucida Grande, sans-serif;
font-size: 13.0px;

}
#dq3H5L3 .tooltip-title {
fill: #474747;
font-weight: bold;
   font-style: normal;font-family: Lucida Grande, sans-serif;
font-size: 13.0px;

}
#dq3H5L3 .tooltip-label {
fill: #474747;
font-weight: bold;
   font-style: normal;font-family: Lucida Grande, sans-serif;
font-size: 13.0px;

}

  </style>
  <g id="pJq4lw2">
    <path fill-rule="evenodd" fill="rgb(255,255,255)" fill-opacity="1.0" d="M0.0 0.0 L0.0 400.0 L1000.0 400.0 L1000.0 0.0 Z">
    </path>
    <g transform="translate(29.5 6.5 ) ">
      <g>
        <g transform="translate(58.95712304215423 0.0 ) ">
          <g>
            <line x1="35.32030968006439" y1="0.0" x2="35.32030968006439" y2="341.0" stroke="rgb(233,233,233)" stroke-opacity="1.0" stroke-width="1.0" fill="none">
            </line>
            <line x1="123.842389078722" y1="0.0" x2="123.842389078722" y2="341.0" stroke="rgb(233,233,233)" stroke-opacity="1.0" stroke-width="1.0" fill="none">
            </line>
            <line x1="212.3644684773796" y1="0.0" x2="212.3644684773796" y2="341.0" stroke="rgb(233,233,233)" stroke-opacity="1.0" stroke-width="1.0" fill="none">
            </line>
            <line x1="300.88654787603724" y1="0.0" x2="300.88654787603724" y2="341.0" stroke="rgb(233,233,233)" stroke-opacity="1.0" stroke-width="1.0" fill="none">
            </line>
            <line x1="389.4086272746948" y1="0.0" x2="389.4086272746948" y2="341.0" stroke="rgb(233,233,233)" stroke-opacity="1.0" stroke-width="1.0" fill="none">
            </line>
            <line x1="477.93070667335246" y1="0.0" x2="477.93070667335246" y2="341.0" stroke="rgb(233,233,233)" stroke-opacity="1.0" stroke-width="1.0" fill="none">
            </line>
            <line x1="566.4527860720101" y1="0.0" x2="566.4527860720101" y2="341.0" stroke="rgb(233,233,233)" stroke-opacity="1.0" stroke-width="1.0" fill="none">
            </line>
            <line x1="654.9748654706677" y1="0.0" x2="654.9748654706677" y2="341.0" stroke="rgb(233,233,233)" stroke-opacity="1.0" stroke-width="1.0" fill="none">
            </line>
            <line x1="743.4969448693253" y1="0.0" x2="743.4969448693253" y2="341.0" stroke="rgb(233,233,233)" stroke-opacity="1.0" stroke-width="1.0" fill="none">
            </line>
          </g>
        </g>
        <g transform="translate(58.95712304215423 0.0 ) ">
          <g>
            <line x1="0.0" y1="325.5" x2="777.0468129614165" y2="325.5" stroke="rgb(233,233,233)" stroke-opacity="1.0" stroke-width="1.0" fill="none">
            </line>
            <line x1="0.0" y1="249.62906322374053" x2="777.0468129614165" y2="249.62906322374053" stroke="rgb(233,233,233)" stroke-opacity="1.0" stroke-width="1.0" fill="none">
            </line>
            <line x1="0.0" y1="173.75812644748106" x2="777.0468129614165" y2="173.75812644748106" stroke="rgb(233,233,233)" stroke-opacity="1.0" stroke-width="1.0" fill="none">
            </line>
            <line x1="0.0" y1="97.88718967122159" x2="777.0468129614165" y2="97.88718967122159" stroke="rgb(233,233,233)" stroke-opacity="1.0" stroke-width="1.0" fill="none">
            </line>
            <line x1="0.0" y1="22.016252894962122" x2="777.0468129614165" y2="22.016252894962122" stroke="rgb(233,233,233)" stroke-opacity="1.0" stroke-width="1.0" fill="none">
            </line>
          </g>
        </g>
      </g>
      <g clip-path="url(#csHItDu)" clip-bounds-jfx="[rect (58.95712304215423, 0.0), (777.0468129614165, 341.0)]">
        <g transform="translate(58.95712304215423 0.0 ) ">
          <g>
            <g>
              <g>
                <path d="M35.32030968006439 325.5 L35.32030968006439 325.5 L37.09075126803754 325.5 L38.861192856010696 325.5 L40.63163444398385 325.5 L42.402076031957 325.5 L44.172517619930154 325.5 L45.9429592079033 325.5 L47.71340079587645 325.5 L49.483842383849606 325.5 L51.25428397182276 325.5 L53.02472555979591 325.5 L54.795167147769064 325.5 L56.56560873574222 325.5 L58.33605032371537 325.5 L60.10649191168852 325.5 L61.876933499661675 325.5 L63.64737508763483 325.5 L65.41781667560798 325.5 L67.18825826358113 325.5 L68.95869985155429 325.5 L70.72914143952744 325.5 L72.49958302750059 325.5 L74.27002461547374 325.5 L76.0404662034469 325.5 L77.81090779142005 325.5 L79.5813493793932 325.5 L81.35179096736636 325.5 L83.12223255533951 325.5 L84.89267414331266 325.5 L86.66311573128581 325.5 L88.43355731925897 325.5 L90.20399890723212 325.5 L91.97444049520527 325.5 L93.74488208317842 325.5 L95.51532367115158 325.5 L97.28576525912473 325.5 L99.05620684709788 325.5 L100.82664843507104 325.5 L102.59709002304419 325.5 L104.36753161101734 325.5 L106.1379731989905 325.5 L107.90841478696365 325.5 L109.6788563749368 325.5 L111.44929796290995 325.5 L113.2197395508831 325.5 L114.99018113885626 325.5 L116.76062272682941 325.5 L118.53106431480256 325.5 L120.30150590277569 325.5 L122.07194749074884 325.5 L123.842389078722 325.5 L125.61283066669515 325.5 L127.3832722546683 325.5 L129.15371384264145 325.5 L130.9241554306146 325.5 L132.69459701858776 325.5 L134.4650386065609 325.5 L136.23548019453406 325.5 L138.00592178250722 325.5 L139.77636337048037 325.5 L141.54680495845352 325.5 L143.31724654642667 325.5 L145.08768813439983 325.5 L146.85812972237298 325.5 L148.62857131034613 325.5 L150.39901289831928 325.5 L152.16945448629244 325.5 L153.9398960742656 325.5 L155.71033766223874 325.5 L157.4807792502119 325.5 L159.25122083818505 325.5 L161.0216624261582 325.5 L162.79210401413135 325.5 L164.5625456021045 325.5 L166.33298719007766 325.5 L168.1034287780508 325.5 L169.87387036602397 325.5 L171.64431195399712 325.5 L173.41475354197027 325.5 L175.18519512994342 325.5 L176.95563671791658 325.5 L178.72607830588973 325.5 L180.49651989386288 325.5 L182.26696148183603 325.5 L184.0374030698092 325.5 L185.80784465778234 325.5 L187.5782862457555 325.5 L189.34872783372865 325.5 L191.1191694217018 325.5 L192.88961100967495 325.5 L194.6600525976481 325.5 L196.43049418562126 325.5 L198.2009357735944 325.5 L199.97137736156756 325.5 L201.74181894954071 325.5 L203.51226053751387 325.5 L205.282702125487 325.5 L207.05314371346014 325.5 L208.8235853014333 325.5 L210.59402688940645 325.5 L212.3644684773796 325.5 L214.13491006535276 325.5 L215.9053516533259 325.5 L217.67579324129906 325.5 L219.4462348292722 325.5 L221.21667641724537 325.5 L222.98711800521852 325.5 L224.75755959319167 325.5 L226.52800118116483 325.5 L228.29844276913798 325.5 L230.06888435711113 325.5 L231.83932594508428 325.5 L233.60976753305744 325.5 L235.3802091210306 325.5 L237.15065070900374 325.5 L238.9210922969769 325.5 L240.69153388495005 325.5 L242.4619754729232 325.5 L244.23241706089635 325.5 L246.0028586488695 325.5 L247.77330023684266 325.5 L249.5437418248158 325.5 L251.31418341278896 325.5 L253.08462500076212 325.5 L254.85506658873527 325.5 L256.6255081767084 325.5 L258.3959497646816 325.5 L260.1663913526547 325.5 L261.9368329406279 325.5 L263.70727452860103 325.5 L265.4777161165742 325.5 L267.24815770454734 325.5 L269.0185992925205 325.5 L270.78904088049364 325.5 L272.5594824684668 325.5 L274.32992405643995 325.5 L276.1003656444131 325.5 L277.87080723238626 325.5 L279.6412488203594 325.5 L281.41169040833256 325.5 L283.1821319963057 325.5 L284.95257358427887 325.5 L286.723015172252 325.5 L288.4934567602252 325.5 L290.2638983481983 325.5 L292.0343399361715 325.5 L293.80478152414463 325.5 L295.5752231121178 325.5 L297.34566470009094 325.5 L299.1161062880641 325.5 L300.88654787603724 325.5 L302.6569894640104 325.5 L304.42743105198355 325.5 L306.1978726399567 325.5 L307.96831422792985 325.5 L309.738755815903 325.5 L311.50919740387616 325.5 L313.2796389918493 325.5 L315.05008057982246 325.5 L316.8205221677956 325.5 L318.59096375576877 325.5 L320.3614053437419 325.5 L322.1318469317151 325.5 L323.9022885196882 325.5 L325.6727301076614 325.5 L327.44317169563453 325.5 L329.2136132836077 325.5 L330.98405487158084 325.5 L332.754496459554 325.5 L334.52493804752714 325.5 L336.2953796355003 325.5 L338.06582122347345 325.5 L339.8362628114466 325.5 L341.60670439941975 325.5 L343.3771459873929 325.5 L345.14758757536606 325.5 L346.9180291633392 325.5 L348.68847075131237 325.5 L350.4589123392855 325.5 L352.22935392725867 325.5 L353.9997955152318 325.5 L355.770237103205 325.5 L357.54067869117813 325.5 L359.3111202791513 325.5 L361.08156186712444 325.5 L362.8520034550976 325.5 L364.62244504307074 325.5 L366.3928866310439 325.5 L368.16332821901705 325.5 L369.9337698069902 325.5 L371.70421139496335 325.5 L373.4746529829365 325.5 L375.2450945709096 325.5 L377.01553615888275 325.5 L378.7859777468559 325.5 L380.55641933482906 325.5 L382.3268609228022 325.5 L384.09730251077536 325.5 L385.8677440987485 325.5 L387.63818568672167 325.5 L389.4086272746948 325.5 L391.179068862668 325.5 L392.9495104506411 325.5 L394.7199520386143 325.5 L396.49039362658743 325.5 L398.2608352145606 325.5 L400.03127680253374 325.5 L401.8017183905069 325.5 L403.57215997848004 325.5 L405.3426015664532 325.5 L407.11304315442635 325.5 L408.8834847423995 325.5 L410.65392633037266 325.5 L412.4243679183458 325.5 L414.19480950631896 325.5 L415.9652510942921 325.5 L417.73569268226527 325.5 L419.5061342702384 325.5 L421.2765758582116 325.5 L423.0470174461847 325.5 L424.8174590341579 325.5 L426.58790062213103 325.5 L428.3583422101042 325.5 L430.12878379807734 325.5 L431.8992253860505 325.5 L433.66966697402364 325.5 L435.4401085619968 325.5 L437.21055014996995 325.5 L438.9809917379431 325.5 L440.75143332591625 325.5 L442.5218749138894 325.5 L444.29231650186256 325.5 L446.0627580898357 325.5 L447.83319967780886 325.5 L449.603641265782 325.5 L451.37408285375517 325.5 L453.1445244417283 325.5 L454.9149660297015 325.5 L456.6854076176746 325.5 L458.4558492056478 325.5 L460.22629079362093 325.5 L461.9967323815941 325.5 L463.76717396956724 325.5 L465.5376155575404 325.5 L467.30805714551354 325.5 L469.0784987334867 325.5 L470.84894032145985 325.5 L472.619381909433 325.5 L474.38982349740616 325.5 L476.1602650853793 325.5 L477.93070667335246 325.5 L479.7011482613256 325.5 L481.47158984929877 325.5 L483.2420314372719 325.5 L485.0124730252451 325.5 L486.7829146132182 325.5 L488.5533562011914 325.5 L490.32379778916453 325.5 L492.0942393771377 325.5 L493.86468096511084 325.5 L495.635122553084 325.5 L497.40556414105714 325.5 L499.1760057290303 325.5 L500.94644731700345 325.5 L502.7168889049766 325.5 L504.48733049294975 325.5 L506.2577720809229 325.5 L508.02821366889606 325.5 L509.7986552568692 325.5 L511.56909684484236 325.5 L513.3395384328155 325.5 L515.1099800207887 325.5 L516.8804216087618 325.5 L518.650863196735 325.5 L520.4213047847081 325.5 L522.1917463726813 325.5 L523.9621879606544 325.5 L525.7326295486276 325.5 L527.5030711366007 325.5 L529.273512724574 325.5 L531.043954312547 325.5 L532.8143959005203 325.5 L534.5848374884933 325.5 L536.3552790764666 325.5 L538.1257206644397 325.5 L539.8961622524129 325.5 L541.666603840386 325.5 L543.4370454283592 325.5 L545.2074870163323 325.5 L546.9779286043055 325.5 L548.7483701922786 325.5 L550.5188117802517 325.5 L552.2892533682249 325.5 L554.059694956198 325.5 L555.8301365441712 325.5 L557.6005781321443 325.5 L559.3710197201175 325.5 L561.1414613080906 325.5 L562.9119028960638 325.5 L564.6823444840369 325.5 L566.4527860720101 325.5 L568.2232276599832 325.5 L569.9936692479564 325.5 L571.7641108359295 325.5 L573.5345524239027 325.5 L575.3049940118758 325.5 L577.075435599849 325.5 L578.8458771878221 325.5 L580.6163187757953 325.5 L582.3867603637684 325.5 L584.1572019517416 325.5 L585.9276435397147 325.5 L587.6980851276879 325.5 L589.468526715661 325.5 L591.2389683036342 325.5 L593.0094098916073 325.5 L594.7798514795805 325.5 L596.5502930675536 325.5 L598.3207346555268 325.5 L600.0911762435 325.5 L601.8616178314732 325.5 L603.6320594194463 325.5 L605.4025010074195 325.5 L607.1729425953926 325.5 L608.9433841833658 325.5 L610.7138257713389 325.5 L612.4842673593121 325.5 L614.2547089472852 325.5 L616.0251505352584 325.5 L617.7955921232315 325.5 L619.5660337112047 325.5 L621.3364752991778 325.5 L623.106916887151 325.5 L624.8773584751241 325.5 L626.6478000630973 325.5 L628.4182416510704 325.5 L630.1886832390436 325.5 L631.9591248270167 325.5 L633.7295664149899 325.5 L635.500008002963 325.5 L637.2704495909362 325.5 L639.0408911789093 325.5 L640.8113327668825 325.5 L642.5817743548556 325.5 L644.3522159428288 325.5 L646.1226575308019 325.5 L647.8930991187751 325.5 L649.6635407067482 325.5 L651.4339822947214 325.5 L653.2044238826945 325.5 L654.9748654706677 325.5 L656.7453070586408 325.5 L658.515748646614 325.5 L660.2861902345871 325.5 L662.0566318225603 325.5 L663.8270734105334 325.5 L665.5975149985067 325.5 L667.3679565864797 325.5 L669.138398174453 325.5 L670.908839762426 325.5 L672.6792813503993 325.5 L674.4497229383724 325.5 L676.2201645263456 325.5 L677.9906061143187 325.5 L679.7610477022919 325.5 L681.531489290265 325.5 L683.3019308782382 325.5 L685.0723724662113 325.5 L686.8428140541845 325.5 L688.6132556421576 325.5 L690.3836972301308 325.5 L692.1541388181039 325.5 L693.9245804060771 325.5 L695.6950219940502 325.5 L697.4654635820234 325.5 L699.2359051699965 325.5 L701.0063467579697 325.5 L702.7767883459428 325.5 L704.547229933916 325.5 L706.3176715218891 325.5 L708.0881131098623 325.5 L709.8585546978354 325.5 L711.6289962858086 325.5 L713.3994378737817 325.5 L715.1698794617548 325.5 L716.940321049728 325.5 L718.7107626377011 325.5 L720.4812042256743 325.5 L722.2516458136474 325.5 L724.0220874016206 325.5 L725.7925289895937 325.5 L727.562970577567 325.5 L729.33341216554 325.5 L731.1038537535132 325.5 L732.8742953414863 325.5 L734.6447369294596 325.5 L736.4151785174327 325.5 L738.1856201054059 325.5 L739.956061693379 325.5 L741.7265032813522 325.5 " fill="none" stroke-width="1.6500000000000001" stroke="rgb(228,26,28)" stroke-opacity="1.0">
                </path>
              </g>
              <g>
                <path d="M35.32030968006439 324.57763311133345 L35.32030968006439 324.57763311133345 L37.09075126803754 324.29728564260574 L38.861192856010696 324.13417621527907 L40.63163444398385 323.75390487343725 L42.402076031957 323.14070853586014 L44.172517619930154 322.64387211980795 L45.9429592079033 322.48645473782483 L47.71340079587645 322.2651167632428 L49.483842383849606 321.99881195485267 L51.25428397182276 321.8904952870995 L53.02472555979591 321.54672142422737 L54.795167147769064 321.4463115574815 L56.56560873574222 320.4694826234886 L58.33605032371537 320.0722055148857 L60.10649191168852 319.8145420403878 L61.876933499661675 319.58453825690464 L63.64737508763483 319.49718404426795 L65.41781667560798 319.4162159569446 L67.18825826358113 319.29996705809367 L68.95869985155429 319.171298983431 L70.72914143952744 319.0495876373385 L72.49958302750059 318.9698657666507 L74.27002461547374 318.10479110242596 L76.0404662034469 317.9750794179843 L77.81090779142005 317.84857619037587 L79.5813493793932 317.760707355916 L81.35179096736636 317.6788612583207 L83.12223255533951 316.60532856922833 L84.89267414331266 316.5008595329323 L86.66311573128581 316.357809268406 L88.43355731925897 316.28606236629287 L90.20399890723212 316.0952031726552 L91.97444049520527 315.9846008886824 L93.74488208317842 315.8848581085098 L95.51532367115158 315.766866594651 L97.28576525912473 315.6477613193208 L99.05620684709788 315.4366004112589 L100.82664843507104 315.3505664543962 L102.59709002304419 315.2438696712962 L104.36753161101734 315.17426595314987 L106.1379731989905 314.52347998966576 L107.90841478696365 314.3703568810156 L109.6788563749368 314.28267344889736 L111.44929796290995 314.1801764108194 L113.2197395508831 314.02154632544676 L114.99018113885626 313.8123617670498 L116.76062272682941 313.58371415230937 L118.53106431480256 313.5227210870174 L120.30150590277569 313.3543709730084 L122.07194749074884 313.0642840462724 L123.842389078722 312.8969100298686 L125.61283066669515 312.8116629797813 L127.3832722546683 312.07263293433704 L129.15371384264145 312.0001571325065 L130.9241554306146 311.0848298283374 L132.69459701858776 310.8213833164908 L134.4650386065609 310.34047780074667 L136.23548019453406 310.09843276684853 L138.00592178250722 309.9174038372288 L139.77636337048037 309.78037399354474 L141.54680495845352 309.6234305244203 L143.31724654642667 309.2392106095167 L145.08768813439983 308.9917453475228 L146.85812972237298 308.65919879724083 L148.62857131034613 307.9973684113988 L150.39901289831928 307.27049647562103 L152.16945448629244 307.12126815238025 L153.9398960742656 307.0153245386802 L155.71033766223874 306.91284326115186 L157.4807792502119 306.84099623169885 L159.25122083818505 306.3539997280231 L161.0216624261582 306.1734719498172 L162.79210401413135 306.0560253797585 L164.5625456021045 305.66603354348814 L166.33298719007766 305.5574721408394 L168.1034287780508 305.45380000054814 L169.87387036602397 305.24211663143296 L171.64431195399712 304.64733071986046 L173.41475354197027 304.4984777458165 L175.18519512994342 304.3764699344557 L176.95563671791658 304.2336354521316 L178.72607830588973 304.0441126696718 L180.49651989386288 303.96970816490136 L182.26696148183603 303.7845323214733 L184.0374030698092 303.65942677866747 L185.80784465778234 302.7568107470845 L187.5782862457555 302.6473057660568 L189.34872783372865 302.5522955844661 L191.1191694217018 302.369425397804 L192.88961100967495 302.19580829228784 L194.6600525976481 302.009282226781 L196.43049418562126 301.8950457625282 L198.2009357735944 301.76055477707996 L199.97137736156756 301.6207552424322 L201.74181894954071 301.5343967950325 L203.51226053751387 301.4799291963073 L205.282702125487 300.01393884902086 L207.05314371346014 299.84604282461765 L208.8235853014333 299.6997356387006 L210.59402688940645 298.5605442672848 L212.3644684773796 298.3610990347515 L214.13491006535276 298.16397171175157 L215.9053516533259 298.00992851686897 L217.67579324129906 297.88859160462204 L219.4462348292722 296.9238653571723 L221.21667641724537 296.7995729860033 L222.98711800521852 296.73075134343975 L224.75755959319167 296.46999738882874 L226.52800118116483 296.29962970029084 L228.29844276913798 296.05575644872897 L230.06888435711113 295.8929458496906 L231.83932594508428 295.5955035168088 L233.60976753305744 294.84502995623086 L235.3802091210306 293.6348934120606 L237.15065070900374 293.4729192804662 L238.9210922969769 293.2486501292505 L240.69153388495005 293.1554026749383 L242.4619754729232 292.98479296983925 L244.23241706089635 292.33180394428797 L246.0028586488695 291.0596162208548 L247.77330023684266 291.00073598459846 L249.5437418248158 290.88039983349915 L251.31418341278896 290.0357061611418 L253.08462500076212 289.9601179547096 L254.85506658873527 289.34356210206084 L256.6255081767084 289.192087908947 L258.3959497646816 288.8964873546447 L260.1663913526547 288.20031563847317 L261.9368329406279 286.33527036720307 L263.70727452860103 286.0776462531264 L265.4777161165742 285.92833432940336 L267.24815770454734 285.8349351650433 L269.0185992925205 283.9171615517454 L270.78904088049364 283.8107365151978 L272.5594824684668 282.98836092852696 L274.32992405643995 282.90879344185214 L276.1003656444131 282.75544007958246 L277.87080723238626 282.66330743576003 L279.6412488203594 282.34272065668625 L281.41169040833256 282.2698495415395 L283.1821319963057 282.1666676915877 L284.95257358427887 282.0488395767243 L286.723015172252 281.8680675704518 L288.4934567602252 281.65105502101574 L290.2638983481983 281.55049534145604 L292.0343399361715 281.42669463397283 L293.80478152414463 280.52307923421057 L295.5752231121178 279.6072041743922 L297.34566470009094 279.4807845269168 L299.1161062880641 279.3177519691691 L300.88654787603724 279.18228265883874 L302.6569894640104 279.0383007506115 L304.42743105198355 278.94829275083407 L306.1978726399567 278.7584766456992 L307.96831422792985 278.6750902674843 L309.738755815903 278.5475704448098 L311.50919740387616 278.4503166566176 L313.2796389918493 278.3147847328072 L315.05008057982246 277.94382971560566 L316.8205221677956 277.7358190516194 L318.59096375576877 277.6041139589026 L320.3614053437419 277.42892326599275 L322.1318469317151 275.74708297563444 L323.9022885196882 275.42448550593116 L325.6727301076614 273.7944008844797 L327.44317169563453 273.63875580488707 L329.2136132836077 273.02128779191224 L330.98405487158084 272.2888424685949 L332.754496459554 272.20778927041437 L334.52493804752714 272.1087840800348 L336.2953796355003 271.0556149093418 L338.06582122347345 270.9930147463265 L339.8362628114466 270.18906572079055 L341.60670439941975 269.6846870355419 L343.3771459873929 269.6106149037264 L345.14758757536606 269.46452032406637 L346.9180291633392 269.3165748392381 L348.68847075131237 268.6493121916048 L350.4589123392855 268.54177332599136 L352.22935392725867 268.40935648830833 L353.9997955152318 267.85192041391736 L355.770237103205 267.74817348557536 L357.54067869117813 267.6761292291999 L359.3111202791513 267.5490130078658 L361.08156186712444 267.3935866198864 L362.8520034550976 267.3304297044583 L364.62244504307074 266.4354888220179 L366.3928866310439 266.35718154205927 L368.16332821901705 266.11280368968966 L369.9337698069902 265.85460421450637 L371.70421139496335 265.74384264488884 L373.4746529829365 265.59853106464016 L375.2450945709096 265.1664459504559 L377.01553615888275 264.96351024335706 L378.7859777468559 264.86020414634146 L380.55641933482906 264.2174695442315 L382.3268609228022 264.1026704349206 L384.09730251077536 263.52856078311055 L385.8677440987485 262.89852122432393 L387.63818568672167 262.7834892131406 L389.4086272746948 262.6289225872869 L391.179068862668 261.7937703643203 L392.9495104506411 260.5958942086794 L394.7199520386143 260.2420906196587 L396.49039362658743 260.0698819250706 L398.2608352145606 259.9109783782925 L400.03127680253374 259.8293634583068 L401.8017183905069 259.67589476419437 L403.57215997848004 259.62545496189534 L405.3426015664532 259.48057695426087 L407.11304315442635 258.7522473363818 L408.8834847423995 258.6029623612732 L410.65392633037266 257.9526735410158 L412.4243679183458 257.82281051332075 L414.19480950631896 257.60130205775783 L415.9652510942921 257.44220962627463 L417.73569268226527 257.26287595842587 L419.5061342702384 257.2010345914383 L421.2765758582116 257.1062135093663 L423.0470174461847 256.96736933801736 L424.8174590341579 256.3861250553605 L426.58790062213103 256.29823881267646 L428.3583422101042 256.18905413161224 L430.12878379807734 256.04841462067156 L431.8992253860505 255.89828414893188 L433.66966697402364 255.82377802493858 L435.4401085619968 255.71175579183017 L437.21055014996995 255.59767402825088 L438.9809917379431 254.47417212225565 L440.75143332591625 254.18989832671036 L442.5218749138894 252.52795658760436 L444.29231650186256 252.39595870520424 L446.0627580898357 252.3215181182385 L447.83319967780886 252.08999117996234 L449.603641265782 250.36628564374337 L451.37408285375517 250.24339994338686 L453.1445244417283 250.05863651990575 L454.9149660297015 249.5328892580756 L456.6854076176746 248.33093490984254 L458.4558492056478 247.86551644990598 L460.22629079362093 245.98125939776253 L461.9967323815941 245.75167940253039 L463.76717396956724 245.61604192643517 L465.5376155575404 245.05105278645502 L467.30805714551354 245.00187218348543 L469.0784987334867 244.85325294407775 L470.84894032145985 244.01641709499484 L472.619381909433 243.70106729661626 L474.38982349740616 243.3814163272954 L476.1602650853793 243.18288095182032 L477.93070667335246 243.10217630807568 L479.7011482613256 242.67569257061447 L481.47158984929877 241.83613013283608 L483.2420314372719 241.71705126139204 L485.0124730252451 241.02964387473864 L486.7829146132182 240.6158850741532 L488.5533562011914 240.51284754066998 L490.32379778916453 240.39734681089544 L492.0942393771377 239.03737369239127 L493.86468096511084 238.75323000030224 L495.635122553084 238.63280885341965 L497.40556414105714 238.5176301585163 L499.1760057290303 238.4024848058935 L500.94644731700345 238.2346686782165 L502.7168889049766 238.11171744624855 L504.48733049294975 237.97425692891312 L506.2577720809229 237.8791795441082 L508.02821366889606 237.79887974933644 L509.7986552568692 237.5897216764366 L511.56909684484236 236.84878876701845 L513.3395384328155 236.78328574028876 L515.1099800207887 236.50427592398944 L516.8804216087618 236.13265655015786 L518.650863196735 235.88160889451052 L520.4213047847081 235.5910304396391 L522.1917463726813 235.49853828013056 L523.9621879606544 235.31615868633497 L525.7326295486276 234.9595430078025 L527.5030711366007 234.6627392827243 L529.273512724574 234.53865652449974 L531.043954312547 233.70275525805764 L532.8143959005203 233.49471557395148 L534.5848374884933 233.22033387630114 L536.3552790764666 233.12304854264207 L538.1257206644397 232.95329197310787 L539.8961622524129 232.83844671742753 L541.666603840386 232.721973063627 L543.4370454283592 232.57417231374842 L545.2074870163323 232.46760259057066 L546.9779286043055 232.38293333715018 L548.7483701922786 232.30690303585115 L550.5188117802517 232.2106261339514 L552.2892533682249 231.42080395263324 L554.059694956198 231.348293189534 L555.8301365441712 231.25954934921532 L557.6005781321443 230.78433420580865 L559.3710197201175 229.6700812204378 L561.1414613080906 229.61157199061967 L562.9119028960638 229.47739480974678 L564.6823444840369 229.34812344868493 L566.4527860720101 229.14274146916972 L568.2232276599832 227.7082236270274 L569.9936692479564 227.49830419735997 L571.7641108359295 227.41112583859413 L573.5345524239027 226.9867210658297 L575.3049940118758 225.890355792253 L577.075435599849 225.81185839845602 L578.8458771878221 225.54294958865603 L580.6163187757953 225.4621985862162 L582.3867603637684 225.25748593029323 L584.1572019517416 225.1076341638253 L585.9276435397147 224.94913526062885 L587.6980851276879 223.93105977217215 L589.468526715661 223.85757403555445 L591.2389683036342 223.47248013589405 L593.0094098916073 223.03899477182975 L594.7798514795805 222.91715854613523 L596.5502930675536 222.81134977843232 L598.3207346555268 222.3546509312596 L600.0911762435 221.95803863082762 L601.8616178314732 221.6633778296066 L603.6320594194463 221.53517359060316 L605.4025010074195 221.4358455041372 L607.1729425953926 220.78012793071525 L608.9433841833658 220.66684634650716 L610.7138257713389 220.49144313092233 L612.4842673593121 219.712538258604 L614.2547089472852 219.3593733784636 L616.0251505352584 219.1855483495657 L617.7955921232315 219.06939498767719 L619.5660337112047 218.92905206364605 L621.3364752991778 218.4633885950479 L623.106916887151 218.17106946087853 L624.8773584751241 218.03319402170595 L626.6478000630973 216.98812147701813 L628.4182416510704 216.88162554457108 L630.1886832390436 216.120161160303 L631.9591248270167 216.04381686783248 L633.7295664149899 215.33609368420946 L635.500008002963 215.24804647773396 L637.2704495909362 215.07191875658566 L639.0408911789093 214.946219561828 L640.8113327668825 214.80430954770463 L642.5817743548556 214.69946409196172 L644.3522159428288 213.52692185574324 L646.1226575308019 213.2063797586324 L647.8930991187751 213.10980739999096 L649.6635407067482 212.98314812487513 L651.4339822947214 212.75367476371775 L653.2044238826945 212.66209144093636 L654.9748654706677 212.58906390844663 L656.7453070586408 212.23321766797076 L658.515748646614 211.81115828396037 L660.2861902345871 211.64120208274088 L662.0566318225603 211.5522778299474 L663.8270734105334 211.42780565413742 L665.5975149985067 211.34229238188465 L667.3679565864797 211.2645458692361 L669.138398174453 211.05451154734203 L670.908839762426 210.96018951162097 L672.6792813503993 210.4650577444886 L674.4497229383724 210.25480772509752 L676.2201645263456 210.1613686063752 L677.9906061143187 209.95896681002665 L679.7610477022919 209.75547218818605 L681.531489290265 209.23022244610652 L683.3019308782382 209.09464170155644 L685.0723724662113 208.98509944226547 L686.8428140541845 208.38002680554993 L688.6132556421576 208.06263887414656 L690.3836972301308 207.28682405498398 L692.1541388181039 207.1048343396949 L693.9245804060771 205.94546626642568 L695.6950219940502 205.66197605564895 L697.4654635820234 205.54853505187984 L699.2359051699965 205.46514660733453 L701.0063467579697 204.1756810141224 L702.7767883459428 202.9082665282097 L704.547229933916 202.6573062334418 L706.3176715218891 202.3134969996065 L708.0881131098623 202.1593379164412 L709.8585546978354 202.08476581658527 L711.6289962858086 201.2115699095345 L713.3994378737817 201.06671887427194 L715.1698794617548 200.94917993004037 L716.940321049728 200.72233377999402 L718.7107626377011 200.5288730117428 L720.4812042256743 200.3584810288873 L722.2516458136474 200.2474778554701 L724.0220874016206 200.01554933571202 L725.7925289895937 199.14213371603475 L727.562970577567 198.2868460511619 L729.33341216554 198.14979701917147 L731.1038537535132 198.0124311862036 L732.8742953414863 196.50534825999026 L734.6447369294596 196.30639488088488 L736.4151785174327 196.17598070414556 L738.1856201054059 195.97571618072226 L739.956061693379 195.84551373324888 L741.7265032813522 195.52950292179878 " fill="none" stroke-width="1.6500000000000001" stroke="rgb(55,126,184)" stroke-opacity="1.0">
                </path>
              </g>
              <g>
                <path d="M35.32030968006439 324.13985224259494 L35.32030968006439 324.13985224259494 L37.09075126803754 320.172006635347 L38.861192856010696 314.4958755716936 L40.63163444398385 310.46006705541777 L42.402076031957 309.0516229105298 L44.172517619930154 307.7459535695479 L45.9429592079033 306.8865840089947 L47.71340079587645 306.4092100473501 L49.483842383849606 304.8883592945591 L51.25428397182276 303.42939894440394 L53.02472555979591 302.8762007482723 L54.795167147769064 302.4545988030114 L56.56560873574222 302.0138049412503 L58.33605032371537 300.7046756668026 L60.10649191168852 300.3047573418106 L61.876933499661675 298.79690704741085 L63.64737508763483 298.0944325889481 L65.41781667560798 297.14999577580073 L67.18825826358113 295.5236160379331 L68.95869985155429 294.7281216815659 L70.72914143952744 293.36788946803756 L72.49958302750059 292.98317968806225 L74.27002461547374 291.98393169884775 L76.0404662034469 291.2176295077821 L77.81090779142005 290.1065921074715 L79.5813493793932 289.7160116917434 L81.35179096736636 289.0921279890059 L83.12223255533951 287.0596347496087 L84.89267414331266 286.066677570961 L86.66311573128581 285.52016531512567 L88.43355731925897 283.7950812724792 L90.20399890723212 281.51010683089055 L91.97444049520527 281.0194812791093 L93.74488208317842 280.25868880738324 L95.51532367115158 279.6782025796612 L97.28576525912473 279.02764895012655 L99.05620684709788 278.3171229224094 L100.82664843507104 277.7635712107055 L102.59709002304419 277.1245711785621 L104.36753161101734 276.7591823563919 L106.1379731989905 275.7043687480755 L107.90841478696365 275.2447726799008 L109.6788563749368 274.75825335597125 L111.44929796290995 274.2668710441151 L113.2197395508831 273.77338012199664 L114.99018113885626 272.5359422279733 L116.76062272682941 271.21074823697046 L118.53106431480256 270.8103256117249 L120.30150590277569 269.58148183160944 L122.07194749074884 268.8874252282904 L123.842389078722 268.38031797949293 L125.61283066669515 267.9565063070864 L127.3832722546683 266.5052029636596 L129.15371384264145 266.11932682582443 L130.9241554306146 265.7402503853215 L132.69459701858776 265.3854504139595 L134.4650386065609 265.0263315324529 L136.23548019453406 264.4205554029201 L138.00592178250722 263.75238878244727 L139.77636337048037 263.24527598966586 L141.54680495845352 262.60254288666397 L143.31724654642667 262.16604478520424 L145.08768813439983 260.6326753277116 L146.85812972237298 259.48919038175325 L148.62857131034613 259.11589599513877 L150.39901289831928 258.6650977730785 L152.16945448629244 258.1203387859881 L153.9398960742656 257.589717413858 L155.71033766223874 256.6862584063017 L157.4807792502119 256.2871145846241 L159.25122083818505 255.2976167420917 L161.0216624261582 254.7797270755973 L162.79210401413135 254.35223741759057 L164.5625456021045 252.1361786850851 L166.33298719007766 251.60643604248776 L168.1034287780508 250.98267751209573 L169.87387036602397 250.3271642218735 L171.64431195399712 248.684609723663 L173.41475354197027 247.9951201068663 L175.18519512994342 247.5047467126024 L176.95563671791658 247.06660414332447 L178.72607830588973 245.9280681802244 L180.49651989386288 245.44459734558365 L182.26696148183603 243.83149459389156 L184.0374030698092 243.35925994445716 L185.80784465778234 241.53631789712574 L187.5782862457555 241.20129350163998 L189.34872783372865 240.55976419752494 L191.1191694217018 239.70517244308937 L192.88961100967495 238.98901083787482 L194.6600525976481 238.08831670476434 L196.43049418562126 237.39218635804872 L198.2009357735944 236.828798597372 L199.97137736156756 235.67394345416028 L201.74181894954071 235.3331048093577 L203.51226053751387 235.01409262418053 L205.282702125487 234.63557569008768 L207.05314371346014 234.1538548178279 L208.8235853014333 233.58290303901774 L210.59402688940645 233.1985674561044 L212.3644684773796 230.76836572972422 L214.13491006535276 230.01680950979943 L215.9053516533259 229.4441725272099 L217.67579324129906 228.47752110037482 L219.4462348292722 228.0481702299304 L221.21667641724537 227.357714122615 L222.98711800521852 227.0291152052526 L224.75755959319167 226.62882539172523 L226.52800118116483 225.9233149823578 L228.29844276913798 223.89034284202546 L230.06888435711113 223.270247970367 L231.83932594508428 222.9349044806704 L233.60976753305744 220.11112515817427 L235.3802091210306 218.83978762278215 L237.15065070900374 218.31883367698765 L238.9210922969769 216.95304203108643 L240.69153388495005 216.57634231784843 L242.4619754729232 215.98784256882826 L244.23241706089635 212.61512793161725 L246.0028586488695 212.0796514116323 L247.77330023684266 211.78037107105644 L249.5437418248158 211.24162627914768 L251.31418341278896 210.53521639150043 L253.08462500076212 210.1826850239384 L254.85506658873527 209.1738643711651 L256.6255081767084 208.63124365802167 L258.3959497646816 207.10764437013188 L260.1663913526547 206.20702970654884 L261.9368329406279 205.80049966263408 L263.70727452860103 205.10450081285057 L265.4777161165742 204.29833489971674 L267.24815770454734 203.8665786128506 L269.0185992925205 203.46149766670084 L270.78904088049364 203.02615496831945 L272.5594824684668 202.5265301860689 L274.32992405643995 202.17415881594644 L276.1003656444131 201.75483380898424 L277.87080723238626 201.39791997152747 L279.6412488203594 200.55779655565894 L281.41169040833256 200.2165028774884 L283.1821319963057 199.85982708100258 L284.95257358427887 199.13471831990284 L286.723015172252 198.46876205345154 L288.4934567602252 198.12147361289493 L290.2638983481983 197.1500453192857 L292.0343399361715 196.52354243493627 L293.80478152414463 196.18588248418197 L295.5752231121178 195.83253411603528 L297.34566470009094 194.89690908405092 L299.1161062880641 194.44013502009886 L300.88654787603724 193.66279414839082 L302.6569894640104 192.87644495699536 L304.42743105198355 192.36097651901193 L306.1978726399567 191.8040341030141 L307.96831422792985 191.2114172196074 L309.738755815903 190.79352708944705 L311.50919740387616 190.407752357271 L313.2796389918493 189.97119801889724 L315.05008057982246 189.15147615839405 L316.8205221677956 187.589614013221 L318.59096375576877 187.23909996426482 L320.3614053437419 186.68440832991058 L322.1318469317151 186.1261290005617 L323.9022885196882 185.5011193890979 L325.6727301076614 185.15884157209334 L327.44317169563453 184.72545523006403 L329.2136132836077 184.37245349115685 L330.98405487158084 183.99530053401125 L332.754496459554 183.60340310472608 L334.52493804752714 183.17611761337838 L336.2953796355003 182.78483345767597 L338.06582122347345 182.36964989661647 L339.8362628114466 181.45327037538036 L341.60670439941975 180.5744354673548 L343.3771459873929 180.25229654601776 L345.14758757536606 179.90088059400244 L346.9180291633392 179.15221771959887 L348.68847075131237 178.56139819129996 L350.4589123392855 178.05335126362496 L352.22935392725867 177.64016949583836 L353.9997955152318 177.2178534669593 L355.770237103205 176.70692838855277 L357.54067869117813 176.31715446012188 L359.3111202791513 175.89794928790175 L361.08156186712444 175.00239075935457 L362.8520034550976 174.70042942526558 L364.62244504307074 174.30664909376904 L366.3928866310439 173.9570980119887 L368.16332821901705 173.08606846016477 L369.9337698069902 171.6780021348175 L371.70421139496335 171.16246775611575 L373.4746529829365 169.80571734343877 L375.2450945709096 169.3751218781301 L377.01553615888275 168.1001405397475 L378.7859777468559 167.63841846558697 L380.55641933482906 167.30668357529208 L382.3268609228022 166.79070353732214 L384.09730251077536 166.18475030735175 L385.8677440987485 165.85575158462174 L387.63818568672167 165.51329465609655 L389.4086272746948 164.55181191431188 L391.179068862668 163.52855660452093 L392.9495104506411 160.84698829280921 L394.7199520386143 157.4799079325817 L396.49039362658743 155.92417294745982 L398.2608352145606 155.04305172081516 L400.03127680253374 154.64416008790266 L401.8017183905069 153.95440194226717 L403.57215997848004 153.62284479509563 L405.3426015664532 152.65089953148637 L407.11304315442635 152.13438918570787 L408.8834847423995 151.45572881976054 L410.65392633037266 150.82369873988358 L412.4243679183458 150.38124498684118 L414.19480950631896 149.52009639840944 L415.9652510942921 148.46645526588648 L417.73569268226527 147.51063814426303 L419.5061342702384 147.1951500978529 L421.2765758582116 146.75094586514345 L423.0470174461847 146.2840502593331 L424.8174590341579 145.1617826979199 L426.58790062213103 144.81626945974693 L428.3583422101042 144.45792720941319 L430.12878379807734 143.98620064957115 L431.8992253860505 143.3669711211062 L433.66966697402364 143.0330454977594 L435.4401085619968 142.68034389436448 L437.21055014996995 142.02027743727078 L438.9809917379431 140.49964034530555 L440.75143332591625 139.72691257474781 L442.5218749138894 138.9926881516714 L444.29231650186256 138.0945156459112 L446.0627580898357 137.7715328528953 L447.83319967780886 134.97794367339003 L449.603641265782 134.51266335615335 L451.37408285375517 133.6982729669102 L453.1445244417283 133.22245966655447 L454.9149660297015 132.25810039500553 L456.6854076176746 131.75784087248857 L458.4558492056478 128.3351029279404 L460.22629079362093 127.94132056385791 L461.9967323815941 127.52210829984497 L463.76717396956724 126.74070590147622 L465.5376155575404 126.27318637098938 L467.30805714551354 125.80349730956192 L469.0784987334867 125.13550146490888 L470.84894032145985 124.40758099520644 L472.619381909433 123.41225826284517 L474.38982349740616 122.30089251288211 L476.1602650853793 120.69701197922427 L477.93070667335246 120.32333666827057 L479.7011482613256 119.7565409055652 L481.47158984929877 117.80994928319177 L483.2420314372719 117.26416034468116 L485.0124730252451 116.09856224700582 L486.7829146132182 114.45047981539196 L488.5533562011914 114.00710467420757 L490.32379778916453 113.65387605433614 L492.0942393771377 113.33965528329469 L493.86468096511084 113.02238405323956 L495.635122553084 112.69730866788657 L497.40556414105714 112.22353724456423 L499.1760057290303 111.72924631465006 L500.94644731700345 111.3019446743561 L502.7168889049766 110.7241351884675 L504.48733049294975 110.11105124562519 L506.2577720809229 109.77092673526616 L508.02821366889606 109.30769884441688 L509.7986552568692 108.79221997978473 L511.56909684484236 108.45839053598988 L513.3395384328155 108.05310514185962 L515.1099800207887 107.62463461205996 L516.8804216087618 107.20412765182911 L518.650863196735 106.89039011494609 L520.4213047847081 102.84854712323622 L522.1917463726813 102.5165151961892 L523.9621879606544 102.02442454753213 L525.7326295486276 100.19048742796627 L527.5030711366007 99.5821227261101 L529.273512724574 99.26359142600083 L531.043954312547 98.83956906220175 L532.8143959005203 98.49710889732683 L534.5848374884933 98.16318758521123 L536.3552790764666 97.53970106729113 L538.1257206644397 96.50048444362605 L539.8961622524129 96.1133260592795 L541.666603840386 95.69827483796684 L543.4370454283592 95.37110516042958 L545.2074870163323 94.78741973343452 L546.9779286043055 94.43961639225921 L548.7483701922786 94.10151231048005 L550.5188117802517 93.78616271133023 L552.2892533682249 93.04719700004694 L554.059694956198 92.71612938490642 L555.8301365441712 92.11274157429855 L557.6005781321443 90.0198048709693 L559.3710197201175 89.71967706287819 L561.1414613080906 89.27723802967094 L562.9119028960638 88.73045533862481 L564.6823444840369 88.01794249111353 L566.4527860720101 86.38243333334682 L568.2232276599832 85.9291486982367 L569.9936692479564 85.52088450003302 L571.7641108359295 85.17011012051472 L573.5345524239027 83.87993720529414 L575.3049940118758 83.11253845583579 L577.075435599849 82.76902146562321 L578.8458771878221 80.55777468362052 L580.6163187757953 80.13138187884638 L582.3867603637684 79.66119570299395 L584.1572019517416 78.35858386336861 L585.9276435397147 77.40567573207258 L587.6980851276879 76.89742545768542 L589.468526715661 76.51592429016196 L591.2389683036342 75.93457946429643 L593.0094098916073 74.76095271953204 L594.7798514795805 74.31853094511081 L596.5502930675536 73.98246642289374 L598.3207346555268 73.53649861143197 L600.0911762435 73.08013483203518 L601.8616178314732 71.07761810868035 L603.6320594194463 70.61898124544811 L605.4025010074195 70.07317394805708 L607.1729425953926 69.63152910842209 L608.9433841833658 69.07795556217206 L610.7138257713389 68.60735279775753 L612.4842673593121 67.86243244018448 L614.2547089472852 67.46570052334431 L616.0251505352584 66.99415271712616 L617.7955921232315 66.09529277706628 L619.5660337112047 65.58081926914986 L621.3364752991778 62.891109982741455 L623.106916887151 62.21236670920757 L624.8773584751241 61.67214400845421 L626.6478000630973 60.80510262978373 L628.4182416510704 60.286352381766164 L630.1886832390436 59.813447719317196 L631.9591248270167 59.49978123578728 L633.7295664149899 58.75853994114459 L635.500008002963 58.375459367658436 L637.2704495909362 57.7886463907559 L639.0408911789093 57.307965648956326 L640.8113327668825 56.642633396113354 L642.5817743548556 56.303810139480106 L644.3522159428288 55.941650127627156 L646.1226575308019 53.441833860074155 L647.8930991187751 52.99501372076094 L649.6635407067482 52.31366568339445 L651.4339822947214 51.99149621779105 L653.2044238826945 51.31725664759841 L654.9748654706677 50.98822881298673 L656.7453070586408 49.42897175896826 L658.515748646614 46.86796733753016 L660.2861902345871 46.35676301018157 L662.0566318225603 45.87866313101489 L663.8270734105334 45.52539681622801 L665.5975149985067 45.1393478921712 L667.3679565864797 44.68772849930804 L669.138398174453 43.86127138904237 L670.908839762426 43.411779265803546 L672.6792813503993 42.87622092995707 L674.4497229383724 42.39384163610873 L676.2201645263456 42.03154487504571 L677.9906061143187 41.20080898692271 L679.7610477022919 40.67820433239007 L681.531489290265 40.20084792741841 L683.3019308782382 39.393491602902486 L685.0723724662113 39.04705299255721 L686.8428140541845 38.364914403450086 L688.6132556421576 37.966144747178646 L690.3836972301308 37.48226530673327 L692.1541388181039 36.81723405625894 L693.9245804060771 36.45025606708231 L695.6950219940502 33.83527671807843 L697.4654635820234 33.30791349482553 L699.2359051699965 32.951002853735304 L701.0063467579697 32.56092382656203 L702.7767883459428 31.942603490653084 L704.547229933916 31.13973919212441 L706.3176715218891 30.5306277408435 L708.0881131098623 29.488372729909884 L709.8585546978354 29.178876455896102 L711.6289962858086 26.52392984860677 L713.3994378737817 26.02116613506331 L715.1698794617548 25.6549529548152 L716.940321049728 24.889850819308947 L718.7107626377011 23.675110966519867 L720.4812042256743 23.251728561153527 L722.2516458136474 22.686353133935597 L724.0220874016206 22.295811068160845 L725.7925289895937 21.563879179445394 L727.562970577567 21.240986708646687 L729.33341216554 20.88650989035773 L731.1038537535132 19.90586302196766 L732.8742953414863 19.576116456851878 L734.6447369294596 18.41098147217599 L736.4151785174327 17.62040527743079 L738.1856201054059 16.770360449293605 L739.956061693379 16.086591639333676 L741.7265032813522 15.5 " fill="none" stroke-width="1.6500000000000001" stroke="rgb(77,175,74)" stroke-opacity="1.0">
                </path>
              </g>
              <g>
                <path d="M35.32030968006439 324.83631755268993 L35.32030968006439 324.83631755268993 L37.09075126803754 323.875469039855 L38.861192856010696 323.59971264163414 L40.63163444398385 323.103909724569 L42.402076031957 322.52296480150216 L44.172517619930154 322.17878689540373 L45.9429592079033 321.93801790076213 L47.71340079587645 321.8046510204803 L49.483842383849606 321.29948067235154 L51.25428397182276 321.11204822799255 L53.02472555979591 320.860874168327 L54.795167147769064 320.68369674498166 L56.56560873574222 320.1396043138864 L58.33605032371537 319.6874789783497 L60.10649191168852 319.49636049905297 L61.876933499661675 319.09153466413034 L63.64737508763483 318.7261199899576 L65.41781667560798 318.56040310650127 L67.18825826358113 318.2927132783607 L68.95869985155429 318.1027893374936 L70.72914143952744 317.87877086739053 L72.49958302750059 317.4695735815437 L74.27002461547374 317.25769021830706 L76.0404662034469 317.04030204342894 L77.81090779142005 316.7773273648164 L79.5813493793932 316.67184332789355 L81.35179096736636 316.50891390473913 L83.12223255533951 315.44611766269867 L84.89267414331266 315.24371959482784 L86.66311573128581 314.9898299549226 L88.43355731925897 314.83969805104977 L90.20399890723212 314.4115517325063 L91.97444049520527 314.19067350979077 L93.74488208317842 313.98158105236837 L95.51532367115158 313.7492209723559 L97.28576525912473 313.63865027850125 L99.05620684709788 312.94367577258413 L100.82664843507104 312.75348507016514 L102.59709002304419 312.52530272983824 L104.36753161101734 312.3433326077405 L106.1379731989905 311.6394737584328 L107.90841478696365 311.41021294941396 L109.6788563749368 311.23852861076045 L111.44929796290995 310.79707496859106 L113.2197395508831 310.5315846294449 L114.99018113885626 310.2053005589158 L116.76062272682941 309.8858529647129 L118.53106431480256 309.73998756806697 L120.30150590277569 309.4509471310289 L122.07194749074884 309.0687602902182 L123.842389078722 308.18441062782074 L125.61283066669515 307.33854237117566 L127.3832722546683 306.47445761962126 L129.15371384264145 306.37296438821926 L130.9241554306146 306.23958470605425 L132.69459701858776 306.03591990630775 L134.4650386065609 305.8967694614797 L136.23548019453406 305.6205021364716 L138.00592178250722 305.4700482470869 L139.77636337048037 305.15867187941274 L141.54680495845352 304.90635926193085 L143.31724654642667 304.4922709636853 L145.08768813439983 304.0337970393421 L146.85812972237298 303.81546370424263 L148.62857131034613 303.59366501750543 L150.39901289831928 303.21769607053847 L152.16945448629244 302.96123151067576 L153.9398960742656 302.9014969410514 L155.71033766223874 302.7809669381441 L157.4807792502119 302.65708780319073 L159.25122083818505 302.27064840353455 L161.0216624261582 302.0561766566367 L162.79210401413135 301.53866584641986 L164.5625456021045 301.1054057396994 L166.33298719007766 300.85736074825564 L168.1034287780508 300.73037705993886 L169.87387036602397 300.4206800303976 L171.64431195399712 299.95445366572187 L173.41475354197027 299.772403899227 L175.18519512994342 299.5502077130155 L176.95563671791658 299.2913414266098 L178.72607830588973 298.9673285416361 L180.49651989386288 298.7959946409375 L182.26696148183603 298.47868455289637 L184.0374030698092 298.304804822293 L185.80784465778234 297.55216663532843 L187.5782862457555 297.4392964991865 L189.34872783372865 297.20599571890966 L191.1191694217018 296.80530352698474 L192.88961100967495 296.0701012036569 L194.6600525976481 295.79421160141055 L196.43049418562126 295.6333329223517 L198.2009357735944 295.3583564464309 L199.97137736156756 295.164422203763 L201.74181894954071 295.0090297461407 L203.51226053751387 294.9278503354271 L205.282702125487 294.33708895152745 L207.05314371346014 294.04073389978174 L208.8235853014333 293.61388259191574 L210.59402688940645 292.8065267787834 L212.3644684773796 292.4668377176848 L214.13491006535276 292.13669359162867 L215.9053516533259 291.93357355169115 L217.67579324129906 291.67521662170867 L219.4462348292722 290.9247925275735 L221.21667641724537 290.7514340473092 L222.98711800521852 290.612977941743 L224.75755959319167 290.35021732021585 L226.52800118116483 289.56089680149285 L228.29844276913798 288.9890846028992 L230.06888435711113 288.7765403075057 L231.83932594508428 288.31745376747733 L233.60976753305744 287.70187748765005 L235.3802091210306 287.0116748184964 L237.15065070900374 286.7319165924717 L238.9210922969769 286.2726635672358 L240.69153388495005 286.16445825672196 L242.4619754729232 285.4898480471941 L244.23241706089635 284.5974139565144 L246.0028586488695 283.5418136978194 L247.77330023684266 283.385589339741 L249.5437418248158 283.21547968371294 L251.31418341278896 282.6585344686181 L253.08462500076212 282.4646759108108 L254.85506658873527 282.1421067997429 L256.6255081767084 281.97623312227677 L258.3959497646816 281.50320865420696 L260.1663913526547 280.8378193706019 L261.9368329406279 279.249327613644 L263.70727452860103 278.68167527845617 L265.4777161165742 278.43310598359363 L267.24815770454734 278.24981479228654 L269.0185992925205 277.7333867690712 L270.78904088049364 277.25277431828886 L272.5594824684668 276.3098342874842 L274.32992405643995 276.1845774400293 L276.1003656444131 274.7710483550421 L277.87080723238626 274.62999820658047 L279.6412488203594 274.34491653627657 L281.41169040833256 274.20677783824345 L283.1821319963057 274.0432675805544 L284.95257358427887 273.75766585439004 L286.723015172252 273.4823471128594 L288.4934567602252 272.90972692868996 L290.2638983481983 272.69630590919235 L292.0343399361715 272.49318943812256 L293.80478152414463 272.35816825936814 L295.5752231121178 269.8409780560909 L297.34566470009094 269.6336706100493 L299.1161062880641 269.4045228840101 L300.88654787603724 269.13537842758944 L302.6569894640104 268.78827058655475 L304.42743105198355 268.2800099138918 L306.1978726399567 268.0557337931408 L307.96831422792985 267.84416658186865 L309.738755815903 267.60937500898325 L311.50919740387616 267.52325792789253 L313.2796389918493 267.315937457125 L315.05008057982246 266.89391933699915 L316.8205221677956 266.59484847782613 L318.59096375576877 266.3871987757701 L320.3614053437419 266.1974645470945 L322.1318469317151 265.42803704970913 L323.9022885196882 265.24296885759634 L325.6727301076614 265.0807950865207 L327.44317169563453 264.6107347429787 L329.2136132836077 264.4076375232666 L330.98405487158084 263.9072806570324 L332.754496459554 263.79409008492365 L334.52493804752714 263.61872006434186 L336.2953796355003 263.5116374828384 L338.06582122347345 263.423258875367 L339.8362628114466 262.51174006377255 L341.60670439941975 262.16623611699913 L343.3771459873929 262.0067898706535 L345.14758757536606 261.70126844005244 L346.9180291633392 261.43589716983325 L348.68847075131237 260.88823597078795 L350.4589123392855 260.72174384761473 L352.22935392725867 260.4823626805647 L353.9997955152318 260.2391245496792 L355.770237103205 259.9578098512109 L357.54067869117813 259.7653719882708 L359.3111202791513 259.5577280093089 L361.08156186712444 259.36040190053984 L362.8520034550976 259.2501798607198 L364.62244504307074 258.66801068502514 L366.3928866310439 258.10022440410887 L368.16332821901705 257.78196048786646 L369.9337698069902 257.2670308846149 L371.70421139496335 256.97616930312444 L373.4746529829365 256.71900038282064 L375.2450945709096 256.5548008367299 L377.01553615888275 256.23531499009687 L378.7859777468559 256.01031771701054 L380.55641933482906 255.4715410440186 L382.3268609228022 255.30523984312794 L384.09730251077536 254.99854440931762 L385.8677440987485 254.75862376534957 L387.63818568672167 254.53651275590767 L389.4086272746948 254.24611465693272 L391.179068862668 253.54520557640694 L392.9495104506411 252.19496039154714 L394.7199520386143 251.82691298532234 L396.49039362658743 251.5339058628702 L398.2608352145606 251.26665613248193 L400.03127680253374 251.13309259787212 L401.8017183905069 250.86480369506063 L403.57215997848004 250.75115650851228 L405.3426015664532 250.55621979221883 L407.11304315442635 250.2977972930926 L408.8834847423995 250.12584232993404 L410.65392633037266 249.89894992767336 L412.4243679183458 249.73452823698088 L414.19480950631896 248.98496187753113 L415.9652510942921 248.66891302708206 L417.73569268226527 248.37856427046623 L419.5061342702384 248.24614006721026 L421.2765758582116 248.11344564080323 L423.0470174461847 248.00828238869218 L424.8174590341579 247.66522966158806 L426.58790062213103 247.53643273007026 L428.3583422101042 247.09316686262252 L430.12878379807734 246.85630567574682 L431.8992253860505 246.09972744847482 L433.66966697402364 245.9530048707514 L435.4401085619968 245.5323795958218 L437.21055014996995 245.26852321436766 L438.9809917379431 244.3667290945071 L440.75143332591625 244.04023212345692 L442.5218749138894 242.42887271717262 L444.29231650186256 242.18393302608098 L446.0627580898357 242.03976456479074 L447.83319967780886 241.60533168338353 L449.603641265782 241.0197272295598 L451.37408285375517 240.67084876356537 L453.1445244417283 240.41579932426214 L454.9149660297015 239.74625412452684 L456.6854076176746 238.6994008372994 L458.4558492056478 238.24395817247168 L460.22629079362093 237.67736748456366 L461.9967323815941 237.4483077256602 L463.76717396956724 237.2697467790814 L465.5376155575404 237.00759285047747 L467.30805714551354 236.89336307759362 L469.0784987334867 236.6890691579593 L470.84894032145985 236.05190933315623 L472.619381909433 235.70931319273103 L474.38982349740616 235.52677199069052 L476.1602650853793 235.11610011624919 L477.93070667335246 234.94881868959664 L479.7011482613256 234.62694546627796 L481.47158984929877 233.68181052921022 L483.2420314372719 233.48982404760318 L485.0124730252451 233.08202033422612 L486.7829146132182 232.56935062956356 L488.5533562011914 232.33828329510698 L490.32379778916453 232.15384365074584 L492.0942393771377 231.17033416906463 L493.86468096511084 230.92525770631391 L495.635122553084 230.76392395473002 L497.40556414105714 230.5576369180806 L499.1760057290303 230.3334859688343 L500.94644731700345 229.6172708760088 L502.7168889049766 229.39253916065027 L504.48733049294975 229.15822394425763 L506.2577720809229 228.61382379399873 L508.02821366889606 228.37988574068186 L509.7986552568692 228.12376292896045 L511.56909684484236 227.4300940890782 L513.3395384328155 226.8503511659271 L515.1099800207887 226.56876965186552 L516.8804216087618 226.41195023594815 L518.650863196735 226.28432567681375 L520.4213047847081 225.87170786952328 L522.1917463726813 225.78460446744148 L523.9621879606544 225.58698683785988 L525.7326295486276 225.14349592122727 L527.5030711366007 224.70153619412827 L529.273512724574 224.51282689892818 L531.043954312547 224.1597062253545 L532.8143959005203 224.00776170487006 L534.5848374884933 223.26654051549895 L536.3552790764666 223.06258572403317 L538.1257206644397 222.66103877495328 L539.8961622524129 222.51307041446128 L541.666603840386 222.32685446620576 L543.4370454283592 221.62228100248134 L545.2074870163323 221.4259607903557 L546.9779286043055 221.32673293178738 L548.7483701922786 221.1561089142989 L550.5188117802517 221.03336578541018 L552.2892533682249 220.39987907287247 L554.059694956198 220.2331989118146 L555.8301365441712 219.82863636579492 L557.6005781321443 219.17959769228779 L559.3710197201175 218.34628586172397 L561.1414613080906 218.20013262866735 L562.9119028960638 218.03350905487764 L564.6823444840369 217.8206505555034 L566.4527860720101 217.48012069084103 L568.2232276599832 217.1629572658531 L569.9936692479564 217.0082814642217 L571.7641108359295 216.02855262234786 L573.5345524239027 215.7091100603002 L575.3049940118758 215.4184144172567 L577.075435599849 215.24399914191264 L578.8458771878221 214.7988460305916 L580.6163187757953 214.70630101998324 L582.3867603637684 214.01823210145932 L584.1572019517416 213.77616497346725 L585.9276435397147 213.52770304736964 L587.6980851276879 212.88393729393653 L589.468526715661 212.7006647715637 L591.2389683036342 212.22360471280348 L593.0094098916073 211.7233181120626 L594.7798514795805 211.55150731829184 L596.5502930675536 211.376685916425 L598.3207346555268 210.88112350399717 L600.0911762435 210.3795196057033 L601.8616178314732 209.97300660311404 L603.6320594194463 209.78601370991697 L605.4025010074195 209.61397786802544 L607.1729425953926 209.37490289860474 L608.9433841833658 209.0928940819784 L610.7138257713389 208.8870521488766 L612.4842673593121 208.17844576692676 L614.2547089472852 207.99312582479115 L616.0251505352584 207.64035821236106 L617.7955921232315 207.42444105892517 L619.5660337112047 207.1807128608592 L621.3364752991778 206.58003607169456 L623.106916887151 206.0244454258303 L624.8773584751241 205.6880239548043 L626.6478000630973 205.03715626010546 L628.4182416510704 204.79484963736235 L630.1886832390436 204.59393854897402 L631.9591248270167 204.4115469319225 L633.7295664149899 204.04508337402206 L635.500008002963 203.93269642050888 L637.2704495909362 203.63207067721387 L639.0408911789093 203.38272340333737 L640.8113327668825 203.23405584599544 L642.5817743548556 203.08809886243174 L644.3522159428288 202.9082248508616 L646.1226575308019 202.47902633978862 L647.8930991187751 201.53741599247144 L649.6635407067482 201.3514315561891 L651.4339822947214 201.18237220628896 L653.2044238826945 201.00555517534266 L654.9748654706677 200.87125477717564 L656.7453070586408 200.5651502257028 L658.515748646614 200.0550743578102 L660.2861902345871 199.76337966951115 L662.0566318225603 199.57190173705465 L663.8270734105334 199.3861398880001 L665.5975149985067 199.27607268630948 L667.3679565864797 199.12157331178082 L669.138398174453 198.75658493952432 L670.908839762426 198.52324950476495 L672.6792813503993 197.8044018130142 L674.4497229383724 197.5075756265164 L676.2201645263456 197.26417463407807 L677.9906061143187 196.98602446820635 L679.7610477022919 196.7889446360994 L681.531489290265 196.0746668128105 L683.3019308782382 195.83184450078363 L685.0723724662113 195.6142471965921 L686.8428140541845 194.76030331383592 L688.6132556421576 194.58160538052297 L690.3836972301308 193.6855457628763 L692.1541388181039 193.35605892001232 L693.9245804060771 192.6706692071635 L695.6950219940502 191.99262072056686 L697.4654635820234 191.83280678528058 L699.2359051699965 191.63665513023972 L701.0063467579697 191.50909858721255 L702.7767883459428 190.37231784506176 L704.547229933916 190.13486736775883 L706.3176715218891 189.32298470954714 L708.0881131098623 188.94791334585003 L709.8585546978354 188.77238584589466 L711.6289962858086 188.22443190809156 L713.3994378737817 187.66956871946158 L715.1698794617548 186.0577148504858 L716.940321049728 185.71703267276015 L718.7107626377011 184.8893221605062 L720.4812042256743 184.73006420577957 L722.2516458136474 184.52650097104492 L724.0220874016206 184.23706186405164 L725.7925289895937 183.4155814974218 L727.562970577567 182.61611213677367 L729.33341216554 181.68744089831918 L731.1038537535132 181.3480792065959 L732.8742953414863 180.68529975421168 L734.6447369294596 180.32681790575538 L736.4151785174327 180.1323347276519 L738.1856201054059 179.83502373275482 L739.956061693379 179.5662901351767 L741.7265032813522 179.20076318011274 " fill="none" stroke-width="1.6500000000000001" stroke="rgb(152,78,163)" stroke-opacity="1.0">
                </path>
              </g>
            </g>
          </g>
        </g>
        <defs>
          <clipPath id="csHItDu">
            <rect x="58.95712304215423" y="0.0" width="777.0468129614165" height="341.0">
            </rect>
          </clipPath>
        </defs>
      </g>
      <g>
        <g transform="translate(58.95712304215423 341.0 ) ">
          <g transform="translate(35.32030968006439 0.0 ) ">
            <line stroke-width="1.0" stroke="rgb(71,71,71)" stroke-opacity="1.0" x2="0.0" y2="4.0">
            </line>
            <g transform="translate(0.0 7.0 ) ">
              <text class="axis-text-x" text-anchor="middle" dy="0.7em" y="0.0">
                <tspan>0</tspan>
              </text>
            </g>
          </g>
          <g transform="translate(123.842389078722 0.0 ) ">
            <line stroke-width="1.0" stroke="rgb(71,71,71)" stroke-opacity="1.0" x2="0.0" y2="4.0">
            </line>
            <g transform="translate(0.0 7.0 ) ">
              <text class="axis-text-x" text-anchor="middle" dy="0.7em" y="0.0">
                <tspan>50</tspan>
              </text>
            </g>
          </g>
          <g transform="translate(212.3644684773796 0.0 ) ">
            <line stroke-width="1.0" stroke="rgb(71,71,71)" stroke-opacity="1.0" x2="0.0" y2="4.0">
            </line>
            <g transform="translate(0.0 7.0 ) ">
              <text class="axis-text-x" text-anchor="middle" dy="0.7em" y="0.0">
                <tspan>100</tspan>
              </text>
            </g>
          </g>
          <g transform="translate(300.88654787603724 0.0 ) ">
            <line stroke-width="1.0" stroke="rgb(71,71,71)" stroke-opacity="1.0" x2="0.0" y2="4.0">
            </line>
            <g transform="translate(0.0 7.0 ) ">
              <text class="axis-text-x" text-anchor="middle" dy="0.7em" y="0.0">
                <tspan>150</tspan>
              </text>
            </g>
          </g>
          <g transform="translate(389.4086272746948 0.0 ) ">
            <line stroke-width="1.0" stroke="rgb(71,71,71)" stroke-opacity="1.0" x2="0.0" y2="4.0">
            </line>
            <g transform="translate(0.0 7.0 ) ">
              <text class="axis-text-x" text-anchor="middle" dy="0.7em" y="0.0">
                <tspan>200</tspan>
              </text>
            </g>
          </g>
          <g transform="translate(477.93070667335246 0.0 ) ">
            <line stroke-width="1.0" stroke="rgb(71,71,71)" stroke-opacity="1.0" x2="0.0" y2="4.0">
            </line>
            <g transform="translate(0.0 7.0 ) ">
              <text class="axis-text-x" text-anchor="middle" dy="0.7em" y="0.0">
                <tspan>250</tspan>
              </text>
            </g>
          </g>
          <g transform="translate(566.4527860720101 0.0 ) ">
            <line stroke-width="1.0" stroke="rgb(71,71,71)" stroke-opacity="1.0" x2="0.0" y2="4.0">
            </line>
            <g transform="translate(0.0 7.0 ) ">
              <text class="axis-text-x" text-anchor="middle" dy="0.7em" y="0.0">
                <tspan>300</tspan>
              </text>
            </g>
          </g>
          <g transform="translate(654.9748654706677 0.0 ) ">
            <line stroke-width="1.0" stroke="rgb(71,71,71)" stroke-opacity="1.0" x2="0.0" y2="4.0">
            </line>
            <g transform="translate(0.0 7.0 ) ">
              <text class="axis-text-x" text-anchor="middle" dy="0.7em" y="0.0">
                <tspan>350</tspan>
              </text>
            </g>
          </g>
          <g transform="translate(743.4969448693253 0.0 ) ">
            <line stroke-width="1.0" stroke="rgb(71,71,71)" stroke-opacity="1.0" x2="0.0" y2="4.0">
            </line>
            <g transform="translate(0.0 7.0 ) ">
              <text class="axis-text-x" text-anchor="middle" dy="0.7em" y="0.0">
                <tspan>400</tspan>
              </text>
            </g>
          </g>
          <line x1="0.0" y1="0.0" x2="777.0468129614165" y2="0.0" stroke-width="1.0" stroke="rgb(71,71,71)" stroke-opacity="1.0">
          </line>
        </g>
        <g transform="translate(58.95712304215423 0.0 ) ">
          <g transform="translate(0.0 325.5 ) ">
            <g transform="translate(-3.0 0.0 ) ">
              <text class="axis-text-y" text-anchor="end" dy="0.35em" y="0.0">
                <tspan>0</tspan>
              </text>
            </g>
          </g>
          <g transform="translate(0.0 249.62906322374053 ) ">
            <g transform="translate(-3.0 0.0 ) ">
              <text class="axis-text-y" text-anchor="end" dy="0.35em" y="0.0">
                <tspan>50,000</tspan>
              </text>
            </g>
          </g>
          <g transform="translate(0.0 173.75812644748106 ) ">
            <g transform="translate(-3.0 0.0 ) ">
              <text class="axis-text-y" text-anchor="end" dy="0.35em" y="0.0">
                <tspan>100,000</tspan>
              </text>
            </g>
          </g>
          <g transform="translate(0.0 97.88718967122159 ) ">
            <g transform="translate(-3.0 0.0 ) ">
              <text class="axis-text-y" text-anchor="end" dy="0.35em" y="0.0">
                <tspan>150,000</tspan>
              </text>
            </g>
          </g>
          <g transform="translate(0.0 22.016252894962122 ) ">
            <g transform="translate(-3.0 0.0 ) ">
              <text class="axis-text-y" text-anchor="end" dy="0.35em" y="0.0">
                <tspan>200,000</tspan>
              </text>
            </g>
          </g>
        </g>
      </g>
    </g>
    <g transform="translate(16.0 177.0 ) rotate(-90.0 ) ">
      <text class="axis-title-y" y="0.0" text-anchor="middle">
        <tspan>Meta Regret</tspan>
      </text>
    </g>
    <g transform="translate(476.9805295228625 393.0 ) ">
      <text class="axis-title-x" y="0.0" text-anchor="middle">
        <tspan>N</tspan>
      </text>
    </g>
    <g transform="translate(877.0039360035707 114.75 ) ">
      <rect x="0.0" y="0.0" height="124.5" width="122.99606399642931" stroke="rgb(71,71,71)" stroke-opacity="1.0" stroke-width="0.0" fill="rgb(255,255,255)" fill-opacity="1.0">
      </rect>
      <g transform="translate(5.0 5.0 ) ">
        <g transform="translate(0.0 12.0 ) ">
          <text class="legend-title" y="0.0">
            <tspan>agent</tspan>
          </text>
        </g>
        <g transform="translate(0.0 22.5 ) ">
          <g transform="">
            <g>
              <g transform="translate(1.0 1.0 ) ">
                <g>
                  <line x1="0.0" y1="10.5" x2="21.0" y2="10.5" stroke="rgb(228,26,28)" stroke-opacity="1.0" fill="rgb(255,255,255)" fill-opacity="1.0" stroke-width="1.6500000000000001">
                  </line>
                </g>
              </g>
            </g>
            <g transform="translate(26.9903027277341 16.05 ) ">
              <text class="legend-item" y="0.0">
                <tspan>Clairvoyant</tspan>
              </text>
            </g>
          </g>
          <g transform="translate(0.0 23.0 ) ">
            <g>
              <g transform="translate(1.0 1.0 ) ">
                <g>
                  <line x1="0.0" y1="10.5" x2="21.0" y2="10.5" stroke="rgb(55,126,184)" stroke-opacity="1.0" fill="rgb(255,255,255)" fill-opacity="1.0" stroke-width="1.6500000000000001">
                  </line>
                </g>
              </g>
            </g>
            <g transform="translate(26.9903027277341 16.05 ) ">
              <text class="legend-item" y="0.0">
                <tspan>Greedy</tspan>
              </text>
            </g>
          </g>
          <g transform="translate(0.0 46.0 ) ">
            <g>
              <g transform="translate(1.0 1.0 ) ">
                <g>
                  <line x1="0.0" y1="10.5" x2="21.0" y2="10.5" stroke="rgb(77,175,74)" stroke-opacity="1.0" fill="rgb(255,255,255)" fill-opacity="1.0" stroke-width="1.6500000000000001">
                  </line>
                </g>
              </g>
            </g>
            <g transform="translate(26.9903027277341 16.05 ) ">
              <text class="legend-item" y="0.0">
                <tspan>MTS</tspan>
              </text>
            </g>
          </g>
          <g transform="translate(0.0 69.0 ) ">
            <g>
              <g transform="translate(1.0 1.0 ) ">
                <g>
                  <line x1="0.0" y1="10.5" x2="21.0" y2="10.5" stroke="rgb(152,78,163)" stroke-opacity="1.0" fill="rgb(255,255,255)" fill-opacity="1.0" stroke-width="1.6500000000000001">
                  </line>
                </g>
              </g>
            </g>
            <g transform="translate(26.9903027277341 16.05 ) ">
              <text class="legend-item" y="0.0">
                <tspan>TS</tspan>
              </text>
            </g>
          </g>
        </g>
      </g>
    </g>
    <path fill="rgb(0,0,0)" fill-opacity="0.0" stroke="rgb(71,71,71)" stroke-opacity="1.0" stroke-width="0.0" d="M0.0 0.0 L0.0 400.0 L1000.0 400.0 L1000.0 0.0 Z" pointer-events="none">
    </path>
  </g>
  <g id="dq3H5L3">
  </g>
</svg>