<svg xmlns="http://www.w3.org/2000/svg" xmlns:xlink="http://www.w3.org/1999/xlink" display="block" class="plt-container" width="1000.0" height="600.0">
  <style type="text/css">
  .plt-container {
   font-family: Lucida Grande, sans-serif;
   user-select: none;
   -webkit-user-select: none;
   -moz-user-select: none;
   -ms-user-select: none;
}
text {
   text-rendering: optimizeLegibility;
}
#pcebyUY .plot-title {
fill: #474747;
font-weight: normal;
   font-style: normal;font-family: Lucida Grande, sans-serif;
font-size: 16.0px;

}
#pcebyUY .plot-subtitle {
fill: #474747;
font-weight: normal;
   font-style: normal;font-family: Lucida Grande, sans-serif;
font-size: 15.0px;

}
#pcebyUY .plot-caption {
fill: #474747;
font-weight: normal;
   font-style: normal;font-family: Lucida Grande, sans-serif;
font-size: 13.0px;

}
#pcebyUY .hyperlink-element {
fill: #118ed8;
font-weight: normal;
   font-style: normal;
}
#pcebyUY .legend-title {
fill: #474747;
font-weight: normal;
   font-style: normal;font-family: Lucida Grande, sans-serif;
font-size: 15.0px;

}
#pcebyUY .legend-item {
fill: #474747;
font-weight: normal;
   font-style: normal;font-family: Lucida Grande, sans-serif;
font-size: 13.0px;

}
#pcebyUY .axis-title-x {
fill: #474747;
font-weight: normal;
   font-style: normal;font-family: Lucida Grande, sans-serif;
font-size: 15.0px;

}
#pcebyUY .axis-text-x {
fill: #474747;
font-weight: normal;
   font-style: normal;font-family: Lucida Grande, sans-serif;
font-size: 13.0px;

}
#dgIHD5X .axis-tooltip-text-x {
fill: #ffffff;
font-weight: normal;
   font-style: normal;font-family: Lucida Grande, sans-serif;
font-size: 13.0px;

}
#pcebyUY .axis-title-y {
fill: #474747;
font-weight: normal;
   font-style: normal;font-family: Lucida Grande, sans-serif;
font-size: 15.0px;

}
#pcebyUY .axis-text-y {
fill: #474747;
font-weight: normal;
   font-style: normal;font-family: Lucida Grande, sans-serif;
font-size: 13.0px;

}
#dgIHD5X .axis-tooltip-text-y {
fill: #ffffff;
font-weight: normal;
   font-style: normal;font-family: Lucida Grande, sans-serif;
font-size: 13.0px;

}
#pcebyUY .facet-strip-text-x {
fill: #474747;
font-weight: normal;
   font-style: normal;font-family: Lucida Grande, sans-serif;
font-size: 13.0px;

}
#pcebyUY .facet-strip-text-y {
fill: #474747;
font-weight: normal;
   font-style: normal;font-family: Lucida Grande, sans-serif;
font-size: 13.0px;

}
#dgIHD5X .tooltip-text {
fill: #474747;
font-weight: normal;
   font-style: normal;font-family: Lucida Grande, sans-serif;
font-size: 13.0px;

}
#dgIHD5X .tooltip-title {
fill: #474747;
font-weight: bold;
   font-style: normal;font-family: Lucida Grande, sans-serif;
font-size: 13.0px;

}
#dgIHD5X .tooltip-label {
fill: #474747;
font-weight: bold;
   font-style: normal;font-family: Lucida Grande, sans-serif;
font-size: 13.0px;

}

  </style>
  <g id="pcebyUY">
    <path fill-rule="evenodd" fill="rgb(255,255,255)" fill-opacity="1.0" d="M0.0 0.0 L0.0 600.0 L1000.0 600.0 L1000.0 0.0 Z">
    </path>
    <g transform="translate(29.5 26.5 ) ">
      <g>
        <g transform="translate(50.97651758668602 0.0 ) ">
          <g>
            <line x1="8.848697820734316" y1="0.0" x2="8.848697820734316" y2="525.0" stroke="rgb(233,233,233)" stroke-opacity="1.0" stroke-width="0.5" fill="none">
            </line>
            <line x1="65.68041150560465" y1="0.0" x2="65.68041150560465" y2="525.0" stroke="rgb(233,233,233)" stroke-opacity="1.0" stroke-width="0.5" fill="none">
            </line>
            <line x1="122.51212519047499" y1="0.0" x2="122.51212519047499" y2="525.0" stroke="rgb(233,233,233)" stroke-opacity="1.0" stroke-width="0.5" fill="none">
            </line>
            <line x1="179.34383887534534" y1="0.0" x2="179.34383887534534" y2="525.0" stroke="rgb(233,233,233)" stroke-opacity="1.0" stroke-width="0.5" fill="none">
            </line>
            <line x1="236.1755525602157" y1="0.0" x2="236.1755525602157" y2="525.0" stroke="rgb(233,233,233)" stroke-opacity="1.0" stroke-width="0.5" fill="none">
            </line>
            <line x1="293.007266245086" y1="0.0" x2="293.007266245086" y2="525.0" stroke="rgb(233,233,233)" stroke-opacity="1.0" stroke-width="0.5" fill="none">
            </line>
            <line x1="349.83897992995634" y1="0.0" x2="349.83897992995634" y2="525.0" stroke="rgb(233,233,233)" stroke-opacity="1.0" stroke-width="0.5" fill="none">
            </line>
            <line x1="406.6706936148267" y1="0.0" x2="406.6706936148267" y2="525.0" stroke="rgb(233,233,233)" stroke-opacity="1.0" stroke-width="0.5" fill="none">
            </line>
            <line x1="463.50240729969704" y1="0.0" x2="463.50240729969704" y2="525.0" stroke="rgb(233,233,233)" stroke-opacity="1.0" stroke-width="0.5" fill="none">
            </line>
            <line x1="520.3341209845673" y1="0.0" x2="520.3341209845673" y2="525.0" stroke="rgb(233,233,233)" stroke-opacity="1.0" stroke-width="0.5" fill="none">
            </line>
            <line x1="577.1658346694378" y1="0.0" x2="577.1658346694378" y2="525.0" stroke="rgb(233,233,233)" stroke-opacity="1.0" stroke-width="0.5" fill="none">
            </line>
            <line x1="633.997548354308" y1="0.0" x2="633.997548354308" y2="525.0" stroke="rgb(233,233,233)" stroke-opacity="1.0" stroke-width="0.5" fill="none">
            </line>
            <line x1="690.8292620391784" y1="0.0" x2="690.8292620391784" y2="525.0" stroke="rgb(233,233,233)" stroke-opacity="1.0" stroke-width="0.5" fill="none">
            </line>
            <line x1="747.6609757240487" y1="0.0" x2="747.6609757240487" y2="525.0" stroke="rgb(233,233,233)" stroke-opacity="1.0" stroke-width="0.5" fill="none">
            </line>
            <line x1="804.4926894089191" y1="0.0" x2="804.4926894089191" y2="525.0" stroke="rgb(233,233,233)" stroke-opacity="1.0" stroke-width="0.5" fill="none">
            </line>
            <line x1="37.264554663169484" y1="0.0" x2="37.264554663169484" y2="525.0" stroke="rgb(233,233,233)" stroke-opacity="1.0" stroke-width="1.0" fill="none">
            </line>
            <line x1="94.09626834803981" y1="0.0" x2="94.09626834803981" y2="525.0" stroke="rgb(233,233,233)" stroke-opacity="1.0" stroke-width="1.0" fill="none">
            </line>
            <line x1="150.92798203291017" y1="0.0" x2="150.92798203291017" y2="525.0" stroke="rgb(233,233,233)" stroke-opacity="1.0" stroke-width="1.0" fill="none">
            </line>
            <line x1="207.75969571778052" y1="0.0" x2="207.75969571778052" y2="525.0" stroke="rgb(233,233,233)" stroke-opacity="1.0" stroke-width="1.0" fill="none">
            </line>
            <line x1="264.5914094026508" y1="0.0" x2="264.5914094026508" y2="525.0" stroke="rgb(233,233,233)" stroke-opacity="1.0" stroke-width="1.0" fill="none">
            </line>
            <line x1="321.42312308752116" y1="0.0" x2="321.42312308752116" y2="525.0" stroke="rgb(233,233,233)" stroke-opacity="1.0" stroke-width="1.0" fill="none">
            </line>
            <line x1="378.2548367723915" y1="0.0" x2="378.2548367723915" y2="525.0" stroke="rgb(233,233,233)" stroke-opacity="1.0" stroke-width="1.0" fill="none">
            </line>
            <line x1="435.08655045726186" y1="0.0" x2="435.08655045726186" y2="525.0" stroke="rgb(233,233,233)" stroke-opacity="1.0" stroke-width="1.0" fill="none">
            </line>
            <line x1="491.91826414213216" y1="0.0" x2="491.91826414213216" y2="525.0" stroke="rgb(233,233,233)" stroke-opacity="1.0" stroke-width="1.0" fill="none">
            </line>
            <line x1="548.7499778270026" y1="0.0" x2="548.7499778270026" y2="525.0" stroke="rgb(233,233,233)" stroke-opacity="1.0" stroke-width="1.0" fill="none">
            </line>
            <line x1="605.5816915118729" y1="0.0" x2="605.5816915118729" y2="525.0" stroke="rgb(233,233,233)" stroke-opacity="1.0" stroke-width="1.0" fill="none">
            </line>
            <line x1="662.4134051967433" y1="0.0" x2="662.4134051967433" y2="525.0" stroke="rgb(233,233,233)" stroke-opacity="1.0" stroke-width="1.0" fill="none">
            </line>
            <line x1="719.2451188816136" y1="0.0" x2="719.2451188816136" y2="525.0" stroke="rgb(233,233,233)" stroke-opacity="1.0" stroke-width="1.0" fill="none">
            </line>
            <line x1="776.076832566484" y1="0.0" x2="776.076832566484" y2="525.0" stroke="rgb(233,233,233)" stroke-opacity="1.0" stroke-width="1.0" fill="none">
            </line>
            <line x1="832.9085462513543" y1="0.0" x2="832.9085462513543" y2="525.0" stroke="rgb(233,233,233)" stroke-opacity="1.0" stroke-width="1.0" fill="none">
            </line>
          </g>
        </g>
        <g transform="translate(50.97651758668602 0.0 ) ">
          <g>
            <line x1="0.0" y1="472.8519256936904" x2="849.8273474153402" y2="472.8519256936904" stroke="rgb(233,233,233)" stroke-opacity="1.0" stroke-width="0.5" fill="none">
            </line>
            <line x1="0.0" y1="416.1737132335811" x2="849.8273474153402" y2="416.1737132335811" stroke="rgb(233,233,233)" stroke-opacity="1.0" stroke-width="0.5" fill="none">
            </line>
            <line x1="0.0" y1="359.4955007734718" x2="849.8273474153402" y2="359.4955007734718" stroke="rgb(233,233,233)" stroke-opacity="1.0" stroke-width="0.5" fill="none">
            </line>
            <line x1="0.0" y1="302.81728831336244" x2="849.8273474153402" y2="302.81728831336244" stroke="rgb(233,233,233)" stroke-opacity="1.0" stroke-width="0.5" fill="none">
            </line>
            <line x1="0.0" y1="246.13907585325313" x2="849.8273474153402" y2="246.13907585325313" stroke="rgb(233,233,233)" stroke-opacity="1.0" stroke-width="0.5" fill="none">
            </line>
            <line x1="0.0" y1="189.46086339314382" x2="849.8273474153402" y2="189.46086339314382" stroke="rgb(233,233,233)" stroke-opacity="1.0" stroke-width="0.5" fill="none">
            </line>
            <line x1="0.0" y1="132.78265093303446" x2="849.8273474153402" y2="132.78265093303446" stroke="rgb(233,233,233)" stroke-opacity="1.0" stroke-width="0.5" fill="none">
            </line>
            <line x1="0.0" y1="76.10443847292515" x2="849.8273474153402" y2="76.10443847292515" stroke="rgb(233,233,233)" stroke-opacity="1.0" stroke-width="0.5" fill="none">
            </line>
            <line x1="0.0" y1="19.426226012815846" x2="849.8273474153402" y2="19.426226012815846" stroke="rgb(233,233,233)" stroke-opacity="1.0" stroke-width="0.5" fill="none">
            </line>
            <line x1="0.0" y1="501.1910319237451" x2="849.8273474153402" y2="501.1910319237451" stroke="rgb(233,233,233)" stroke-opacity="1.0" stroke-width="1.0" fill="none">
            </line>
            <line x1="0.0" y1="444.51281946363576" x2="849.8273474153402" y2="444.51281946363576" stroke="rgb(233,233,233)" stroke-opacity="1.0" stroke-width="1.0" fill="none">
            </line>
            <line x1="0.0" y1="387.83460700352646" x2="849.8273474153402" y2="387.83460700352646" stroke="rgb(233,233,233)" stroke-opacity="1.0" stroke-width="1.0" fill="none">
            </line>
            <line x1="0.0" y1="331.15639454341715" x2="849.8273474153402" y2="331.15639454341715" stroke="rgb(233,233,233)" stroke-opacity="1.0" stroke-width="1.0" fill="none">
            </line>
            <line x1="0.0" y1="274.4781820833078" x2="849.8273474153402" y2="274.4781820833078" stroke="rgb(233,233,233)" stroke-opacity="1.0" stroke-width="1.0" fill="none">
            </line>
            <line x1="0.0" y1="217.79996962319848" x2="849.8273474153402" y2="217.79996962319848" stroke="rgb(233,233,233)" stroke-opacity="1.0" stroke-width="1.0" fill="none">
            </line>
            <line x1="0.0" y1="161.12175716308917" x2="849.8273474153402" y2="161.12175716308917" stroke="rgb(233,233,233)" stroke-opacity="1.0" stroke-width="1.0" fill="none">
            </line>
            <line x1="0.0" y1="104.4435447029798" x2="849.8273474153402" y2="104.4435447029798" stroke="rgb(233,233,233)" stroke-opacity="1.0" stroke-width="1.0" fill="none">
            </line>
            <line x1="0.0" y1="47.7653322428705" x2="849.8273474153402" y2="47.7653322428705" stroke="rgb(233,233,233)" stroke-opacity="1.0" stroke-width="1.0" fill="none">
            </line>
          </g>
        </g>
      </g>
      <g clip-path="url(#c7KYaFu)" clip-bounds-jfx="[rect (50.97651758668602, 0.0), (849.8273474153402, 525.0)]">
        <g transform="translate(50.97651758668602 0.0 ) ">
          <g>
            <g>
              <g>
                <path d="M49.540204819101476 498.27873753623464 L49.540204819101476 498.27873753623464 L53.63208820441214 496.3605898359289 L55.223376187588514 495.8515846625912 L82.72992561106577 479.78169058882855 L116.71529039461822 459.3686283380956 L120.35252007044991 457.11818669281035 L130.9232188158358 450.78789259016014 L142.6305518349191 443.1732430114862 L154.22422142663265 436.17741298807925 L176.84324347321103 422.4361279200461 L188.77790334703383 415.566354135275 L200.59889979348685 408.83664257562253 L207.64603229041077 404.6127347110379 L211.6242522483517 402.2161501974846 L229.01475663592203 391.75109580905405 L251.8611055372399 378.2858202469591 L263.00012141947445 371.9483824303426 L269.4789367795497 368.2127422486586 L312.44371232531165 341.97047384238454 L336.42669550032696 327.86649149276366 L342.7918474330324 324.1244482201145 L343.9284817067298 323.30823208055403 L356.99977585425 315.17847135401905 L365.52453290698054 310.1714456397915 L378.7094904818705 302.1369699126945 L396.7819754336592 291.32652433181283 L401.4421759558186 288.40576737776826 L402.23781994740676 288.02297062422156 L404.5110884948016 286.50555536518436 L406.5570301874569 285.2322619996047 L416.2184215138849 279.41937001022006 L443.7249709373621 262.7546088276481 L467.7079541123774 247.7865202316411 L469.18557866818406 246.9124081380989 L471.0041935060999 245.78760356693962 L480.7792482598976 239.78676612185552 L499.0790600664258 228.39407421441297 L513.4006519150132 219.76557595955342 L545.45373843328 200.05387763494997 L551.9325537933553 195.95995437152118 L601.3761446991925 166.00331375831047 L610.5828823161415 160.28711357015504 L621.6082347710063 153.55061054652572 L621.9492250531156 153.31370213154668 L668.4375668473396 123.56321389537669 L685.8280712349099 112.47215083287858 L689.692627765481 109.83298447348204 L689.8062911928507 109.72399680086914 L718.5631383173951 92.0528258084837 L722.6550217027058 89.71002459235581 L727.7698759343441 86.3467753066738 L727.9972027890836 86.18865429211377 L758.3453378968044 66.85292001509521 L775.3948520022655 57.1006102852142 L785.9655507476514 50.70338227931455 L790.7394146971805 48.040490459662465 L794.2629809456424 45.85392791118261 L808.3572459394903 37.354523073464975 L808.6982362215995 37.08562051928368 L811.1988316237338 35.75630398531871 " fill="none" stroke-width="2.64" stroke="rgb(228,26,28)" stroke-opacity="1.0">
                </path>
              </g>
              <g>
                <path d="M77.04675424257871 478.8554388052626 L77.04675424257871 478.8554388052626 L99.21112257967815 465.29216602281815 L116.94261724935771 454.3371829009184 L147.63174263918768 435.5813184994817 L191.05117189442862 409.9095785278905 L223.6725755495442 390.0331002571718 L237.42585026128282 381.47081628952003 L258.3399208973151 368.7153331451196 L266.7510145226759 363.2344209927283 L277.43537669543156 356.2223132597806 L295.62152507459 345.27504670142804 L296.18984221143876 344.93359131831266 L302.4413307167745 341.2791350933321 L328.35659215707534 324.52161327474437 L339.040954329831 317.4811607180942 L351.54393134050247 309.2527347279423 L379.1641441913494 292.24627994880325 L380.98275902926525 291.29147994709626 L391.6671212020209 284.55838756571086 L392.0081114841301 284.3027223355832 L418.03703635180074 268.05574378842743 L419.96931461708635 266.90502092053794 L487.2580636199728 226.00083732745497 L502.6026263148878 216.7780401180582 L518.288179291912 207.04326014833174 L549.5456218185908 187.68607312666052 L565.5721650777242 178.14426980572864 L566.2541456419426 177.74174778509678 L608.1959503413769 151.46850902545913 L622.2902153352248 142.66724079830556 L622.631205617334 142.45189305532216 L623.4268496089222 141.99834508815428 L655.0252824177101 122.41541875937679 L663.5500394704407 117.31815397824465 L688.1013397823046 102.59145308365248 L690.2609449023297 101.24215218781478 L709.8110544099251 89.39376582102926 L710.720361828883 88.90780066219725 L717.312840616328 84.85590931858985 L730.497798191218 76.9816102787293 L736.9766135512931 73.09894732143619 L739.5908723807972 71.64835592590708 L742.8871117745197 69.49457468443063 L777.3271302675511 48.34525774041896 L777.6681205496603 48.1803755737883 L786.0792141750211 42.84757712111076 L809.6075436405574 29.062981833432616 " fill="none" stroke-width="2.64" stroke="rgb(55,126,184)" stroke-opacity="1.0">
                </path>
              </g>
              <g>
                <path d="M41.47010147584989 498.39202197803286 L41.47010147584989 498.39202197803286 L45.10733115168159 496.2125093314217 L68.8629874719574 481.36692787547764 L80.00200335419197 474.3354344351785 L86.4808187142672 470.2168770625557 L94.55092205751879 465.2495854560352 L97.73349802387153 463.46311038282425 L123.08044232732371 447.9399949640709 L130.3549016789871 443.3644661994224 L178.77552173849665 413.78243603935664 L187.75493250070616 408.0131913167014 L197.98464096398283 401.8689227664529 L207.98702257252 395.81010149009296 L217.30742361683872 390.30675946462253 L218.78504817264536 389.3682360171178 L219.35336530949405 389.0432255593666 L245.60961703190415 372.79538713618933 L255.38467178570187 366.67030771255395 L260.72685287207963 362.9467756583796 L273.2298298827511 355.563493822291 L300.05439874200994 338.44850416343695 L307.6698483757825 333.6892485078437 L355.40848787107365 304.05158254198545 L360.523342102712 300.914719563416 L361.4326495216699 300.37259588132315 L389.84850636410505 283.06820007055336 L466.45765641131027 235.46851751132112 L488.39469789367024 222.07757088971135 L509.64975881181175 208.5967957193883 L523.6303603782899 200.14298759044516 L524.7669946519873 199.40347385205348 L533.0644248499783 193.84317121785335 L542.7258161764063 188.05647278654988 L577.9614786610259 166.12378274612456 L595.1246561938568 155.6005552134074 L595.2383196212265 155.53518780941562 L597.5115881686213 154.03175859076595 L648.4328036302652 121.79772949395146 L650.1377550408113 120.84527394312465 L669.9151914031462 108.6986070092683 L677.3033141821793 103.99092304155778 L678.0989581737675 103.52472317320644 L741.6368140734526 63.5451108733605 L756.8677133409977 54.66441084231002 " fill="none" stroke-width="2.64" stroke="rgb(77,175,74)" stroke-opacity="1.0">
                </path>
              </g>
              <g>
                <path d="M60.11090356448736 487.47122078008175 L60.11090356448736 487.47122078008175 L69.65863146354558 481.4809039862311 L75.34180283203261 477.8742382694907 L125.0127205926093 446.8626674477563 L128.53628684107125 444.66105105599775 L145.58580094653234 434.04801362462996 L167.63650585626206 420.1597719894262 L172.63769666053065 417.1099853515381 L178.77552173849665 413.3133773121421 L213.89752079574652 391.5043827181182 L225.71851724219954 383.9782674894898 L242.3133776381817 373.6307204983576 L263.3411117015837 361.40067936257935 L273.2298298827511 355.43626257265066 L284.14151891024625 348.64082781733157 L289.1427097145148 345.7109885838738 L291.75696854401883 344.1062315367987 L300.73637930622834 338.498758107295 L308.23816551263127 333.6348932314901 L315.85361514640385 328.93020014701307 L328.35659215707534 321.3087586103881 L339.1546177572007 314.7244143071623 L343.0191742877719 312.5611045582332 L344.724125698318 311.51093648619906 L368.4797820185938 296.82413508232236 L383.93800814087854 286.90748060415444 L387.68890124408 284.57233427502183 L417.24139236021256 266.17313315078684 L424.8568419939852 261.55141197903635 L479.18796027672124 227.84075592809057 L480.09726769567914 227.26631366963528 L483.0525168072924 225.25838309931544 L493.73687898004806 218.48886278262944 L499.0790600664258 215.18103738883053 L513.9689690518619 205.86312666037298 L522.0390723951135 201.1853199978354 L552.1598806480948 181.7906302492819 L563.1852331029596 175.37836386737217 L575.1198929767825 168.2287208574861 L575.9155369683706 167.7536218312673 L621.0399176341576 138.99849952287707 L644.3409202449545 124.70681850605894 L646.6141887923493 123.25163836137858 L686.5100517991283 98.04256706084999 L692.0795597402456 94.43695068295978 L696.6260968350352 91.82622802489738 L698.6720385276906 90.53046720986549 L711.5160058204713 82.67468252719681 L736.7492866965537 66.96577838076195 L756.299396204149 54.993381574380464 L767.2110852316441 48.39009177558091 L775.0538617201563 43.29468474725894 " fill="none" stroke-width="2.64" stroke="rgb(152,78,163)" stroke-opacity="1.0">
                </path>
              </g>
              <g>
                <path d="M65.11209436875595 483.98564838353553 L65.11209436875595 483.98564838353553 L67.04437263404154 482.88602846745107 L82.50259875632628 473.0361311315179 L102.05270826392166 460.8906881371893 L105.34894765764415 458.8365512285487 L131.1505456705753 443.1974602826314 L150.92798203291017 430.6861513124548 L153.76956771715368 428.7594553351817 L190.9375084670589 405.3565217788117 L196.62067983554593 401.84907605068736 L209.9193008378056 393.56297657362813 L218.10306760842693 388.2731669727997 L256.52130605939925 364.1540329748691 L263.9094288384324 359.86500848859623 L269.13794649744045 356.3879820208414 L291.0749879798004 342.70154368475914 L293.46191995456496 341.1415062382507 L301.6456867251863 336.1334242601212 L328.8112458665543 319.27674968737074 L347.4520479551918 307.6921455547407 L351.54393134050247 304.96252879067185 L362.45562036799754 298.6470254610324 L368.59344544596354 294.90714696987254 L374.8449339512993 291.2754592005725 L380.1871150376771 287.855301094787 L383.59701785876933 285.92102674364276 L391.5534577746512 280.87420157595477 L399.509897690533 276.0084533110532 L442.24734638155553 249.54355651804605 L448.9534885963702 245.5537078356422 L457.93289935857973 239.7607136071075 L492.6002447063506 218.6448526225629 L494.64618639900596 217.55927992007605 L528.1768974730795 196.59947451067376 L548.977304681742 183.8304184010617 L556.3654274607752 179.21460660115372 L557.6157251618423 178.34637543721072 L588.3048505516723 158.5820881211681 L604.3313938108058 148.90061341735708 L627.9733867037119 134.06996033149443 L633.7702214995686 130.20135789964775 L633.997548354308 130.06796791106194 L665.8233080178355 110.41108511109309 L675.1437090621542 104.34065062284759 L675.4846993442634 104.13845845273545 L733.9077010123101 67.58685051473594 L739.1362186713183 64.55944497608903 L740.2728529450156 63.76101838543815 L755.3900887851911 54.32184956732118 " fill="none" stroke-width="2.64" stroke="rgb(255,127,0)" stroke-opacity="1.0">
                </path>
              </g>
              <g>
                <path d="M38.628515791606375 500.31154432175214 L38.628515791606375 500.31154432175214 L52.609117358084475 491.30681567809086 L59.54258642763865 487.1545095369154 L76.13744682362079 477.4205266371258 L115.46499269355107 452.3099431927414 L138.08401474012948 438.38026625981183 L140.58461014226376 436.89511775053325 L141.38025413385193 436.48541504042134 L162.63531505199344 423.3563514450972 L193.09711358708395 404.80070150728 L199.46226551978944 400.7109387727168 L200.14424608400788 400.32623581240273 L209.57831055569636 394.583584844613 L213.78385736837677 391.78164405144713 L215.8297990610321 390.4542491121235 L259.59021859838225 363.30494849084573 L296.4171690661782 340.47972992954953 L305.5102432557575 334.6575204495281 L329.1522361486635 319.7851272481129 L340.17758860352836 313.01139877589196 L348.81600908362867 307.42414940295566 L349.27066279310765 307.1790341252524 L358.47740041005665 301.2060251433471 L372.1170116944255 293.1607189198561 L375.1859242334085 291.28169362257836 L401.1011856737094 274.94945840472275 L411.44455756435576 268.6469907724985 L482.93885337992265 223.708176989472 L518.8564964287608 200.97264547561576 L535.3376933973732 191.07798794182423 L554.7741394775989 179.24625954766503 L555.4561200418173 178.89734656644583 L555.9107737512962 178.58198748917096 L567.39077991564 171.39864971775916 L568.8684044714466 170.4722010335696 L601.7171349813017 149.6370693815 L609.4462480424442 144.81869138959274 L620.2442736425695 138.08073662646 L644.3409202449545 122.89910371493926 L656.9575606829957 115.05749966727245 L665.0276640262473 110.0359409301634 L675.0300456347845 103.76284332737839 L686.5100517991283 96.75377242080032 L699.9223362287577 88.72892526958037 L712.3116498120594 80.82205207576152 L716.1762063426306 78.2858363421766 L780.6233696612736 38.570595357688376 " fill="none" stroke-width="2.64" stroke="rgb(255,255,51)" stroke-opacity="1.0">
                </path>
              </g>
              <g>
                <path d="M48.97188768225277 493.57069423211465 L48.97188768225277 493.57069423211465 L51.92713679386603 491.6723094340508 L74.54615884044443 477.0941776871965 L79.32002278997354 474.08282286972167 L81.25230105525912 472.89399625435624 L89.5497312532502 467.6350021691286 L92.39131693749371 465.71653229784846 L94.3235952027793 464.4789183108255 L101.14340084496374 460.2112419874939 L102.1663716912914 459.484786611316 L109.55449447032456 454.91912923935814 L137.97035131275973 436.54020240944476 L166.27254472782516 418.37677401030624 L171.04640867735426 415.55393156759874 L179.2301754479756 410.4006755597174 L187.30027879122719 405.217046812576 L222.87693155795603 383.06849738729386 L248.2238758614082 367.09321245796366 L283.4595383460278 344.5635439876786 L287.77874858607794 341.76707511546635 L323.8100550622857 319.17075237241505 L342.109866868814 308.0567817718446 L360.523342102712 296.2726714086814 L368.820772300703 291.0438244050348 L405.42039591375953 268.3517595056217 L409.5122792990702 265.70007966440767 L416.3320849412546 261.38495914926204 L432.69961848249727 251.57891611625163 L468.2762712492261 229.4830011099295 L471.3451837882091 227.5696625907895 L489.6449955947374 215.6804614880852 L509.536095384442 203.37414746251295 L524.3123409425083 193.9332560674527 L530.6774928752138 189.9926593458381 L534.3147225510455 187.691043981956 L562.9579062482202 169.59308200370845 L595.1246561938568 148.80676230537506 L620.8125907794182 132.09583046505162 L625.8137815836867 129.05941175971577 L646.3868619376099 116.3946484124778 L649.1147841944836 114.65519937175685 L649.2284476218533 114.59179986433759 L654.0023115713824 111.7509476271004 L655.7072629819286 110.70899693851584 L699.4676825192787 83.75981251741263 L717.1991771889583 72.652831238923 L717.6538308984373 72.44292278597715 L728.679183353302 65.47157913354414 L730.043144481739 64.61516505422344 L736.635623269184 60.73536371892419 L744.7057266124355 55.58799648254205 L773.6899005917194 36.92600996687514 L789.6027804234831 26.636064007463347 " fill="none" stroke-width="2.64" stroke="rgb(166,86,40)" stroke-opacity="1.0">
                </path>
              </g>
              <g>
                <path d="M50.676839092798886 492.70142206801813 L50.676839092798886 492.70142206801813 L86.93547242374616 470.19641200097175 L90.00438496272916 468.1442490533884 L94.09626834803981 465.504800207548 L95.11923919436748 464.8870556608824 L106.71290878608104 457.25286893834266 L125.92202801156722 444.89182471325097 L135.9244096201044 438.62770762129423 L137.51569760328076 437.62910959196154 L165.47690073623698 419.6534526253779 L179.34383887534534 410.9836820280261 L207.1913785809318 393.0758914366354 L246.40526102349233 367.49861038950434 L279.4813183880869 346.30811668489935 L290.62033427032145 339.6948956259754 L337.56332977402434 310.01461030257195 L347.11105767308254 304.05477048381135 L360.1823518206027 295.80213874593585 L365.6381963343503 292.4557835776824 L395.75900458733156 273.325065240163 L426.22080312242207 254.56458601742938 L430.9946670719512 251.40613412072972 L433.9499161835644 249.46610203414136 L444.97526863842927 242.7360822006856 L454.5229965374875 236.82762700226675 L498.28341607483765 209.89729687900126 L506.92183655493795 204.382395548492 L529.0862048920374 190.5621495556028 L531.018483157323 189.323289381255 L549.8866121007 178.076705641434 L555.2287931870778 174.86070536337832 L586.5998991411262 155.41226019044262 L603.9904035286966 144.62685285845976 L610.9238725982507 140.36983028401733 L646.5005253649796 118.23461914225288 L646.9551790744586 118.02426309315058 L651.2743893145087 115.48745915782757 L660.7084537861972 109.42117898196466 L704.9235270330263 81.67901499388677 L717.6538308984373 73.82572452823638 L724.4736365406217 69.74049161144313 L732.9983935933523 64.0234132242116 L740.1591895176459 59.580565837660856 " fill="none" stroke-width="2.64" stroke="rgb(247,129,191)" stroke-opacity="1.0">
                </path>
              </g>
              <g>
                <path d="M39.5378232105643 499.78321955448865 L39.5378232105643 499.78321955448865 L40.333467202152484 499.26534087305066 L43.28871631376574 497.556285345024 L70.79526573724299 480.61557973753617 L70.90892916461272 480.5417729388806 L96.93785403228334 463.41790609790223 L157.9751145298341 424.6035637574905 L169.00046698469893 417.97278598994484 L177.8662143195387 412.45192564777943 L194.5747381428906 401.9689872315413 L202.98583176825142 396.953586973067 L269.36527335217994 355.4008968297823 L307.6698483757825 331.59436450118307 L314.6033174453367 327.4671334351549 L335.7447149361085 314.1738719231915 L347.9067016646707 306.1937997920859 L363.137600932216 296.8740520268068 L374.6176070965598 289.62737883883165 L375.5269145155177 289.0867342721971 L388.2572183809287 281.0660533833192 L391.3261309199117 279.1890650782143 L396.09999486944076 276.0226601970468 L403.1471273663647 271.6539076325007 L411.67188441909525 266.23930690172875 L430.9946670719512 254.14263190571722 L432.4722916277578 253.23256279630215 L434.1772430383039 252.14217271083382 L463.27508044495755 233.59753624858672 L469.41290552292355 229.68381591408598 L478.73330656724227 224.00124264106273 L480.6655848325278 222.6515737851651 L498.51074292957713 211.71625872500186 L514.5372861887106 201.24639683194584 L524.1986775151386 195.30536414322222 L531.9277905762809 190.43194966030302 L564.321867376657 171.0062193001316 L565.5721650777242 169.99815824186254 L568.300087334598 168.3170238214513 L568.5274141893375 168.18574289239302 L574.5515758399337 164.72616616048663 L581.2577180547485 160.45763884849276 L584.2129671663616 158.62354179065102 L616.948034248847 138.15767556927096 L639.1124025859464 124.21821513799767 L674.5753919253056 102.0606028658832 L677.7579678916583 100.10009198774861 L682.0771781317084 97.35834825880278 L689.692627765481 92.48408559943198 L723.3370022669243 71.48796139538752 L770.0526709158877 41.82540120391974 L773.1215834548707 39.88094957262541 " fill="none" stroke-width="2.64" stroke="rgb(153,153,153)" stroke-opacity="1.0">
                </path>
              </g>
              <g>
                <path d="M39.08316950108534 500.1276768660184 L39.08316950108534 500.1276768660184 L52.72278078545422 491.63064264287004 L110.00914817980353 455.91855999437536 L127.05866228526463 445.7070673252774 L147.85906949392717 432.156632205808 L222.99059498532577 384.04021678409384 L232.19733260227477 378.24331311629453 L258.45358432468487 361.51988803261213 L270.9565613353563 353.8109582111498 L275.50309843014594 351.1009468058557 L295.7351885019598 338.06181869191664 L312.78470260742085 327.0013175297083 L316.7629225653618 324.49376965968565 L317.103912847471 324.28647579926337 L324.94668933598314 319.32031101427026 L326.31065046442 318.3383454440445 L412.8085186927927 265.12092658190295 L414.51347010333876 264.17071756842586 L415.30911409492694 263.6488971549129 L426.3344665497918 256.8551910884839 L429.51704251614456 254.85820132724098 L440.6560583983791 247.67229379883747 L445.77091263001745 244.54716169521606 L462.0247827438904 234.7593724914048 L485.55311220942673 219.80441624027065 L507.37649026441693 205.77339563231607 L510.33173937603016 203.95388510751798 L547.4996801259354 180.4563893322633 L549.8866121007 178.93194229776304 L559.5480034271279 172.5234174213257 L564.776521086136 169.2494534181459 L568.4137507619677 166.97756080957498 L576.597517532589 161.81752240661825 L620.1306102151997 134.00117446888657 L623.5405130362919 131.8691790072586 L627.1777427121236 129.56404256508029 L630.2466552511066 127.6968261968837 L633.7702214995686 125.42205093522335 L644.9092373818032 118.23028966527511 L657.9805315293233 110.29594953693783 L665.595981163096 105.42019736319742 L688.1013397823046 91.07584365203957 L697.990057963472 84.55906793063042 L709.5837275551856 77.23561866151914 L710.0383812646646 76.94085947649654 L723.3370022669243 68.40546556464471 L738.795228389209 58.56703423607354 L742.4324580650407 56.181638229886346 L753.0031568104266 49.499210362166025 L753.230483665166 49.34998043125631 L767.0974218042744 40.71920081117656 L781.6463405076013 31.465363018421556 L785.738223892912 28.830870282931073 L793.6946638087937 23.86363636363643 " fill="none" stroke-width="2.64" stroke="rgb(155,196,172)" stroke-opacity="1.0">
                </path>
              </g>
            </g>
            <g>
              <g>
                <path d="M49.540204819101476 333.6523159404967 L49.540204819101476 333.6523159404967 L53.63208820441214 334.5098680710605 L55.223376187588514 334.70599266466274 L82.72992561106577 340.7089609390124 L116.71529039461822 348.3546623974852 L120.35252007044991 349.0725440159086 L130.9232188158358 351.35107981186167 L142.6305518349191 354.0704852911673 L154.22422142663265 356.58924222766063 L176.84324347321103 361.38329574738015 L188.77790334703383 363.68963396616687 L200.59889979348685 366.09118109917983 L207.64603229041077 367.57530719019485 L211.6242522483517 368.3824478713418 L229.01475663592203 371.96065396549864 L251.8611055372399 376.8460110146081 L263.00012141947445 379.11693046019525 L269.4789367795497 380.5950216816191 L312.44371232531165 390.30917200367696 L336.42669550032696 395.49390701255055 L342.7918474330324 396.78505597964676 L343.9284817067298 397.10164403111446 L356.99977585425 400.07363572942114 L365.52453290698054 401.8292980034422 L378.7094904818705 404.74563170294476 L396.7819754336592 408.66375937175764 L401.4421759558186 409.7196252835547 L402.23781994740676 409.8594826000178 L404.5110884948016 410.42510652804424 L406.5570301874569 410.84990242018523 L416.2184215138849 413.0043984638072 L443.7249709373621 419.4018959110841 L467.7079541123774 424.7131872460188 L469.18557866818406 425.0522145912148 L471.0041935060999 425.4555131166684 L480.7792482598976 427.66050967903186 L499.0790600664258 431.730255115865 L513.4006519150132 434.7508684051157 L545.45373843328 441.77315933014984 L551.9325537933553 443.1837964043608 L601.3761446991925 453.5705400246036 L610.5828823161415 455.6488075496367 L621.6082347710063 458.0951092087183 L621.9492250531156 458.19045634852375 L668.4375668473396 468.85680525714 L685.8280712349099 472.7324958712664 L689.692627765481 473.67971207864286 L689.8062911928507 473.7132762054058 L718.5631383173951 480.12859961972845 L722.6550217027058 480.98388906339625 L727.7698759343441 482.14760261875153 L727.9972027890836 482.22346836344815 L758.3453378968044 489.1593785641287 L775.3948520022655 492.4864761479557 L785.9655507476514 494.7830706322563 L790.7394146971805 495.71996138436845 L794.2629809456424 496.45854994236396 L808.3572459394903 499.4679347661949 L808.6982362215995 499.5517290680068 L811.1988316237338 500.03766874355955 " fill="none" stroke-width="2.64" stroke="rgb(228,26,28)" stroke-opacity="1.0" stroke-dasharray="10.56,10.56" stroke-dashoffset="0.0">
                </path>
              </g>
              <g>
                <path d="M77.04675424257871 338.23051721731207 L77.04675424257871 338.23051721731207 L99.21112257967815 343.08858239058105 L116.94261724935771 347.38908636098836 L147.63174263918768 354.47201227944583 L191.05117189442862 363.95340730175064 L223.6725755495442 371.1592585120802 L237.42585026128282 374.2872593493883 L258.3399208973151 378.9799223731848 L266.7510145226759 380.88103066848237 L277.43537669543156 383.2880336581042 L295.62152507459 387.3436667536167 L296.18984221143876 387.45308382194366 L302.4413307167745 388.7299559050682 L328.35659215707534 394.50187310801203 L339.040954329831 396.8741236498218 L351.54393134050247 399.6942300346881 L379.1641441913494 405.65435023675565 L380.98275902926525 405.9780937492418 L391.6671212020209 408.3975623661059 L392.0081114841301 408.46365893388764 L418.03703635180074 414.2925989054034 L419.96931461708635 414.68077631326327 L487.2580636199728 429.0996562068412 L502.6026263148878 432.3735773611563 L518.288179291912 435.8513533088909 L549.5456218185908 442.9428478214537 L565.5721650777242 446.4273398519382 L566.2541456419426 446.57300733669933 L608.1959503413769 456.04212925044504 L622.2902153352248 459.3083845118851 L622.631205617334 459.38929627649964 L623.4268496089222 459.5446775949538 L655.0252824177101 466.68916517856456 L663.5500394704407 468.5180705258322 L688.1013397823046 473.5444134730129 L690.2609449023297 474.06165187012624 L709.8110544099251 478.1562135298082 L710.720361828883 478.3442875135102 L717.312840616328 479.7494063613366 L730.497798191218 482.63109735919215 L736.9766135512931 484.1117797548138 L739.5908723807972 484.6342546248685 L742.8871117745197 485.3576224064349 L777.3271302675511 492.8677744619925 L777.6681205496603 492.9310317461988 L786.0792141750211 494.8843500633064 L809.6075436405574 499.79366317016166 " fill="none" stroke-width="2.64" stroke="rgb(55,126,184)" stroke-opacity="1.0" stroke-dasharray="10.56,10.56" stroke-dashoffset="0.0">
                </path>
              </g>
              <g>
                <path d="M41.47010147584989 332.19924066010617 L41.47010147584989 332.19924066010617 L45.10733115168159 332.9973768803624 L68.8629874719574 338.1182206601262 L80.00200335419197 340.47034232708813 L86.4808187142672 341.87925740770083 L94.55092205751879 343.47135983885175 L97.73349802387153 344.0242016743625 L123.08044232732371 349.302693496025 L130.3549016789871 350.9206191698704 L178.77552173849665 361.9036202268196 L187.75493250070616 364.16915982478923 L197.98464096398283 366.4994222231785 L207.98702257252 368.695601526535 L217.30742361683872 370.7833655025346 L218.78504817264536 371.1758040652 L219.35336530949405 371.31524054693784 L245.60961703190415 377.41203238370844 L255.38467178570187 379.63247512002 L260.72685287207963 380.9644599623831 L273.2298298827511 383.6768499154077 L300.05439874200994 389.8072983763823 L307.6698483757825 391.58106026222833 L355.40848787107365 401.9086504039128 L360.523342102712 402.9899391588118 L361.4326495216699 403.19726918055886 L389.84850636410505 409.2271395414653 L466.45765641131027 426.4986008293116 L488.39469789367024 431.4162051330114 L509.64975881181175 436.464665187973 L523.6303603782899 439.50183408064515 L524.7669946519873 439.7908921173325 L533.0644248499783 441.878757676785 L542.7258161764063 444.0468176262484 L577.9614786610259 452.1660343840696 L595.1246561938568 456.041914230218 L595.2383196212265 456.07116716519647 L597.5115881686213 456.6558363013094 L648.4328036302652 468.29223809120344 L650.1377550408113 468.6082957936946 L669.9151914031462 473.04411177463214 L677.3033141821793 474.6135645888044 L678.0989581737675 474.78449391661076 L741.6368140734526 488.79848557340466 L756.8677133409977 492.07094782325413 " fill="none" stroke-width="2.64" stroke="rgb(77,175,74)" stroke-opacity="1.0" stroke-dasharray="10.56,10.56" stroke-dashoffset="0.0">
                </path>
              </g>
              <g>
                <path d="M60.11090356448736 336.19618930554947 L60.11090356448736 336.19618930554947 L69.65863146354558 338.50254117903273 L75.34180283203261 339.90934364242713 L125.0127205926093 351.7625341968786 L128.53628684107125 352.5952678789246 L145.58580094653234 356.50976608951527 L167.63650585626206 361.72039279702665 L172.63769666053065 362.87993292404906 L178.77552173849665 364.33276399612294 L213.89752079574652 372.69063436733444 L225.71851724219954 375.50251118349325 L242.3133776381817 379.2442354134638 L263.3411117015837 383.7253761853599 L273.2298298827511 385.9794624164126 L284.14151891024625 388.43515919430615 L289.1427097145148 389.49759345641104 L291.75696854401883 390.1856904540101 L300.73637930622834 392.2630338212187 L308.23816551263127 394.1026623504962 L315.85361514640385 395.8374232667103 L328.35659215707534 398.7158210709447 L339.1546177572007 401.09636980019894 L343.0191742877719 401.9046260723342 L344.724125698318 402.2868823844178 L368.4797820185938 407.89187361101 L383.93800814087854 411.70889464197523 L387.68890124408 412.5556015214636 L417.24139236021256 419.1741526759928 L424.8568419939852 420.8424784648656 L479.18796027672124 432.86072448738093 L480.09726769567914 433.03864858361874 L483.0525168072924 433.71236531326565 L493.73687898004806 436.05862209831673 L499.0790600664258 437.21999973677566 L513.9689690518619 440.2936331656433 L522.0390723951135 441.9732271098278 L552.1598806480948 448.8394640633295 L563.1852331029596 451.0985273159239 L575.1198929767825 453.61075771715537 L575.9155369683706 453.7797379724471 L621.0399176341576 464.5079571190939 L644.3409202449545 470.2328796692489 L646.6141887923493 470.7779600091062 L686.5100517991283 480.36715262557277 L692.0795597402456 481.7292809831512 L696.6260968350352 482.70981778272557 L698.6720385276906 483.24119766650944 L711.5160058204713 486.0289978395323 L736.7492866965537 491.48776499130497 L756.299396204149 495.57401889949847 L767.2110852316441 497.9746025043948 L775.0538617201563 499.7479108572205 " fill="none" stroke-width="2.64" stroke="rgb(152,78,163)" stroke-opacity="1.0" stroke-dasharray="10.56,10.56" stroke-dashoffset="0.0">
                </path>
              </g>
              <g>
                <path d="M65.11209436875595 337.56291396312724 L65.11209436875595 337.56291396312724 L67.04437263404154 338.00355374384174 L82.50259875632628 341.7065109431343 L102.05270826392166 346.3848264668754 L105.34894765764415 347.2050842277124 L131.1505456705753 353.2830752900261 L150.92798203291017 357.9680797472123 L153.76956771715368 358.6511963543227 L190.9375084670589 366.9098359563362 L196.62067983554593 368.1826368963883 L209.9193008378056 371.1128340223596 L218.10306760842693 373.0444951729289 L256.52130605939925 381.51579243253093 L263.9094288384324 383.0374125863745 L269.13794649744045 384.2594623737054 L291.0749879798004 389.16031424144234 L293.46191995456496 389.7520078711254 L301.6456867251863 391.63615049957866 L328.8112458665543 397.50535841962017 L347.4520479551918 401.34451169795915 L351.54393134050247 402.26312292240505 L362.45562036799754 404.38684226900335 L368.59344544596354 405.6648964214255 L374.8449339512993 406.85781737562445 L380.1871150376771 408.0490874801209 L383.59701785876933 408.7293230462658 L391.5534577746512 410.51620875448185 L399.509897690533 412.18962684078605 L442.24734638155553 421.7211496187615 L448.9534885963702 423.24239025309 L457.93289935857973 425.327265599315 L492.6002447063506 432.93081764547696 L494.64618639900596 433.35591612358587 L528.1768974730795 441.20913762545814 L548.977304681742 445.9361938260932 L556.3654274607752 447.6789129563978 L557.6157251618423 448.0097660481904 L588.3048505516723 455.27990194283194 L604.3313938108058 458.8724236042675 L627.9733867037119 464.1222466237375 L633.7702214995686 465.6432152743083 L633.997548354308 465.692188756851 L665.8233080178355 472.98094248974263 L675.1437090621542 475.12267151436345 L675.4846993442634 475.19508793755483 L733.9077010123101 488.6262367896077 L739.1362186713183 489.7156629259843 L740.2728529450156 490.0087493701141 L755.3900887851911 493.39453239325525 " fill="none" stroke-width="2.64" stroke="rgb(255,127,0)" stroke-opacity="1.0" stroke-dasharray="10.56,10.56" stroke-dashoffset="0.0">
                </path>
              </g>
              <g>
                <path d="M38.628515791606375 331.47992569833167 L38.628515791606375 331.47992569833167 L52.609117358084475 334.51097524293675 L59.54258642763865 335.80630399138613 L76.13744682362079 338.90053166866426 L115.46499269355107 347.8076206499727 L138.08401474012948 352.92092309399504 L140.58461014226376 353.46830293653255 L141.38025413385193 353.6213852034618 L162.63531505199344 358.52630577690815 L193.09711358708395 365.52132492848364 L199.46226551978944 366.94645842991775 L200.14424608400788 367.08563118748555 L209.57831055569636 369.1530412418232 L213.78385736837677 370.1812516852932 L215.8297990610321 370.7112616009208 L259.59021859838225 380.41051668374854 L296.4171690661782 388.7792262116837 L305.5102432557575 390.9200957467964 L329.1522361486635 396.29161755798054 L340.17758860352836 398.8759018985253 L348.81600908362867 400.9524870028228 L349.27066279310765 401.05033661025817 L358.47740041005665 403.3397568564402 L372.1170116944255 406.45174659263125 L375.1859242334085 407.15559268900654 L401.1011856737094 413.43507827922326 L411.44455756435576 415.98641487476306 L482.93885337992265 433.14560202499814 L518.8564964287608 441.70098158823254 L535.3376933973732 445.3220549301201 L554.7741394775989 449.5697686681461 L555.4561200418173 449.6812156316056 L555.9107737512962 449.8062866661435 L567.39077991564 452.4775751546962 L568.8684044714466 452.83194636825215 L601.7171349813017 460.7160367882708 L609.4462480424442 462.45401427327187 L620.2442736425695 464.9604175613665 L644.3409202449545 470.50617358840674 L656.9575606829957 473.3985848400531 L665.0276640262473 475.1931168824518 L675.0300456347845 477.49751426385166 L686.5100517991283 480.0882717294871 L699.9223362287577 483.075561615853 L712.3116498120594 486.0188492933491 L716.1762063426306 486.94120238599845 L780.6233696612736 501.1363636363637 " fill="none" stroke-width="2.64" stroke="rgb(255,255,51)" stroke-opacity="1.0" stroke-dasharray="10.56,10.56" stroke-dashoffset="0.0">
                </path>
              </g>
              <g>
                <path d="M48.97188768225277 333.9664078165128 L48.97188768225277 333.9664078165128 L51.92713679386603 334.6286266001355 L74.54615884044443 339.8327181901043 L79.32002278997354 340.86855038558485 L81.25230105525912 341.30452998670665 L89.5497312532502 343.1346359498327 L92.39131693749371 343.8338876839208 L94.3235952027793 344.26359234674874 L101.14340084496374 345.8383157580546 L102.1663716912914 346.09703819037975 L109.55449447032456 347.6883125290182 L137.97035131275973 354.22482687757156 L166.27254472782516 360.6342515841004 L171.04640867735426 361.63204860880103 L179.2301754479756 363.4235481381915 L187.30027879122719 365.3256317048257 L222.87693155795603 373.02473339233546 L248.2238758614082 378.58800471063364 L283.4595383460278 386.927560575868 L287.77874858607794 387.979054708542 L323.8100550622857 396.618561052916 L342.109866868814 400.92021190646153 L360.523342102712 405.3783967844707 L368.820772300703 407.263097742559 L405.42039591375953 415.6992251781953 L409.5122792990702 416.65946762000414 L416.3320849412546 418.1883362233774 L432.69961848249727 421.613849519081 L468.2762712492261 429.52673210894636 L471.3451837882091 430.22887769336376 L489.6449955947374 434.5533543062608 L509.536095384442 438.7939691527291 L524.3123409425083 441.9971624641841 L530.6774928752138 443.37006835487813 L534.3147225510455 444.16619516397395 L562.9579062482202 450.2417041409101 L595.1246561938568 457.2299391542813 L620.8125907794182 462.8056261897122 L625.8137815836867 463.745995385049 L646.3868619376099 468.0496203889879 L649.1147841944836 468.6517856658067 L649.2284476218533 468.67164044971804 L654.0023115713824 469.6460712462893 L655.7072629819286 470.0171961480544 L699.4676825192787 479.4446615794667 L717.1991771889583 483.37825812972966 L717.6538308984373 483.4434397313257 L728.679183353302 485.82868714289395 L730.043144481739 486.1430242275398 L736.635623269184 487.46588308753024 L744.7057266124355 489.27337226315746 L773.6899005917194 495.8217117605448 L789.6027804234831 499.5660603098254 " fill="none" stroke-width="2.64" stroke="rgb(166,86,40)" stroke-opacity="1.0" stroke-dasharray="10.56,10.56" stroke-dashoffset="0.0">
                </path>
              </g>
              <g>
                <path d="M50.676839092798886 333.9824807045453 L50.676839092798886 333.9824807045453 L86.93547242374616 341.463796729568 L90.00438496272916 342.18231157125535 L94.09626834803981 343.097173508148 L95.11923919436748 343.2986140519914 L106.71290878608104 345.9026658045457 L125.92202801156722 350.4204838681202 L135.9244096201044 352.68596071811146 L137.51569760328076 353.0841726432675 L165.47690073623698 359.65072939198944 L179.34383887534534 362.98635134885933 L207.1913785809318 369.3099687281192 L246.40526102349233 378.2404621499332 L279.4813183880869 385.4686036027914 L290.62033427032145 387.6976529929755 L337.56332977402434 397.9476447230703 L347.11105767308254 400.0855756092531 L360.1823518206027 403.11687325045693 L365.6381963343503 404.3443333905753 L395.75900458733156 411.3744889207993 L426.22080312242207 418.18433263947173 L430.9946670719512 419.33420690171073 L433.9499161835644 419.9884098289742 L444.97526863842927 422.41659056075014 L454.5229965374875 424.6060606875123 L498.28341607483765 434.2526436961658 L506.92183655493795 436.32352221334804 L529.0862048920374 441.5523793127278 L531.018483157323 442.00059405052684 L549.8866121007 446.28391926807916 L555.2287931870778 447.50139267423214 L586.5998991411262 455.0511296243521 L603.9904035286966 459.2400094439196 L610.9238725982507 461.0050544601164 L646.5005253649796 469.58262175211405 L646.9551790744586 469.65704742764444 L651.2743893145087 470.67976415110735 L660.7084537861972 473.0590000137814 L704.9235270330263 483.68706560420355 L717.6538308984373 486.5690913138701 L724.4736365406217 488.07624729931297 L732.9983935933523 490.18891576096905 L740.1591895176459 491.8038889920362 " fill="none" stroke-width="2.64" stroke="rgb(247,129,191)" stroke-opacity="1.0" stroke-dasharray="10.56,10.56" stroke-dashoffset="0.0">
                </path>
              </g>
              <g>
                <path d="M39.5378232105643 331.6687488891529 L39.5378232105643 331.6687488891529 L40.333467202152484 331.85067924350176 L43.28871631376574 332.44835608623475 L70.79526573724299 338.044836396563 L70.90892916461272 338.07060082219766 L96.93785403228334 343.6917228485198 L157.9751145298341 356.25923347308265 L169.00046698469893 358.4192666731643 L177.8662143195387 360.22438673469276 L194.5747381428906 363.67376799842043 L202.98583176825142 365.3387956075466 L269.36527335217994 379.543670560002 L307.6698483757825 388.3928487267699 L314.6033174453367 389.8800295772527 L335.7447149361085 394.80836346585 L347.9067016646707 397.79687907166453 L363.137600932216 401.3393386188884 L374.6176070965598 404.0684522461078 L375.5269145155177 404.2690984540154 L388.2572183809287 407.3010877201927 L391.3261309199117 408.0411009631308 L396.09999486944076 409.2356543967962 L403.1471273663647 410.8078996660756 L411.67188441909525 412.78921837032925 L430.9946670719512 417.1875513070581 L432.4722916277578 417.54241913411914 L434.1772430383039 417.89825696438794 L463.27508044495755 424.5276772008237 L469.41290552292355 425.83370745471365 L478.73330656724227 427.95237380843247 L480.6655848325278 428.42396671008987 L498.51074292957713 432.2740104268842 L514.5372861887106 436.0636933678767 L524.1986775151386 438.1464797941736 L531.9277905762809 439.78944144871434 L564.321867376657 446.41518200249965 L565.5721650777242 446.75613205399037 L568.300087334598 447.3643037664872 L568.5274141893375 447.41539561245327 L574.5515758399337 448.5523592485342 L581.2577180547485 449.9949645479376 L584.2129671663616 450.62840365313036 L616.948034248847 458.0465988959139 L639.1124025859464 463.1856226951655 L674.5753919253056 471.8231417158627 L677.7579678916583 472.6049461831575 L682.0771781317084 473.64015719572143 L689.692627765481 475.47843439574467 L723.3370022669243 483.2412510409419 L770.0526709158877 494.16039109704906 L773.1215834548707 494.8292742402414 " fill="none" stroke-width="2.64" stroke="rgb(153,153,153)" stroke-opacity="1.0" stroke-dasharray="10.56,10.56" stroke-dashoffset="0.0">
                </path>
              </g>
              <g>
                <path d="M39.08316950108534 331.5219828598012 L39.08316950108534 331.5219828598012 L52.72278078545422 334.42886634827823 L110.00914817980353 345.62534144171013 L127.05866228526463 348.83765166140074 L147.85906949392717 353.16892433149343 L222.99059498532577 369.39242756236706 L232.19733260227477 371.3895512280003 L258.45358432468487 377.09048050537876 L270.9565613353563 379.76626860630483 L275.50309843014594 380.6914599017801 L295.7351885019598 385.08032142335213 L312.78470260742085 388.60749058536373 L316.7629225653618 389.4237732280952 L317.103912847471 389.48775361857633 L324.94668933598314 391.14804109375996 L326.31065046442 391.4546251827252 L412.8085186927927 408.82433743574717 L414.51347010333876 409.128615757139 L415.30911409492694 409.3062513740966 L426.3344665497918 411.5182755874542 L429.51704251614456 412.1810432750929 L440.6560583983791 414.6192965898123 L445.77091263001745 415.69303982015305 L462.0247827438904 418.95965098266015 L485.55311220942673 424.12228815655186 L507.37649026441693 428.9030378746391 L510.33173937603016 429.59487764679693 L547.4996801259354 438.00880853685885 L549.8866121007 438.5266409006081 L559.5480034271279 440.76142486377006 L564.776521086136 441.9296720146396 L568.4137507619677 442.7682514756395 L576.597517532589 444.5966814700428 L620.1306102151997 455.0132919042861 L623.5405130362919 455.83097945346304 L627.1777427121236 456.6973739981222 L630.2466552511066 457.4335976237437 L633.7702214995686 458.3133674238276 L644.9092373818032 461.1854709712493 L657.9805315293233 464.2769853299703 L665.595981163096 466.1030778716223 L688.1013397823046 471.263511488514 L697.990057963472 473.5622536630883 L709.5837275551856 476.15277170699136 L710.0383812646646 476.2580494284424 L723.3370022669243 479.2960997176356 L738.795228389209 482.75410751455826 L742.4324580650407 483.6191810098255 L753.0031568104266 485.9267502950574 L753.230483665166 485.9762439164479 L767.0974218042744 488.9917501210428 L781.6463405076013 492.2024686327251 L785.738223892912 493.09515494902126 L793.6946638087937 494.86811041850575 " fill="none" stroke-width="2.64" stroke="rgb(155,196,172)" stroke-opacity="1.0" stroke-dasharray="10.56,10.56" stroke-dashoffset="0.0">
                </path>
              </g>
            </g>
          </g>
        </g>
        <defs>
          <clipPath id="c4b4yrM">
            <rect x="50.97651758668602" y="0.0" width="849.8273474153402" height="525.0">
            </rect>
          </clipPath>
        </defs>
        <defs>
          <clipPath id="c7KYaFu">
            <rect x="50.97651758668602" y="0.0" width="849.8273474153402" height="525.0">
            </rect>
          </clipPath>
        </defs>
      </g>
      <g>
        <g transform="translate(50.97651758668602 525.0 ) ">
          <g transform="translate(37.264554663169484 0.0 ) ">
            <g transform="translate(0.0 3.0 ) ">
              <text class="axis-text-x" text-anchor="middle" dy="0.7em" y="0.0">
                <tspan>0</tspan>
              </text>
            </g>
          </g>
          <g transform="translate(94.09626834803981 0.0 ) ">
            <g transform="translate(0.0 3.0 ) ">
              <text class="axis-text-x" text-anchor="middle" dy="0.7em" y="0.0">
                <tspan>500</tspan>
              </text>
            </g>
          </g>
          <g transform="translate(150.92798203291017 0.0 ) ">
            <g transform="translate(0.0 3.0 ) ">
              <text class="axis-text-x" text-anchor="middle" dy="0.7em" y="0.0">
                <tspan>1,000</tspan>
              </text>
            </g>
          </g>
          <g transform="translate(207.75969571778052 0.0 ) ">
            <g transform="translate(0.0 3.0 ) ">
              <text class="axis-text-x" text-anchor="middle" dy="0.7em" y="0.0">
                <tspan>1,500</tspan>
              </text>
            </g>
          </g>
          <g transform="translate(264.5914094026508 0.0 ) ">
            <g transform="translate(0.0 3.0 ) ">
              <text class="axis-text-x" text-anchor="middle" dy="0.7em" y="0.0">
                <tspan>2,000</tspan>
              </text>
            </g>
          </g>
          <g transform="translate(321.42312308752116 0.0 ) ">
            <g transform="translate(0.0 3.0 ) ">
              <text class="axis-text-x" text-anchor="middle" dy="0.7em" y="0.0">
                <tspan>2,500</tspan>
              </text>
            </g>
          </g>
          <g transform="translate(378.2548367723915 0.0 ) ">
            <g transform="translate(0.0 3.0 ) ">
              <text class="axis-text-x" text-anchor="middle" dy="0.7em" y="0.0">
                <tspan>3,000</tspan>
              </text>
            </g>
          </g>
          <g transform="translate(435.08655045726186 0.0 ) ">
            <g transform="translate(0.0 3.0 ) ">
              <text class="axis-text-x" text-anchor="middle" dy="0.7em" y="0.0">
                <tspan>3,500</tspan>
              </text>
            </g>
          </g>
          <g transform="translate(491.91826414213216 0.0 ) ">
            <g transform="translate(0.0 3.0 ) ">
              <text class="axis-text-x" text-anchor="middle" dy="0.7em" y="0.0">
                <tspan>4,000</tspan>
              </text>
            </g>
          </g>
          <g transform="translate(548.7499778270026 0.0 ) ">
            <g transform="translate(0.0 3.0 ) ">
              <text class="axis-text-x" text-anchor="middle" dy="0.7em" y="0.0">
                <tspan>4,500</tspan>
              </text>
            </g>
          </g>
          <g transform="translate(605.5816915118729 0.0 ) ">
            <g transform="translate(0.0 3.0 ) ">
              <text class="axis-text-x" text-anchor="middle" dy="0.7em" y="0.0">
                <tspan>5,000</tspan>
              </text>
            </g>
          </g>
          <g transform="translate(662.4134051967433 0.0 ) ">
            <g transform="translate(0.0 3.0 ) ">
              <text class="axis-text-x" text-anchor="middle" dy="0.7em" y="0.0">
                <tspan>5,500</tspan>
              </text>
            </g>
          </g>
          <g transform="translate(719.2451188816136 0.0 ) ">
            <g transform="translate(0.0 3.0 ) ">
              <text class="axis-text-x" text-anchor="middle" dy="0.7em" y="0.0">
                <tspan>6,000</tspan>
              </text>
            </g>
          </g>
          <g transform="translate(776.076832566484 0.0 ) ">
            <g transform="translate(0.0 3.0 ) ">
              <text class="axis-text-x" text-anchor="middle" dy="0.7em" y="0.0">
                <tspan>6,500</tspan>
              </text>
            </g>
          </g>
          <g transform="translate(832.9085462513543 0.0 ) ">
            <g transform="translate(0.0 3.0 ) ">
              <text class="axis-text-x" text-anchor="middle" dy="0.7em" y="0.0">
                <tspan>7,000</tspan>
              </text>
            </g>
          </g>
        </g>
        <g transform="translate(50.97651758668602 0.0 ) ">
          <g transform="translate(0.0 501.1910319237451 ) ">
            <g transform="translate(-3.0 0.0 ) ">
              <text class="axis-text-y" text-anchor="end" dy="0.35em" y="0.0">
                <tspan>0</tspan>
              </text>
            </g>
          </g>
          <g transform="translate(0.0 444.51281946363576 ) ">
            <g transform="translate(-3.0 0.0 ) ">
              <text class="axis-text-y" text-anchor="end" dy="0.35em" y="0.0">
                <tspan>10,000</tspan>
              </text>
            </g>
          </g>
          <g transform="translate(0.0 387.83460700352646 ) ">
            <g transform="translate(-3.0 0.0 ) ">
              <text class="axis-text-y" text-anchor="end" dy="0.35em" y="0.0">
                <tspan>20,000</tspan>
              </text>
            </g>
          </g>
          <g transform="translate(0.0 331.15639454341715 ) ">
            <g transform="translate(-3.0 0.0 ) ">
              <text class="axis-text-y" text-anchor="end" dy="0.35em" y="0.0">
                <tspan>30,000</tspan>
              </text>
            </g>
          </g>
          <g transform="translate(0.0 274.4781820833078 ) ">
            <g transform="translate(-3.0 0.0 ) ">
              <text class="axis-text-y" text-anchor="end" dy="0.35em" y="0.0">
                <tspan>40,000</tspan>
              </text>
            </g>
          </g>
          <g transform="translate(0.0 217.79996962319848 ) ">
            <g transform="translate(-3.0 0.0 ) ">
              <text class="axis-text-y" text-anchor="end" dy="0.35em" y="0.0">
                <tspan>50,000</tspan>
              </text>
            </g>
          </g>
          <g transform="translate(0.0 161.12175716308917 ) ">
            <g transform="translate(-3.0 0.0 ) ">
              <text class="axis-text-y" text-anchor="end" dy="0.35em" y="0.0">
                <tspan>60,000</tspan>
              </text>
            </g>
          </g>
          <g transform="translate(0.0 104.4435447029798 ) ">
            <g transform="translate(-3.0 0.0 ) ">
              <text class="axis-text-y" text-anchor="end" dy="0.35em" y="0.0">
                <tspan>70,000</tspan>
              </text>
            </g>
          </g>
          <g transform="translate(0.0 47.7653322428705 ) ">
            <g transform="translate(-3.0 0.0 ) ">
              <text class="axis-text-y" text-anchor="end" dy="0.35em" y="0.0">
                <tspan>80,000</tspan>
              </text>
            </g>
          </g>
        </g>
      </g>
    </g>
    <g transform="translate(80.47651758668601 16.8 ) ">
      <text class="plot-title" y="0.0">
        <tspan>Performance of Continous RL on MDPs with Inventory Constraints</tspan>
      </text>
    </g>
    <g transform="translate(16.0 289.0 ) rotate(-90.0 ) ">
      <text class="axis-title-y" y="0.0" text-anchor="middle">
        <tspan>Cumulative Reward/Inventory</tspan>
      </text>
    </g>
    <g transform="translate(505.3901912943561 593.0 ) ">
      <text class="axis-title-x" y="0.0" text-anchor="middle">
        <tspan>T</tspan>
      </text>
    </g>
    <g transform="translate(941.8038650020262 157.75 ) ">
      <rect x="0.0" y="0.0" height="262.5" width="58.19613499797375" stroke="rgb(71,71,71)" stroke-opacity="1.0" stroke-width="0.0" fill="rgb(255,255,255)" fill-opacity="1.0">
      </rect>
      <g transform="translate(5.0 5.0 ) ">
        <g transform="translate(0.0 12.0 ) ">
          <text class="legend-title" y="0.0">
            <tspan>Epoch</tspan>
          </text>
        </g>
        <g transform="translate(0.0 22.5 ) ">
          <g transform="">
            <g>
              <g transform="translate(1.0 1.0 ) ">
                <g>
                  <line x1="0.0" y1="10.5" x2="21.0" y2="10.5" stroke="rgb(228,26,28)" stroke-opacity="1.0" fill="rgb(255,255,255)" fill-opacity="1.0" stroke-width="1.6500000000000001">
                  </line>
                </g>
                <g>
                  <line x1="0.0" y1="10.5" x2="21.0" y2="10.5" stroke="rgb(228,26,28)" stroke-opacity="1.0" fill="rgb(255,255,255)" fill-opacity="1.0" stroke-width="1.6500000000000001">
                  </line>
                </g>
              </g>
            </g>
            <g transform="translate(26.9903027277341 16.05 ) ">
              <text class="legend-item" y="0.0">
                <tspan>0</tspan>
              </text>
            </g>
          </g>
          <g transform="translate(0.0 23.0 ) ">
            <g>
              <g transform="translate(1.0 1.0 ) ">
                <g>
                  <line x1="0.0" y1="10.5" x2="21.0" y2="10.5" stroke="rgb(55,126,184)" stroke-opacity="1.0" fill="rgb(255,255,255)" fill-opacity="1.0" stroke-width="1.6500000000000001">
                  </line>
                </g>
                <g>
                  <line x1="0.0" y1="10.5" x2="21.0" y2="10.5" stroke="rgb(55,126,184)" stroke-opacity="1.0" fill="rgb(255,255,255)" fill-opacity="1.0" stroke-width="1.6500000000000001">
                  </line>
                </g>
              </g>
            </g>
            <g transform="translate(26.9903027277341 16.05 ) ">
              <text class="legend-item" y="0.0">
                <tspan>1</tspan>
              </text>
            </g>
          </g>
          <g transform="translate(0.0 46.0 ) ">
            <g>
              <g transform="translate(1.0 1.0 ) ">
                <g>
                  <line x1="0.0" y1="10.5" x2="21.0" y2="10.5" stroke="rgb(77,175,74)" stroke-opacity="1.0" fill="rgb(255,255,255)" fill-opacity="1.0" stroke-width="1.6500000000000001">
                  </line>
                </g>
                <g>
                  <line x1="0.0" y1="10.5" x2="21.0" y2="10.5" stroke="rgb(77,175,74)" stroke-opacity="1.0" fill="rgb(255,255,255)" fill-opacity="1.0" stroke-width="1.6500000000000001">
                  </line>
                </g>
              </g>
            </g>
            <g transform="translate(26.9903027277341 16.05 ) ">
              <text class="legend-item" y="0.0">
                <tspan>2</tspan>
              </text>
            </g>
          </g>
          <g transform="translate(0.0 69.0 ) ">
            <g>
              <g transform="translate(1.0 1.0 ) ">
                <g>
                  <line x1="0.0" y1="10.5" x2="21.0" y2="10.5" stroke="rgb(152,78,163)" stroke-opacity="1.0" fill="rgb(255,255,255)" fill-opacity="1.0" stroke-width="1.6500000000000001">
                  </line>
                </g>
                <g>
                  <line x1="0.0" y1="10.5" x2="21.0" y2="10.5" stroke="rgb(152,78,163)" stroke-opacity="1.0" fill="rgb(255,255,255)" fill-opacity="1.0" stroke-width="1.6500000000000001">
                  </line>
                </g>
              </g>
            </g>
            <g transform="translate(26.9903027277341 16.05 ) ">
              <text class="legend-item" y="0.0">
                <tspan>3</tspan>
              </text>
            </g>
          </g>
          <g transform="translate(0.0 92.0 ) ">
            <g>
              <g transform="translate(1.0 1.0 ) ">
                <g>
                  <line x1="0.0" y1="10.5" x2="21.0" y2="10.5" stroke="rgb(255,127,0)" stroke-opacity="1.0" fill="rgb(255,255,255)" fill-opacity="1.0" stroke-width="1.6500000000000001">
                  </line>
                </g>
                <g>
                  <line x1="0.0" y1="10.5" x2="21.0" y2="10.5" stroke="rgb(255,127,0)" stroke-opacity="1.0" fill="rgb(255,255,255)" fill-opacity="1.0" stroke-width="1.6500000000000001">
                  </line>
                </g>
              </g>
            </g>
            <g transform="translate(26.9903027277341 16.05 ) ">
              <text class="legend-item" y="0.0">
                <tspan>4</tspan>
              </text>
            </g>
          </g>
          <g transform="translate(0.0 115.0 ) ">
            <g>
              <g transform="translate(1.0 1.0 ) ">
                <g>
                  <line x1="0.0" y1="10.5" x2="21.0" y2="10.5" stroke="rgb(255,255,51)" stroke-opacity="1.0" fill="rgb(255,255,255)" fill-opacity="1.0" stroke-width="1.6500000000000001">
                  </line>
                </g>
                <g>
                  <line x1="0.0" y1="10.5" x2="21.0" y2="10.5" stroke="rgb(255,255,51)" stroke-opacity="1.0" fill="rgb(255,255,255)" fill-opacity="1.0" stroke-width="1.6500000000000001">
                  </line>
                </g>
              </g>
            </g>
            <g transform="translate(26.9903027277341 16.05 ) ">
              <text class="legend-item" y="0.0">
                <tspan>5</tspan>
              </text>
            </g>
          </g>
          <g transform="translate(0.0 138.0 ) ">
            <g>
              <g transform="translate(1.0 1.0 ) ">
                <g>
                  <line x1="0.0" y1="10.5" x2="21.0" y2="10.5" stroke="rgb(166,86,40)" stroke-opacity="1.0" fill="rgb(255,255,255)" fill-opacity="1.0" stroke-width="1.6500000000000001">
                  </line>
                </g>
                <g>
                  <line x1="0.0" y1="10.5" x2="21.0" y2="10.5" stroke="rgb(166,86,40)" stroke-opacity="1.0" fill="rgb(255,255,255)" fill-opacity="1.0" stroke-width="1.6500000000000001">
                  </line>
                </g>
              </g>
            </g>
            <g transform="translate(26.9903027277341 16.05 ) ">
              <text class="legend-item" y="0.0">
                <tspan>6</tspan>
              </text>
            </g>
          </g>
          <g transform="translate(0.0 161.0 ) ">
            <g>
              <g transform="translate(1.0 1.0 ) ">
                <g>
                  <line x1="0.0" y1="10.5" x2="21.0" y2="10.5" stroke="rgb(247,129,191)" stroke-opacity="1.0" fill="rgb(255,255,255)" fill-opacity="1.0" stroke-width="1.6500000000000001">
                  </line>
                </g>
                <g>
                  <line x1="0.0" y1="10.5" x2="21.0" y2="10.5" stroke="rgb(247,129,191)" stroke-opacity="1.0" fill="rgb(255,255,255)" fill-opacity="1.0" stroke-width="1.6500000000000001">
                  </line>
                </g>
              </g>
            </g>
            <g transform="translate(26.9903027277341 16.05 ) ">
              <text class="legend-item" y="0.0">
                <tspan>7</tspan>
              </text>
            </g>
          </g>
          <g transform="translate(0.0 184.0 ) ">
            <g>
              <g transform="translate(1.0 1.0 ) ">
                <g>
                  <line x1="0.0" y1="10.5" x2="21.0" y2="10.5" stroke="rgb(153,153,153)" stroke-opacity="1.0" fill="rgb(255,255,255)" fill-opacity="1.0" stroke-width="1.6500000000000001">
                  </line>
                </g>
                <g>
                  <line x1="0.0" y1="10.5" x2="21.0" y2="10.5" stroke="rgb(153,153,153)" stroke-opacity="1.0" fill="rgb(255,255,255)" fill-opacity="1.0" stroke-width="1.6500000000000001">
                  </line>
                </g>
              </g>
            </g>
            <g transform="translate(26.9903027277341 16.05 ) ">
              <text class="legend-item" y="0.0">
                <tspan>8</tspan>
              </text>
            </g>
          </g>
          <g transform="translate(0.0 207.0 ) ">
            <g>
              <g transform="translate(1.0 1.0 ) ">
                <g>
                  <line x1="0.0" y1="10.5" x2="21.0" y2="10.5" stroke="rgb(155,196,172)" stroke-opacity="1.0" fill="rgb(255,255,255)" fill-opacity="1.0" stroke-width="1.6500000000000001">
                  </line>
                </g>
                <g>
                  <line x1="0.0" y1="10.5" x2="21.0" y2="10.5" stroke="rgb(155,196,172)" stroke-opacity="1.0" fill="rgb(255,255,255)" fill-opacity="1.0" stroke-width="1.6500000000000001">
                  </line>
                </g>
              </g>
            </g>
            <g transform="translate(26.9903027277341 16.05 ) ">
              <text class="legend-item" y="0.0">
                <tspan>9</tspan>
              </text>
            </g>
          </g>
        </g>
      </g>
    </g>
    <path fill="rgb(0,0,0)" fill-opacity="0.0" stroke="rgb(71,71,71)" stroke-opacity="1.0" stroke-width="0.0" d="M0.0 0.0 L0.0 600.0 L1000.0 600.0 L1000.0 0.0 Z" pointer-events="none">
    </path>
  </g>
  <g id="dgIHD5X">
  </g>
</svg>